<svg width="427" height="42" viewBox="0 0 427 42" fill="none" xmlns="http://www.w3.org/2000/svg">
<path d="M22.9 3.40001C23 3.50001 23.1 3.49996 23.2 3.59996C23.5 3.79996 23.8 3.99994 24.1 4.19994L24.3 4.30003C24.8 4.70003 25.4 5.09998 25.9 5.49998C26.7 4.99998 27.6 4.49998 28.4 3.99998C28.7 3.79998 28.9 3.69996 29.2 3.59996C28.8 3.39996 28.3 3.19998 27.9 2.99998C27.5 2.79998 27.1 2.59998 26.7 2.49998C17.1 -1.60002 20.6 1.90001 22.9 3.40001Z" fill="#04542E"/>
<path d="M60.7 39.2C60.6 38.9 60.5 38.6 60.4 38.2H49.6C49.8 38.7 49.9 39.1 50.1 39.6C50.6 41 51.2 41.2 51.5 41.3H51.6H60.1C61.1 41.3 61 40.3 60.7 39.2Z" fill="#04542E"/>
<path d="M50.3 20.5C46 15.2 40.9 10.6 35.2 6.90002C34.6 7.40002 34 7.80005 33.4 8.30005L33 8.59998C32.4 9.09998 31.9 9.5 31.4 10C37 15.2 41.7 21.5 45.3 28.3H55.8C54.2 25.7 52.3 23 50.3 20.5Z" fill="#04542E"/>
<path d="M0.400033 39.3C0.100033 40.3 9.05991e-06 41.4 1.00001 41.4H9.50001H9.59998C9.89998 41.4 10.6 41.1 11 39.7V39.6C11.1 39.2 11.3 38.7 11.4 38.3H0.599985C0.599985 38.6 0.500033 38.9 0.400033 39.3Z" fill="#04542E"/>
<path d="M32.3 7.80001L32.7 7.49996C34 6.39996 35.4 5.29999 36.8 4.39999L37 4.30001C37.3 4.10001 37.6 3.89991 37.9 3.69991C38 3.59991 38.1 3.59996 38.2 3.49996C40.5 1.89996 44.1 -1.50004 34.3 2.49996C33.9 2.69996 33.5 2.89996 33.1 2.99996C31.7 3.59996 30.4 4.29994 29 5.09994C22 8.99994 15.8 14.2 10.7 20.5C8.70001 23 6.89999 25.7 5.29999 28.5H15.8C19.9 20.5 25.6 13.4 32.3 7.80001Z" fill="#04542E"/>
<path d="M49.7 36.2C49.6 35.5 49.1 35 48.5 35C48.4 35 48.4 35.1 48.4 35.1C48.5 35.8 49 36.3 49.6 36.3C49.7 36.3 49.7 36.2 49.7 36.2Z" fill="#04542E"/>
<path d="M50 36.3C50.7 36.2 51.2 35.7 51.2 35.1C51.2 35 51.1 35 51.1 35C50.4 35.1 49.9 35.6 49.9 36.2L50 36.3Z" fill="#04542E"/>
<path d="M49.6 36.4C49.4 36.4 49.2 36.5 49.1 36.6C49 36.6 49 36.8 49 36.9C49.1 37.1 49.2 37.3 49.2 37.5C49.5 37.3 49.7 36.9 49.7 36.6C49.7 36.5 49.7 36.4 49.6 36.4Z" fill="#04542E"/>
<path d="M51.1 37.8C51.2 37.8 51.2 37.7 51.2 37.7C51.1 37 50.6 36.5 50 36.5C49.9 36.5 49.9 36.6 49.9 36.6C50 37.2 50.5 37.7 51.1 37.8Z" fill="#04542E"/>
<path d="M51.6 36.4C51.6 36.3 51.5 36.1 51.3 36.1C51.2 36.1 51 36.2 51 36.4C51 36.5 51.1 36.7 51.3 36.7C51.5 36.6 51.6 36.5 51.6 36.4Z" fill="#04542E"/>
<path d="M51.5 34.9C51.4 34.9 51.4 35 51.4 35C51.5 35.7 52 36.2 52.6 36.2C52.7 36.2 52.7 36.1 52.7 36.1C52.7 35.5 52.2 35 51.5 34.9Z" fill="#04542E"/>
<path d="M53 36.3C53.7 36.2 54.2 35.7 54.2 35.1C54.2 35 54.1 35 54.1 35C53.4 35.1 52.9 35.6 52.9 36.2L53 36.3Z" fill="#04542E"/>
<path d="M51.5 37.8C52.2 37.7 52.7 37.2 52.7 36.6C52.7 36.5 52.6 36.5 52.6 36.5C51.9 36.6 51.4 37.1 51.4 37.7L51.5 37.8Z" fill="#04542E"/>
<path d="M54.2 37.8C54.3 37.8 54.3 37.7 54.3 37.7C54.2 37 53.7 36.5 53.1 36.5C53 36.5 53 36.6 53 36.6C53 37.2 53.5 37.7 54.2 37.8Z" fill="#04542E"/>
<path d="M54.6 36.4C54.6 36.3 54.5 36.1 54.3 36.1C54.1 36.1 54 36.2 54 36.4C54 36.5 54.1 36.7 54.3 36.7C54.5 36.7 54.6 36.5 54.6 36.4Z" fill="#04542E"/>
<path d="M54.6 34.9C54.5 34.9 54.5 35 54.5 35C54.6 35.7 55.1 36.2 55.7 36.2C55.8 36.2 55.8 36.1 55.8 36.1C55.7 35.5 55.2 35 54.6 34.9Z" fill="#04542E"/>
<path d="M56.1 36.3C56.8 36.2 57.3 35.7 57.3 35.1C57.3 35 57.2 35 57.2 35C56.5 35.1 56 35.6 56 36.2C55.9 36.2 56 36.3 56.1 36.3Z" fill="#04542E"/>
<path d="M54.6 37.8C55.3 37.7 55.8 37.2 55.8 36.6C55.8 36.5 55.7 36.5 55.7 36.5C55 36.6 54.5 37.1 54.5 37.7C54.4 37.7 54.5 37.8 54.6 37.8Z" fill="#04542E"/>
<path d="M57.2 37.8C57.3 37.8 57.3 37.7 57.3 37.7C57.2 37 56.7 36.5 56.1 36.5C56 36.5 56 36.6 56 36.6C56 37.2 56.5 37.7 57.2 37.8Z" fill="#04542E"/>
<path d="M57.4 36.1C57.3 36.1 57.1 36.2 57.1 36.4C57.1 36.5 57.2 36.7 57.4 36.7C57.6 36.7 57.7 36.6 57.7 36.4C57.6 36.2 57.5 36.1 57.4 36.1Z" fill="#04542E"/>
<path d="M57.6 34.9C57.5 34.9 57.5 35 57.5 35C57.6 35.7 58.1 36.2 58.7 36.2C58.8 36.2 58.8 36.1 58.8 36.1C58.8 35.5 58.2 35 57.6 34.9Z" fill="#04542E"/>
<path d="M57.6 37.8C58.3 37.7 58.8 37.2 58.8 36.6C58.8 36.5 58.7 36.5 58.7 36.5C58 36.6 57.5 37.1 57.5 37.7C57.5 37.7 57.5 37.8 57.6 37.8Z" fill="#04542E"/>
<path d="M60.1 37.8C60 37.5 59.8 37.1 59.7 36.8C59.7 36.8 59.7 36.7 59.6 36.7C59.4 36.6 59.2 36.5 59 36.5C58.9 36.5 58.9 36.6 58.9 36.6C59 37.2 59.5 37.7 60.1 37.8Z" fill="#04542E"/>
<path d="M48.6 33.3C48.6 33.2 48.5 33 48.3 33C48.2 33 48 33.1 48 33.3C48 33.5 48.1 33.6 48.3 33.6C48.5 33.6 48.6 33.5 48.6 33.3Z" fill="#04542E"/>
<path d="M48.5 31.9C48.4 31.9 48.4 32 48.4 32C48.5 32.7 49 33.2 49.6 33.2C49.7 33.2 49.7 33.1 49.7 33.1C49.7 32.5 49.2 32 48.5 31.9Z" fill="#04542E"/>
<path d="M50 33.3C50.7 33.2 51.2 32.7 51.2 32.1C51.2 32 51.1 32 51.1 32C50.4 32.1 49.9 32.6 49.9 33.2L50 33.3Z" fill="#04542E"/>
<path d="M49.6 33.4C48.9 33.5 48.4 34 48.4 34.6C48.4 34.7 48.5 34.7 48.5 34.7C49.2 34.6 49.7 34.1 49.7 33.5C49.7 33.5 49.7 33.4 49.6 33.4Z" fill="#04542E"/>
<path d="M51.1 34.8C51.2 34.8 51.2 34.7 51.2 34.7C51.1 34 50.6 33.5 50 33.5C49.9 33.5 49.9 33.6 49.9 33.6C50 34.2 50.5 34.7 51.1 34.8Z" fill="#04542E"/>
<path d="M51.1 33.3C51.1 33.4 51.2 33.6 51.4 33.6C51.5 33.6 51.7 33.5 51.7 33.3C51.7 33.1 51.6 33 51.4 33C51.2 33.1 51.1 33.2 51.1 33.3Z" fill="#04542E"/>
<path d="M51.5 31.9C51.4 31.9 51.4 32 51.4 32C51.5 32.7 52 33.2 52.6 33.2C52.7 33.2 52.7 33.1 52.7 33.1C52.7 32.5 52.2 32 51.5 31.9Z" fill="#04542E"/>
<path d="M53 33.3C53.7 33.2 54.2 32.7 54.2 32.1C54.2 32 54.1 32 54.1 32C53.4 32.1 52.9 32.6 52.9 33.2L53 33.3Z" fill="#04542E"/>
<path d="M52.7 33.4C52 33.5 51.5 34 51.5 34.6C51.5 34.7 51.6 34.7 51.6 34.7C52.3 34.6 52.8 34.1 52.8 33.5L52.7 33.4Z" fill="#04542E"/>
<path d="M54.2 34.8C54.3 34.8 54.3 34.7 54.3 34.7C54.2 34 53.7 33.5 53.1 33.5C53 33.5 53 33.6 53 33.6C53 34.2 53.5 34.7 54.2 34.8Z" fill="#04542E"/>
<path d="M54.1 33.3C54.1 33.4 54.2 33.6 54.4 33.6C54.6 33.6 54.7 33.5 54.7 33.3C54.7 33.1 54.6 33 54.4 33C54.2 33 54.1 33.2 54.1 33.3Z" fill="#04542E"/>
<path d="M54.6 31.9C54.5 31.9 54.5 32 54.5 32C54.6 32.7 55.1 33.2 55.7 33.2C55.8 33.2 55.8 33.1 55.8 33.1C55.7 32.5 55.2 32 54.6 31.9Z" fill="#04542E"/>
<path d="M56.1 33.3C56.8 33.2 57.3 32.7 57.3 32.1C57.3 32 57.2 32 57.2 32C56.5 32.1 56 32.6 56 33.2C55.9 33.2 56 33.3 56.1 33.3Z" fill="#04542E"/>
<path d="M55.7 33.4C55 33.5 54.5 34 54.5 34.6C54.5 34.7 54.6 34.7 54.6 34.7C55.3 34.6 55.8 34.1 55.8 33.5L55.7 33.4Z" fill="#04542E"/>
<path d="M57.2 34.8C57.3 34.8 57.3 34.7 57.3 34.7C57.2 34 56.7 33.5 56.1 33.5C56 33.5 56 33.6 56 33.6C56 34.2 56.5 34.7 57.2 34.8Z" fill="#04542E"/>
<path d="M57.1 33.3C57.1 33.4 57.2 33.6 57.4 33.6C57.6 33.6 57.7 33.5 57.7 33.3C57.7 33.1 57.6 33 57.4 33C57.2 33 57.1 33.2 57.1 33.3Z" fill="#04542E"/>
<path d="M57.6 34.8C58 34.8 58.4 34.5 58.6 34.2V34.1C58.5 34 58.5 33.8 58.4 33.7C58.4 33.6 58.3 33.6 58.2 33.6C57.8 33.8 57.5 34.2 57.4 34.7C57.5 34.7 57.5 34.8 57.6 34.8Z" fill="#04542E"/>
<path d="M48.1 28.9C47.4 29 46.9 29.5 46.9 30.1C46.9 30.2 47 30.2 47 30.2C47.7 30.1 48.2 29.6 48.2 29C48.2 28.9 48.2 28.9 48.1 28.9Z" fill="#04542E"/>
<path d="M48.2 31.6C48.1 30.9 47.6 30.4 47 30.4C46.9 30.4 46.9 30.5 46.9 30.5C47 31.2 47.5 31.7 48.1 31.7C48.2 31.7 48.2 31.7 48.2 31.6Z" fill="#04542E"/>
<path d="M48.3 30.6C48.4 30.6 48.6 30.5 48.6 30.3C48.6 30.1 48.5 30 48.3 30C48.2 30 48 30.1 48 30.3C48 30.5 48.2 30.6 48.3 30.6Z" fill="#04542E"/>
<path d="M48.5 28.9C48.4 28.9 48.4 29 48.4 29C48.5 29.7 49 30.2 49.6 30.2C49.7 30.2 49.7 30.1 49.7 30.1C49.7 29.5 49.2 28.9 48.5 28.9Z" fill="#04542E"/>
<path d="M51.1 28.9C50.4 29 49.9 29.5 49.9 30.1C49.9 30.2 50 30.2 50 30.2C50.7 30.1 51.2 29.6 51.2 29C51.3 28.9 51.2 28.9 51.1 28.9Z" fill="#04542E"/>
<path d="M49.6 30.4C48.9 30.5 48.4 31 48.4 31.6C48.4 31.7 48.5 31.7 48.5 31.7C49.2 31.6 49.7 31.1 49.7 30.5C49.7 30.5 49.7 30.4 49.6 30.4Z" fill="#04542E"/>
<path d="M51.1 31.7C51.2 31.7 51.2 31.6 51.2 31.6C51.1 30.9 50.6 30.4 50 30.4C49.9 30.4 49.9 30.5 49.9 30.5C50 31.2 50.5 31.7 51.1 31.7Z" fill="#04542E"/>
<path d="M51.6 30.3C51.6 30.2 51.5 30 51.3 30C51.2 30 51 30.1 51 30.3C51 30.5 51.1 30.6 51.3 30.6C51.5 30.6 51.6 30.5 51.6 30.3Z" fill="#04542E"/>
<path d="M51.5 28.9C51.4 28.9 51.4 29 51.4 29C51.5 29.7 52 30.2 52.6 30.2C52.7 30.2 52.7 30.1 52.7 30.1C52.7 29.5 52.2 28.9 51.5 28.9Z" fill="#04542E"/>
<path d="M54.2 28.9C53.5 29 53 29.5 53 30.1C53 30.2 53.1 30.2 53.1 30.2C53.8 30.1 54.3 29.6 54.3 29C54.3 28.9 54.2 28.9 54.2 28.9Z" fill="#04542E"/>
<path d="M52.7 30.4C52 30.5 51.5 31 51.5 31.6C51.5 31.7 51.6 31.7 51.6 31.7C52.3 31.6 52.8 31.1 52.8 30.5L52.7 30.4Z" fill="#04542E"/>
<path d="M54.2 31.7C54.3 31.7 54.3 31.6 54.3 31.6C54.2 30.9 53.7 30.4 53.1 30.4C53 30.4 53 30.5 53 30.5C53 31.2 53.5 31.7 54.2 31.7Z" fill="#04542E"/>
<path d="M54.6 30.3C54.6 30.2 54.5 30 54.3 30C54.1 30 54 30.1 54 30.3C54 30.5 54.1 30.6 54.3 30.6C54.5 30.6 54.6 30.5 54.6 30.3Z" fill="#04542E"/>
<path d="M54.6 28.9C54.5 28.9 54.5 29 54.5 29C54.6 29.7 55.1 30.2 55.7 30.2C55.8 30.2 55.8 30.1 55.8 30.1C55.7 29.5 55.2 28.9 54.6 28.9Z" fill="#04542E"/>
<path d="M55.7 30.4C55 30.5 54.5 31 54.5 31.6C54.5 31.7 54.6 31.7 54.6 31.7C55.3 31.6 55.8 31.1 55.8 30.5L55.7 30.4Z" fill="#04542E"/>
<path d="M57.2 31.7C57.3 31.7 57.3 31.6 57.3 31.6C57.2 30.9 56.7 30.4 56.1 30.4C56 30.4 56 30.5 56 30.5C56 31.2 56.5 31.7 57.2 31.7Z" fill="#04542E"/>
<path d="M12.5 34.9C11.8 35 11.3 35.5 11.3 36.1C11.3 36.2 11.4 36.2 11.4 36.2C12.1 36.1 12.6 35.6 12.6 35C12.7 35 12.6 34.9 12.5 34.9Z" fill="#04542E"/>
<path d="M9.90002 34.9C9.80002 34.9 9.79999 35 9.79999 35C9.89999 35.7 10.4 36.2 11 36.2C11.1 36.2 11.1 36.1 11.1 36.1C11.1 35.5 10.6 35 9.90002 34.9Z" fill="#04542E"/>
<path d="M11.3 36.6C11.3 37 11.5 37.3 11.8 37.5C11.9 37.3 12 37.1001 12 36.9001C12 36.8001 12 36.7 11.9 36.7C11.7 36.6 11.5 36.5 11.3 36.5C11.4 36.4 11.3 36.5 11.3 36.6Z" fill="#04542E"/>
<path d="M9.90002 37.8C10.6 37.7 11.1 37.2 11.1 36.6C11.1 36.5 11 36.5 11 36.5C10.3 36.6 9.79999 37.1 9.79999 37.7L9.90002 37.8Z" fill="#04542E"/>
<path d="M9.5 36.4C9.5 36.5 9.59999 36.7 9.79999 36.7C9.89999 36.7 10.1 36.6 10.1 36.4C10.1 36.3 9.99999 36.1 9.79999 36.1C9.59999 36.1 9.5 36.2 9.5 36.4Z" fill="#04542E"/>
<path d="M8.40002 36.3C9.10002 36.2 9.59998 35.7 9.59998 35.1C9.59998 35 9.5 35 9.5 35C8.8 35.1 8.29999 35.6 8.29999 36.2C8.29999 36.2 8.30002 36.3 8.40002 36.3Z" fill="#04542E"/>
<path d="M6.90002 34.9C6.80002 34.9 6.79999 35 6.79999 35C6.89999 35.7 7.4 36.2 8 36.2C8.1 36.2 8.09998 36.1 8.09998 36.1C8.09998 35.5 7.50002 35 6.90002 34.9Z" fill="#04542E"/>
<path d="M9.5 37.8C9.6 37.8 9.59998 37.7 9.59998 37.7C9.49998 37 9.00002 36.5 8.40002 36.5C8.30002 36.5 8.29999 36.6 8.29999 36.6C8.29999 37.2 8.9 37.7 9.5 37.8Z" fill="#04542E"/>
<path d="M6.90002 37.8C7.60002 37.7 8.09998 37.2 8.09998 36.6C8.09998 36.5 8 36.5 8 36.5C7.3 36.6 6.79999 37.1 6.79999 37.7C6.79999 37.7 6.80002 37.8 6.90002 37.8Z" fill="#04542E"/>
<path d="M6.40002 36.4C6.40002 36.5 6.50001 36.7 6.70001 36.7C6.90001 36.7 7 36.6 7 36.4C7 36.3 6.90001 36.1 6.70001 36.1C6.50001 36.1 6.40002 36.2 6.40002 36.4Z" fill="#04542E"/>
<path d="M5.40002 36.3C6.10002 36.2 6.59998 35.7 6.59998 35.1C6.59998 35 6.5 35 6.5 35C5.8 35.1 5.29999 35.6 5.29999 36.2C5.29999 36.2 5.30002 36.3 5.40002 36.3Z" fill="#04542E"/>
<path d="M3.90002 34.9C3.80002 34.9 3.79999 35 3.79999 35C3.89999 35.7 4.4 36.2 5 36.2C5.1 36.2 5.09998 36.1 5.09998 36.1C4.99998 35.5 4.50002 35 3.90002 34.9Z" fill="#04542E"/>
<path d="M6.5 37.8C6.6 37.8 6.59998 37.7 6.59998 37.7C6.49998 37 6.00002 36.5 5.40002 36.5C5.30002 36.5 5.29999 36.6 5.29999 36.6C5.29999 37.2 5.8 37.7 6.5 37.8Z" fill="#04542E"/>
<path d="M3.9 37.8C4.6 37.7 5.09995 37.2 5.09995 36.6C5.09995 36.5 4.99997 36.5 4.99997 36.5C4.29997 36.6 3.79996 37.1 3.79996 37.7C3.69996 37.7 3.8 37.8 3.9 37.8Z" fill="#04542E"/>
<path d="M3.70001 36.1C3.60001 36.1 3.40002 36.2 3.40002 36.4C3.40002 36.5 3.50001 36.7 3.70001 36.7C3.80001 36.7 4 36.6 4 36.4C3.9 36.2 3.80001 36.1 3.70001 36.1Z" fill="#04542E"/>
<path d="M2.4 36.3C3.1 36.2 3.59995 35.7 3.59995 35.1C3.59995 35 3.49997 35 3.49997 35C2.79997 35.1 2.29996 35.6 2.29996 36.2C2.19996 36.2 2.3 36.3 2.4 36.3Z" fill="#04542E"/>
<path d="M3.5 37.8C3.6 37.8 3.59998 37.7 3.59998 37.7C3.49998 37 3.00002 36.5 2.40002 36.5C2.30002 36.5 2.29999 36.6 2.29999 36.6C2.29999 37.2 2.8 37.7 3.5 37.8Z" fill="#04542E"/>
<path d="M2.09998 36.6C2.09998 36.5 2 36.5 2 36.5C1.8 36.5 1.6 36.6 1.5 36.7L1.40002 36.8C1.30002 37.1 1.1 37.5 1 37.9C1.5 37.7 1.99998 37.2 2.09998 36.6Z" fill="#04542E"/>
<path d="M12.7 33.1C12.6 33.1 12.4 33.2 12.4 33.4C12.4 33.6 12.5 33.7 12.7 33.7C12.8 33.7 13 33.6 13 33.4C13 33.2 12.9 33.1 12.7 33.1Z" fill="#04542E"/>
<path d="M11.4 33.3C12.1 33.2 12.6 32.7 12.6 32.1C12.6 32 12.5 32 12.5 32C11.8 32.1 11.3 32.6 11.3 33.2L11.4 33.3Z" fill="#04542E"/>
<path d="M9.90002 31.9C9.80002 31.9 9.79999 32 9.79999 32C9.89999 32.7 10.4 33.2 11 33.2C11.1 33.2 11.1 33.1 11.1 33.1C11.1 32.5 10.6 32 9.90002 31.9Z" fill="#04542E"/>
<path d="M11.4 33.4C11.3 33.4 11.3 33.5 11.3 33.5C11.4 34.2 11.9 34.7 12.5 34.7C12.6 34.7 12.6 34.6 12.6 34.6C12.6 34 12.1 33.5 11.4 33.4Z" fill="#04542E"/>
<path d="M11 33.4C10.3 33.5 9.79999 34 9.79999 34.6C9.79999 34.7 9.90002 34.7 9.90002 34.7C10.6 34.6 11.1 34.1 11.1 33.5C11.2 33.5 11.1 33.4 11 33.4Z" fill="#04542E"/>
<path d="M10 33.3C10 33.2 9.90001 33 9.70001 33C9.60001 33 9.40002 33.1 9.40002 33.3C9.40002 33.5 9.50001 33.6 9.70001 33.6C9.90001 33.6 10 33.5 10 33.3Z" fill="#04542E"/>
<path d="M8.40002 33.3C9.10002 33.2 9.59998 32.7 9.59998 32.1C9.59998 32 9.5 32 9.5 32C8.8 32.1 8.29999 32.6 8.29999 33.2C8.29999 33.2 8.30002 33.3 8.40002 33.3Z" fill="#04542E"/>
<path d="M6.90002 31.9C6.80002 31.9 6.79999 32 6.79999 32C6.89999 32.7 7.4 33.2 8 33.2C8.1 33.2 8.09998 33.1 8.09998 33.1C8.09998 32.5 7.50002 32 6.90002 31.9Z" fill="#04542E"/>
<path d="M9.5 34.8C9.6 34.8 9.59998 34.7 9.59998 34.7C9.49998 34 9.00002 33.5 8.40002 33.5C8.30002 33.5 8.29999 33.6 8.29999 33.6C8.29999 34.2 8.9 34.7 9.5 34.8Z" fill="#04542E"/>
<path d="M8 33.4C7.3 33.5 6.79999 34 6.79999 34.6C6.79999 34.7 6.90002 34.7 6.90002 34.7C7.60002 34.6 8.09998 34.1 8.09998 33.5C8.09998 33.5 8.1 33.4 8 33.4Z" fill="#04542E"/>
<path d="M6.90002 33.3C6.90002 33.2 6.79998 33 6.59998 33C6.39998 33 6.29999 33.1 6.29999 33.3C6.29999 33.5 6.39998 33.6 6.59998 33.6C6.79998 33.6 6.90002 33.5 6.90002 33.3Z" fill="#04542E"/>
<path d="M5.40002 33.3C6.10002 33.2 6.59998 32.7 6.59998 32.1C6.59998 32 6.5 32 6.5 32C5.8 32.1 5.29999 32.6 5.29999 33.2C5.29999 33.2 5.30002 33.3 5.40002 33.3Z" fill="#04542E"/>
<path d="M5 33.3C5.1 33.3 5.09998 33.2 5.09998 33.2C4.99998 32.5 4.50002 32 3.90002 32C3.80002 32 3.79999 32.1 3.79999 32.1C3.79999 32.7 4.3 33.2 5 33.3Z" fill="#04542E"/>
<path d="M6.5 34.8C6.6 34.8 6.59998 34.7 6.59998 34.7C6.49998 34 6.00002 33.5 5.40002 33.5C5.30002 33.5 5.29999 33.6 5.29999 33.6C5.29999 34.2 5.8 34.7 6.5 34.8Z" fill="#04542E"/>
<path d="M5 33.4C4.3 33.5 3.79999 34 3.79999 34.6C3.79999 34.7 3.90002 34.7 3.90002 34.7C4.60002 34.6 5.09998 34.1 5.09998 33.5L5 33.4Z" fill="#04542E"/>
<path d="M3.70001 33.6C3.80001 33.6 4 33.5 4 33.3C4 33.1 3.90001 33 3.70001 33C3.60001 33 3.40002 33.1 3.40002 33.3C3.40002 33.5 3.50001 33.6 3.70001 33.6Z" fill="#04542E"/>
<path d="M3.5 34.8C3.6 34.8 3.59998 34.7 3.59998 34.7C3.59998 34.2 3.29999 33.8 2.79999 33.6C2.69999 33.6 2.69998 33.6 2.59998 33.7C2.49998 33.8 2.50002 34 2.40002 34.1V34.2C2.70002 34.5 3.1 34.7 3.5 34.8Z" fill="#04542E"/>
<path d="M12.9 28.9C12.8 28.9 12.8 29 12.8 29C12.9 29.7 13.4 30.2 14 30.2C14.1 30.2 14.1 30.1 14.1 30.1C14.1 29.5 13.6 28.9 12.9 28.9Z" fill="#04542E"/>
<path d="M14.1 30.4C13.4 30.5 12.9 31 12.9 31.6C12.9 31.7 13 31.7 13 31.7C13.7 31.6 14.2 31.1 14.2 30.5L14.1 30.4Z" fill="#04542E"/>
<path d="M12.7 30.6C12.8 30.6 13 30.5 13 30.3C13 30.1 12.9 30 12.7 30C12.6 30 12.4 30.1 12.4 30.3C12.4 30.5 12.6 30.6 12.7 30.6Z" fill="#04542E"/>
<path d="M12.5 28.9C11.8 29 11.3 29.5 11.3 30.1C11.3 30.2 11.4 30.2 11.4 30.2C12.1 30.1 12.6 29.6 12.6 29C12.7 28.9 12.6 28.9 12.5 28.9Z" fill="#04542E"/>
<path d="M9.90002 28.9C9.80002 28.9 9.79999 29 9.79999 29C9.89999 29.7 10.4 30.2 11 30.2C11.1 30.2 11.1 30.1 11.1 30.1C11.1 29.5 10.6 28.9 9.90002 28.9Z" fill="#04542E"/>
<path d="M12.5 31.7C12.6 31.7 12.6 31.6 12.6 31.6C12.5 30.9 12 30.4 11.4 30.4C11.3 30.4 11.3 30.5 11.3 30.5C11.4 31.2 11.9 31.7 12.5 31.7Z" fill="#04542E"/>
<path d="M11 30.4C10.3 30.5 9.79999 31 9.79999 31.6C9.79999 31.7 9.90002 31.7 9.90002 31.7C10.6 31.6 11.1 31.1 11.1 30.5C11.2 30.5 11.1 30.4 11 30.4Z" fill="#04542E"/>
<path d="M9.5 30.3C9.5 30.4 9.59999 30.6 9.79999 30.6C9.89999 30.6 10.1 30.5 10.1 30.3C10.1 30.1 9.99999 30 9.79999 30C9.59999 30.1 9.5 30.2 9.5 30.3Z" fill="#04542E"/>
<path d="M9.5 28.9C8.8 29 8.29999 29.5 8.29999 30.1C8.29999 30.2 8.40002 30.2 8.40002 30.2C9.10002 30.1 9.59998 29.6 9.59998 29C9.59998 28.9 9.6 28.9 9.5 28.9Z" fill="#04542E"/>
<path d="M6.90002 28.9C6.80002 28.9 6.79999 29 6.79999 29C6.89999 29.7 7.4 30.2 8 30.2C8.1 30.2 8.09998 30.1 8.09998 30.1C8.09998 29.5 7.50002 28.9 6.90002 28.9Z" fill="#04542E"/>
<path d="M9.5 31.7C9.6 31.7 9.59998 31.6 9.59998 31.6C9.49998 30.9 9.00002 30.4 8.40002 30.4C8.30002 30.4 8.29999 30.5 8.29999 30.5C8.29999 31.2 8.9 31.7 9.5 31.7Z" fill="#04542E"/>
<path d="M8 30.4C7.3 30.5 6.79999 31 6.79999 31.6C6.79999 31.7 6.90002 31.7 6.90002 31.7C7.60002 31.6 8.09998 31.1 8.09998 30.5C8.09998 30.5 8.1 30.4 8 30.4Z" fill="#04542E"/>
<path d="M6.70001 30.6C6.8657 30.6 7 30.4657 7 30.3C7 30.1344 6.8657 30 6.70001 30C6.53433 30 6.40002 30.1344 6.40002 30.3C6.40002 30.4657 6.53433 30.6 6.70001 30.6Z" fill="#04542E"/>
<path d="M6.5 28.9C5.8 29 5.29999 29.5 5.29999 30.1C5.29999 30.2 5.40002 30.2 5.40002 30.2C6.10002 30.1 6.59998 29.6 6.59998 29C6.59998 28.9 6.6 28.9 6.5 28.9Z" fill="#04542E"/>
<path d="M6.5 31.7C6.6 31.7 6.59998 31.6 6.59998 31.6C6.49998 30.9 6.00002 30.4 5.40002 30.4C5.30002 30.4 5.29999 30.5 5.29999 30.5C5.29999 31.2 5.8 31.7 6.5 31.7Z" fill="#04542E"/>
<path d="M3.9 31.7C4.6 31.6 5.09995 31.1 5.09995 30.5C5.09995 30.4 4.99997 30.4 4.99997 30.4C4.29997 30.5 3.79996 31 3.79996 31.6C3.69996 31.7 3.8 31.7 3.9 31.7Z" fill="#04542E"/>
<path d="M76.2 16C76.1 21.1 76.2 29.1 76.3 30.5C76.3 30.9 76.7 31 78.1 31C79.1 31 81.5 31 81.8 30.6L81.9 30.5V30.4C82 29.4 82 22.5 81.9 16.9V16H82.7C84.5 15.9 85.9 15.9 86.4 15.8C86.8 15.7 86.8 15.3 86.8 14.9C86.8 14.3 86.8 13.4 86.8 12.7C86.7 11.3 86.6 11 86.2 10.9C86.1 10.9 85.8 10.8 83.8 10.8C81.4 10.8 72 11 71.5 11.2H71.4V11.3C71.1 11.7 71.2 15 71.4 15.7L71.5 16H71.8C72.1 16 72.8 16.1 73.8 16.1C74.5 16.1 75.4 16 76.2 16Z" fill="#04542E"/>
<path d="M86.7 30.4L86.9 30.6C87.4 31 91.4 31.2 92 31.2C92.3 31.2 92.4 31.2 92.5 31.1V31C92.6 30.8 92.8 30.1 93.5 27.8C93.6 27.6 93.6 27.3 93.7 27.1C94 27.1 94.3 27.1 94.7 27.1C95.6 27.1 96.7 27.1 97.6 27.1C98.2 27.1 98.6 27.1 98.9 27.1C99.3 28.2 100.1 30.5 100.3 31V31.1L100.4 31.2C100.5 31.3 100.6 31.3 100.8 31.3C101.2 31.3 105.2 31.2 105.9 30.7L106.1 30.6V30.3C105.8 28.6 104.1 23.5 102.7 19.6C102 17.7 101.3 15.5 100.6 13.8C99.6 11.1 99.6 11.1 99.4 11C99.3 11 99.1 10.9 98 10.9C98 10.9 93.2 10.9 92.8 11.2C92.6 11.3 92.5 11.4 89.7 20.2C88.4 24.4 86.8 29.3 86.5 30.3L86.7 30.4ZM96.6 16.9C97 18.5 97.8 20.9 98.3 22.5C97.3 22.5 95.8 22.5 94.9 22.5C95.4 20.9 96.1 18.4 96.6 16.9Z" fill="#04542E"/>
<path d="M126.9 31.3C127.5 31.3 128.5 31.2 129.3 31.1C130.8 30.9 131.2 30.6 131.3 30.4L131.4 30.3V30.2C131.4 29.6 130.5 23.7 130 20.3C128.6 11.1 128.5 11 128.3 10.9H128.2C127.9 10.8 126.8 10.8 126.4 10.8C123.5 10.8 123.2 11.1 123.1 11.1C122.5 11.7 120.5 19.3 119.6 22.6C118.6 18.5 116.7 11.7 116.2 11L116.1 10.9H115.9C115.6 10.8 114.6 10.8 113.8 10.8C111.1 10.8 110.9 11.2 110.9 11.4C110.6 12.5 107.8 28.6 107.6 30.1C107.6 30.4 107.8 30.6 109.6 30.9C110.5 31 111.6 31.1 112.2 31.1C112.3 31.1 112.4 31.1 112.5 31.1H112.8L112.9 30.8C113.2 29.7 113.7 25.8 114.1 22.4C114.2 21.8 114.3 21.2 114.3 20.7C115.2 24.2 116.7 30.1 117 30.7C117.1 30.8 117.2 31 119.4 31C119.9 31 121.1 31 121.4 30.9L121.6 30.8L121.7 30.6C122.2 29 123.6 24.1 124.5 20.6C124.9 24.5 125.6 30.1 125.8 30.7C126.1 31.3 126.5 31.3 126.9 31.3Z" fill="#04542E"/>
<path d="M152.4 30.6L152.6 30.5V30.2C152.3 28.5 150.6 23.4 149.2 19.5C148.5 17.6 147.8 15.4 147.1 13.7C146.1 11 146.1 11 145.9 10.9C145.8 10.9 145.6 10.8 144.5 10.8C144.5 10.8 139.7 10.8 139.3 11.1C139.1 11.2 139 11.3 136.2 20.1C134.9 24.3 133.3 29.2 133 30.2L132.9 30.5L133.1 30.7C133.6 31.1 137.6 31.3 138.2 31.3C138.5 31.3 138.6 31.3 138.7 31.2V31.1C138.8 30.9 139 30.2 139.7 27.9C139.8 27.7 139.8 27.4 139.9 27.2C140.2 27.2 140.5 27.2 140.9 27.2C141.8 27.2 142.9 27.2 143.8 27.2C144.4 27.2 144.8 27.2 145.1 27.2C145.5 28.3 146.3 30.6 146.5 31.1V31.2L146.6 31.3C146.7 31.4 146.8 31.4 147 31.4C147.7 31.2 151.7 31.1 152.4 30.6ZM142.8 16.9C143.2 18.5 144 20.9 144.5 22.5C143.5 22.5 142 22.5 141.1 22.5C141.7 20.9 142.4 18.4 142.8 16.9Z" fill="#04542E"/>
<path d="M172.6 11.3C172.5 11.2 172.3 11 170.1 11C169.5 11 168.1 11 167.4 11.2L167.1 11.3V11.6C167 12.4 167.1 14.3 167.1 16.6C167.1 18.2 167.1 19.9 167.1 21.6C164.9 17.8 161.7 12.7 160.6 11.1L160.5 11C160.4 10.9 160.3 10.7 158.7 10.7C155.5 10.7 155.4 11.2 155.3 11.4C155.1 13.4 155.2 28.8 155.3 30.3C155.3 30.7 155.6 30.9 157.7 30.9C158.8 30.9 160.1 30.8 160.6 30.7L160.9 30.6V30.3C160.9 29.1 160.9 26.9 160.9 24.6C160.9 23.3 160.9 22 160.8 20.7C161.9 22.4 163 24.2 164.1 25.9C165.7 28.4 166.9 30.4 167.2 30.7H167.3C167.4 30.8 167.6 30.9 168.9 30.9C172.3 30.9 172.4 30.3 172.5 30.1C172.6 29.1 172.7 24.3 172.8 20C172.8 11.6 172.7 11.5 172.6 11.3Z" fill="#04542E"/>
<path d="M191.6 18.3C188.8 17.7 188.8 17.3 188.8 16.8C188.8 15.7 190.2 15.6 190.8 15.6C192.2 15.6 193.7 16 195.3 16.7L195.4 16.8H195.5C196.2 16.8 197.3 13.8 197.3 13.7C197.5 13 197.6 12.5 197.3 12.3C196.2 11.5 193.8 10.6 190.6 10.6C186.1 10.6 183 13.2 183 16.8C183 20.3 184.9 22.4 188.9 23.2C192.1 23.8 192.1 24.5 192.1 24.9C192.1 25.7 191.3 26.2 189.8 26.2C187.8 26.2 186 25 185.2 24.5C185.1 24.4 185 24.4 185 24.3H184.9H184.8C184.6 24.3 184.4 24.5 184.4 24.5C183.9 25.1 182.8 28 182.9 28.7V28.8L183 28.9C184.1 29.7 186.8 30.9 190 30.9C195.6 30.9 198.1 27.7 198.1 24.6C198.2 22.4 197.5 19.6 191.6 18.3Z" fill="#04542E"/>
<path d="M215.6 19.4C214.9 17.5 214.2 15.3 213.5 13.6C212.5 10.9 212.5 10.9 212.3 10.8C212.2 10.8 212 10.7 210.9 10.7C210.9 10.7 206.1 10.7 205.7 11C205.5 11.1 205.4 11.2 202.6 20C201.3 24.2 199.7 29.1 199.4 30.1L199.3 30.4L199.5 30.6C200 31 204 31.2 204.6 31.2C204.9 31.2 205 31.2 205.1 31.1V31C205.2 30.8 205.5 30.1 206.1 27.8C206.2 27.6 206.2 27.3 206.3 27.1C206.6 27.1 206.9 27.1 207.3 27.1C208.2 27.1 209.3 27.1 210.2 27.1C210.8 27.1 211.2 27.1 211.5 27.1C211.9 28.2 212.7 30.5 212.9 31V31.1L213 31.2C213.1 31.3 213.2 31.3 213.4 31.3C213.8 31.3 217.8 31.2 218.5 30.7L218.7 30.6V30.3C218.7 28.5 217 23.4 215.6 19.4ZM209.3 16.8C209.7 18.4 210.5 20.8 211 22.4C210 22.4 208.5 22.4 207.6 22.4C208.1 20.9 208.8 18.4 209.3 16.8Z" fill="#04542E"/>
<path d="M235.6 11.1C235.4 10.9 235.2 10.8 230.1 10.8C226.7 10.8 222.7 10.9 222.1 11H221.8V11.3C221.7 13.3 221.9 29.6 222 30.6V30.7L222.1 30.8C222.2 30.9 222.3 31 223.8 31C227.3 31 227.5 30.7 227.5 30.5V30.4V30.3C227.5 29.5 227.5 26.8 227.5 24.6C228.4 24.6 229.5 24.6 230.5 24.6C231.5 24.6 232.3 24.6 232.9 24.6C233.9 24.6 234.3 24.6 234.3 24.1V24C234.5 20.5 234.2 20.3 234 20.1C233.8 19.9 231.8 19.8 228 19.8C227.8 19.8 227.6 19.8 227.4 19.8L227.3 15.8C228.7 15.8 230.9 15.9 232.7 15.9C234.2 15.9 235.1 15.9 235.4 15.8H235.7V15.5C235.9 14.7 236 11.8 235.6 11.1Z" fill="#04542E"/>
<path d="M252.2 19.4C251.5 17.5 250.8 15.3 250.1 13.6C249.1 10.9 249.1 10.9 248.9 10.8C248.8 10.8 248.6 10.7 247.5 10.7C247.5 10.7 242.7 10.7 242.3 11C242.1 11.1 242 11.2 239.2 20C237.9 24.2 236.3 29.1 236 30.1L235.9 30.4L236.1 30.6C236.6 31 240.6 31.2 241.2 31.2C241.5 31.2 241.6 31.2 241.7 31.1V31C241.8 30.8 242 30.1 242.7 27.8C242.8 27.6 242.8 27.3 242.9 27.1C243.2 27.1 243.5 27.1 243.9 27.1C244.8 27.1 245.9 27.1 246.8 27.1C247.4 27.1 247.8 27.1 248.1 27.1C248.5 28.2 249.3 30.5 249.5 31V31.1L249.6 31.2C249.7 31.3 249.8 31.3 250 31.3C250.4 31.3 254.4 31.2 255.1 30.7L255.3 30.6V30.3C255.3 28.5 253.6 23.4 252.2 19.4ZM245.9 16.8C246.3 18.4 247.1 20.8 247.6 22.4C246.6 22.4 245.1 22.4 244.2 22.4C244.7 20.9 245.5 18.4 245.9 16.8Z" fill="#04542E"/>
<path d="M270.9 23.4C273.1 22.3 274.1 20.5 274.1 17.9C274.1 13.3 271.1 10.8 265.4 10.8C263.3 10.8 260.3 10.9 258.9 11.1H258.6V11.4C258.4 13.3 258.2 29.2 258.4 30.6C258.5 31 258.8 31 260 31C260.7 31 263.3 31 263.7 30.8L263.9 30.7V30.5C264 29.9 264 27.6 264 25.7C264 25.3 264 24.8 264 24.5C264.3 24.5 264.7 24.5 265.1 24.5C265.2 24.5 265.2 24.5 265.3 24.5C266.7 26.4 268.2 28.6 269.1 30C270 31.3 270 31.3 270.2 31.3C271.1 31.3 274.4 30 274.8 29.4C275 29.2 275 29.1 273.6 26.9C273 26.2 272 24.8 270.9 23.4ZM265.8 20C265.3 20 264.7 20 264.2 20C264.2 19.8 264.2 19.5 264.2 19.2C264.2 18.2 264.2 16.8 264.2 16.1C264.7 16.1 265.2 16.1 265.6 16.1C268.1 16.1 268.4 17.2 268.4 18.2C268.4 19.6 267 20 265.8 20Z" fill="#04542E"/>
<path d="M283.5 11.2C283.3 11 283.1 10.8 280.8 10.8C280 10.8 278.7 10.8 278.1 11L277.9 11.1V11.4C277.7 14 277.8 28.5 277.9 30.6C277.9 30.9 278 31.1 280.9 31.1C283.2 31.1 283.5 30.8 283.6 30.5C283.8 28.6 283.8 12.5 283.6 11.3L283.5 11.2Z" fill="#04542E"/>
<path d="M413.2 17C412.9 18 412 21 411.6 22.3C412.3 22.3 414.1 22.3 415 22.3C414.5 20.9 413.6 18 413.4 17C413.2 17 413.2 17 413.2 17Z" fill="#8BC540"/>
<path d="M346.3 16.8C344.2 16.8 343 18.4 343 21C343 23.3 344.2 25.1 346.2 25.1C348.4 25.1 349.4 23.4 349.4 20.9C349.4 18.1 348.1 16.8 346.3 16.8Z" fill="#8BC540"/>
<path d="M328.9 17.1C328.4 17.1 328.1 17.1 327.8 17.1C327.8 19.4 327.8 22.5 327.7 24.8C328.1 24.9 328.5 24.9 329 24.9C330.6 24.9 332.7 24.4 332.7 21.1C332.8 18.7 331.2 17.1 328.9 17.1Z" fill="#8BC540"/>
<path d="M414.6 7.09998L403.4 8.40002L392.3 6.69995L381.2 6.30005L370.1 8.69995L359 7.90002L347.9 6.40002L336.8 6.5L325.7 7.19995L314.6 8.30005L303.5 6.80005L292.7 7.59998L293.5 20.7L292.2 34.2L303.5 33.8L314.7 35.3L325.8 33L336.9 35L348 33.6L359.1 34.4L370.2 32.7L381.3 33.6L392.4 34.3L403.5 33.9L414.6 33.7L425.3 33.5L426.1 20.5L426.2 6.69995L414.6 7.09998ZM303.7 28C303.6 28.4 300.1 28.2 300.1 28.1C300 26.7 300 15.9 300.1 13.9C300.7 13.7 303.6 13.7 303.7 13.9C303.9 14.7 303.9 26.7 303.7 28ZM320 27.9C319.9 28.3 316.9 28.3 316.7 28.2C316.3 27.7 313.4 22.9 311.4 19.9C311.4 22.8 311.5 26.5 311.5 28C310.8 28.2 308 28.2 308 28C307.9 26.8 307.8 15.4 308 14C308.1 13.6 311.2 13.6 311.3 13.8C311.5 14.1 315 19.4 316.7 22.6C316.7 19.3 316.6 15.2 316.7 14.1C317.4 13.9 320.1 14 320.2 14.1C320.3 14.1 320.2 26.5 320 27.9ZM328.7 28.2C327 28.2 324.7 28.1 324.3 27.9C324.2 26.7 324.3 15.3 324.4 13.8C324.9 13.7 327.2 13.6 328.8 13.6C333.5 13.6 336.4 16.7 336.4 20.8C336.6 25.2 334.3 28.2 328.7 28.2ZM346.3 28.4C342 28.4 339.3 25.3 339.3 20.8C339.3 17.1 341.6 13.5 346.3 13.5C350.6 13.5 353.3 16.4 353.3 21.1C353.2 24.7 351.1 28.4 346.3 28.4ZM368.8 27.9C368.7 28.3 365.7 28.3 365.5 28.2C365.1 27.7 362.2 22.9 360.2 19.9C360.2 22.8 360.3 26.5 360.3 28C359.6 28.2 356.8 28.2 356.8 28C356.7 26.8 356.6 15.4 356.8 14C356.9 13.6 360 13.6 360.1 13.8C360.3 14.1 363.8 19.4 365.5 22.6C365.5 19.3 365.4 15.2 365.5 14.1C366.2 13.9 368.9 14 369 14.1C369 14.1 369 26.5 368.8 27.9ZM382.8 16.9C382.2 17 378.2 17 376.5 16.9V19.4C378.3 19.4 381.1 19.4 381.2 19.5C381.4 19.7 381.3 22.3 381.3 22.4C381.3 22.5 378.4 22.5 376.5 22.4C376.5 23.3 376.5 24.3 376.5 25C378.3 25 381.9 24.9 382.5 25C382.7 25.7 382.6 27.7 382.5 28C382.7 28.1 374.6 28.1 373 28C372.9 26.4 373 16.5 373.1 13.8C375 13.7 382.5 13.6 382.7 13.7C382.9 14.2 382.9 16.2 382.8 16.9ZM390.6 28.1C388.3 28.1 386.3 27.2 385.6 26.7C385.5 26.3 386.5 23.7 386.7 23.8C387.2 24.1 388.7 25.2 390.4 25.2C391.6 25.2 392.4 24.8 392.4 24C392.4 23.4 391.9 22.9 389.8 22.4C387.1 21.9 385.7 20.6 385.7 18C385.7 15.7 387.6 13.7 391 13.7C393.1 13.7 395 14.3 395.7 14.9C396 15.1 394.7 17.7 394.5 17.7C394.2 17.6 392.7 16.8 391 16.8C389.8 16.8 389.2 17.3 389.2 18C389.2 18.6 389.5 19 391.5 19.4C394.1 20 396.1 21.1 396.1 23.8C396.2 25.9 394.5 28.1 390.6 28.1ZM403.1 28C403 28.4 399.5 28.2 399.5 28.1C399.4 26.7 399.4 15.9 399.5 13.9C400.1 13.7 403 13.7 403.1 13.9C403.3 14.7 403.3 26.7 403.1 28ZM416.4 28.2C416.2 27.8 415.6 25.9 415.3 25.2C414.8 25.2 411.7 25.2 411 25.2C410.8 26 410.2 28 410 28.2C409.9 28.3 406.5 28 406.2 27.9C406.6 26.4 410.5 14.1 410.7 13.9C410.9 13.8 414.8 13.7 415.3 13.8C415.4 13.8 419.6 25.6 420 27.9C419.7 28.1 416.5 28.2 416.4 28.2Z" fill="#8BC540"/>
</svg>
