<svg width="166" height="65" viewBox="0 0 166 65" fill="none" xmlns="http://www.w3.org/2000/svg">
<path d="M60.8073 34.3999V38.7999H59.9073V34.3999H60.8073Z" fill="#04542E"/>
<path d="M64.7073 35.5999C65.0073 35.8999 65.1073 36.2 65.1073 36.7V38.7999H64.2073V36.9C64.2073 36.6 64.1073 36.3999 64.0073 36.2999C63.9073 36.0999 63.7073 36.0999 63.4073 36.0999C63.2073 36.0999 63.0073 36.1999 62.8073 36.2999C62.7073 36.4999 62.6073 36.7 62.6073 36.9V38.7999H61.7073V35.2999H62.6073V35.7C62.7073 35.5 62.9073 35.3999 63.1073 35.2999C63.3073 35.1999 63.5073 35.2 63.7073 35.2C64.1073 35.2 64.4073 35.3999 64.7073 35.5999Z" fill="#04542E"/>
<path d="M67.0073 35.9999V37.6999C67.0073 37.7999 67.0073 37.8999 67.1073 37.9999C67.2073 38.0999 67.3073 38.0999 67.4073 38.0999H67.8073V38.8999H67.2073C66.4073 38.8999 66.1073 38.4999 66.1073 37.7999V35.9999H65.7073V35.2999H66.1073V34.3999H67.0073V35.2999H67.8073V35.9999H67.0073Z" fill="#04542E"/>
<path d="M71.7073 37.2999H69.1073C69.1073 37.5999 69.2073 37.8 69.4073 37.9C69.6073 38 69.8073 38.0999 70.0073 38.0999C70.3073 38.0999 70.6073 38 70.7073 37.7H71.7073C71.6073 38 71.4073 38.3 71.1073 38.5C70.8073 38.7 70.5073 38.7999 70.0073 38.7999C69.7073 38.7999 69.4073 38.6999 69.1073 38.5999C68.8073 38.3999 68.6073 38.2 68.5073 38C68.3073 37.7 68.3073 37.4 68.3073 37C68.3073 36.6 68.4073 36.3 68.5073 36C68.6073 35.7 68.9073 35.5 69.1073 35.4C69.4073 35.3 69.7073 35.2 70.0073 35.2C70.3073 35.2 70.6073 35.3 70.9073 35.4C71.2073 35.5 71.4073 35.7 71.5073 36C71.6073 36.3 71.7073 36.6 71.7073 36.9C71.7073 37.1 71.7073 37.1999 71.7073 37.2999ZM70.8073 36.7C70.8073 36.5 70.7073 36.2999 70.6073 36.0999C70.4073 35.9999 70.2073 35.9 70.0073 35.9C69.8073 35.9 69.6073 35.9999 69.4073 36.0999C69.2073 36.1999 69.2073 36.4 69.1073 36.7H70.8073Z" fill="#04542E"/>
<path d="M73.7073 35.4C73.9073 35.3 74.1073 35.2 74.3073 35.2V36.0999H74.1073C73.8073 36.0999 73.6073 36.1999 73.5073 36.2999C73.4073 36.3999 73.3073 36.7 73.3073 37V38.7999H72.4073V35.2999H73.3073V35.7999C73.3073 35.5999 73.5073 35.5 73.7073 35.4Z" fill="#04542E"/>
<path d="M77.9073 35.5999C78.2073 35.8999 78.3073 36.2 78.3073 36.7V38.7999H77.4073V36.9C77.4073 36.6 77.3073 36.3999 77.2073 36.2999C77.1073 36.0999 76.9073 36.0999 76.6073 36.0999C76.4073 36.0999 76.2073 36.1999 76.0073 36.2999C75.9073 36.4999 75.8073 36.7 75.8073 36.9V38.7999H74.9073V35.2999H75.8073V35.7C75.9073 35.5 76.1073 35.3999 76.3073 35.2999C76.5073 35.1999 76.7073 35.2 76.9073 35.2C77.3073 35.2 77.6073 35.3999 77.9073 35.5999Z" fill="#04542E"/>
<path d="M79.1073 36.0999C79.2073 35.7999 79.4073 35.5999 79.7073 35.4999C79.9073 35.3999 80.2073 35.2999 80.5073 35.2999C80.8073 35.2999 81.0073 35.3999 81.2073 35.4999C81.4073 35.5999 81.6073 35.6999 81.7073 35.8999V35.3999H82.6073V38.8999H81.7073V38.3999C81.6073 38.5999 81.4073 38.6999 81.2073 38.7999C81.0073 38.8999 80.8073 38.9999 80.5073 38.9999C80.2073 38.9999 79.9073 38.8999 79.7073 38.7999C79.5073 38.5999 79.3073 38.3999 79.1073 38.1999C79.0073 37.8999 78.9073 37.5999 78.9073 37.1999C78.9073 36.6999 79.0073 36.3999 79.1073 36.0999ZM81.5073 36.4999C81.4073 36.2999 81.3073 36.1999 81.2073 36.0999C81.1073 35.9999 80.9073 35.9999 80.7073 35.9999C80.5073 35.9999 80.4073 35.9999 80.2073 36.0999C80.1073 36.1999 79.9073 36.2999 79.9073 36.4999C79.8073 36.6999 79.8073 36.7999 79.8073 37.0999C79.8073 37.2999 79.8073 37.4999 79.9073 37.6999C80.0073 37.8999 80.1073 37.9999 80.2073 38.0999C80.3073 38.1999 80.5073 38.1999 80.7073 38.1999C80.9073 38.1999 81.0073 38.1999 81.2073 38.0999C81.4073 37.9999 81.5073 37.8999 81.5073 37.6999C81.6073 37.4999 81.6073 37.3999 81.6073 37.0999C81.7073 36.7999 81.6073 36.5999 81.5073 36.4999Z" fill="#04542E"/>
<path d="M84.5073 35.9999V37.6999C84.5073 37.7999 84.5073 37.8999 84.6073 37.9999C84.7073 38.0999 84.8073 38.0999 84.9073 38.0999H85.3073V38.8999H84.7073C83.9073 38.8999 83.6073 38.4999 83.6073 37.7999V35.9999H83.2073V35.2999H83.6073V34.3999H84.5073V35.2999H85.3073V35.9999H84.5073Z" fill="#04542E"/>
<path d="M86.0073 34.6999C85.9073 34.5999 85.8073 34.4999 85.8073 34.2999C85.8073 34.0999 85.9073 33.9999 86.0073 33.8999C86.1073 33.7999 86.2073 33.7999 86.4073 33.7999C86.6073 33.7999 86.7073 33.7999 86.8073 33.8999C86.9073 33.9999 87.0073 34.0999 87.0073 34.2999C87.0073 34.4999 86.9073 34.5999 86.8073 34.6999C86.7073 34.7999 86.6073 34.7999 86.4073 34.7999C86.2073 34.8999 86.1073 34.7999 86.0073 34.6999ZM86.8073 35.2999V38.7999H85.9073V35.2999H86.8073Z" fill="#04542E"/>
<path d="M88.3073 38.5999C88.0073 38.3999 87.8073 38.2 87.7073 38C87.5073 37.7 87.5073 37.4 87.5073 37C87.5073 36.6 87.6073 36.3 87.7073 36C87.9073 35.7 88.1073 35.5 88.4073 35.4C88.7073 35.2 89.0073 35.2 89.3073 35.2C89.6073 35.2 89.9073 35.3 90.2073 35.4C90.5073 35.6 90.7073 35.8 90.9073 36C91.1073 36.3 91.1073 36.6 91.1073 37C91.1073 37.4 91.0073 37.7 90.9073 38C90.7073 38.3 90.5073 38.4999 90.2073 38.5999C89.9073 38.7999 89.6073 38.7999 89.3073 38.7999C88.9073 38.8999 88.6073 38.7999 88.3073 38.5999ZM89.7073 38C89.8073 37.9 90.0073 37.7999 90.0073 37.5999C90.1073 37.3999 90.1073 37.3 90.1073 37C90.1073 36.7 90.0073 36.4 89.8073 36.2C89.6073 36 89.4073 35.9 89.2073 35.9C88.9073 35.9 88.7073 36 88.6073 36.2C88.4073 36.4 88.3073 36.6 88.3073 37C88.3073 37.3 88.4073 37.5999 88.6073 37.7999C88.8073 37.9999 89.0073 38.0999 89.2073 38.0999C89.4073 38.0999 89.6073 38 89.7073 38Z" fill="#04542E"/>
<path d="M94.7073 35.5999C95.0073 35.8999 95.1073 36.2 95.1073 36.7V38.7999H94.2073V36.9C94.2073 36.6 94.1073 36.3999 94.0073 36.2999C93.9073 36.0999 93.7073 36.0999 93.4073 36.0999C93.2073 36.0999 93.0073 36.1999 92.8073 36.2999C92.7073 36.4999 92.6073 36.7 92.6073 36.9V38.7999H91.7073V35.2999H92.6073V35.7C92.7073 35.5 92.9073 35.3999 93.1073 35.2999C93.3073 35.1999 93.5073 35.2 93.7073 35.2C94.1073 35.2 94.5073 35.3999 94.7073 35.5999Z" fill="#04542E"/>
<path d="M95.9073 36.0999C96.0073 35.7999 96.2073 35.5999 96.5073 35.4999C96.7073 35.3999 97.0073 35.2999 97.3073 35.2999C97.6073 35.2999 97.8073 35.3999 98.0073 35.4999C98.2073 35.5999 98.4073 35.6999 98.5073 35.8999V35.3999H99.4073V38.8999H98.5073V38.3999C98.4073 38.5999 98.2073 38.6999 98.0073 38.7999C97.8073 38.8999 97.6073 38.9999 97.3073 38.9999C97.0073 38.9999 96.7073 38.8999 96.5073 38.7999C96.3073 38.5999 96.1073 38.3999 95.9073 38.1999C95.8073 37.8999 95.7073 37.5999 95.7073 37.1999C95.7073 36.6999 95.8073 36.3999 95.9073 36.0999ZM98.4073 36.4999C98.3073 36.2999 98.2073 36.1999 98.1073 36.0999C98.0073 35.9999 97.8073 35.9999 97.6073 35.9999C97.4073 35.9999 97.3073 35.9999 97.1073 36.0999C97.0073 36.1999 96.8073 36.2999 96.8073 36.4999C96.7073 36.6999 96.7073 36.7999 96.7073 37.0999C96.7073 37.2999 96.7073 37.4999 96.8073 37.6999C96.9073 37.8999 97.0073 37.9999 97.1073 38.0999C97.2073 38.1999 97.4073 38.1999 97.6073 38.1999C97.8073 38.1999 97.9073 38.1999 98.1073 38.0999C98.3073 37.9999 98.4073 37.8999 98.4073 37.6999C98.5073 37.4999 98.5073 37.3999 98.5073 37.0999C98.5073 36.7999 98.5073 36.5999 98.4073 36.4999Z" fill="#04542E"/>
<path d="M101.207 34.1V38.8H100.307V34.1H101.207Z" fill="#04542E"/>
<path d="M53.1073 56.5999V49.8999C53.1073 47.9999 54.6073 46.4999 56.5073 46.4999C58.4073 46.4999 59.9073 47.9999 59.9073 49.8999V56.7999H62.1073V49.8999C62.1073 46.7999 59.6073 44.2999 56.5073 44.2999C55.2073 44.2999 54.0073 44.6999 53.1073 45.4999V40.7999H50.9073V49.8999V56.5999V56.7999H53.1073V56.5999Z" fill="#F28700"/>
<path d="M70.1073 56.7999C73.6073 56.7999 76.4073 54 76.4073 50.5C76.4073 47 73.6073 44.2 70.1073 44.2C66.6073 44.2 63.8073 47 63.8073 50.5C63.8073 54 66.6073 56.7999 70.1073 56.7999ZM70.1073 46.4C72.3073 46.4 74.2073 48.2 74.2073 50.5C74.2073 52.7 72.4073 54.5999 70.1073 54.5999C67.9073 54.5999 66.0073 52.8 66.0073 50.5C66.0073 48.3 67.8073 46.4 70.1073 46.4Z" fill="#F28700"/>
<path d="M91.4073 56.7999C94.9073 56.7999 97.7073 54 97.7073 50.5C97.7073 47 94.9073 44.2 91.4073 44.2C87.9073 44.2 85.1073 47 85.1073 50.5C85.2073 54 88.0073 56.7999 91.4073 56.7999ZM91.4073 46.4C93.6073 46.4 95.5073 48.2 95.5073 50.5C95.5073 52.7 93.7073 54.5999 91.4073 54.5999C89.2073 54.5999 87.3073 52.8 87.3073 50.5C87.4073 48.3 89.2073 46.4 91.4073 46.4Z" fill="#F28700"/>
<path d="M38.9073 55.2999C40.0073 56.1999 41.4073 56.7999 43.0073 56.7999C46.5073 56.7999 49.3073 54 49.3073 50.5C49.3073 47 46.5073 44.2 43.0073 44.2C39.5073 44.2 36.7073 47 36.7073 50.5V63.5999H38.9073V55.2999ZM42.9073 46.4C45.1073 46.4 47.0073 48.2 47.0073 50.5C47.0073 52.7 45.2073 54.5999 42.9073 54.5999C40.7073 54.5999 38.8073 52.8 38.8073 50.5C38.9073 48.3 40.7073 46.4 42.9073 46.4Z" fill="#F28700"/>
<path d="M80.2073 50.5V47.9H83.0073V45.7H80.2073V40.7H78.0073V50.5C78.0073 54 80.8073 56.7999 84.3073 56.7999V54.5999C82.1073 54.5999 80.2073 52.7 80.2073 50.5Z" fill="#F28700"/>
<path d="M110.407 27.7999C107.307 27.7999 104.907 30.2999 104.907 33.2999C104.907 36.3999 107.407 38.7999 110.407 38.7999C111.807 38.7999 113.007 38.2999 114.007 37.4999V38.7999H116.007V33.2999C115.907 30.2999 113.507 27.7999 110.407 27.7999ZM110.407 36.8999C108.407 36.8999 106.807 35.2999 106.807 33.2999C106.807 31.2999 108.407 29.6999 110.407 29.6999C112.407 29.6999 114.007 31.2999 114.007 33.2999C114.007 35.2999 112.407 36.8999 110.407 36.8999Z" fill="#04542E"/>
<path d="M153.307 27.7999C150.207 27.7999 147.807 30.2999 147.807 33.2999C147.807 36.3999 150.307 38.7999 153.307 38.7999C154.707 38.7999 155.907 38.2999 156.907 37.4999V38.7999H158.907V33.2999C158.907 30.2999 156.407 27.7999 153.307 27.7999ZM153.307 36.8999C151.307 36.8999 149.707 35.2999 149.707 33.2999C149.707 31.2999 151.307 29.6999 153.307 29.6999C155.307 29.6999 156.907 31.2999 156.907 33.2999C156.907 35.2999 155.307 36.8999 153.307 36.8999Z" fill="#04542E"/>
<path d="M131.207 27.7999H129.207V38.8999H131.207V27.7999Z" fill="#04542E"/>
<path d="M117.407 32.8999V38.7999H119.407V32.8999C119.407 31.0999 120.807 29.6999 122.607 29.6999C124.407 29.6999 125.807 31.0999 125.807 32.8999V38.7999H127.807V32.8999C127.807 30.0999 125.507 27.7999 122.707 27.7999C119.707 27.7999 117.407 30.0999 117.407 32.8999Z" fill="#04542E"/>
<path d="M142.407 27.7999C141.207 27.7999 140.207 28.2999 139.507 29.0999C138.807 28.2999 137.707 27.7999 136.607 27.7999C134.407 27.7999 132.707 29.5999 132.707 31.6999V38.8999H134.707V31.6999C134.707 30.5999 135.607 29.6999 136.707 29.6999C137.807 29.6999 138.707 30.5999 138.707 31.6999V38.8999H140.707V31.6999C140.707 30.5999 141.607 29.6999 142.707 29.6999C143.807 29.6999 144.707 30.5999 144.707 31.6999V38.8999H146.707V31.6999C146.307 29.4999 144.607 27.7999 142.407 27.7999Z" fill="#04542E"/>
<path d="M162.307 33.2999V24.7H160.307V33.2999C160.307 36.4 162.807 38.7999 165.807 38.7999V36.7999C163.907 36.9 162.307 35.2999 162.307 33.2999Z" fill="#04542E"/>
<path d="M69.9073 59.2999H69.1073V63.5999H69.9073V59.2999Z" fill="#04542E"/>
<path d="M73.8073 59.2999H73.0073V63.5999H73.8073V59.2999Z" fill="#04542E"/>
<path d="M44.0073 62.7998C43.2073 62.7998 42.6073 62.1998 42.6073 61.3998C42.6073 60.5998 43.2073 59.9998 44.0073 59.9998C44.5073 59.9998 44.9073 60.1998 45.2073 60.5998L45.8073 60.1998C45.4073 59.5998 44.7073 59.1998 44.0073 59.1998C42.8073 59.1998 41.9073 60.1998 41.9073 61.2998C41.9073 62.4998 42.9073 63.3998 44.0073 63.3998C44.7073 63.3998 45.4073 62.9998 45.8073 62.3998L45.2073 61.9998C44.9073 62.5998 44.5073 62.7998 44.0073 62.7998Z" fill="#04542E"/>
<path d="M63.8073 63.5999C64.5073 63.5999 65.2073 63.1999 65.6073 62.5999L65.0073 62.1999C64.7073 62.5999 64.3073 62.7999 63.8073 62.7999C63.2073 62.7999 62.6073 62.3999 62.5073 61.7999H66.0073V61.3999C66.0073 60.1999 65.0073 59.2999 63.9073 59.2999C62.7073 59.2999 61.8073 60.2999 61.8073 61.3999C61.7073 62.5999 62.7073 63.5999 63.8073 63.5999ZM63.8073 59.9999C64.4073 59.9999 65.0073 60.3999 65.1073 60.9999H62.4073C62.7073 60.4999 63.2073 59.9999 63.8073 59.9999Z" fill="#04542E"/>
<path d="M48.5073 63.5999C49.7073 63.5999 50.6073 62.5999 50.6073 61.4999C50.6073 60.2999 49.6073 59.3999 48.5073 59.3999C47.3073 59.3999 46.4073 60.3999 46.4073 61.4999C46.3073 62.5999 47.3073 63.5999 48.5073 63.5999ZM48.5073 59.9999C49.3073 59.9999 49.9073 60.5999 49.9073 61.3999C49.9073 62.1999 49.3073 62.7999 48.5073 62.7999C47.7073 62.7999 47.1073 62.1999 47.1073 61.3999C47.1073 60.5999 47.7073 59.9999 48.5073 59.9999Z" fill="#04542E"/>
<path d="M76.4073 63.5999C77.6073 63.5999 78.5073 62.5999 78.5073 61.4999C78.5073 60.2999 77.5073 59.3999 76.4073 59.3999C75.2073 59.3999 74.3073 60.3999 74.3073 61.4999C74.3073 62.5999 75.3073 63.5999 76.4073 63.5999ZM76.4073 59.9999C77.2073 59.9999 77.8073 60.5999 77.8073 61.3999C77.8073 62.1999 77.2073 62.7999 76.4073 62.7999C75.6073 62.7999 75.0073 62.1999 75.0073 61.3999C75.0073 60.5999 75.7073 59.9999 76.4073 59.9999Z" fill="#04542E"/>
<path d="M79.1073 61.2999V63.5999H79.9073V61.2999C79.9073 60.5999 80.5073 60.0999 81.1073 60.0999C81.7073 60.0999 82.3073 60.6999 82.3073 61.2999V63.5999H83.1073V61.2999C83.1073 60.1999 82.2073 59.2999 81.1073 59.2999C80.0073 59.2999 79.1073 60.1999 79.1073 61.2999Z" fill="#04542E"/>
<path d="M54.9073 59.2999C54.4073 59.2999 54.0073 59.4999 53.8073 59.7999C53.5073 59.4999 53.1073 59.2999 52.7073 59.2999C51.9073 59.2999 51.2073 59.9999 51.2073 60.7999V63.5999H52.0073V60.7999C52.0073 60.3999 52.3073 59.9999 52.8073 59.9999C53.3073 59.9999 53.6073 60.2999 53.6073 60.7999V63.5999H54.4073V60.7999C54.4073 60.3999 54.7073 59.9999 55.2073 59.9999C55.6073 59.9999 56.0073 60.2999 56.0073 60.7999V63.5999H56.8073V60.7999C56.4073 59.8999 55.7073 59.2999 54.9073 59.2999Z" fill="#04542E"/>
<path d="M57.7073 63.0999C58.1073 63.3999 58.6073 63.5999 59.1073 63.5999C60.3073 63.5999 61.2073 62.5999 61.2073 61.4999C61.2073 60.2999 60.2073 59.3999 59.1073 59.3999C57.9073 59.3999 57.0073 60.3999 57.0073 61.4999V64.7999H57.8073V63.0999H57.7073ZM59.1073 59.9999C59.9073 59.9999 60.5073 60.5999 60.5073 61.3999C60.5073 62.1999 59.9073 62.7999 59.1073 62.7999C58.3073 62.7999 57.7073 62.1999 57.7073 61.3999C57.7073 60.5999 58.3073 59.9999 59.1073 59.9999Z" fill="#04542E"/>
<path d="M71.2073 61.3999V60.4999H72.1073V59.6999H71.2073V57.9999H70.4073V61.2999C70.4073 62.4999 71.4073 63.3999 72.5073 63.3999V62.5999C71.8073 62.7999 71.2073 62.1999 71.2073 61.3999Z" fill="#04542E"/>
<path d="M67.2073 61.3999V60.4999H68.1073V59.6999H67.2073V57.9999H66.4073V61.2999C66.4073 62.4999 67.4073 63.3999 68.5073 63.3999V62.5999C67.9073 62.7999 67.2073 62.1999 67.2073 61.3999Z" fill="#04542E"/>
<path d="M123.207 44.2H121.007V56.7H123.207V44.2Z" fill="#F28700"/>
<path d="M135.307 45.7C134.207 44.8 132.807 44.2 131.207 44.2C127.707 44.2 124.907 47 124.907 50.5C124.907 54 127.707 56.7999 131.207 56.7999C134.707 56.7999 137.507 54 137.507 50.5V40.7H135.307V45.7ZM131.207 54.5999C129.007 54.5999 127.107 52.8 127.107 50.5C127.107 48.3 128.907 46.4 131.207 46.4C133.507 46.4 135.307 48.2 135.307 50.5C135.307 52.7 133.407 54.5999 131.207 54.5999Z" fill="#F28700"/>
<path d="M145.407 56.7999C147.607 56.7999 149.507 55.6999 150.707 53.8999L148.807 52.6999C148.107 53.8999 146.807 54.5999 145.407 54.5999C143.507 54.5999 142.007 53.3999 141.507 51.6999H151.707V50.5999C151.707 47.0999 148.907 44.2999 145.407 44.2999C141.907 44.2999 139.107 47.0999 139.107 50.5999C139.207 53.9999 142.007 56.7999 145.407 56.7999ZM145.407 46.3999C147.307 46.3999 148.807 47.5999 149.307 49.2999H141.507C142.007 47.6999 143.607 46.3999 145.407 46.3999Z" fill="#F28700"/>
<path d="M159.607 56.7999C163.107 56.7999 165.907 54 165.907 50.5C165.907 47 163.107 44.2 159.607 44.2C156.107 44.2 153.307 47 153.307 50.5C153.407 54 156.207 56.7999 159.607 56.7999ZM159.607 46.4C161.807 46.4 163.707 48.2 163.707 50.5C163.707 52.7 161.907 54.5999 159.607 54.5999C157.407 54.5999 155.507 52.8 155.507 50.5C155.607 48.3 157.407 46.4 159.607 46.4Z" fill="#F28700"/>
<path d="M113.207 53.5999L109.407 44.2H107.007L112.107 56.7999H114.307L119.407 44.2H117.007L113.207 53.5999Z" fill="#F28700"/>
<path d="M107.007 53.2999L106.107 54.2999L107.607 55.5999L107.007 56.2999C106.807 56.4999 106.607 56.4999 106.407 56.2999L105.207 55.2999L104.507 56.0999C104.307 56.2999 104.007 56.4999 103.707 56.5999C103.407 56.6999 103.107 56.7999 102.807 56.7999C102.407 56.7999 102.007 56.6999 101.707 56.5999C101.407 56.3999 101.107 56.1999 100.907 55.9999C100.707 55.7999 100.507 55.4999 100.407 55.0999C100.307 54.7999 100.207 54.4999 100.207 54.0999C100.207 53.7999 100.307 53.3999 100.407 53.0999C100.507 52.7999 100.807 52.4999 101.107 52.1999L101.307 51.9999L101.107 51.7999C100.907 51.5999 100.707 51.2999 100.607 51.0999C100.507 50.7999 100.407 50.4999 100.407 50.1999C100.407 49.8999 100.507 49.5999 100.607 49.2999C100.707 48.9999 100.907 48.7999 101.107 48.5999C101.307 48.3999 101.607 48.1999 101.807 48.0999C102.107 47.9999 102.407 47.8999 102.707 47.8999C103.207 47.8999 103.607 47.9999 104.007 48.2999C104.407 48.5999 104.607 48.8999 104.807 49.2999C105.007 49.6999 105.007 50.0999 105.007 50.5999C104.907 50.9999 104.707 51.4999 104.407 51.7999L104.207 51.8999C104.107 51.9999 104.107 51.9999 104.007 52.0999L103.807 52.2999L104.907 53.2999L105.507 52.5999C105.607 52.3999 105.907 52.3999 106.007 52.5999L107.007 53.2999ZM102.507 52.9999C102.207 53.0999 102.007 53.1999 101.907 53.3999C101.707 53.5999 101.607 53.8999 101.607 54.0999C101.607 54.3999 101.707 54.6999 101.907 54.8999C102.107 55.0999 102.407 55.1999 102.707 55.1999C103.007 55.1999 103.307 55.0999 103.507 54.8999L104.107 54.2999L102.507 52.8999V52.9999ZM102.807 49.2999C102.507 49.2999 102.307 49.3999 102.107 49.5999C101.907 49.7999 101.807 49.9999 101.807 50.2999C101.807 50.4999 101.907 50.6999 102.007 50.8999C102.207 51.0999 102.407 51.1999 102.707 51.1999C103.007 51.1999 103.207 51.0999 103.407 50.8999C103.607 50.6999 103.707 50.4999 103.707 50.1999C103.707 49.8999 103.607 49.6999 103.407 49.4999C103.307 49.3999 103.007 49.2999 102.807 49.2999Z" fill="#F28700"/>
<path d="M37.3073 24.8999C30.7073 24.8999 25.3073 19.4999 25.3073 12.8999C25.3073 6.2999 30.7073 0.899902 37.3073 0.899902C43.9073 0.899902 49.3073 6.2999 49.3073 12.8999C49.3073 19.4999 43.9073 24.8999 37.3073 24.8999ZM37.3073 1.6999C31.1073 1.6999 26.0073 6.7999 26.0073 12.9999C26.0073 19.1999 31.1073 24.2999 37.3073 24.2999C43.5073 24.2999 48.6073 19.1999 48.6073 12.9999C48.6073 6.6999 43.6073 1.6999 37.3073 1.6999Z" fill="#05542E"/>
<path d="M37.3073 23.8999C35.6073 23.8999 34.0073 23.4999 32.5073 22.7999C32.1073 22.5999 31.8073 22.3999 31.4073 22.1999C31.6073 19.9999 32.0073 17.7999 32.7073 15.7999C33.0073 14.9999 33.3073 14.2999 33.6073 13.4999C34.1073 14.3999 34.6073 15.2999 35.2073 16.1999C35.8073 16.9999 36.4073 17.7999 37.0073 18.5999C38.4073 20.1999 40.0073 21.6999 41.8073 22.8999C40.5073 23.5999 38.9073 23.8999 37.3073 23.8999Z" fill="url(#paint0_linear_4_5126)"/>
<path d="M38.7073 22.2999C38.7073 22.2999 38.3073 22.0999 38.3073 21.7999C38.3073 21.4999 38.7073 19.7999 37.3073 18.2999C37.1073 18.0999 37.2073 17.9999 37.3073 17.9999C37.4073 17.8999 37.6073 17.7999 37.7073 17.7999C37.8073 17.7999 37.7073 17.6999 37.6073 17.5999C37.4073 17.4999 36.9073 17.4999 36.4073 17.6999C36.2073 17.7999 36.2073 17.6999 36.0073 17.6999C35.9073 17.6999 34.7073 17.1999 33.0073 18.2999C32.9073 18.3999 32.9073 18.3999 32.7073 18.4999C32.5073 18.5999 32.3073 18.6999 32.4073 18.7999C32.5073 18.8999 33.0073 18.7999 33.2073 18.8999C33.3073 18.8999 34.1073 19.0999 34.2073 19.0999C34.3073 19.0999 34.3073 19.1999 34.3073 19.1999C34.3073 19.1999 34.4073 19.7999 34.7073 20.1999C34.9073 20.3999 34.8073 20.1999 34.8073 19.9999C34.8073 19.8999 34.7073 19.3999 34.9073 19.1999C35.0073 19.0999 35.2073 19.0999 35.4073 19.1999C35.7073 19.1999 36.6073 19.3999 37.2073 20.0999C37.8073 20.7999 38.0073 21.4999 37.9073 21.8999C37.9073 22.2999 37.7073 22.6999 38.0073 23.0999C38.1073 23.1999 38.0073 23.0999 38.0073 22.9999C38.0073 22.8999 38.1073 22.5999 38.3073 22.5999C38.5073 22.5999 38.8073 22.6999 38.9073 22.7999C39.0073 22.8999 38.9073 22.7999 38.9073 22.6999C39.0073 22.6999 38.9073 22.3999 38.7073 22.2999Z" fill="white"/>
<path d="M33.2073 21.5999C33.2073 21.5999 32.5073 21.8999 31.8073 21.4999C31.8073 21.4999 31.7073 21.3999 31.7073 21.2999C31.7073 21.1999 31.5073 21.0999 31.4073 20.9999C31.3073 20.9999 31.4073 20.9999 31.4073 20.8999C31.4073 20.8999 31.4073 20.8999 31.4073 20.9999C31.4073 21.0999 31.4073 21.2999 31.4073 21.2999C31.4073 21.2999 31.1073 21.3999 31.0073 21.5999C30.9073 21.6999 30.7073 21.6999 30.7073 21.6999C30.7073 21.6999 30.7073 21.7999 30.9073 21.6999C31.0073 21.6999 31.4073 21.6999 31.7073 21.4999C31.7073 21.4999 31.7073 21.4999 31.8073 21.4999C31.8073 21.4999 32.8073 22.2999 33.4073 22.2999C34.1073 22.3999 34.5073 22.0999 34.5073 22.0999C34.5073 22.0999 34.4073 22.3999 34.1073 22.4999C33.8073 22.5999 34.2073 22.5999 34.3073 22.4999C34.4073 22.4999 35.0073 22.2999 35.2073 21.7999C35.2073 21.7999 35.5073 21.6999 35.7073 21.3999C35.9073 21.0999 36.1073 21.0999 36.3073 20.9999C36.5073 20.8999 36.5073 20.7999 36.5073 20.7999C36.4073 20.6999 36.3073 20.7999 36.3073 20.7999C36.2073 20.7999 35.9073 20.5999 35.6073 20.5999C35.2073 20.5999 34.5073 20.7999 34.3073 20.8999C34.2073 20.9999 34.2073 20.8999 34.1073 20.8999C34.1073 20.8999 33.6073 20.5999 33.2073 20.8999C33.1073 20.9999 33.2073 20.9999 33.3073 20.9999C33.1073 21.2999 33.2073 21.2999 33.2073 21.5999C33.2073 21.4999 33.2073 21.5999 33.2073 21.5999Z" fill="white"/>
<path d="M39.6073 15.7999C40.2073 14.8999 40.7073 13.9999 41.1073 13.0999C41.5073 12.1999 41.9073 11.2999 42.3073 10.2999C43.0073 8.29988 43.5073 6.19988 43.6073 3.99988C44.8073 4.89988 45.9073 5.99988 46.7073 7.29988C47.6073 8.79988 48.1073 10.3999 48.2073 12.0999C48.2073 12.3999 48.2073 12.5999 48.2073 12.8999C48.2073 12.9999 48.2073 13.1999 48.2073 13.2999C46.2073 14.2999 44.1073 14.8999 42.0073 15.3999C41.3073 15.5999 40.4073 15.6999 39.6073 15.7999Z" fill="url(#paint1_linear_4_5126)"/>
<path d="M46.2073 11.1999C46.3073 11.3999 46.4073 11.5999 46.6073 11.6999C46.4073 11.8999 46.4073 12.0999 46.4073 12.2999C46.4073 12.4999 46.4073 12.7999 46.4073 12.9999C46.4073 13.0999 46.4073 13.0999 46.4073 13.1999C46.4073 13.3999 46.5073 13.3999 46.5073 13.4999H46.6073V13.3999C46.6073 13.3999 46.5073 13.3999 46.5073 13.2999C46.5073 13.2999 46.5073 13.2999 46.5073 13.1999C46.6073 13.1999 46.7073 13.1999 46.7073 13.1999C46.8073 13.1999 46.9073 13.3999 46.8073 13.4999C46.7073 13.6999 46.7073 13.7999 46.5073 13.7999C46.3073 13.7999 46.0073 13.7999 45.9073 13.5999C45.9073 13.4999 45.8073 13.4999 45.8073 13.3999C45.7073 12.9999 45.5073 12.6999 45.4073 12.2999C45.3073 11.9999 45.3073 11.7999 45.2073 11.4999C45.2073 11.2999 45.1073 11.1999 45.1073 10.9999C45.0073 10.7999 44.9073 10.4999 44.9073 10.2999C44.8073 10.0999 44.8073 10.0999 44.7073 10.0999C44.6073 10.0999 44.4073 10.1999 44.3073 10.1999C44.2073 10.1999 44.1073 10.1999 44.0073 10.0999C44.0073 10.0999 43.9073 9.99986 43.9073 9.89986C43.7073 9.79986 43.6073 9.49987 43.7073 9.29987C43.7073 9.19987 43.8073 9.09986 43.9073 8.99987C43.9073 8.89987 43.9073 8.89987 43.9073 8.79987C43.7073 8.59987 43.8073 8.39986 43.8073 8.19986C43.8073 8.09986 43.9073 8.09987 43.9073 8.09987C44.1073 7.99987 44.2073 7.79987 44.3073 7.59987C44.5073 6.99987 45.1073 6.79987 45.6073 7.09987C45.9073 7.29987 46.2073 7.49987 46.3073 7.79987C46.5073 7.99987 46.7073 8.19987 46.9073 8.29987C47.1073 8.39987 47.3073 8.49987 47.4073 8.59987C47.5073 8.69987 47.6073 8.79986 47.7073 8.89986C48.0073 9.19986 48.3073 9.29986 48.7073 9.19986C48.9073 9.19986 49.1073 9.19987 49.3073 9.09987C49.9073 9.09987 50.4073 9.49986 50.4073 10.1999C50.4073 10.4999 50.3073 10.7999 50.2073 11.0999C50.2073 11.1999 50.1073 11.3999 50.1073 11.4999C50.1073 11.6999 50.1073 11.7999 50.2073 11.8999C50.4073 12.0999 50.5073 12.2999 50.6073 12.5999C50.7073 12.6999 50.8073 12.8999 50.9073 12.9999C51.1073 13.1999 51.1073 13.4999 50.8073 13.5999C50.6073 13.6999 50.3073 13.6999 50.0073 13.6999C49.9073 13.6999 49.8073 13.6999 49.6073 13.7999C49.5073 13.7999 49.5073 13.7999 49.5073 13.6999C49.4073 13.6999 49.4073 13.6999 49.3073 13.6999L49.4073 13.5999C49.5073 13.4999 49.7073 13.4999 49.8073 13.3999C49.9073 13.3999 49.9073 13.2999 49.9073 13.1999C49.7073 12.9999 49.6073 12.8999 49.4073 12.6999C49.2073 12.4999 49.0073 12.1999 48.9073 11.8999C48.8073 11.6999 48.8073 11.3999 48.6073 11.2999C48.5073 11.1999 48.3073 11.0999 48.1073 11.1999C47.8073 11.2999 47.4073 11.3999 47.1073 11.3999C46.8073 11.3999 46.5073 11.2999 46.2073 11.0999C46.3073 11.2999 46.2073 11.2999 46.2073 11.1999Z" fill="white"/>
<path d="M44.0073 13.5998C43.9073 13.6998 43.9073 13.7998 43.8073 13.7998C43.8073 13.7998 43.9073 13.7998 43.9073 13.6998C43.9073 13.7998 43.9073 13.7998 43.9073 13.8998C43.9073 13.9998 43.7073 13.9998 43.6073 13.9998C43.4073 13.8998 43.3073 13.5998 43.4073 13.4998C43.7073 13.0998 43.8073 12.6998 43.9073 12.1998C44.0073 11.7998 44.1073 11.4998 44.3073 11.1998C44.4073 11.0998 44.4073 10.9998 44.5073 10.7998C44.6073 11.1998 44.8073 11.4998 44.8073 11.8998C44.8073 12.1998 44.7073 12.3998 44.6073 12.6998C44.5073 12.7998 44.4073 12.8998 44.3073 12.9998C44.1073 13.1998 44.0073 13.4998 44.0073 13.7998V13.8998C44.0073 13.8998 44.0073 13.9998 43.9073 13.9998C43.9073 13.9998 43.8073 13.9998 43.8073 13.8998C44.1073 13.7998 44.0073 13.6998 44.0073 13.5998Z" fill="white"/>
<path d="M42.4073 22.5999C40.6073 21.3999 38.9073 19.8999 37.5073 18.1999C37.0073 17.5999 36.5073 16.8999 36.0073 16.2999C36.4073 16.2999 36.8073 16.2999 37.2073 16.2999C37.8073 16.2999 38.4073 16.2999 39.1073 16.1999C40.1073 16.0999 41.1073 15.9999 42.1073 15.7999C44.2073 15.3999 46.2073 14.6999 48.2073 13.7999C48.1073 15.3999 47.6073 16.8999 46.8073 18.1999C46.0073 19.5999 44.8073 20.8999 43.4073 21.7999C43.1073 22.1999 42.8073 22.4999 42.4073 22.5999Z" fill="url(#paint2_linear_4_5126)"/>
<path d="M40.2073 16.5999C40.2073 16.7999 40.2073 16.9999 40.2073 17.1999C40.3073 17.9999 40.7073 18.4999 41.4073 18.7999C41.4073 18.7999 41.4073 18.7999 41.5073 18.7999C41.6073 18.7999 41.6073 18.7999 41.6073 18.6999C41.6073 18.5999 41.6073 18.4999 41.5073 18.3999C41.4073 18.0999 41.4073 17.7999 41.5073 17.4999C41.5073 17.4999 41.5073 17.3999 41.6073 17.3999C41.6073 17.4999 41.6073 17.4999 41.7073 17.5999C41.8073 17.8999 42.0073 18.1999 42.3073 18.2999C42.5073 18.3999 42.6073 18.3999 42.7073 18.1999C42.9073 17.9999 43.0073 17.7999 43.1073 17.4999V17.3999C43.0073 17.2999 43.0073 17.2999 42.9073 17.1999C42.8073 17.0999 42.6073 16.8999 42.5073 16.7999C42.5073 16.7999 42.5073 16.7999 42.5073 16.6999C42.8073 16.6999 43.2073 16.7999 43.5073 17.0999C43.6073 16.9999 43.7073 16.9999 43.8073 16.8999C43.8073 16.5999 43.8073 16.3999 43.9073 16.0999V15.9999C44.1073 16.0999 44.2073 16.4999 44.2073 16.8999C44.3073 16.8999 44.5073 16.8999 44.6073 16.8999C44.7073 16.8999 44.9073 16.7999 45.0073 16.7999C45.1073 16.7999 45.3073 16.6999 45.4073 16.6999C45.6073 16.6999 45.8073 16.6999 46.0073 16.7999C46.6073 16.9999 47.2073 17.1999 47.8073 17.1999C48.2073 17.1999 48.6073 17.1999 48.9073 17.0999C49.4073 16.9999 49.8073 17.0999 50.2073 17.2999C50.5073 17.4999 50.8073 17.5999 51.0073 17.7999C51.5073 18.0999 51.8073 18.4999 51.9073 19.0999C51.9073 19.3999 52.0073 19.5999 52.1073 19.8999C52.1073 19.9999 52.2073 20.0999 52.2073 20.0999C52.4073 20.2999 52.5073 20.5999 52.5073 20.7999C52.5073 21.0999 52.6073 21.3999 52.7073 21.5999C52.7073 21.5999 52.7073 21.5999 52.6073 21.5999C52.4073 21.3999 52.2073 21.1999 52.0073 20.9999C51.8073 20.7999 51.8073 20.4999 51.8073 20.1999C51.8073 19.8999 51.7073 19.5999 51.6073 19.2999V19.1999C51.5073 19.4999 51.4073 19.7999 51.4073 19.9999C51.4073 20.0999 51.4073 20.1999 51.4073 20.3999C51.5073 20.6999 51.6073 20.8999 51.8073 21.0999C51.9073 21.1999 51.9073 21.2999 51.9073 21.3999C51.8073 21.6999 51.8073 22.0999 51.9073 22.3999V22.4999C51.9073 22.5999 51.9073 22.6999 51.7073 22.6999C51.6073 22.6999 51.5073 22.6999 51.4073 22.7999C51.3073 22.8999 51.1073 22.8999 51.0073 22.7999H50.9073C50.8073 22.7999 50.7073 22.6999 50.8073 22.5999C50.8073 22.4999 50.9073 22.4999 50.9073 22.3999C51.2073 21.9999 51.1073 21.6999 51.0073 21.3999C51.0073 21.2999 50.9073 21.2999 50.8073 21.1999C50.7073 21.1999 50.6073 21.0999 50.5073 21.0999C50.0073 20.8999 49.6073 20.5999 49.3073 20.0999C49.2073 19.8999 49.2073 19.7999 49.1073 19.5999C49.0073 19.7999 49.1073 20.2999 49.3073 20.6999C48.9073 20.8999 48.4073 20.9999 48.0073 21.0999C47.5073 21.0999 47.1073 20.9999 46.6073 20.7999C46.6073 20.8999 46.6073 20.8999 46.6073 20.9999C46.6073 21.1999 46.6073 21.4999 46.6073 21.6999C46.6073 21.8999 46.7073 22.0999 46.7073 22.2999C46.7073 22.3999 46.7073 22.3999 46.8073 22.4999C46.8073 22.6999 46.7073 22.7999 46.5073 22.7999C46.4073 22.7999 46.3073 22.7999 46.3073 22.7999C46.2073 22.7999 46.1073 22.7999 46.0073 22.7999H45.9073C45.8073 22.7999 45.7073 22.6999 45.8073 22.5999C45.8073 22.4999 45.9073 22.4999 45.9073 22.4999C46.0073 22.3999 46.0073 22.2999 46.0073 22.1999C46.0073 22.0999 45.9073 21.9999 45.9073 21.8999C45.8073 21.7999 45.8073 21.6999 45.7073 21.4999C45.6073 21.1999 45.5073 20.9999 45.3073 20.8999C45.1073 20.6999 44.8073 20.4999 44.6073 20.2999C44.6073 20.2999 44.6073 20.2999 44.5073 20.1999C44.4073 20.0999 44.3073 20.0999 44.2073 20.1999L44.1073 20.2999C43.9073 20.5999 43.6073 20.6999 43.3073 20.6999C42.9073 20.6999 42.6073 20.7999 42.3073 20.8999C42.2073 20.8999 42.2073 20.8999 42.1073 20.9999C41.9073 20.9999 41.7073 20.9999 41.5073 20.7999V20.6999H41.6073C41.7073 20.6999 41.7073 20.6999 41.8073 20.5999C41.9073 20.5999 41.9073 20.4999 41.9073 20.3999C41.9073 20.2999 41.8073 20.2999 41.8073 20.2999C41.7073 20.2999 41.5073 20.3999 41.5073 20.4999C41.4073 20.6999 41.3073 20.5999 41.2073 20.4999C41.1073 20.2999 41.0073 20.0999 41.1073 19.7999C41.1073 19.7999 41.1073 19.6999 41.0073 19.6999C40.8073 19.3999 40.6073 18.9999 40.5073 18.5999C40.3073 17.9999 40.2073 17.4999 40.5073 16.8999C40.1073 16.7999 40.1073 16.6999 40.2073 16.5999Z" fill="white"/>
<path d="M48.7073 21.0999C48.9073 20.9999 49.1073 20.9999 49.4073 20.8999C49.5073 20.9999 49.7073 21.0999 49.8073 21.1999C49.9073 21.2999 49.9073 21.3999 49.8073 21.3999C49.7073 21.5999 49.7073 21.7999 49.7073 22.0999C49.7073 22.1999 49.7073 22.1999 49.7073 22.2999C49.7073 22.3999 49.6073 22.4999 49.5073 22.4999C49.4073 22.4999 49.4073 22.4999 49.3073 22.5999C49.1073 22.6999 49.0073 22.6999 48.8073 22.6999C48.7073 22.6999 48.7073 22.6999 48.6073 22.6999C48.4073 22.5999 48.4073 22.4999 48.5073 22.3999C48.5073 22.3999 48.5073 22.2999 48.6073 22.2999C48.7073 22.1999 48.7073 22.1999 48.8073 22.0999C49.0073 21.7999 49.1073 21.5999 48.8073 21.2999C48.8073 21.1999 48.7073 21.1999 48.7073 21.0999Z" fill="white"/>
<path d="M40.9073 12.3999C40.4073 11.4999 39.9073 10.5999 39.3073 9.69988C38.7073 8.89988 38.1073 8.09988 37.5073 7.29988C36.1073 5.69988 34.5073 4.19988 32.7073 2.99988C34.1073 2.29988 35.7073 1.99988 37.3073 1.99988C39.0073 1.99988 40.6073 2.39988 42.1073 3.09988C42.5073 3.29988 42.8073 3.49988 43.2073 3.69988C43.0073 5.89988 42.6073 8.09988 41.9073 10.0999C41.6073 10.8999 41.3073 11.5999 40.9073 12.3999Z" fill="url(#paint3_linear_4_5126)"/>
<path d="M31.3073 7.49988C31.2073 7.59988 31.1073 7.59988 31.1073 7.69988C31.0073 7.79988 30.9073 7.99988 30.8073 8.19988C30.7073 8.39988 30.6073 8.69988 30.4073 8.89988C30.2073 9.19988 29.9073 9.49988 29.5073 9.59988C29.4073 9.59988 29.3073 9.69988 29.2073 9.79988C28.6073 10.0999 28.1073 10.0999 27.5073 9.69988C27.7073 9.59988 27.9073 9.49988 28.0073 9.39988C28.3073 9.19988 28.6073 9.19988 28.9073 9.29988C29.2073 9.39988 29.4073 9.39988 29.7073 9.09988C29.9073 8.89988 30.1073 8.59988 30.2073 8.29988C30.3073 7.99988 30.4073 7.69988 30.6073 7.39988C30.8073 6.89988 31.2073 6.49988 31.7073 6.29988C31.8073 6.29988 31.9073 6.19988 32.0073 6.09988C32.5073 5.69988 33.1073 5.49988 33.7073 5.59988C34.1073 5.59988 34.5073 5.69988 34.8073 5.69988C35.2073 5.69988 35.7073 5.69988 36.1073 5.49988C36.3073 5.39988 36.4073 5.19988 36.6073 4.99988C36.4073 4.99988 36.3073 4.99988 36.2073 4.99988C36.4073 4.69988 36.7073 4.49988 37.0073 4.29988C36.9073 4.29988 36.8073 4.29988 36.7073 4.29988C37.0073 3.99988 37.4073 3.89988 37.8073 3.69988C37.7073 3.69988 37.6073 3.69988 37.4073 3.59988C37.8073 3.39988 38.3073 3.29988 38.8073 3.29988C38.7073 3.19988 38.6073 3.09988 38.5073 2.99988C39.0073 2.99988 39.5073 3.19988 39.9073 3.49988C39.9073 3.39988 39.8073 3.29988 39.8073 3.19988C40.3073 3.39988 40.6073 3.69988 40.7073 4.19988C40.7073 4.09988 40.8073 3.99988 40.8073 3.89988C40.9073 4.09988 41.0073 4.19988 41.0073 4.39988C41.0073 4.59988 41.0073 4.79988 41.0073 4.99988V5.09988C41.1073 5.19988 41.2073 5.29988 41.2073 5.49988C41.2073 5.49988 41.2073 5.59988 41.3073 5.59988C41.5073 5.79988 41.6073 5.99988 41.8073 6.19988C41.9073 6.29988 41.9073 6.39988 41.8073 6.49988C41.8073 6.49988 41.8073 6.59988 41.7073 6.59988C41.6073 6.79988 41.6073 6.79988 41.4073 6.89988C41.3073 6.99988 41.3073 7.09988 41.2073 7.09988C41.1073 7.19988 40.9073 7.19988 40.8073 7.09988C40.7073 6.99988 40.6073 6.99988 40.6073 7.19988C40.5073 7.69988 40.2073 7.99988 39.8073 8.29988C39.7073 8.39988 39.5073 8.39988 39.4073 8.49988C39.5073 8.39988 39.6073 8.19988 39.7073 8.09988C39.4073 8.39988 38.9073 8.59988 38.5073 8.59988C38.1073 8.59988 37.7073 8.69988 37.4073 8.69988C37.2073 8.69988 37.1073 8.89988 37.0073 8.99988C36.9073 9.39988 36.8073 9.69988 36.6073 10.0999V10.1999C36.6073 10.2999 36.6073 10.2999 36.7073 10.2999C36.8073 10.2999 36.8073 10.2999 36.9073 10.2999C37.0073 10.2999 37.1073 10.4999 37.1073 10.5999C37.1073 10.6999 37.0073 10.7999 36.9073 10.7999C36.6073 10.7999 36.4073 10.7999 36.1073 10.7999C35.9073 10.7999 35.8073 10.6999 35.8073 10.3999C35.8073 10.2999 35.8073 10.0999 35.7073 9.99988V9.89988C35.8073 9.79988 35.8073 9.59988 35.8073 9.49988C35.8073 9.29988 35.8073 9.09988 35.8073 8.89988C35.8073 8.79988 35.7073 8.79988 35.7073 8.79988C35.3073 8.79988 35.0073 8.69988 34.7073 8.59988C34.4073 8.49988 34.1073 8.39988 33.7073 8.29988C33.6073 8.29988 33.4073 8.29988 33.3073 8.29988C33.4073 7.99988 33.4073 7.69988 33.5073 7.39988C33.5073 7.49988 33.4073 7.49988 33.4073 7.59988C33.2073 7.89988 33.0073 8.09988 32.9073 8.39988C32.6073 8.89988 32.1073 9.29988 31.6073 9.49988C31.5073 9.59988 31.4073 9.59988 31.2073 9.69988C31.1073 9.69988 31.1073 9.79988 31.1073 9.89988C31.1073 10.0999 31.2073 10.1999 31.2073 10.3999C31.2073 10.4999 31.4073 10.5999 31.5073 10.5999C31.6073 10.5999 31.7073 10.6999 31.8073 10.7999C31.9073 10.9999 31.8073 11.0999 31.6073 11.0999C31.3073 11.0999 31.1073 11.0999 30.8073 10.9999C30.7073 10.9999 30.7073 10.8999 30.6073 10.8999C30.6073 10.7999 30.5073 10.6999 30.5073 10.5999C30.4073 10.3999 30.4073 10.1999 30.3073 9.99988C30.2073 9.69988 30.2073 9.59988 30.4073 9.39988C30.6073 9.19988 30.8073 8.99988 30.9073 8.69988C31.2073 8.29988 31.3073 7.89988 31.3073 7.49988Z" fill="white"/>
<path d="M34.2073 9.19986C34.1073 9.29986 34.0073 9.49986 33.9073 9.59986C33.7073 9.69986 33.6073 9.89986 33.4073 9.99986C33.3073 10.0999 33.3073 10.1999 33.3073 10.2999C33.3073 10.3999 33.4073 10.4999 33.4073 10.6999C33.5073 10.7999 33.6073 10.8999 33.7073 10.8999C33.8073 10.8999 33.9073 10.8999 34.0073 10.9999C34.1073 11.1999 34.0073 11.2999 33.8073 11.3999C33.7073 11.3999 33.6073 11.3999 33.5073 11.3999C33.4073 11.3999 33.2073 11.3999 33.1073 11.3999C32.9073 11.3999 32.8073 11.2999 32.8073 11.1999C32.8073 11.0999 32.7073 10.9999 32.7073 10.8999C32.6073 10.6999 32.5073 10.4999 32.4073 10.3999C32.3073 10.1999 32.3073 9.89986 32.5073 9.69986C32.7073 9.49986 32.9073 9.29986 33.1073 9.09986H33.2073C33.6073 8.89986 33.9073 8.99986 34.2073 9.19986Z" fill="white"/>
<path d="M38.4073 9.29993C38.5073 9.79993 38.6073 10.2999 38.7073 10.6999C38.7073 10.7999 38.8073 10.7999 38.9073 10.7999C39.1073 10.7999 39.2073 10.8999 39.3073 10.9999C39.3073 11.0999 39.3073 11.1999 39.1073 11.2999C38.8073 11.2999 38.5073 11.2999 38.2073 11.2999C38.1073 11.2999 38.0073 11.1999 38.0073 11.0999C38.0073 10.9999 37.9073 10.9999 37.9073 10.8999C37.9073 10.7999 37.8073 10.7999 37.8073 10.6999C37.7073 10.6999 37.7073 10.5999 37.7073 10.4999C37.7073 10.3999 37.7073 10.2999 37.7073 10.1999C37.6073 9.89993 37.5073 9.69993 37.4073 9.49993C37.7073 9.29993 38.1073 9.29993 38.4073 9.29993Z" fill="white"/>
<path d="M31.0073 21.9C29.8073 21 28.7073 19.9 27.9073 18.6C27.0073 17.1 26.5073 15.5 26.4073 13.8C26.4073 13.5 26.4073 13.3 26.4073 13C26.4073 12.9 26.4073 12.7 26.4073 12.6C28.4073 11.6 30.5073 11 32.6073 10.5C33.4073 10.3 34.2073 10.2 35.0073 10.2C34.4073 11.1 33.9073 12 33.5073 12.9C33.1073 13.8 32.7073 14.7 32.3073 15.7C31.6073 17.6 31.2073 19.8 31.0073 21.9Z" fill="#008234"/>
<path d="M33.6073 18.3999C33.5073 18.5999 33.5073 18.8999 33.6073 19.0999C33.6073 19.1999 33.6073 19.1999 33.5073 19.2999C33.3073 19.2999 33.2073 19.2999 33.0073 19.2999C32.9073 19.2999 32.9073 19.2999 32.8073 19.3999C32.6073 19.5999 32.6073 19.8999 32.6073 20.0999C32.6073 20.1999 32.6073 20.3999 32.6073 20.5999C32.6073 20.6999 32.6073 20.6999 32.6073 20.7999C32.5073 21.1999 32.5073 21.4999 32.5073 21.8999C32.5073 22.0999 32.5073 22.3999 32.5073 22.5999C32.5073 22.6999 32.5073 22.7999 32.6073 22.8999C32.6073 22.9999 32.6073 23.0999 32.6073 23.0999C32.5073 23.1999 32.5073 23.1999 32.5073 23.2999C32.5073 23.3999 32.5073 23.4999 32.4073 23.4999C32.3073 23.4999 32.2073 23.4999 32.2073 23.4999C32.1073 23.4999 32.1073 23.4999 32.1073 23.3999C32.1073 23.3999 32.1073 23.2999 32.2073 23.2999C32.3073 23.0999 32.4073 22.9999 32.4073 22.7999C32.4073 22.1999 32.4073 21.5999 32.3073 21.0999V20.9999C32.2073 20.8999 32.2073 20.6999 32.2073 20.4999C32.2073 20.1999 32.2073 19.8999 32.1073 19.5999C32.1073 19.5999 32.1073 19.4999 32.0073 19.4999C31.9073 19.3999 31.9073 19.2999 31.9073 19.0999V18.9999C31.8073 18.7999 31.7073 18.5999 31.7073 18.2999C31.7073 18.1999 31.7073 17.9999 31.7073 17.8999C31.8073 17.5999 31.8073 17.2999 31.7073 16.9999C31.4073 16.3999 31.1073 15.7999 30.9073 15.0999C30.8073 14.5999 30.7073 14.0999 30.5073 13.5999C30.5073 13.4999 30.4073 13.3999 30.4073 13.1999C30.4073 13.0999 30.3073 12.9999 30.2073 12.9999C30.1073 12.9999 29.9073 12.8999 29.8073 12.8999C29.7073 12.8999 29.7073 12.8999 29.6073 12.8999C29.5073 12.8999 29.4073 12.8999 29.4073 12.8999C29.3073 12.8999 29.3073 12.7999 29.3073 12.6999V12.5999C29.3073 12.4999 29.3073 12.4999 29.4073 12.4999C29.6073 12.3999 29.7073 12.2999 29.9073 12.1999C29.9073 12.1999 29.9073 12.1999 29.9073 12.0999C30.0073 11.9999 30.0073 11.8999 30.2073 11.7999L30.3073 11.6999C30.3073 11.5999 30.3073 11.4999 30.2073 11.3999V11.2999C30.3073 11.2999 30.3073 11.2999 30.4073 11.2999C30.5073 11.2999 30.5073 11.2999 30.5073 11.3999C30.4073 11.4999 30.5073 11.6999 30.5073 11.7999C30.6073 11.6999 30.6073 11.5999 30.6073 11.3999C30.6073 11.2999 30.6073 11.2999 30.7073 11.2999H30.8073C30.9073 11.2999 30.9073 11.3999 30.8073 11.3999C30.7073 11.4999 30.7073 11.6999 30.7073 11.7999C30.7073 11.7999 30.8073 11.8999 30.9073 11.8999C31.0073 11.4999 31.4073 11.5999 31.6073 11.4999C31.6073 11.6999 31.5073 11.8999 31.3073 11.9999C31.2073 11.9999 31.1073 12.0999 31.1073 12.0999C31.1073 12.0999 31.0073 12.1999 31.1073 12.1999C31.2073 12.4999 31.3073 12.7999 31.3073 13.1999C31.4073 13.9999 31.7073 14.7999 32.1073 15.4999C32.3073 15.6999 32.4073 15.8999 32.7073 15.9999C32.9073 15.9999 33.1073 16.1999 33.2073 16.3999C33.4073 16.6999 33.5073 16.8999 33.8073 16.9999C33.9073 17.0999 34.1073 17.1999 34.2073 17.1999C34.7073 17.3999 35.0073 17.6999 35.2073 18.1999C35.3073 18.5999 35.3073 18.8999 35.4073 19.2999C35.5073 19.4999 35.5073 19.7999 35.6073 19.9999C35.6073 20.0999 35.7073 20.1999 35.7073 20.1999C35.9073 20.3999 35.9073 20.5999 35.9073 20.7999C35.9073 20.9999 35.9073 21.1999 35.9073 21.3999C35.7073 21.1999 35.5073 20.8999 35.5073 20.4999C35.5073 20.2999 35.4073 19.9999 35.3073 19.7999C35.2073 19.4999 35.2073 19.0999 35.1073 18.7999C35.1073 18.6999 35.0073 18.5999 35.0073 18.4999C35.0073 18.5999 34.9073 18.6999 34.9073 18.7999C34.9073 19.1999 34.9073 19.5999 35.1073 19.9999C35.2073 20.0999 35.2073 20.2999 35.2073 20.3999C35.2073 20.5999 35.2073 20.7999 35.2073 20.9999C35.2073 21.3999 35.3073 21.8999 35.3073 22.2999C35.3073 22.3999 35.3073 22.4999 35.4073 22.5999C35.4073 22.6999 35.4073 22.7999 35.4073 22.7999C35.3073 22.8999 35.3073 22.8999 35.3073 22.9999C35.3073 23.0999 35.3073 23.1999 35.2073 23.1999C35.1073 23.1999 35.0073 23.1999 34.9073 23.1999H34.8073V23.0999C34.9073 22.9999 35.0073 22.8999 35.0073 22.7999C35.0073 22.6999 35.1073 22.5999 35.1073 22.5999C35.1073 22.1999 35.1073 21.8999 35.0073 21.4999C35.0073 21.1999 35.0073 20.9999 34.9073 20.6999C34.9073 20.5999 34.9073 20.5999 34.8073 20.4999C34.8073 20.3999 34.7073 20.3999 34.7073 20.2999C34.7073 20.0999 34.6073 19.9999 34.5073 19.8999C34.3073 19.6999 34.2073 19.5999 34.0073 19.3999C33.7073 19.0999 33.6073 18.6999 33.6073 18.2999C33.6073 18.4999 33.6073 18.4999 33.6073 18.3999Z" fill="white"/>
<path d="M31.6073 18.9999C31.6073 19.0999 31.6073 19.0999 31.6073 19.1999C31.6073 19.3999 31.7073 19.4999 31.8073 19.6999V19.7999C31.7073 20.0999 31.6073 20.2999 31.6073 20.5999C31.6073 20.6999 31.6073 20.6999 31.6073 20.7999C31.4073 20.9999 31.4073 21.2999 31.4073 21.5999C31.3073 21.9999 31.3073 22.3999 31.2073 22.7999C31.2073 22.8999 31.2073 22.9999 31.2073 23.0999C31.2073 23.1999 31.2073 23.2999 31.1073 23.2999C31.0073 23.2999 31.0073 23.3999 31.0073 23.4999C31.0073 23.6999 31.0073 23.6999 30.8073 23.6999C30.7073 23.6999 30.7073 23.6999 30.6073 23.6999C30.5073 23.6999 30.5073 23.6999 30.5073 23.5999C30.8073 23.2999 30.9073 22.8999 30.9073 22.4999C31.0073 21.9999 31.0073 21.5999 31.1073 21.0999V20.9999C31.1073 20.8999 31.1073 20.7999 31.1073 20.6999C31.2073 20.3999 31.2073 20.0999 31.3073 19.7999C31.5073 19.2999 31.6073 19.1999 31.6073 18.9999Z" fill="white"/>
<path d="M33.6073 19.4999C33.8073 19.7999 34.0073 19.9999 34.3073 20.1999C34.4073 20.2999 34.4073 20.3999 34.4073 20.4999C34.3073 20.7999 34.2073 21.1999 34.2073 21.4999C34.2073 21.8999 34.1073 22.1999 34.1073 22.5999C34.1073 22.6999 34.1073 22.7999 34.1073 22.7999C34.1073 22.8999 34.1073 22.8999 34.1073 22.9999C34.0073 23.0999 34.0073 23.0999 34.0073 23.1999C34.0073 23.2999 34.0073 23.3999 33.9073 23.3999C33.8073 23.3999 33.7073 23.3999 33.6073 23.3999C33.5073 23.3999 33.5073 23.3999 33.5073 23.2999C33.6073 23.1999 33.6073 23.0999 33.7073 22.9999C33.8073 22.8999 33.8073 22.7999 33.8073 22.5999C33.8073 22.0999 33.9073 21.4999 33.9073 20.9999C33.9073 20.7999 33.9073 20.5999 33.9073 20.4999C33.9073 20.1999 33.8073 19.9999 33.7073 19.7999C33.6073 19.6999 33.6073 19.5999 33.6073 19.4999Z" fill="white"/>
<path d="M28.4073 18.5999C28.1073 18.6999 27.8073 18.7999 27.5073 18.6999C27.4073 18.6999 27.3073 18.5999 27.3073 18.4999C27.3073 18.3999 27.3073 18.2999 27.3073 18.1999V18.2999C27.2073 18.4999 27.1073 18.6999 26.9073 18.8999C26.7073 18.9999 26.4073 19.1999 26.2073 19.3999C26.1073 19.4999 26.1073 19.5999 26.1073 19.5999C26.1073 19.8999 26.1073 20.1999 26.2073 20.5999C26.2073 20.6999 26.3073 20.8999 26.4073 20.9999C26.3073 20.9999 26.2073 20.9999 26.1073 20.9999C25.9073 20.4999 25.9073 19.8999 25.8073 19.3999C25.8073 19.2999 25.9073 19.1999 25.9073 19.0999C26.1073 18.8999 26.2073 18.5999 26.1073 18.2999C26.1073 18.3999 26.0073 18.4999 26.0073 18.6999C25.8073 18.2999 25.9073 17.8999 26.1073 17.6999C26.4073 17.3999 26.7073 17.2999 27.2073 17.2999C27.4073 17.2999 27.5073 17.2999 27.7073 17.2999C28.1073 17.2999 28.5073 17.0999 28.9073 16.8999C29.0073 16.7999 29.1073 16.5999 29.2073 16.3999C29.3073 16.1999 29.4073 15.9999 29.4073 15.7999C29.4073 15.6999 29.4073 15.6999 29.4073 15.5999C29.4073 15.4999 29.3073 15.2999 29.2073 15.1999H29.3073C29.4073 15.3999 29.5073 15.4999 29.6073 15.6999C29.6073 15.5999 29.6073 15.4999 29.5073 15.4999C29.4073 15.2999 29.2073 15.0999 29.1073 14.7999C29.0073 14.6999 29.0073 14.4999 28.9073 14.3999C29.1073 14.6999 29.4073 14.9999 29.6073 15.3999C29.5073 15.0999 29.4073 14.7999 29.3073 14.4999C29.3073 14.4999 29.3073 14.4999 29.4073 14.4999C29.6073 14.8999 29.7073 15.1999 29.9073 15.5999C30.0073 15.4999 30.0073 15.3999 30.1073 15.2999C30.1073 15.2999 30.1073 15.2999 30.2073 15.2999C30.1073 15.4999 30.1073 15.5999 30.0073 15.7999C30.2073 15.9999 30.4073 16.1999 30.6073 16.4999C30.6073 16.5999 30.7073 16.6999 30.6073 16.6999C30.5073 16.7999 30.4073 16.7999 30.3073 16.7999C29.7073 16.6999 29.8073 16.6999 29.6073 17.2999C29.5073 17.3999 29.5073 17.5999 29.5073 17.6999C29.5073 17.8999 29.4073 18.0999 29.2073 18.1999C28.9073 18.4999 28.6073 18.8999 28.6073 19.3999C28.6073 19.5999 28.5073 19.7999 28.5073 19.9999C28.5073 20.2999 28.4073 20.5999 28.6073 20.8999C28.5073 20.8999 28.4073 20.8999 28.4073 20.8999C28.3073 20.4999 28.4073 20.0999 28.4073 19.7999C28.4073 19.4999 28.4073 19.1999 28.5073 18.8999C28.5073 18.7999 28.4073 18.6999 28.4073 18.5999Z" fill="white"/>
<path d="M27.4073 18.8999C27.3073 18.9999 27.3073 19.0999 27.2073 19.1999C27.1073 19.2999 27.0073 19.3999 27.1073 19.5999C27.3073 19.9999 27.5073 20.4999 27.7073 20.8999C27.7073 20.8999 27.7073 20.8999 27.7073 20.9999C27.6073 20.9999 27.5073 21.0999 27.4073 20.8999C27.2073 20.4999 27.0073 20.0999 26.8073 19.6999C26.7073 19.3999 26.7073 19.2999 26.9073 19.1999C27.0073 19.0999 27.1073 19.0999 27.2073 18.9999C27.2073 18.8999 27.2073 18.8999 27.4073 18.8999C27.3073 18.8999 27.3073 18.8999 27.4073 18.8999Z" fill="white"/>
<path d="M29.3073 18.5999C29.4073 19.3999 29.2073 20.1999 29.7073 20.9999C29.5073 21.0999 29.5073 20.9999 29.4073 20.8999C29.2073 20.4999 29.2073 20.0999 29.1073 19.6999C29.0073 19.4999 29.0073 19.2999 29.0073 19.0999V18.9999C29.1073 18.7999 29.2073 18.6999 29.3073 18.5999Z" fill="white"/>
<path d="M26.4073 12.0999C26.5073 10.4999 27.0073 8.99993 27.7073 7.59993C28.5073 6.19993 29.6073 4.89993 31.0073 3.89993C31.3073 3.69993 31.7073 3.49993 32.0073 3.29993C33.8073 4.49993 35.6073 6.09993 37.0073 7.79993C37.5073 8.39993 38.0073 9.09993 38.5073 9.69993C38.1073 9.69993 37.7073 9.69993 37.3073 9.69993C36.7073 9.69993 36.1073 9.69993 35.4073 9.79993C34.4073 9.89993 33.4073 9.99993 32.4073 10.1999C30.4073 10.4999 28.4073 11.1999 26.4073 12.0999Z" fill="url(#paint4_linear_4_5126)"/>
<path d="M28.9073 8.0999L29.0073 7.9999V8.0999V8.1999V8.2999C29.0073 8.2999 29.0073 8.2999 29.0073 8.3999V8.4999C29.0073 8.4999 29.0073 8.4999 29.0073 8.5999C29.0073 8.5999 29.0073 8.5999 29.0073 8.6999C29.0073 8.6999 29.1073 8.6999 29.1073 8.7999C29.1073 8.7999 29.1073 8.7999 29.2073 8.7999C29.2073 8.7999 29.2073 8.7999 29.3073 8.8999C29.3073 8.8999 29.3073 8.8999 29.4073 8.9999H29.5073C29.5073 8.9999 29.6073 8.9999 29.6073 8.8999C29.7073 8.7999 29.7073 8.7999 29.8073 8.6999C29.9073 8.5999 30.0073 8.4999 30.1073 8.3999C30.2073 8.2999 30.3073 8.0999 30.4073 7.8999C30.4073 7.7999 30.4073 7.7999 30.4073 7.6999C30.4073 7.7999 30.5073 7.7999 30.5073 7.8999C30.6073 7.5999 30.7073 7.3999 30.8073 7.0999C30.8073 7.1999 30.9073 7.2999 30.8073 7.3999C30.8073 7.2999 30.9073 7.0999 30.9073 6.9999C30.9073 6.9999 30.9073 6.9999 30.9073 7.0999C30.9073 7.1999 30.9073 7.3999 30.9073 7.4999C30.9073 7.3999 31.0073 7.3999 31.0073 7.2999C31.0073 7.2999 31.0073 7.2999 31.0073 7.1999C31.0073 7.1999 31.0073 7.1999 31.0073 7.2999C31.0073 7.3999 31.0073 7.4999 31.0073 7.5999C31.0073 7.5999 31.0073 7.4999 31.1073 7.4999C31.1073 7.4999 31.1073 7.4999 31.1073 7.3999V7.4999C31.1073 7.5999 31.1073 7.5999 31.0073 7.6999L31.1073 7.5999C31.1073 7.5999 31.1073 7.5999 31.1073 7.6999C31.1073 7.7999 31.0073 7.8999 31.0073 7.9999C31.0073 8.0999 30.9073 8.0999 30.8073 8.1999C30.9073 8.0999 31.0073 8.0999 31.1073 7.9999C31.1073 7.9999 31.1073 7.9999 31.2073 7.9999C31.2073 7.9999 31.2073 8.0999 31.1073 8.0999L31.0073 8.1999H31.1073V8.2999C31.1073 8.3999 31.0073 8.3999 30.9073 8.3999C30.8073 8.3999 30.8073 8.3999 30.7073 8.4999H30.8073C30.9073 8.4999 30.9073 8.4999 31.0073 8.4999C31.0073 8.4999 31.0073 8.4999 30.9073 8.4999C30.9073 8.4999 30.9073 8.4999 30.9073 8.5999C30.9073 8.5999 30.9073 8.5999 30.8073 8.5999C30.8073 8.5999 30.8073 8.5999 30.8073 8.6999C30.8073 8.6999 30.8073 8.6999 30.7073 8.6999C30.7073 8.6999 30.7073 8.6999 30.6073 8.6999C30.6073 8.6999 30.6073 8.6999 30.6073 8.7999C30.6073 8.7999 30.6073 8.7999 30.5073 8.7999H30.4073V8.8999C30.4073 8.8999 30.4073 8.8999 30.3073 8.8999C30.3073 8.8999 30.3073 8.8999 30.2073 8.8999H30.1073C30.1073 8.8999 30.1073 8.8999 30.0073 8.8999C30.0073 8.8999 30.0073 8.8999 29.9073 8.8999H29.8073C29.8073 8.8999 29.8073 8.8999 29.7073 8.8999C29.7073 8.8999 29.7073 8.8999 29.6073 8.8999H29.5073C29.5073 8.8999 29.5073 8.8999 29.4073 8.8999C29.5073 8.9999 29.6073 8.9999 29.6073 8.9999C29.8073 9.0999 30.1073 9.0999 30.3073 9.1999C30.3073 9.1999 30.3073 9.1999 30.2073 9.1999C30.2073 9.1999 30.2073 9.1999 30.1073 9.1999C30.1073 9.1999 30.1073 9.1999 30.0073 9.1999H29.9073C29.9073 9.1999 29.9073 9.2999 29.8073 9.2999C29.8073 9.2999 29.8073 9.2999 29.7073 9.2999H29.6073H29.5073C29.5073 9.2999 29.5073 9.2999 29.4073 9.2999C29.4073 9.2999 29.4073 9.2999 29.3073 9.2999C29.3073 9.2999 29.3073 9.2999 29.2073 9.2999C29.2073 9.2999 29.2073 9.2999 29.1073 9.2999H29.0073C29.0073 9.2999 29.0073 9.2999 28.9073 9.2999H28.8073C28.8073 9.2999 28.8073 9.2999 28.9073 9.2999C28.8073 9.2999 28.8073 9.2999 28.8073 9.3999C28.7073 9.3999 28.7073 9.3999 28.6073 9.2999C28.5073 9.2999 28.5073 9.3999 28.5073 9.3999V9.4999H28.4073C28.4073 9.4999 28.4073 9.4999 28.4073 9.3999V9.2999C28.4073 9.2999 28.4073 9.2999 28.4073 9.3999V9.4999H28.3073C28.3073 9.4999 28.3073 9.4999 28.2073 9.4999H28.1073C28.1073 9.4999 28.1073 9.4999 28.1073 9.5999V9.4999V9.3999H28.2073C28.2073 9.3999 28.2073 9.3999 28.1073 9.3999C28.1073 9.2999 28.2073 9.2999 28.2073 9.2999C28.2073 9.2999 28.3073 9.2999 28.3073 9.3999H28.4073C28.4073 9.3999 28.4073 9.3999 28.4073 9.2999L28.5073 9.1999C28.5073 9.1999 28.5073 9.1999 28.4073 9.1999C28.4073 9.1999 28.4073 9.1999 28.5073 9.1999C28.5073 9.1999 28.6073 9.1999 28.6073 9.2999L28.7073 9.1999V9.0999C28.7073 9.0999 28.7073 9.0999 28.7073 8.9999C28.7073 8.8999 28.7073 8.8999 28.6073 8.7999C28.6073 8.6999 28.5073 8.5999 28.3073 8.5999H28.2073H28.1073C28.1073 8.5999 28.1073 8.5999 28.1073 8.6999C28.0073 8.6999 28.0073 8.5999 28.0073 8.4999C28.0073 8.4999 28.0073 8.4999 28.0073 8.3999C28.0073 8.3999 28.0073 8.2999 28.1073 8.2999C28.1073 8.1999 28.0073 8.1999 28.0073 8.0999V7.9999C28.0073 7.9999 28.0073 7.9999 28.0073 7.8999C28.0073 7.8999 28.0073 7.7999 27.9073 7.7999C27.8073 7.7999 27.8073 7.7999 27.7073 7.6999C27.6073 7.5999 27.6073 7.5999 27.6073 7.4999C27.5073 7.2999 27.5073 7.1999 27.5073 6.9999V6.8999V6.7999C27.5073 6.6999 27.5073 6.5999 27.5073 6.4999C27.5073 6.4999 27.5073 6.4999 27.5073 6.3999C27.5073 6.3999 27.5073 6.3999 27.5073 6.4999C27.5073 6.5999 27.6073 6.6999 27.6073 6.7999C27.6073 6.6999 27.6073 6.5999 27.6073 6.4999V6.3999C27.6073 6.4999 27.7073 6.4999 27.7073 6.5999C27.7073 6.6999 27.7073 6.7999 27.8073 6.9999C27.8073 6.9999 27.8073 6.9999 27.8073 7.0999V6.9999C27.8073 6.8999 27.8073 6.7999 27.8073 6.5999V6.4999C27.8073 6.5999 27.8073 6.6999 27.8073 6.6999V6.7999C27.8073 6.6999 27.8073 6.6999 27.8073 6.5999C27.8073 6.6999 27.8073 6.7999 27.8073 6.9999V7.0999C27.8073 7.0999 27.8073 7.0999 27.8073 6.9999C27.8073 6.8999 27.8073 6.8999 27.9073 6.7999C27.9073 6.7999 27.9073 6.7999 27.9073 6.6999V6.7999C29.0073 7.8999 28.9073 7.9999 28.9073 8.0999Z" fill="white"/>
<path d="M34.1073 6.09998V6.19998V6.29998H34.0073C33.9073 6.29998 33.9073 6.29998 33.8073 6.29998C33.8073 6.29998 33.8073 6.29998 33.8073 6.19998L33.9073 6.09998V5.99998V5.89997C33.9073 5.89997 33.9073 5.89997 33.8073 5.89997C33.8073 5.89997 33.8073 5.89997 33.7073 5.89997C33.7073 5.89997 33.7073 5.89998 33.6073 5.79998C33.6073 5.79998 33.6073 5.69998 33.5073 5.69998V5.59998H33.4073C33.4073 5.59998 33.3073 5.59998 33.3073 5.49998C33.2073 5.49998 33.2073 5.39997 33.1073 5.39997C33.1073 5.39997 33.0073 5.39998 33.0073 5.29998C32.9073 5.29998 32.9073 5.19998 32.9073 5.09998L33.0073 5.19998C33.1073 5.29998 33.2073 5.29997 33.3073 5.39997C33.4073 5.39997 33.4073 5.39998 33.5073 5.49998C33.6073 5.49998 33.6073 5.59998 33.7073 5.59998C33.8073 5.69998 33.8073 5.69998 33.9073 5.79998V5.69998V5.59998C33.9073 5.59998 33.9073 5.59998 33.9073 5.49998C33.9073 5.49998 33.8073 5.49997 33.8073 5.39997C33.7073 5.39997 33.7073 5.29998 33.7073 5.29998C33.6073 5.19998 33.6073 5.19998 33.7073 5.19998C33.7073 5.19998 33.7073 5.19998 33.7073 5.09998C33.7073 5.09998 33.7073 5.09998 33.8073 5.09998C33.9073 5.09998 33.9073 5.09998 34.0073 5.19998C34.1073 5.29998 34.2073 5.39998 34.3073 5.49998V5.59998C34.3073 5.69998 34.3073 5.89998 34.3073 5.99998C34.3073 5.99998 34.3073 6.09998 34.4073 6.09998C34.5073 6.09998 34.5073 6.09998 34.6073 6.09998C34.7073 6.09998 34.7073 6.19998 34.8073 6.29998H34.7073C34.6073 6.29998 34.5073 6.29997 34.4073 6.39997C34.4073 6.49997 34.3073 6.49998 34.2073 6.49998C34.3073 5.99998 34.3073 6.09998 34.1073 6.09998C34.2073 5.99998 34.2073 6.09998 34.1073 6.09998C34.2073 6.09998 34.2073 6.09998 34.1073 6.09998C34.2073 6.09998 34.1073 6.09998 34.1073 6.09998Z" fill="white"/>
<path d="M34.7073 7.80002C34.7073 7.90003 34.7073 7.90003 34.7073 7.80002C34.6073 7.80002 34.6073 7.80002 34.5073 7.80002C34.4073 7.80002 34.4073 7.80002 34.3073 7.80002C34.2073 7.80002 34.2073 7.80002 34.1073 7.80002H34.0073C33.9073 7.80002 33.9073 7.80002 33.8073 7.80002H33.7073C33.6073 7.90003 33.6073 7.90002 33.5073 7.90002C33.4073 7.90002 33.4073 8.00002 33.3073 8.00002C33.2073 8.00002 33.2073 8.00002 33.2073 8.00002C33.2073 8.00002 33.2073 8.00002 33.1073 8.00002C33.2073 8.00002 33.2073 8.00002 33.3073 8.00002C33.4073 8.00002 33.4073 8.00002 33.4073 7.90002H33.3073C33.2073 7.80002 33.1073 7.80002 33.0073 7.70002C33.0073 7.70002 33.0073 7.70002 32.9073 7.70002H32.8073H32.7073C32.7073 7.70002 32.6073 7.70003 32.6073 7.60003H32.5073C32.4073 7.60003 32.4073 7.50002 32.3073 7.50002C32.3073 7.50002 32.3073 7.50002 32.2073 7.40002C32.2073 7.40002 32.2073 7.40002 32.3073 7.40002C32.6073 7.50002 32.8073 7.50002 33.1073 7.50002C33.2073 7.50002 33.2073 7.50003 33.2073 7.60003C33.3073 7.60003 33.3073 7.70002 33.4073 7.70002C33.5073 7.80002 33.6073 7.80002 33.7073 7.70002C33.8073 7.70002 33.8073 7.70002 33.8073 7.70002C33.9073 7.70002 34.1073 7.70002 34.2073 7.70002H34.3073C34.4073 7.70002 34.5073 7.80002 34.7073 7.80002Z" fill="white"/>
<path d="M35.8073 8.09998C35.9073 8.09998 35.9073 8.19998 36.0073 8.19998L36.1073 8.29998L36.2073 8.39997C36.2073 8.39997 36.2073 8.39997 36.3073 8.39997H36.4073C36.5073 8.39997 36.6073 8.39997 36.7073 8.39997H36.8073C36.7073 8.39997 36.7073 8.49998 36.6073 8.49998H36.5073H36.4073C36.4073 8.59998 36.4073 8.59998 36.4073 8.59998H36.3073C36.3073 8.59998 36.2073 8.59998 36.2073 8.49998C36.3073 8.49998 36.3073 8.49997 36.4073 8.39997H36.3073L36.2073 8.29998C35.9073 8.19998 35.8073 8.19998 35.8073 8.09998Z" fill="white"/>
<path d="M31.9073 8.69995C32.0073 8.69995 32.1073 8.69995 32.2073 8.79995H32.3073H32.4073H32.5073C32.6073 8.79995 32.7073 8.79995 32.9073 8.69995C32.9073 8.69995 32.9073 8.69995 32.8073 8.79995C32.8073 8.89995 32.7073 8.89995 32.6073 8.89995H32.5073C32.4073 8.89995 32.4073 8.89995 32.4073 8.89995V8.99995H32.3073H32.2073C32.3073 8.99995 32.3073 8.89995 32.4073 8.89995C32.3073 8.89995 32.3073 8.89995 32.3073 8.89995C32.1073 8.79995 32.0073 8.69995 31.9073 8.69995C32.0073 8.69995 32.0073 8.69995 31.9073 8.69995Z" fill="white"/>
<path d="M34.9073 7.19995C34.9073 7.19995 34.9073 7.29995 34.9073 7.19995C34.9073 7.29995 34.8073 7.29995 34.8073 7.29995H34.7073C34.7073 7.29995 34.6073 7.29995 34.6073 7.19995C34.7073 7.19995 34.7073 7.19995 34.8073 7.09995C34.7073 7.09995 34.7073 6.99995 34.7073 6.99995C34.7073 6.89995 34.6073 6.79995 34.6073 6.69995C34.7073 6.79995 34.8073 6.79995 34.8073 6.89995C34.8073 6.89995 34.8073 6.99995 34.9073 6.99995C34.9073 6.99995 34.9073 6.99995 35.0073 6.99995H35.1073C35.0073 7.09995 35.0073 7.09995 34.9073 7.19995C35.1073 7.09995 35.2073 7.19995 35.3073 7.09995C35.2073 7.09995 35.2073 7.19995 35.1073 7.19995C35.1073 7.29995 35.1073 7.29995 34.9073 7.19995C35.0073 7.19995 35.0073 7.19995 34.9073 7.19995Z" fill="white"/>
<path d="M32.2073 6.40002C32.3073 6.40002 32.4073 6.40002 32.5073 6.40002C32.6073 6.40002 32.6073 6.40002 32.7073 6.50002C32.7073 6.50002 32.8073 6.60002 32.9073 6.50002C33.0073 6.50002 33.0073 6.50002 33.1073 6.50002C33.1073 6.50002 33.1073 6.50002 33.2073 6.50002C33.2073 6.50002 33.3073 6.50003 33.3073 6.60003C33.2073 6.60003 33.1073 6.60003 33.0073 6.60003H32.9073H32.8073C32.8073 6.60003 32.7073 6.60002 32.7073 6.70002C32.7073 6.70002 32.7073 6.70003 32.6073 6.60003H32.7073L32.6073 6.50002C32.5073 6.50002 32.4073 6.50002 32.2073 6.40002C32.3073 6.40002 32.3073 6.40002 32.2073 6.40002Z" fill="white"/>
<path fill-rule="evenodd" clip-rule="evenodd" d="M50.2073 3.59985L46.9073 5.99985C46.9073 5.99985 56.9073 20.2999 41.3073 25.8999C41.3073 25.8999 39.1073 24.6999 36.7073 24.6999C34.1073 24.6999 32.1073 26.2999 32.1073 26.2999C32.1073 26.2999 30.0073 21.0999 24.2073 22.2999C19.3073 23.2999 17.8073 27.9999 19.4073 32.9999C20.8073 37.4999 26.4073 42.8999 34.2073 43.9999C28.1073 43.9999 18.3073 40.3999 17.1073 30.7999C11.0073 31.8999 7.7073 34.5999 7.7073 34.5999C2.7073 38.6999 1.8073 42.0999 1.3073 50.6999C-1.0927 51.7999 0.507295 54.2999 0.707295 56.4999C5.3073 52.5999 0.307292 50.0999 3.90729 46.8999C3.80729 47.7999 3.8073 48.5999 3.8073 48.5999C3.8073 49.8999 4.0073 51.1999 4.3073 52.4999C4.8073 54.4999 5.4073 56.3999 6.2073 58.2999C6.9073 59.9999 8.50729 63.3999 8.60729 63.3999H12.3073C12.2073 62.8999 12.1073 62.4999 12.0073 62.0999C11.6073 58.8999 12.4073 56.0999 14.9073 53.8999C16.5073 52.4999 18.3073 52.0999 20.4073 52.5999C22.6073 53.0999 24.0073 54.4999 25.0073 56.3999C25.9073 58.0999 26.1073 59.9999 25.9073 61.8999C25.9073 62.3999 25.7073 62.7999 25.6073 63.3999H29.6073C29.6073 63.3999 32.4073 57.9999 33.4073 55.2999C35.4073 49.8999 35.2073 44.7999 35.2073 44.7999C35.4073 41.2999 43.3073 40.3999 46.9073 35.8999C44.9073 36.3999 42.9073 35.9999 42.9073 35.9999C42.9073 35.9999 63.1073 23.7999 50.2073 3.59985ZM37.2073 30.6999C36.6073 30.6999 36.1073 30.1999 36.1073 29.5999C36.1073 28.9999 36.6073 28.4999 37.2073 28.4999C37.8073 28.4999 38.3073 28.9999 38.3073 29.5999C38.3073 30.1999 37.8073 30.6999 37.2073 30.6999Z" fill="#04542E"/>
<defs>
<linearGradient id="paint0_linear_4_5126" x1="36.7107" y1="23.9046" x2="36.7107" y2="13.5428" gradientUnits="userSpaceOnUse">
<stop stop-color="#3C8EC9"/>
<stop offset="1" stop-color="#3C8EC9"/>
</linearGradient>
<linearGradient id="paint1_linear_4_5126" x1="39.6444" y1="9.88838" x2="48.2884" y2="9.88838" gradientUnits="userSpaceOnUse">
<stop stop-color="#A47C52"/>
<stop offset="1" stop-color="#A47C52"/>
</linearGradient>
<linearGradient id="paint2_linear_4_5126" x1="36.0501" y1="18.2984" x2="48.2428" y2="18.2984" gradientUnits="userSpaceOnUse">
<stop stop-color="#F78520"/>
<stop offset="1" stop-color="#F78520"/>
</linearGradient>
<linearGradient id="paint3_linear_4_5126" x1="37.9602" y1="12.3604" x2="37.9602" y2="1.99858" gradientUnits="userSpaceOnUse">
<stop stop-color="#8BDE40"/>
<stop offset="1" stop-color="#8BDE40"/>
</linearGradient>
<linearGradient id="paint4_linear_4_5126" x1="26.4282" y1="7.71863" x2="38.6208" y2="7.71863" gradientUnits="userSpaceOnUse">
<stop stop-color="#FBD513"/>
<stop offset="1" stop-color="#F8A41A"/>
</linearGradient>
</defs>
</svg>
