<svg width="44" height="57" viewBox="0 0 44 57" fill="none" xmlns="http://www.w3.org/2000/svg">
<path d="M4.10001 50.7C3.00001 50.5 2.79999 50.4 2.79999 50.1C2.79999 49.9 3.00001 49.7 3.60001 49.7C4.70001 49.7 5.69999 50.2 5.79999 50.2C5.89999 50.2 6.80001 48.2 6.60001 48C6.10001 47.6 4.9 47.3 3.5 47.3C1.2 47.3 0 48.6 0 50.1C0 51.9 1.00001 52.7 2.60001 53C3.70001 53.2 3.89999 53.4 3.89999 53.7C3.89999 54 3.60001 54.1 3.10001 54.1C2.10001 54.1 0.999988 53.4 0.799988 53.3C0.599988 53.3 0 55.3 0 55.5C0.5 55.8 1.80001 56.3 3.20001 56.3C5.90001 56.3 6.89999 54.7 6.89999 53.5C6.99999 51.6 5.60001 51 4.10001 50.7Z" fill="#8CC340"/>
<path d="M9.70001 47.5C9.60001 47.6 7.3 55.2 7 56.1C7.2 56.2 9.79999 56.4 9.89999 56.3C9.99999 56.3 10.3 54.9 10.4 54.6C10.7 54.6 12.4 54.7 12.6 54.6C12.7 54.9 13.1 56.2 13.2 56.3C13.2 56.3 15.7 56.2 16.1 56C15.8 54.4 13.3 47.3 13.3 47.3C12.9 47.4 9.80001 47.4 9.70001 47.5ZM10.8 52.6C10.9 52.2 11.3 50.6 11.5 50C11.5 50 11.5 50 11.6 50C11.8 50.6 12.2 52.2 12.3 52.6C11.9 52.6 11 52.6 10.8 52.6Z" fill="#8CC340"/>
<path d="M19.4 51.5L19.3 49.8001C20.4 49.8001 22.5 49.9001 22.9 49.8001C23 49.3001 23 47.7 22.9 47.4C22.9 47.3 17.1 47.4 16.6 47.4C16.5 48.2 16.7 56 16.7 56.2C16.7 56.3 19.4 56.2 19.4 56.1C19.4 55.9 19.4 54.8 19.4 53.6C20.7 53.6 22.3 53.6 22.3 53.6C22.3 53.5 22.4 51.7 22.3 51.5C22.3 51.5 20.7 51.5 19.4 51.5Z" fill="#8CC340"/>
<path d="M25.4 47.5C25.3 47.6 23 55.2 22.7 56.1C22.9 56.2 25.5 56.4 25.6 56.3C25.7 56.3 26 54.9 26.1 54.6C26.4 54.6 28.1 54.7 28.3 54.6C28.4 54.9 28.8 56.2 28.9 56.3C28.9 56.3 31.4 56.2 31.8 56C31.5 54.4 29 47.3 29 47.3C28.6 47.4 25.5 47.4 25.4 47.5ZM26.5 52.6C26.6 52.2 27 50.6 27.2 50H27.3C27.5 50.6 27.9 52.2 28 52.6C27.6 52.6 26.7 52.6 26.5 52.6Z" fill="#8CC340"/>
<path d="M39.6 50.5C39.6 48.4 38.1 47.4 35.6 47.4C34.7 47.4 33.3 47.4 32.5 47.5C32.4 48.6 32.3 55.5 32.4 56.2C32.4 56.3 34.9 56.2 35 56.1C35 55.8 35.1 54.4 35.1 53.3H35.5C36.5 54.7 37.5 56.4 37.5 56.4C38 56.4 39.7 55.7 39.9 55.5C39.9 55.4 39.1 54 38.2 52.9C39.1 52.5 39.6 51.8 39.6 50.5ZM35.9 51.3C35.7 51.3 35.5 51.3 35.3 51.3C35.3 50.8 35.3 50.3 35.3 49.8C35.4 49.8 35.7 49.8 35.8 49.8C36.7 49.8 36.9 50.1 36.9 50.6C36.9 51.1 36.5 51.3 35.9 51.3Z" fill="#8CC340"/>
<path d="M43.5 47.5C43.4 47.4 41.3 47.4 40.7 47.5C40.6 48.6 40.6 55.5 40.7 56.2C40.7 56.3 43.4 56.4 43.5 56.1C43.6 55.7 43.6 47.6 43.5 47.5Z" fill="#8CC340"/>
<path d="M12.1 45.1C14.4 45.1 15.7 44.4 15.7 42.7C15.7 41.4 14.9 40.7 14.1 40.5V40.4C14.7 40.1 15.1 39.6 15.1 38.6C15.1 36.6 13.1 36.2 11.1 36.2C10.9 36.2 8.50002 36.3 8.40002 36.4C8.40002 36.5 8.50003 44.9 8.50003 44.9C8.70003 45 10.9 45.1 12.1 45.1ZM12.8 42.3C12.8 42.7 12.5 43 11.7 43C11.6 43 11.4 43 11.2 43C11.2 43 11.2 41.8 11.2 41.6C11.3 41.6 11.5 41.6 11.6 41.6C12.4 41.6 12.8 41.8 12.8 42.3ZM11.1 38.4C11.2 38.4 11.3 38.4 11.4 38.4C11.8 38.4 12.4 38.5 12.4 39C12.4 39.4 12 39.7 11.4 39.7C11.3 39.7 11.2 39.7 11.1 39.7C11.1 39.6 11.1 38.6 11.1 38.4Z" fill="#04542E"/>
<path d="M18.7 45.2C18.8 45.2 19.1 43.8 19.2 43.5C19.5 43.5 21.2001 43.6 21.4001 43.5C21.5001 43.8 21.9 45.1 22 45.2C22 45.2 24.5001 45.1 24.9001 44.9C24.6001 43.3 22.1 36.2 22.1 36.2C21.8 36.1 18.7 36.2001 18.6 36.3001C18.5 36.4001 16.2 44 15.9 44.9C16 45 18.6 45.2 18.7 45.2ZM20.3 38.8001C20.5 39.4001 20.9 41 21.1 41.4C20.7 41.4 19.8 41.4 19.6 41.4C19.7 41 20.1 39.4001 20.3 38.8001Z" fill="#04542E"/>
<path d="M31.5 45C31.6 44.7 31.5 43.1 31.5 42.6C31 42.5 29.4 42.6 28.3 42.6C28.3 41.7 28.4 36.8 28.3 36.2C28.3 36.1 25.6 36.2001 25.6 36.3001C25.5 36.4001 25.5 44.1 25.6 45C26.1 45.1 31.5 45.1 31.5 45Z" fill="#04542E"/>
<path d="M35.1 45C35.2 44.5 35.2 36.4001 35.1 36.3001C35 36.2001 32.9 36.2001 32.3 36.3001C32.2 37.4001 32.2 44.3 32.3 45C32.4 45.2 35.1 45.3 35.1 45Z" fill="#04542E"/>
<path d="M16.4 2.69999C16.5 2.69999 16.5 2.80009 16.6 2.80009C16.8 2.90009 17 3.09999 17.2 3.19999L17.3 3.30009C17.7 3.60009 18.1 3.90001 18.5 4.10001C19.1 3.70001 19.7 3.40004 20.3 3.00004C20.5 2.90004 20.7 2.79999 20.9 2.69999C20.6 2.49999 20.3 2.40009 20 2.30009C19.7 2.20009 19.4 2.00006 19.2 1.90006C12.2 -0.899939 14.8 1.59999 16.4 2.69999Z" fill="#04542E"/>
<path d="M35.6 27.4V26.1H34.8C35 26.5 35.1 26.9 35.3 27.4H35.6Z" fill="#04542E"/>
<path d="M38.2 26.2H36.9V27.5H38.2V26.2Z" fill="#04542E"/>
<path d="M40.7 26.2H39.4V27.5H40.7V26.2Z" fill="#04542E"/>
<path d="M41.9001 27.4H42.9001C42.7001 27 42.6001 26.6 42.4001 26.1H41.8V27.4H41.9001Z" fill="#04542E"/>
<path d="M43.2 28.1C43.2 28 43.1 27.9 43.1 27.8H35.4C35.5 28 35.5 28.2 35.6 28.4C35.9 29.4 36.4 29.6 36.6 29.6H36.7H42.8C43.5 29.6 43.4 28.9 43.2 28.1Z" fill="#04542E"/>
<path d="M4.29999 26.2H3V27.5H4.29999V26.2Z" fill="#04542E"/>
<path d="M6.79999 26.2H5.5V27.5H6.79999V26.2Z" fill="#04542E"/>
<path d="M8 27.4H8.29999C8.39999 27 8.59999 26.6 8.79999 26.1H8V27.4Z" fill="#04542E"/>
<path d="M1.70004 27.4V26.1H1.10004C0.900037 26.5 0.800037 26.9 0.600037 27.4H1.70004Z" fill="#04542E"/>
<path d="M0.400013 28.1C0.200013 28.8 0.100007 29.6 0.800007 29.6H6.90001H7.00002C7.20002 29.6 7.70002 29.4 8.00002 28.4V28.3C8.10002 28.1 8.10003 27.9 8.20003 27.7H0.500019C0.500019 27.9 0.400013 28 0.400013 28.1Z" fill="#04542E"/>
<path d="M4.29999 23.6H3V24.9H4.29999V23.6Z" fill="#04542E"/>
<path d="M6.79999 23.6H5.5V24.9H6.79999V23.6Z" fill="#04542E"/>
<path d="M8 24.9H9.29999V23.6H8V24.9Z" fill="#04542E"/>
<path d="M3.00006 24.9H1.70007V26.2H3.00006V24.9Z" fill="#04542E"/>
<path d="M5.50006 24.9H4.20007V26.2H5.50006V24.9Z" fill="#04542E"/>
<path d="M8.00006 24.9H6.70007V26.2H8.00006V24.9Z" fill="#04542E"/>
<path d="M40.7 23.6H39.4V24.9H40.7V23.6Z" fill="#04542E"/>
<path d="M38.2 23.6H36.9V24.9H38.2V23.6Z" fill="#04542E"/>
<path d="M34.3 23.6V24.9H35.6V23.6H34.3Z" fill="#04542E"/>
<path d="M42.0001 24.9H40.7001V26.2H42.0001V24.9Z" fill="#04542E"/>
<path d="M39.4 24.9H38.1V26.2H39.4V24.9Z" fill="#04542E"/>
<path d="M36.9 24.9H35.6V26.2H36.9V24.9Z" fill="#04542E"/>
<path d="M12.8 14.7C12.7 14.7 12.5 14.8 13 14.2L14.3 12.8001C15.5 11.5001 16.7 10.8001 16.7 10.8001C16.8 10.7001 17 10.6 17.1 10.6C17.2 10.6 17.2 10.5001 17.3 10.5001C17.3 10.5001 18.1 10.1 19.1 9.7C19.7 9 20.2 8.5 20.5 8.2C21.3 7.4 22.2 6.6001 23.1 5.8001L23.4001 5.60003C24.3001 4.80003 25.3 4.10007 26.3 3.40007L26.4001 3.3001C26.6001 3.2001 26.8 3.00007 27 2.90007C27.1 2.90007 27.1 2.8001 27.2 2.8001C28.9 1.7001 31.4 -0.699974 24.5 2.10003C24.2 2.20003 23.9 2.30005 23.7 2.50005C22.7 3.00005 21.8 3.40005 20.8 4.00005C15.8 6.80005 11.4 10.5001 7.80002 15.0001C5.70002 17.6 3.90002 20.5 2.40002 23.5H10C10.2 23 10.5 22.5 10.7 22C10.9 21.6 11.1 21.2001 11.3 20.8001C11.3 19.6001 11.5 18.5001 11.8 17.4001L11.9 17.2C12.2 16.3 13 15.2001 13.5 14.8001L12.8 14.7Z" fill="#04542E"/>
<path d="M35.9 14.8C32.8 11 29.2 7.79995 25.2 5.19995C24.8 5.49995 24.3 5.89995 23.9 6.19995L23.6 6.40002C23.2 6.70002 22.8 7.10002 22.4 7.40002C22.8 7.80002 23.2 8.19998 23.6 8.59998L25.7 8.80005C27.4 9.10005 28.4 10.1 28.9 10.9C28.9 10.9 29.8 11.1 30.5 11.8C30.6 11.9 30.7 12.1 30.8 12.3L31.4 13.5C31.6 13.9 31.4 13.9 31.2 13.8L31 13.7C31 13.7 30.4 13.6 30.8 13.9C32.1 14.9 32.6 15.9 32.3 17C32.6 17.7 33.1 19.4 32.4 20.8C32.8 21.6 33.2 22.5 33.6 23.4H41.2C39.8 20.3 38 17.4 35.9 14.8Z" fill="#04542E"/>
<path d="M29 13.6C29.3 12.4 30.1 12.6 30.1 12.6C29.7 11.9 29.2 11.9 28.7 12C28.7 11.9 28.8 11.7 29 11.6C29 11.6 28.7001 11.5 28.4001 11.7C28.0001 10.9 27.3 9.8 25.5 9.5L26.1 10C26.1 10 25.5 9.7 24.6 9.5C24.3 9.4 23.9 9.40002 23.6 9.40002C23.2 9.40002 22.8 9.40002 22.2 9.40002C22.2 9.40002 21.6001 9.50005 20.4001 9.80005C20.3001 9.80005 20.2 9.80002 20.1 9.90002C20 9.90002 19.9 10 19.8 10C19.7 10 19.7 9.99998 19.6 10.1C21.1 10.4 22.1 10.9 22.1 10.9C21.1 10.6 19.5001 10.2 17.9001 10.9C17.7001 11 17.6001 11.1 17.4001 11.1C17.3001 11.2 17.2 11.2 17 11.3C17 11.3 15.9 12 14.8 13.2C15.3 13 15.8 12.9 16.2 12.9C16.8 12.8 17.2 12.8 17.2 12.8C16.8 12.9 16.3 13.1 15.8 13.4C15.3 13.7 14.8 14.1 14.4 14.5C14.3 14.6 14.2 14.7 14.1 14.8C13.7 15.2 12.9 16.2 12.6 17.1C12.6 17.2 12.6 17.2 12.5 17.3C12.4 17.8 12.3 18.3 12.2 18.9C12.1 19.7 12.1 20.5 12.1 21.5C12.1 21.6 12.1 21.7 12.2 21.8C12.2 21.7 12.2 21.6 12.3 21.6C12.6 20.6 13.1 19.6 14 19C14 19 13.5 19.8 13.3 21.4C13.3 21.7 13.2 22 13.2 22.3C13.2 22.9 13.6 23.9 14 24.3C15.2 25.6 17 27.1 18.8 28.7C18.9 27.2 19.1 26.2 19.1 26.2C19.4 27.8 19.9001 29.1 20.4001 30.1C21.8001 31.4 23.2001 32.7 24.4001 33.9C25.0001 33.4 25.7001 32.6 26.4001 31.9C26.8001 31.5 27.2 31.1 27.6 30.7C28.4 29.8 29.1 28.4 29.2 28.4C29.5 27.7 29.7 27.1 29.8 26.7C29.8 26.7 29.9 27.1 30 27.8C30 27.8 30 27.8 30 27.7C30.1 27.5 30.2 27.3 30.3 27.2C30.4 27 30.4001 27 30.4001 27C30.8001 26 30.8 25 30.7 24.4L31 24.2C32.2 23.2 31.5 20.9 31.5 20.9C31.9 20.6 32.1 20.1 32.2 19.7C32.5 18.4 31.8 16.9 31.8 16.9C32.2 15.4 30 14.1 29 13.6ZM17.6 26.3C17.4 26.2 17.3 26 17.1 25.9C16.8 25.6 16.4 25.4 16.1 25.1C15.8 24.8 15.5 24.5 15.1 24.3C14.1 23.5 14 22.6 14.1 22.1C14.1 22 14.1 21.9 14.1 21.8V21.5C14.1 21.4 14.1 21.3 14.2 21.2C14.2 21.1 14.2 21 14.3 20.9C14.3 20.8 14.3 20.7 14.4 20.6L14.5 20.3C14.6 20.1 14.6 19.9 14.7 19.8C14.8 19.6 14.8 19.5 14.9 19.3C15 19.1 15.1 19 15.2 18.8L15 19.9L14.9 20.4V20.7C14.9 20.8 14.9 20.9 14.9 21C14.8 21.8 15.1 22.9 16.6 24.7C16.9 25 17.2001 25.3 17.4001 25.7C17.5001 25.9 17.7 26 17.8 26.2C17.9 26.4 18.1 26.5 18.2 26.7C18 26.5 17.8 26.4 17.6 26.3ZM30.6 15.5H30.7C30.9 15.8 31.2 16.2 31.1 16.6L30.5 15.9C30.7 15.8 30.7 15.6 30.6 15.5ZM19.5 12.6C20.1 12.8 21.9001 12.7 21.9001 12.7C21.3001 13.2 20.9001 13.7 20.9001 13.7C20.1001 13.5 19.9001 13 19.9001 13C19.9001 13 19.4 13.9 20.2 15.2C18.7 14.1 19.5 12.6 19.5 12.6ZM22.7 18.7C22.1 18.5 21.6 18.3 21.1 18.2C20.7 18.1 20.8 17.9 21 17.6C21 17.6 21 17.5 21.1 17.5C21.2 17.4 21.3001 17.3 21.4001 17.2L21.5 17.1L21.6 17C21.7 16.9 21.8001 16.8 21.9001 16.7C22.0001 16.6 22.1 16.5 22.2 16.5C22.3 16.4 22.4 16.4 22.5 16.3C22.6 16.2 22.7 16.2 22.8 16.1C22.9 16 23 16 23 15.9C23.1 15.9 23.1 15.8 23.2 15.8C23.3 15.7 23.4001 15.7 23.4001 15.7C23.4001 15.7 23.3 15.7 23.2 15.8C23.1 15.8 23.1 15.8 23 15.9C22.9 15.9 22.8 16 22.7 16C22.6 16 22.5001 16.1 22.4001 16.1C22.3001 16.1 22.2 16.2 22.1 16.2C22 16.3 21.9 16.3 21.7 16.4C21.6 16.5 21.5 16.5 21.3 16.6L21.1 16.7C21 16.7 21.0001 16.8 20.9001 16.8C20.8001 16.9 20.7 16.9 20.6 17C20.6 17 20.5 17 20.5 17.1C20.3 17.2 20.1 17.4 20.1 17.1C20.4 15.2 21.4 14 22 13.3C22.7 12.7 23.6 12.8 24.2 12.9C26.9 13.3 28.2 14.4 28.2 14.4C28 14 27.8 13.7 27.6 13.5C27.7 13.5 27.8 13.6 27.8 13.6C27.8 13.6 27.9 13.7 28.1 13.7C28.4 13.8 28.7 14 29.1 14.2C29.2 14.3 29.4 14.4 29.5 14.4C29.6 14.5 29.7 14.5 29.7 14.6C29.9 14.8 30.1 14.9 30.3 15.1C30.3 15.1 30.4 15.2 30.5 15.3H30.4001L29.8 15.4H29.5L29.9001 15.6L30.9001 16.8C31.0001 16.9 31.0001 17 30.9001 17C30.8001 17 30.6001 17 30.4001 17C30.3001 17 30.2 17 30.1 17C30.1 17 29.2 16.8 28.3 16.8L27 15.5L27.3 15.3L25.6 14.8L24.6 15.2C24.6 15.2 25 15.2 25.2 15.3C25.3 15.5 25.5 15.6 26.1 15.8L27 16L27.9001 16.9C27.4001 17.1 26 17.7 24.8 19.1C24.8 19.1 24.7 19.2 24.7 19.3C24.5 19.5 24.4 19.6 24.1 19.4C23.5 19.1 23.1 18.9 22.7 18.7ZM25.2 20.6C25.1 20.6 25.1 20.5 25.2 20.6C25 20.3 25 20.2 25 20.1C25.3 19.4 26.2 17.8 28.1 17.3C28.3 17.7 28.8 18.2 29.7 18.4C29.7 18.7 29.6 19.1 29.6 19.4C29.6 19.5 29.5001 19.6 29.4001 19.7C28.9001 19.9 27.7 20.4 26 20.8C25.6 20.9 25.4 20.9 25.2 20.6ZM28.1 27.9C27.9 28.4 27.6001 29 26.4001 30.3C25.3001 31.3 24 32.5 24 32.5L25.2 31.1C26.4 29.7 27.9 27.6 28.1 27.2L28.8 26C28.8 26 28.4 27 28.1 27.9ZM30.9001 23.4C30.9001 22.5 30.4 22.1 30.2 21.8C30.2 21.8 30.5 23 30.5 23.9L30.4001 24C30.4001 24 30.4 24 30.3 24C30.1 24.1 30 24.2 29.8 24.3C29.6 24.4 29.4 24.4 29.2 24.3C27.9 23.6 26.8001 23.4 26.4001 23.4C26.3001 22.8 26.1001 22.3 25.9001 21.8C25.8001 21.5 25.9 21.5 26.2 21.4C27.2 21.2 28.1 20.9 28.7 20.7C29.5 20.4 30 20.6 30.2 20.7L30.8 21.2C30.9 21.3 30.9 21.5 31 22.1C31 22.1 31.0001 22.9 30.9001 23.4ZM31 20.6L30.3 20C30.1 19.8 30.1 19.6 30.1 19.5C30.2 19.1 30.2 18.6 30.2 18.4C30.4 18.3 30.7001 18.1 30.9001 17.8C31.0001 17.7 31 17.6 31 17.6C31.2 17.3 31.3 17.5 31.3 17.6C31.4 18 31.6 18.5 31.6 19.1C31.5 19.6 31.4 20.1 31 20.6Z" fill="#04542E"/>
</svg>
