<svg width="49" height="59" viewBox="0 0 49 59" fill="none" xmlns="http://www.w3.org/2000/svg">
<path d="M32.1 6.42798C32.1 6.22798 32.1001 6.12805 32.2001 6.12805C32.3001 6.02805 32.4 6.12803 32.5 6.22803C32.6 6.32803 32.7 6.52805 32.8 6.62805C32.9 6.72805 32.9 6.92808 33 7.02808C33.1 7.12808 33.2 7.22805 33.3 7.12805C33.5 7.02805 33.6001 7.02803 33.7001 7.22803C33.9001 7.52803 34.3 7.82808 34.6 8.02808C35 8.22808 35.4 8.62798 35.8 8.92798C36 9.02798 36.1001 9.22798 36.2001 9.42798C36.3001 9.52798 36.2 9.72803 36.1 9.72803C35.9 9.72803 35.7 9.828 35.6 9.828C35.5 9.828 35.3001 9.82803 35.2001 9.72803C35.0001 9.52803 34.7001 9.52805 34.4001 9.62805C34.1001 9.62805 33.7001 9.72803 33.4001 9.72803C32.9001 9.72803 32.6001 9.928 32.4001 10.328C32.2001 10.828 32 11.328 32 11.828C31.8 13.328 31.6 14.9281 31.5 16.5281C31.3 17.9281 31.2001 19.328 31 20.728C30.9 21.328 30.9 21.9281 30.8 22.5281C31.1 21.6281 31.5 20.8281 31.8 20.0281C32.3 18.6281 32.7 17.1281 33.1 15.6281C33.2 15.3281 33.2001 14.9281 33.2001 14.6281C33.2001 14.5281 33.2 14.428 33.1 14.328C32.9 14.028 32.7001 13.828 32.7001 13.428C32.6001 13.228 32.7001 13.1281 32.9001 13.1281C33.1001 13.1281 33.2 13.228 33.3 13.428C33.4 13.528 33.4 13.628 33.5 13.728C33.5 13.728 33.5 13.828 33.6 13.828C33.7 13.828 33.7001 13.728 33.7001 13.728C33.7001 13.628 33.7001 13.528 33.7001 13.428C33.7001 13.328 33.6 13.1281 33.6 13.0281C33.6 12.9281 33.6001 12.828 33.7001 12.828C33.8001 12.828 33.9001 12.9281 33.9001 13.0281C33.9001 13.1281 33.9001 13.228 33.9001 13.228C33.9001 13.328 34 13.428 34 13.328C34.1 13.328 34.1 13.2281 34.1 13.1281C34.1 13.0281 34.1 12.928 34.1 12.928C34.1 12.828 34.2 12.728 34.3 12.728C34.4 12.728 34.5 12.828 34.5 12.928C34.5 13.028 34.5 13.228 34.6 13.328C34.6 13.428 34.7001 13.528 34.9001 13.428C35.1001 13.328 35.4 13.2281 35.6 13.1281C35.6 13.1281 35.7 13.0281 35.8 13.1281C35.9 13.1281 35.8 13.228 35.8 13.328C35.8 13.528 35.8001 13.628 35.7001 13.828C35.7001 13.928 35.6 13.9281 35.5 14.0281C35.1 14.2281 35.1 14.528 35.3 14.828C35.4 14.928 35.4 15.0281 35.5 15.0281C35.6 15.2281 35.6 15.4281 35.5 15.5281C35.3 15.7281 35.1001 15.7281 34.9001 15.6281C34.7001 15.5281 34.6001 15.6281 34.4001 15.6281C34.3001 15.6281 34.3 15.728 34.3 15.728C34.2 16.528 34.0001 17.2281 33.9001 18.0281C33.7001 19.0281 33.6 20.028 33.5 20.928C33.4 22.028 33.2 23.0281 33.1 24.1281C32.9 25.4281 32.8 26.628 32.6 27.928C32.5 28.928 32.4 29.9281 32.3 31.0281C32.2 31.7281 32.2001 32.4281 32.2001 33.1281C32.2001 33.9281 32.4 34.728 32.6 35.428C32.8 36.128 33 36.9281 33 37.6281C33 38.3281 32.8001 39.128 32.7001 39.828C32.6001 40.428 32.5 40.9281 32.5 41.5281C32.5 41.8281 32.6 41.9281 32.8 42.1281C32.9 42.2281 33.1001 42.4281 33.2001 42.5281C32.7001 42.4281 32.3 42.6281 31.8 42.6281C31.3 42.6281 30.8 42.528 30.6 41.928C30.6 42.128 30.6001 42.228 30.7001 42.328C30.7001 42.428 30.7 42.5281 30.6 42.5281C30.4 42.5281 30.2 42.5281 30.1 42.5281C30 42.5281 29.9001 42.428 29.9001 42.328C29.8001 41.728 29.8001 41.028 29.7001 40.428C29.6001 41.128 29.4001 41.828 29.7001 42.428C29.8001 42.628 29.8 42.6281 29.5 42.6281C29 42.5281 28.6001 42.528 28.7001 41.728C28.7001 41.528 28.8 41.3281 28.8 41.1281C28.8 40.9281 28.9001 40.7281 28.9001 40.5281C28.6001 41.1281 28.4 41.728 28.5 42.328C27.6 42.228 27.2 41.728 27.1 40.828C27.1 41.128 27 41.428 27 41.728C26.9 42.328 26.9 42.328 26.3 42.328C26.1 42.328 25.9001 42.328 25.7001 42.328C25.6001 42.328 25.6001 42.328 25.5001 42.228C25.5001 42.428 25.4 42.428 25.3 42.428C25.2 42.428 25.1001 42.328 25.0001 42.228C24.9001 42.128 24.8 42.0281 24.6 42.1281C24.5 42.1281 24.5001 42.028 24.5001 41.928C24.6001 40.928 24.4001 40.0281 24.5001 39.0281C24.5001 38.6281 24.6001 38.328 24.5001 37.928C24.3001 38.228 24.2001 38.6281 24.2001 39.0281C24.1001 39.5281 24.1 40.0281 24.1 40.5281C24.1 41.1281 24.1 41.628 24.3 42.228C24.4 42.428 24.3 42.428 24.1 42.428C23.6 42.328 23.6 42.228 23.6 41.828C23.6 41.428 23.6 41.128 23.6 40.728C23.4 41.328 23.2 41.828 23.3 42.428V42.5281H23.2001C23.0001 42.4281 22.8 42.328 22.6 42.328C22.5 42.328 22.5001 42.328 22.5001 42.228C22.6001 42.028 22.5001 41.928 22.4001 41.728C22.2001 41.328 22.2 40.828 22.1 40.428C21.9 39.128 21.8001 37.8281 21.5001 36.5281C21.5001 36.3281 21.4 36.128 21.3 35.928V35.828C21.3 35.928 21.3 35.928 21.3 35.928C21.4 36.328 21.4 36.6281 21.3 37.0281C21 37.8281 21.0001 38.7281 21.0001 39.5281C21.0001 40.2281 21.0001 41.028 21.0001 41.728C21.0001 41.828 21.0001 42.0281 21.0001 42.1281C21.0001 42.2281 21 42.328 20.8 42.328C20.6 42.328 20.4 42.428 20.3 42.228C20.2 42.128 20.1001 42.128 20.0001 42.228C19.9001 42.228 19.8001 42.2281 19.9001 42.1281C20.2001 41.5281 20.1001 40.928 19.9001 40.228C19.8001 39.628 19.7001 39.028 19.4001 38.428C19.4001 38.428 19.4 38.328 19.3 38.328C19.2 38.528 19.2001 38.728 19.2001 38.928C19.1001 39.928 19.1 41.0281 19.1 42.0281C19.1 42.1281 19.2001 42.228 19.0001 42.328C18.9001 42.328 18.7001 42.328 18.5001 42.328C18.4001 42.328 18.5001 42.2281 18.5001 42.1281C18.5001 41.7281 18.5001 41.328 18.5001 40.828C18.4001 41.028 18.3001 41.228 18.2001 41.428C17.9001 42.028 17.4001 42.428 16.7001 42.428C16.4001 42.428 16.1 42.428 15.8 42.428C15.7 42.428 15.7001 42.428 15.7001 42.228C15.7001 41.828 16.1 41.5281 16.1 41.0281C16.1 40.9281 16.1 40.928 16.1 40.828C16 40.628 16.1 40.428 16.1 40.228C16.3 39.828 16.3 39.5281 16.3 39.1281C16.4 38.3281 16.4 37.628 16.3 36.828C16.3 35.728 16.5 34.728 16.6 33.728C16.7 32.828 16.9 31.828 16.8 30.928C16.7 29.828 16.7 28.728 16.6 27.728C16.5 26.728 16.3001 25.828 16.0001 24.928C15.5001 23.128 14.9 21.528 14.1 19.828C13.8 19.128 13.6 18.428 13.3 17.828C13.2 17.528 13.0001 17.3281 12.9001 17.0281C12.7001 16.7281 12.4001 16.628 12.0001 16.728C11.9001 16.728 11.9 16.728 11.8 16.728C11.5 16.628 11.3 16.728 11.1 16.828C11 16.928 10.9 16.828 10.8 16.828C10.7 16.828 10.6001 16.728 10.5001 16.728C10.2001 16.728 10.2 16.628 10.3 16.328C10.4 16.128 10.5001 16.028 10.7001 15.928C11.0001 15.728 11.3 15.528 11.6 15.328C11.9 15.128 12.1 15.028 12.3 14.728C12.4 14.628 12.5 14.6281 12.6 14.6281C12.7 14.7281 12.8001 14.6281 12.9001 14.5281C13.0001 14.4281 13 14.328 13.1 14.228C13.2 14.128 13.2 14.028 13.3 13.928C13.4 13.828 13.4001 13.828 13.5001 13.828C13.6001 13.828 13.6 13.9281 13.6 14.0281C13.7 13.9281 13.8001 13.8281 13.9001 14.0281C14.0001 14.1281 14.0001 14.328 13.9001 14.428L13.8 14.5281C13.7 14.7281 13.7001 14.9281 13.9001 15.0281C14.0001 15.1281 14.1001 15.1281 14.2001 15.1281C14.3001 15.1281 14.4001 15.228 14.5001 15.228C14.6001 15.328 14.7001 15.3281 14.7001 15.5281C14.6001 15.6281 14.5001 15.5281 14.4001 15.5281C14.4001 15.5281 14.4 15.5281 14.3 15.5281C14.1 15.4281 14.1 15.428 14.1 15.728C14.1 16.228 14.4001 16.6281 14.5001 17.0281C15.0001 18.4281 15.6 19.7281 16.3 21.1281C16.3 21.2281 16.4001 21.228 16.4001 21.328C16.4001 21.228 16.4001 21.028 16.4001 20.928C16.4001 19.728 16.3 18.628 16.1 17.428C15.9 15.928 15.7001 14.428 15.5001 12.928V12.828C15.5001 12.528 15.2001 12.3281 14.9001 12.5281C14.7001 12.6281 14.4001 12.628 14.2001 12.428C14.1001 12.328 14.1001 12.128 14.2001 11.828C14.3001 11.728 14.4001 11.628 14.4001 11.428C14.6001 11.228 14.5001 10.828 14.2001 10.728C13.9001 10.528 13.7001 10.228 13.7001 9.92798C13.7001 9.82798 13.8 9.82798 13.8 9.92798C14 10.028 14.2001 10.128 14.4001 10.228C14.8001 10.428 14.8001 10.328 14.9001 9.92798C14.9001 9.82798 14.9001 9.72805 14.9001 9.62805C14.9001 9.52805 14.9 9.42798 15.1 9.42798C15.2 9.42798 15.3 9.52805 15.3 9.62805C15.3 9.72805 15.3 9.82798 15.3 9.92798C15.3 10.028 15.3001 10.1281 15.4001 10.1281C15.5001 10.1281 15.6 10.028 15.6 9.92798C15.6 9.82798 15.6 9.72803 15.6 9.72803C15.6 9.62803 15.7 9.52808 15.8 9.52808C15.9 9.52808 16.0001 9.62803 16.0001 9.72803C16.0001 9.92803 15.9001 10.028 15.9001 10.228C15.9001 10.328 15.8001 10.5281 15.9001 10.5281C16.0001 10.5281 16 10.428 16.1 10.328C16.2 10.228 16.3001 10.028 16.4001 9.92798C16.5001 9.92798 16.5 9.828 16.6 9.828C16.9 9.828 17.0001 9.82805 16.9001 10.1281C16.8001 10.4281 16.6001 10.7281 16.5001 11.0281C16.4001 11.1281 16.4001 11.328 16.4001 11.428C16.4001 12.228 16.7001 13.028 16.9001 13.928C17.1001 14.628 17.2001 15.228 17.4001 15.928C17.8001 15.428 18.4001 15.128 18.9001 14.828C19.1001 14.728 19.2 14.628 19.3 14.428C19.4 14.328 19.5 14.228 19.6 14.328C19.7 14.428 19.8001 14.328 19.9001 14.228C20.0001 14.128 20 13.928 20.1 13.828C20.2 13.728 20.2 13.6281 20.3 13.5281L20.4001 13.428C20.5001 13.528 20.7001 13.5281 20.9001 13.6281C21.0001 13.7281 21.0001 13.828 20.9001 13.928C20.9001 14.028 20.8001 14.0281 20.7001 14.1281C20.5001 14.3281 20.5 14.5281 20.8 14.6281C20.9 14.7281 21.1001 14.728 21.2001 14.828C21.3001 14.828 21.3001 14.828 21.4001 14.928C21.5001 15.028 21.6001 15.028 21.5001 15.228C21.4001 15.328 21.3001 15.228 21.2001 15.228H21.1C21 15.128 21.0001 15.228 20.9001 15.328C20.9001 15.828 21.2001 16.228 21.4001 16.728C21.7001 17.528 21.9001 18.428 22.2001 19.328C22.6001 20.828 22.8001 22.228 23.2001 23.728C23.3001 24.128 23.4001 24.528 23.5001 24.928C23.5001 25.028 23.5001 25.1281 23.7001 25.0281C24.4001 24.5281 25.1 24.0281 25.8 23.5281C26.4 23.1281 26.8 22.428 27.1 21.728C27.5 20.728 27.8 19.728 28 18.728C28.4 17.228 28.7001 15.6281 29 14.0281C29.3 12.8281 29.6001 11.6281 29.9001 10.5281C30.1001 9.92808 30.4 9.328 30.6 8.828C30.7 8.528 30.6001 8.32808 30.7001 8.02808C30.7001 7.92808 30.6 7.92798 30.6 7.92798C30.5 7.92798 30.3001 8.02808 30.2001 8.02808C30.1001 8.02808 30.1 8.12808 30 8.02808C30 7.92808 30 7.928 30 7.828C30 7.728 30.1001 7.72805 30.2001 7.62805C30.4001 7.52805 30.5001 7.52798 30.7001 7.42798C30.8001 7.42798 31 7.32803 31.1 7.22803C31.3 7.02803 31.4001 6.82805 31.2001 6.62805C31.1001 6.52805 31.1 6.52798 31 6.42798C30.9 6.22798 30.9 6.02798 31 5.92798C31.8 6.12798 31.9 6.22798 32.1 6.42798ZM22.1 26.6281C22.1 26.5281 22.1 26.5281 22.1 26.5281C22 25.3281 21.9001 24.2281 21.7001 23.0281C21.5001 21.5281 21.3001 20.0281 21.2001 18.5281C21.1001 18.0281 21.1 17.5281 20.8 17.0281C20.6 16.7281 20.4 16.5281 20.1 16.5281C19.7 16.5281 19.4001 16.428 19.0001 16.428C18.9001 16.428 18.8001 16.428 18.7001 16.428C18.5001 16.628 18.2001 16.6281 18.0001 16.5281C17.9001 16.5281 17.8001 16.5281 17.9001 16.6281C17.9001 16.8281 18.0001 17.028 18.0001 17.228C18.1001 18.028 18.2 18.928 18.3 19.728C18.5 20.828 18.8001 21.828 19.0001 22.928C19.1001 23.628 19.3001 24.228 19.7001 24.728C20.3001 25.628 21.2 26.0281 22.1 26.6281ZM25.5001 38.1281C25.4001 38.4281 25.3001 38.628 25.4001 38.928C25.5001 39.128 25.5001 39.4281 25.5001 39.6281C25.6001 40.1281 25.7 40.6281 25.8 41.1281C25.9 40.4281 25.8 39.7281 25.8 39.0281C25.8 38.7281 25.7001 38.4281 25.5001 38.1281Z" fill="#56341F"/>
<path d="M26.0001 7.12806C26.2001 6.92806 26.2001 6.62798 26.1001 6.42798C26.0001 6.12798 25.8001 5.92798 25.4001 5.92798C24.6001 5.82798 24.0001 6.62808 24.4001 7.52808C24.7001 8.22808 25.5001 8.52803 26.3001 8.22803C27.1001 7.92803 27.5001 7.12801 27.4001 6.32801C27.3001 5.42801 26.6001 4.52808 25.4001 4.52808C24.1001 4.52808 22.8001 5.32808 22.5001 6.52808C22.4001 6.92808 22.5001 7.42801 22.6001 7.82801C22.6001 7.92801 22.7001 8.02808 22.8001 8.02808C23.4001 8.12808 24.0001 8.32803 24.5001 8.72803C25.8001 9.72803 25.9001 11.9281 24.7001 13.1281C24.5001 13.3281 24.2001 13.5281 23.9001 13.6281C23.7001 13.7281 23.6001 13.728 23.6001 13.928C23.1001 14.828 23.3001 15.9281 24.1001 16.6281C24.7001 17.1281 25.4001 17.428 26.1001 17.228C27.2001 17.028 27.8001 15.728 27.3001 14.828C27.0001 14.328 26.5001 14.0281 25.9001 14.0281C25.5001 14.0281 25.1001 14.428 24.9001 14.828C24.8001 15.228 24.9001 15.628 25.2001 15.828C25.6001 16.128 26.0001 16.028 26.2001 15.728C26.2001 15.728 26.2001 15.7281 26.2001 15.6281C25.9001 15.9281 25.7001 16.028 25.3001 15.828C25.0001 15.728 24.9001 15.528 24.9001 15.228C24.9001 14.928 25.1001 14.6281 25.4001 14.5281C25.7001 14.3281 26.1001 14.428 26.4001 14.728C26.7001 15.028 26.8001 15.328 26.7001 15.728C26.4001 16.528 25.6001 16.828 24.9001 16.428C24.1001 15.928 23.9001 14.928 24.6001 14.228C25.1001 13.728 25.7001 13.528 26.3001 13.728C27.1001 13.928 27.6001 14.428 27.7001 15.228C27.8001 16.028 27.5001 16.728 26.9001 17.328C26.8001 17.428 26.8001 17.4281 26.9001 17.5281C27.7001 18.3281 27.6001 19.528 26.9001 20.328C26.4001 20.928 25.9001 21.228 25.1001 21.228C24.4001 21.228 23.6001 20.528 23.5001 19.828C23.4001 19.128 23.8001 18.3281 24.4001 18.0281C25.0001 17.7281 25.8001 18.0281 26.1001 18.6281C26.4001 19.1281 26.2001 19.8281 25.6001 20.1281C25.3001 20.3281 24.9001 20.3281 24.6001 20.0281C24.3001 19.8281 24.1001 19.5281 24.2001 19.1281C24.3001 18.7281 24.6001 18.4281 25.0001 18.5281C25.4001 18.5281 25.6001 18.828 25.7001 19.228C25.8001 18.728 25.2001 18.328 24.8001 18.428C24.1001 18.528 23.7001 19.4281 24.1001 20.0281C24.6001 20.8281 25.6001 20.928 26.3001 20.228C26.7001 19.828 26.9001 19.428 26.9001 18.828C26.9001 18.328 26.7001 18.028 26.4001 17.728C26.3001 17.628 26.3001 17.628 26.2001 17.728C24.7001 18.228 22.7001 17.028 22.5001 15.228C22.5001 14.828 22.5001 14.4281 22.7001 14.0281C22.8001 13.7281 22.8001 13.728 22.5001 13.728C22.0001 13.628 21.6001 13.528 21.2001 13.228C20.5001 12.628 20.1001 11.128 21.1001 10.328C21.7001 9.72801 22.7001 9.72803 23.4001 10.228C23.9001 10.628 24.0001 11.428 23.7001 11.928C23.4001 12.428 22.8001 12.7281 22.2001 12.5281C21.7001 12.4281 21.5001 11.928 21.5001 11.428C21.5001 11.028 21.8001 10.6281 22.3001 10.6281C22.8001 10.5281 23.2001 10.928 23.2001 11.428C23.2001 11.728 22.9001 12.0281 22.6001 12.0281C22.5001 12.0281 22.5001 12.0281 22.4001 12.0281C22.8001 12.3281 23.4001 12.0281 23.4001 11.5281C23.5001 10.8281 22.9001 10.328 22.1001 10.428C21.3001 10.628 20.9001 11.3281 21.1001 12.1281C21.3001 12.9281 22.1001 13.428 23.0001 13.328C24.0001 13.128 24.6001 12.5281 24.7001 11.5281C24.8001 10.5281 24.5001 9.72803 23.7001 9.22803C22.9001 8.72803 22.1001 8.62801 21.2001 8.82801C20.1001 9.12801 19.3001 9.62803 18.9001 10.728C18.7001 11.228 18.7001 11.828 18.8001 12.328C18.8001 12.428 18.8001 12.5281 18.9001 12.5281C18.9001 12.6281 18.9001 12.728 18.7001 12.828C18.6001 12.828 18.5001 12.8281 18.4001 12.6281C18.4001 12.5281 18.4001 12.528 18.3001 12.428C17.9001 10.728 18.6001 9.32806 20.1001 8.62806C20.3001 8.52806 20.4001 8.42803 20.4001 8.22803C20.7001 6.72803 19.8001 5.62803 18.4001 5.22803C17.6001 5.02803 16.8001 5.12806 16.1001 5.62806C15.4001 6.22806 15.1001 7.62798 15.8001 8.42798C16.2001 8.92798 17.1001 9.22798 17.7001 8.92798C18.4001 8.62798 18.8001 7.62808 18.4001 7.02808C18.1001 6.62808 17.6001 6.42806 17.2001 6.62806C16.6001 6.82806 16.5001 7.62798 16.9001 7.92798C16.8001 7.72798 16.7001 7.42803 16.8001 7.22803C16.9001 6.92803 17.2001 6.72801 17.6001 6.82801C18.0001 6.92801 18.2001 7.12808 18.3001 7.52808C18.3001 7.92808 18.1001 8.32808 17.8001 8.52808C17.5001 8.72808 16.9001 8.62801 16.6001 8.32801C16.0001 7.72801 16.2001 6.52803 17.0001 6.22803C17.8001 5.92803 19.1001 6.42806 19.1001 7.62806C19.1001 8.72806 18.3001 9.62806 17.2001 9.62806C16.3001 9.62806 15.4001 9.22803 15.1001 8.22803C14.7001 6.92803 15.1001 5.62808 16.2001 5.02808C16.7001 4.72808 17.2001 4.62803 17.8001 4.72803C18.6001 4.72803 19.4001 5.02806 20.0001 5.62806C20.8001 6.32806 21.1001 7.22803 20.9001 8.22803C20.9001 8.42803 20.9001 8.42798 21.1001 8.42798C21.2001 8.42798 21.4001 8.42801 21.5001 8.32801C21.6001 8.22801 21.5001 8.02798 21.4001 7.92798C21.2001 7.02798 21.5001 6.22798 22.1001 5.42798C22.6001 4.82798 22.9001 4.22798 22.7001 3.42798C22.4001 2.32798 21.1001 1.52803 20.1001 1.72803C19.3001 1.92803 18.7001 2.82806 18.9001 3.62806C19.1001 4.22806 19.7001 4.72806 20.3001 4.62806C20.7001 4.62806 21.0001 4.32798 21.2001 3.92798C21.3001 3.52798 21.2001 3.22808 20.9001 3.02808C20.6001 2.82808 20.4001 2.82808 20.1001 3.02808C20.3001 2.92808 20.5001 2.92808 20.7001 3.02808C21.0001 3.12808 21.2001 3.42803 21.1001 3.72803C21.0001 4.12803 20.8001 4.42798 20.4001 4.42798C20.0001 4.42798 19.7001 4.32808 19.5001 4.02808C19.3001 3.72808 19.3001 3.42808 19.5001 3.02808C19.7001 2.52808 20.3001 2.32798 20.7001 2.42798C21.3001 2.52798 21.7001 3.02808 21.8001 3.52808C21.9001 4.72808 20.6001 5.52808 19.6001 5.02808C18.5001 4.52808 18.2001 3.32803 18.8001 2.22803C19.4001 1.12803 20.5001 0.827983 21.7001 1.42798C22.4001 1.72798 22.9001 2.22808 23.2001 3.02808C23.4001 3.42808 23.4001 3.92798 23.3001 4.42798C23.3001 4.62798 23.3001 4.62808 23.4001 4.52808C23.7001 4.42808 24.1001 4.32801 24.4001 4.32801C25.2001 4.22801 25.8001 4.42798 26.4001 4.92798L26.5001 5.02808V4.92798C26.5001 4.62798 26.5001 4.32806 26.6001 4.12806C26.7001 3.72806 26.9001 3.42803 27.2001 3.22803C27.3001 3.12803 27.4001 3.02801 27.4001 2.82801C27.4001 2.12801 27.1001 1.52803 26.5001 1.22803C25.8001 0.928032 25.2001 0.828032 24.5001 1.22803C23.7001 1.72803 23.5001 3.12806 24.4001 3.62806C24.8001 3.82806 25.1001 3.82803 25.5001 3.72803C26.0001 3.52803 26.2001 2.92808 26.0001 2.52808C25.9001 2.32808 25.7001 2.22806 25.5001 2.12806C25.9001 2.42806 26.0001 2.62798 26.0001 2.92798C25.9001 3.22798 25.7001 3.52808 25.3001 3.52808C24.9001 3.52808 24.6001 3.32808 24.4001 3.02808C24.2001 2.62808 24.3001 2.32798 24.5001 1.92798C24.7001 1.62798 25.1001 1.52808 25.5001 1.52808C26.0001 1.52808 26.3001 1.82801 26.5001 2.32801C26.7001 2.82801 26.6001 3.32803 26.2001 3.72803C25.8001 4.22803 25.3001 4.32803 24.7001 4.22803C24.1001 4.12803 23.7001 3.72806 23.5001 3.12806C23.1001 1.82806 23.9001 0.527983 25.3001 0.427983C26.2001 0.327983 27.0001 0.627983 27.6001 1.42798C27.9001 1.72798 28.0001 2.12806 28.0001 2.62806C28.0001 2.72806 28.0001 2.82801 28.2001 2.82801C28.9001 2.72801 29.5001 2.82803 30.1001 3.22803C30.2001 3.32803 30.3001 3.32806 30.3001 3.12806C30.6001 2.32806 31.3001 1.82801 32.1001 1.82801C32.7001 1.82801 33.3001 1.92801 33.7001 2.32801C34.3001 2.82801 34.5001 3.62801 34.2001 4.32801C34.0001 4.92801 33.3001 5.32801 32.7001 5.32801C31.7001 5.32801 31.1001 4.32798 31.5001 3.42798C31.8001 2.72798 32.8001 2.52806 33.4001 3.12806C33.6001 3.32806 33.6001 3.82806 33.5001 4.12806C33.3001 4.42806 33.0001 4.62808 32.7001 4.52808C32.2001 4.42808 32.0001 4.02808 32.1001 3.52808C31.8001 3.82808 32.0001 4.42803 32.4001 4.72803C33.1001 5.02803 33.8001 4.62801 33.9001 3.82801C34.0001 2.92801 33.4001 2.32803 32.5001 2.22803C32.0001 2.22803 31.6001 2.32806 31.2001 2.62806C30.7001 3.02806 30.6001 3.62806 30.8001 4.12806C31.2001 5.22806 30.9001 6.22806 30.2001 7.12806C29.4001 8.02806 28.5001 8.32798 27.3001 7.92798H27.2001C27.2001 7.92798 27.1001 7.92808 27.1001 8.02808C27.1001 8.02808 27.1001 8.12806 27.2001 8.12806H27.3001C28.5001 8.22806 29.4001 9.02803 29.6001 10.228C29.8001 11.228 29.6001 12.228 28.8001 12.928C28.2001 13.528 27.2001 13.628 26.3001 13.228C25.1001 12.628 25.0001 11.3281 25.4001 10.5281C25.9001 9.72808 27.1001 9.42808 27.8001 10.0281C28.3001 10.4281 28.5001 11.228 28.2001 11.728C27.9001 12.228 27.3001 12.528 26.7001 12.228C26.3001 12.028 26.1001 11.628 26.1001 11.228C26.2001 10.828 26.4001 10.528 26.9001 10.428C27.2001 10.428 27.6001 10.528 27.7001 10.828C27.8001 11.128 27.7001 11.4281 27.5001 11.6281C27.4001 11.7281 27.2001 11.728 27.1001 11.728C27.5001 11.828 27.6001 11.728 27.8001 11.428C28.0001 11.128 27.9001 10.728 27.7001 10.428C27.4001 10.128 27.0001 10.0281 26.6001 10.1281C26.2001 10.2281 25.9001 10.5281 25.8001 11.0281C25.6001 12.1281 26.5001 13.028 27.7001 12.828C28.4001 12.728 28.8001 12.3281 29.1001 11.6281C29.4001 10.7281 29.3001 9.92806 28.7001 9.12806C28.2001 8.52806 27.6001 8.42798 26.9001 8.42798C26.8001 8.42798 26.8001 8.52808 26.7001 8.52808C26.1001 9.02808 25.4001 9.22808 24.7001 9.02808C23.6001 8.72808 23.0001 7.22801 23.7001 6.32801C24.1001 5.82801 24.6001 5.62803 25.2001 5.72803C25.8001 5.82803 26.1001 6.22801 26.2001 6.82801C26.3001 7.32801 26.1001 7.72798 25.7001 7.92798C25.3001 8.22798 24.8001 8.12798 24.5001 7.92798C24.2001 7.72798 24.1001 7.22798 24.2001 6.92798C24.3001 6.62798 24.6001 6.42798 24.9001 6.42798C25.4001 6.42798 25.7001 6.72803 25.6001 7.22803C26.0001 7.02803 26.0001 7.02806 26.0001 7.12806ZM27.7001 5.62806C27.8001 6.02806 27.9001 6.42801 27.9001 6.82801C27.9001 6.92801 27.9001 7.02808 28.1001 7.02808C28.8001 7.22808 29.5001 7.22803 30.1001 6.72803C30.8001 6.12803 31.1001 5.42808 31.1001 4.52808C31.1001 3.92808 30.8001 3.42808 30.2001 3.02808C29.3001 2.52808 28.2001 2.82803 27.8001 3.72803C27.5001 4.32803 27.7001 5.02801 28.3001 5.32801C28.9001 5.62801 29.6001 5.42801 29.8001 4.82801C30.0001 4.32801 29.7001 3.92801 29.3001 3.82801H29.4001C29.7001 4.02801 29.8001 4.22808 29.8001 4.52808C29.8001 4.82808 29.6001 5.02806 29.3001 5.12806C28.7001 5.32806 28.1001 4.72808 28.3001 4.02808C28.5001 3.22808 29.4001 3.02808 30.1001 3.52808C30.5001 3.92808 30.6001 4.32798 30.4001 4.92798C30.2001 5.52798 29.8001 5.82801 29.2001 5.82801C28.5001 6.02801 28.1001 5.92806 27.7001 5.62806Z" fill="#73BE44"/>
<path d="M4.00008 9.42797C3.70008 9.02797 3.00006 9.22804 2.80006 9.62804C2.50006 10.228 2.90009 11.128 3.70009 11.128C4.70009 11.228 5.50009 10.328 5.20009 9.32799C4.90009 8.32799 4.10006 7.92807 3.30006 8.02807C1.90006 8.02807 1.00006 9.22799 1.30006 10.828C1.50006 11.728 1.90009 12.528 2.70009 12.928C3.30009 13.228 3.90005 13.3281 4.60005 13.0281C5.50005 12.7281 6.30005 12.728 7.10005 13.128C7.10005 13.128 7.10009 13.128 7.20009 13.128C7.20009 12.928 7.10005 12.7281 7.10005 12.5281C7.00005 11.4281 7.2001 10.428 7.9001 9.62804C8.3001 9.12804 8.90008 8.82799 9.50008 8.82799H9.60005C9.80005 8.82799 9.80009 8.82804 9.70009 8.62804C9.00009 7.62804 9.00008 6.62807 9.50008 5.52807C9.70008 4.92807 10.1001 4.42807 10.7001 4.02807C11.3001 3.62807 12.0001 3.42804 12.8001 3.62804C12.9001 3.62804 13.0001 3.72807 13.0001 3.52807C12.9001 2.92807 13.1001 2.42797 13.5001 1.92797C14.2001 1.12797 15.5001 0.828041 16.4001 1.12804C17.6001 1.52804 18.1001 3.22802 17.3001 4.22802C16.7001 4.92802 15.6001 5.12807 14.9001 4.52807C14.4001 4.12807 14.3001 3.62807 14.4001 3.02807C14.5001 2.52807 15.0001 2.22804 15.5001 2.12804C16.1001 2.02804 16.6001 2.42807 16.7001 3.02807C16.8001 3.62807 16.5001 4.02804 15.9001 4.12804C15.6001 4.12804 15.4001 4.02799 15.2001 3.82799C15.0001 3.62799 15.0001 3.32807 15.1001 3.02807C15.2001 2.82807 15.4001 2.72804 15.6001 2.62804C15.7001 2.62804 15.7001 2.62804 15.8001 2.62804C15.4001 2.42804 14.8001 2.82799 14.8001 3.32799C14.8001 4.22799 15.5001 4.52802 16.3001 4.22802C17.0001 3.92802 17.3001 3.12799 16.9001 2.32799C16.6001 1.72799 16.1001 1.42797 15.5001 1.42797C14.8001 1.42797 14.3001 1.62804 13.8001 2.12804C13.3001 2.62804 13.2001 3.22799 13.4001 3.82799C13.4001 3.92799 13.5001 4.02807 13.6001 4.02807C13.9001 4.22807 14.1001 4.52799 14.3001 4.82799C15.0001 5.92799 14.4001 7.52797 13.1001 7.92797C12.3001 8.12797 11.2001 7.72797 10.9001 6.92797C10.6001 6.32797 10.8001 5.52804 11.3001 5.12804C11.8001 4.72804 12.5001 4.72804 13.0001 5.12804C13.4001 5.42804 13.5001 6.02807 13.2001 6.52807C12.9001 6.92807 12.5001 7.12797 12.0001 6.92797C11.5001 6.72797 11.3001 6.12804 11.7001 5.62804C11.9001 5.42804 12.1001 5.32797 12.3001 5.42797C12.6001 5.52797 12.8001 5.72807 12.8001 6.02807C12.8001 5.82807 12.8001 5.62797 12.6001 5.42797C12.3001 5.22797 12.1001 5.22799 11.8001 5.32799C11.5001 5.42799 11.3001 5.72804 11.2001 6.12804C11.1001 6.72804 11.6001 7.32797 12.2001 7.42797C12.8001 7.52797 13.3001 7.32799 13.6001 6.82799C14.0001 6.22799 14.1001 5.72804 13.7001 5.12804C13.0001 3.82804 11.3001 3.62802 10.3001 4.72802C9.60006 5.52802 9.40005 6.32799 9.60005 7.32799C9.80005 8.12799 10.3001 8.62797 10.9001 8.92797C11.8001 9.32797 12.3001 10.028 12.4001 10.928C12.5001 11.928 11.9001 13.128 10.8001 13.328C9.60006 13.528 8.80005 12.928 8.60005 11.928C8.40005 11.228 8.8001 10.428 9.4001 10.228C10.2001 9.92802 11.1001 10.228 11.3001 11.228C11.4001 12.028 10.8001 12.628 10.0001 12.428C9.60008 12.328 9.4001 11.928 9.4001 11.628C9.4001 11.228 9.6001 11.028 9.9001 10.928C10.1001 10.828 10.4001 10.9281 10.6001 11.0281C10.8001 11.2281 10.8001 11.428 10.7001 11.628C10.7001 11.628 10.7001 11.628 10.7001 11.728C10.9001 11.528 10.9001 11.328 10.8001 11.128C10.7001 10.828 10.5001 10.728 10.2001 10.728C9.60009 10.628 9.10005 11.028 9.10005 11.728C9.00005 12.728 9.90005 13.1281 10.6001 13.0281C11.6001 12.9281 12.1001 12.028 12.0001 11.128C11.9001 10.028 10.8001 9.42799 10.1001 9.32799C8.40005 9.12799 7.60008 10.528 7.50008 11.728C7.40008 12.428 7.5001 13.028 7.9001 13.628C8.5001 14.628 9.40008 15.0281 10.5001 15.0281C10.5001 15.0281 10.5001 15.0281 10.6001 15.0281C10.8001 15.0281 10.9001 15.028 10.9001 15.228C10.9001 15.428 10.8001 15.5281 10.7001 15.5281C10.3001 15.6281 9.90008 15.528 9.50008 15.428C8.80008 15.228 8.20006 14.928 7.80006 14.328C7.10006 13.428 5.90008 13.128 5.00008 13.428C3.80008 13.828 3.00006 14.7281 2.80006 16.0281C2.50006 17.4281 3.50009 18.528 4.70009 18.728C5.70009 18.928 6.6001 18.428 6.9001 17.428C7.2001 16.428 6.50008 15.428 5.50008 15.328C5.00008 15.328 4.5001 15.728 4.4001 16.228C4.3001 16.628 4.5001 17.128 4.9001 17.328C5.3001 17.528 5.7001 17.428 5.9001 17.128C5.9001 17.028 6.00008 17.028 6.00008 16.928C5.80008 17.228 5.50009 17.328 5.20009 17.228C4.90009 17.028 4.70006 16.628 4.80006 16.328C5.00006 15.728 5.80006 15.528 6.30006 16.128C6.60006 16.428 6.70008 16.928 6.50008 17.328C6.20008 17.828 5.80006 18.0281 5.30006 18.0281C4.10006 17.8281 3.60006 16.628 4.30006 15.628C5.00006 14.628 6.2001 14.828 6.9001 15.428C7.5001 15.828 7.70005 16.428 7.60005 17.128C7.60005 17.228 7.60005 17.228 7.60005 17.328H7.70009C8.80009 16.928 9.70008 17.228 10.5001 17.928C10.8001 18.228 11.1001 18.528 11.2001 18.928C11.5001 19.728 11.4001 20.528 10.9001 21.228C10.0001 22.428 8.40005 22.3281 7.60005 21.0281C7.30005 20.5281 7.30005 20.0281 7.60005 19.5281C7.90005 19.0281 8.30008 18.628 9.00008 18.728C9.70008 18.728 10.3001 19.428 10.3001 20.128C10.3001 20.528 9.90008 21.028 9.50008 21.128C9.10008 21.228 8.6001 21.028 8.4001 20.728C8.2001 20.428 8.2001 20.228 8.4001 19.928C8.6001 19.628 8.80005 19.5281 9.10005 19.5281C9.40005 19.5281 9.60009 19.7281 9.70009 20.0281C9.70009 20.1281 9.70006 20.128 9.80006 20.228C9.80006 19.928 9.7001 19.7281 9.4001 19.5281C9.1001 19.3281 8.80008 19.3281 8.50008 19.5281C7.70008 20.0281 7.80005 21.0281 8.60005 21.5281C9.60005 22.1281 10.9001 21.428 10.9001 20.228C10.9001 19.228 10.4001 18.628 9.60005 18.128C8.60005 17.628 7.70008 17.828 7.00008 18.628C6.30008 19.428 5.50008 19.728 4.50008 19.428C3.30008 19.128 2.50006 18.428 2.30006 17.128C2.10006 16.228 2.50008 15.428 3.00008 14.628C3.20008 14.328 3.40005 14.128 3.60005 13.928C3.60005 13.828 3.50008 13.828 3.50008 13.828C2.10008 13.528 1.3001 12.628 0.900101 11.328C0.700101 10.428 0.700089 9.62799 1.20009 8.82799C1.60009 8.12799 2.30008 7.82802 3.00008 7.72802C3.60008 7.62802 4.20006 7.72804 4.80006 8.12804C5.10006 8.32804 5.40008 8.62807 5.50008 9.02807C5.60008 9.12807 5.60006 9.22802 5.80006 9.22802C7.00006 9.52802 8.20008 8.82807 8.50008 7.52807C8.70008 6.82807 8.70009 6.02797 8.20009 5.42797C7.70009 4.82797 7.1001 4.62799 6.4001 4.82799C5.8001 4.92799 5.40009 5.42807 5.20009 6.02807C5.00009 6.92807 5.60008 7.72804 6.50008 7.62804C7.10008 7.52804 7.50009 6.82799 7.20009 6.32799C7.00009 6.02799 6.80008 6.02807 6.50008 6.02807C6.80008 6.02807 7.00005 6.12797 7.10005 6.42797C7.20005 6.62797 7.20008 6.92804 7.00008 7.12804C6.70008 7.52804 6.00009 7.52804 5.70009 7.12804C5.50009 6.82804 5.50005 6.42804 5.60005 6.12804C5.70005 5.82804 6.0001 5.62804 6.4001 5.62804C6.9001 5.62804 7.30005 5.72804 7.60005 6.12804C7.90005 6.52804 7.90005 7.02807 7.60005 7.52807C7.20005 8.22807 6.30008 8.42807 5.50008 8.02807C4.60008 7.52807 4.4001 6.42797 4.9001 5.42797C5.3001 4.72797 6.20008 4.32807 7.00008 4.52807C8.30008 4.72807 9.10005 5.62797 9.10005 6.92797C9.10005 8.12797 8.60005 9.02804 7.60005 9.62804C7.10005 9.92804 6.60008 10.028 6.00008 9.92797C5.70008 9.92797 5.70009 9.92804 5.70009 10.128C5.70009 11.328 4.50006 12.228 3.30006 11.928C2.30006 11.628 1.8001 10.428 2.4001 9.62804C2.7001 9.12804 3.4001 8.92804 3.9001 9.12804C4.6001 9.42804 4.90006 10.428 4.30006 10.928C3.80006 11.328 3.1001 11.228 2.9001 10.628C2.8001 10.328 2.90005 10.128 3.10005 9.92797C3.30005 9.72797 3.60006 9.72802 3.80006 9.72802C3.80006 9.32802 3.90008 9.32797 4.00008 9.42797Z" fill="#73BE44"/>
<path d="M39.4001 8.52808C39.7001 8.62808 39.9001 8.62803 40.2001 8.72803C41.2001 9.12803 41.8001 10.0281 41.8001 11.1281C41.8001 11.8281 41.6001 12.4281 41.3001 13.0281C41.3001 13.0281 41.3001 13.1281 41.2001 13.1281C41.5001 13.0281 41.8001 13.0281 42.1001 13.0281C42.5001 13.0281 42.9001 13.128 43.3001 13.328C44.6001 14.128 46.0001 13.628 46.8001 12.428C47.3001 11.728 47.4001 11.0281 47.3001 10.1281C47.0001 8.92805 45.5001 8.12803 44.4001 8.72803C43.7001 9.12803 43.3001 9.82805 43.4001 10.6281C43.5001 11.2281 43.9001 11.5281 44.4001 11.6281C44.8001 11.7281 45.2001 11.728 45.6001 11.328C45.8001 11.128 45.9001 10.8281 45.9001 10.5281C45.9001 10.2281 45.7001 10.028 45.4001 9.828C45.2001 9.728 44.9001 9.728 44.7001 9.828C44.8001 9.828 45.0001 9.728 45.1001 9.828C45.4001 9.928 45.7001 10.2281 45.6001 10.6281C45.5001 11.0281 45.2001 11.328 44.8001 11.328C44.2001 11.228 43.8001 10.828 43.9001 10.328C44.0001 9.728 44.5001 9.228 45.1001 9.328C45.7001 9.428 46.2001 9.828 46.3001 10.328C46.5001 10.828 46.2001 11.528 45.8001 11.928C45.4001 12.228 45.0001 12.328 44.6001 12.228C43.7001 12.128 43.1001 11.4281 42.9001 10.5281C42.9001 10.3281 42.9001 10.128 42.9001 9.92798C43.0001 9.72798 42.9001 9.72805 42.7001 9.62805C42.5001 9.62805 42.3001 9.52808 42.1001 9.52808C41.2001 9.22808 40.8001 8.52805 40.6001 7.62805C40.4001 6.62805 40.6001 5.72808 41.3001 5.02808C41.9001 4.42808 42.7001 4.32805 43.5001 4.62805C44.2001 4.82805 44.6001 5.32808 44.7001 6.02808C44.8001 6.42808 44.7001 6.82803 44.6001 7.22803C44.2001 8.22803 42.8001 8.42803 42.1001 7.72803C41.6001 7.12803 41.6001 6.12803 42.2001 5.72803C42.6001 5.42803 43.2001 5.52803 43.5001 5.72803C43.8001 6.02803 44.0001 6.52798 43.8001 6.92798C43.6001 7.32798 43.1001 7.52803 42.7001 7.22803C42.4001 7.02803 42.3001 6.52803 42.5001 6.22803C42.5001 6.22803 42.5001 6.22805 42.6001 6.12805C42.4001 6.22805 42.3001 6.528 42.3001 6.828C42.4001 7.328 42.8001 7.72805 43.4001 7.62805C43.9001 7.52805 44.3001 7.12805 44.3001 6.62805C44.3001 5.92805 44.0001 5.32805 43.5001 5.12805C42.9001 4.92805 42.1001 5.02808 41.6001 5.52808C40.8001 6.42808 41.0001 8.02803 42.0001 8.72803C42.4001 9.02803 42.8001 9.12808 43.2001 9.02808C43.3001 9.02808 43.4001 9.02798 43.4001 8.92798C44.0001 7.82798 45.4001 7.72803 46.5001 8.22803C47.6001 8.72803 48.2001 9.72808 48.0001 11.0281C47.8001 12.2281 47.2001 13.228 46.0001 13.828C45.7001 14.028 45.3001 14.0281 44.9001 14.1281C44.8001 14.1281 44.8001 14.1281 44.8001 14.1281C44.8001 14.2281 44.8001 14.228 44.9001 14.228C45.4001 14.928 45.7001 15.6281 45.7001 16.5281C45.7001 17.5281 45.2001 18.328 44.4001 18.828C43.5001 19.328 42.6001 19.4281 41.7001 19.0281C41.6001 18.9281 41.5001 19.0281 41.5001 19.1281C41.5001 19.5281 41.4001 19.828 41.2001 20.228C40.7001 21.228 39.9001 21.728 38.9001 21.928C38.3001 22.028 37.6001 22.028 37.0001 21.728C35.6001 21.228 35.0001 19.828 35.5001 18.428C35.8001 17.628 36.3001 17.028 37.2001 16.828C38.4001 16.628 39.3001 17.328 39.5001 18.428C39.7001 19.228 39.2001 20.028 38.5001 20.328C37.5001 20.728 36.5001 20.028 36.5001 18.928C36.5001 18.428 36.8001 18.128 37.2001 17.928C37.6001 17.728 38.1001 17.928 38.4001 18.228C38.6001 18.528 38.7001 18.828 38.5001 19.228C38.4001 19.528 38.1001 19.628 37.8001 19.728C37.5001 19.728 37.3001 19.628 37.2001 19.428C37.1001 19.228 37.1001 18.928 37.2001 18.728L37.3001 18.6281C36.9001 18.8281 36.9001 19.428 37.2001 19.728C37.5001 20.028 37.8001 20.1281 38.2001 20.0281C38.6001 19.9281 38.8001 19.728 39.0001 19.328C39.3001 18.428 38.6001 17.528 37.7001 17.428C36.5001 17.328 35.9001 18.228 35.8001 19.228C35.7001 20.328 36.3001 21.128 37.4001 21.428C38.4001 21.728 39.4001 21.528 40.2001 20.828C40.7001 20.428 40.9001 19.928 41.0001 19.228C41.0001 19.128 41.0001 19.028 41.0001 18.928C41.0001 18.728 40.9001 18.428 40.8001 18.228C40.3001 17.428 40.3001 16.428 40.9001 15.728C41.5001 15.028 42.6001 14.628 43.5001 15.428C44.2001 16.028 44.3001 16.9281 43.8001 17.5281C43.5001 17.9281 42.9001 18.1281 42.4001 18.0281C41.9001 17.8281 41.6001 17.528 41.5001 16.928C41.4001 16.428 41.8001 16.028 42.3001 15.928C42.7001 15.828 43.2001 16.1281 43.3001 16.5281C43.4001 16.9281 43.1001 17.328 42.7001 17.428C42.4001 17.528 42.1001 17.228 42.0001 16.828C41.9001 17.228 42.3001 17.6281 42.8001 17.5281C43.4001 17.4281 43.7001 16.828 43.5001 16.328C43.2001 15.428 42.3001 15.228 41.6001 15.728C40.8001 16.328 40.7001 17.3281 41.4001 18.1281C42.0001 18.8281 43.0001 18.9281 43.8001 18.6281C45.0001 18.1281 45.5001 16.9281 45.1001 15.6281C44.8001 14.6281 44.2001 13.9281 43.2001 13.5281C42.3001 13.1281 41.5001 13.328 40.7001 13.828C40.2001 14.128 39.8001 14.4281 39.2001 14.5281C38.5001 14.6281 37.8001 14.5281 37.2001 14.1281C37.1001 14.0281 37.0001 13.928 37.1001 13.828C37.2001 13.728 37.3001 13.628 37.5001 13.728C38.1001 14.028 38.7001 14.2281 39.4001 14.0281C40.4001 13.7281 41.0001 13.0281 41.3001 12.1281C41.6001 11.4281 41.6001 10.7281 41.3001 10.0281C40.8001 8.92808 39.4001 8.42798 38.4001 8.92798C37.6001 9.42798 37.2001 10.528 37.6001 11.228C38.0001 11.928 39.0001 12.228 39.6001 11.728C39.9001 11.428 40.1001 11.0281 40.0001 10.6281C39.9001 10.2281 39.6001 10.1281 39.3001 10.0281C39.0001 9.92808 38.8001 10.128 38.6001 10.328C38.8001 10.128 38.9001 10.0281 39.2001 10.1281C39.6001 10.2281 39.8001 10.528 39.8001 10.928C39.7001 11.428 39.3001 11.6281 38.9001 11.6281C38.3001 11.5281 37.9001 11.0281 38.0001 10.5281C38.1001 9.82808 38.7001 9.42808 39.3001 9.52808C40.0001 9.62808 40.5001 10.228 40.5001 10.928C40.5001 11.728 39.9001 12.4281 39.2001 12.5281C37.7001 12.7281 36.6001 11.5281 37.0001 10.0281C37.2001 9.22808 37.7001 8.72798 38.4001 8.42798C39.7001 7.92798 40.2001 6.72798 39.7001 5.42798C39.4001 4.62798 38.8001 4.028 37.9001 3.828C36.8001 3.528 35.7001 4.42808 35.6001 5.52808C35.6001 6.22808 36.1001 7.12803 36.9001 7.22803C37.3001 7.22803 37.9001 6.92808 38.1001 6.52808C38.3001 6.12808 38.2001 5.628 37.8001 5.328C37.5001 5.028 37.0001 5.12808 36.7001 5.52808C36.8001 5.52808 36.8001 5.52808 36.8001 5.52808C37.1001 5.32808 37.4001 5.32808 37.7001 5.52808C38.0001 5.82808 38.0001 6.22808 37.8001 6.52808C37.6001 6.82808 37.2001 6.928 36.8001 6.828C36.4001 6.728 36.2001 6.32798 36.1001 5.92798C36.1001 5.42798 36.3001 5.12798 36.6001 4.92798C37.0001 4.62798 37.4001 4.628 37.9001 4.828C38.9001 5.328 38.9001 6.628 38.0001 7.328C37.0001 8.128 35.7001 7.72808 35.1001 6.52808C34.7001 5.62808 35.0001 4.62808 35.7001 4.02808C36.1001 3.62808 36.7001 3.428 37.2001 3.328C37.7001 3.328 38.2001 3.42803 38.6001 3.72803C39.5001 4.32803 40.0001 5.228 40.1001 6.328C40.2001 7.128 39.9001 7.728 39.4001 8.328C39.4001 8.428 39.4001 8.42808 39.4001 8.52808C39.4001 8.42808 39.4001 8.52808 39.4001 8.52808Z" fill="#73BE44"/>
<path d="M21.3 45.0281C22.6 45.0281 23.8 45.628 24.6 46.828C25.6 48.328 25.5 50.528 24.4 51.928C23.6 52.928 22.6 53.3281 21.4 53.5281C20.4 53.6281 19.4 53.428 18.6 52.928C17.4 52.228 16.8 51.128 16.6 49.728C16.3 47.828 17.7 45.928 19.5 45.328C20 45.128 20.6 45.0281 21.3 45.0281ZM20.8 46.0281C19.7 46.0281 19 46.428 18.5 47.228C18 47.928 17.9 48.7281 18 49.5281C18.2 50.9281 18.9 51.928 20.2 52.428C21.6 52.928 22.9 52.4281 23.6 51.1281C24.3 49.7281 24 48.2281 23 47.1281C22.5 46.4281 21.7 46.0281 20.8 46.0281Z" fill="#73BE44"/>
<path d="M4.10004 53.5281C3.60004 53.5281 3.30009 53.5281 2.90009 53.5281C2.80009 53.5281 2.70007 53.528 2.70007 53.328C2.90007 52.628 3.00006 51.8281 3.00006 51.0281C3.00006 49.7281 3.00006 48.4281 3.00006 47.1281C3.00006 46.5281 3.00005 45.8281 2.80005 45.2281C2.80005 45.1281 2.80009 45.0281 2.90009 45.1281C3.80009 45.1281 4.60006 45.0281 5.50006 45.2281C6.10006 45.3281 6.60006 45.6281 7.00006 46.1281C7.60006 46.9281 7.40004 48.0281 6.60004 48.7281C6.30004 49.0281 6.30004 49.0281 6.60004 49.2281C7.00004 49.5281 7.30006 49.828 7.50006 50.328C7.90006 51.228 7.60005 52.228 6.80005 52.828C6.30005 53.228 5.80007 53.328 5.20007 53.428C4.80007 53.528 4.40004 53.5281 4.10004 53.5281ZM4.30005 50.928C4.30005 51.428 4.30005 51.9281 4.30005 52.5281C4.30005 52.6281 4.30009 52.7281 4.40009 52.7281C5.10009 52.8281 5.90004 52.3281 6.10004 51.7281C6.30004 51.1281 6.20009 50.6281 5.90009 50.1281C5.60009 49.6281 5.10004 49.4281 4.60004 49.2281C4.30004 49.1281 4.30005 49.128 4.30005 49.428C4.30005 49.928 4.30005 50.428 4.30005 50.928ZM4.30005 47.428C4.30005 47.828 4.30005 48.3281 4.30005 48.7281C4.30005 48.9281 4.40006 48.928 4.50006 48.928C4.80006 48.828 5.10005 48.7281 5.30005 48.5281C5.70005 48.1281 5.90005 47.6281 5.80005 47.1281C5.70005 46.6281 5.40009 46.3281 4.90009 46.1281C4.80009 46.1281 4.60006 46.0281 4.50006 46.0281C4.30006 45.9281 4.20007 46.0281 4.20007 46.2281C4.30007 46.5281 4.30005 47.028 4.30005 47.428Z" fill="#73BE44"/>
<path d="M27.5001 53.5281C27.0001 53.5281 26.7001 53.5281 26.3001 53.5281C26.1001 53.5281 26.1001 53.528 26.1001 53.328C26.3001 52.628 26.4001 51.928 26.4001 51.228C26.4001 49.728 26.4001 48.328 26.4001 46.828C26.4001 46.328 26.4001 45.828 26.2001 45.328C26.2001 45.228 26.2001 45.1281 26.3001 45.1281C27.1001 45.1281 27.9001 45.0281 28.7001 45.1281C29.5001 45.2281 30.2001 45.628 30.5001 46.428C30.8001 47.128 30.7001 47.928 30.2001 48.428C30.1001 48.528 29.9001 48.728 29.8001 48.828C29.6001 48.928 29.7001 49.0281 29.8001 49.1281C30.2001 49.3281 30.5001 49.6281 30.7001 50.0281C31.3001 50.8281 31.2001 51.8281 30.5001 52.5281C30.0001 53.1281 29.3001 53.328 28.6001 53.428C28.3001 53.528 27.8001 53.5281 27.5001 53.5281ZM27.7001 50.928C27.7001 51.428 27.7001 51.9281 27.7001 52.5281C27.7001 52.6281 27.7001 52.728 27.8001 52.728C28.4001 52.728 29.0001 52.6281 29.4001 52.0281C29.8001 51.4281 29.7001 50.5281 29.2001 50.0281C28.8001 49.6281 28.4001 49.428 27.9001 49.228C27.7001 49.128 27.7001 49.228 27.7001 49.428C27.7001 49.928 27.7001 50.428 27.7001 50.928ZM27.7001 47.428C27.7001 47.928 27.7001 48.328 27.7001 48.828C27.7001 48.928 27.7001 49.028 27.9001 48.928C28.2001 48.828 28.5001 48.7281 28.8001 48.5281C29.5001 47.9281 29.6001 46.928 28.9001 46.328C28.6001 46.128 28.3001 46.028 27.9001 45.928C27.7001 45.928 27.7001 45.9281 27.7001 46.1281C27.7001 46.5281 27.7001 46.928 27.7001 47.428Z" fill="#73BE44"/>
<path d="M42.0001 53.5281C41.5001 53.5281 41.2001 53.5281 40.8001 53.5281C40.6001 53.5281 40.6001 53.428 40.6001 53.328C40.8001 52.728 40.9001 52.028 40.9001 51.328C40.9001 49.828 40.9001 48.328 40.9001 46.728C40.9001 46.228 40.9001 45.728 40.7001 45.328C40.7001 45.228 40.7001 45.1281 40.8001 45.1281C41.6001 45.1281 42.4001 45.0281 43.1001 45.1281C43.9001 45.2281 44.6001 45.628 45.0001 46.428C45.3001 47.128 45.2001 47.928 44.7001 48.428C44.6001 48.528 44.4001 48.728 44.3001 48.828C44.2001 48.928 44.1001 49.0281 44.3001 49.1281C44.6001 49.3281 44.9001 49.628 45.2001 49.928C45.8001 50.828 45.8001 51.8281 45.0001 52.6281C44.5001 53.1281 43.9001 53.328 43.2001 53.428C42.8001 53.528 42.3001 53.5281 42.0001 53.5281ZM44.2001 51.1281C44.2001 50.7281 44.0001 50.3281 43.7001 50.0281C43.3001 49.6281 42.9001 49.428 42.4001 49.228C42.2001 49.128 42.2001 49.228 42.2001 49.428C42.2001 49.828 42.2001 50.1281 42.2001 50.5281C42.2001 51.2281 42.2001 51.8281 42.2001 52.5281C42.2001 52.6281 42.2001 52.728 42.3001 52.728C43.2001 52.728 44.2001 52.3281 44.2001 51.1281ZM42.2001 47.428C42.2001 47.828 42.2001 48.328 42.2001 48.728C42.2001 48.928 42.3001 48.928 42.4001 48.828C42.7001 48.728 42.9001 48.628 43.2001 48.428C43.9001 47.828 44.0001 46.828 43.4001 46.228C43.1001 46.028 42.8001 45.928 42.4001 45.828C42.2001 45.828 42.2001 45.8281 42.2001 46.0281C42.2001 46.5281 42.2001 47.028 42.2001 47.428Z" fill="#73BE44"/>
<path d="M15.6001 53.5281C15.3001 53.5281 15.1001 53.5281 14.8001 53.5281C14.7001 53.5281 14.6001 53.528 14.6001 53.428C14.6001 52.728 14.2001 52.028 13.9001 51.328C13.8001 51.028 13.6001 50.928 13.3001 50.928C12.6001 50.928 11.8001 50.928 11.1001 50.928C11.0001 50.928 10.9001 50.9281 10.8001 51.1281C10.5001 51.7281 10.2001 52.328 10.1001 52.928C10.1001 53.028 10.1001 53.228 10.1001 53.328C10.1001 53.428 10.1001 53.5281 9.90015 53.5281C9.30015 53.5281 8.80013 53.5281 8.20013 53.5281H8.1001V53.428C8.6001 52.828 9.00011 52.028 9.30011 51.328C10.3001 49.328 11.3001 47.428 12.3001 45.428C12.3001 45.328 12.4001 45.228 12.4001 45.228C12.5001 45.228 12.5001 45.328 12.5001 45.428C13.4001 47.428 14.4001 49.428 15.3001 51.428C15.6001 52.128 16.0001 52.828 16.5001 53.428C16.6001 53.528 16.5001 53.6281 16.4001 53.6281C16.1001 53.5281 15.8001 53.5281 15.6001 53.5281ZM12.3001 49.928C12.6001 49.928 12.8001 49.928 13.1001 49.928C13.3001 49.928 13.3001 49.928 13.2001 49.728C12.9001 49.128 12.7001 48.5281 12.4001 48.0281C12.4001 47.9281 12.4001 47.928 12.3001 47.928C12.2001 47.928 12.2001 48.0281 12.2001 48.0281C11.9001 48.6281 11.6001 49.228 11.4001 49.828C11.3001 50.028 11.4001 50.0281 11.5001 50.0281C11.8001 49.9281 12.0001 49.928 12.3001 49.928Z" fill="#73BE44"/>
<path d="M39 53.5281C38.7 53.5281 38.5 53.5281 38.2 53.5281C38.1 53.5281 38 53.528 38 53.328C38 52.728 37.7 52.1281 37.5 51.6281C37.4 51.4281 37.3 51.2281 37.3 51.1281C37.3 51.0281 37.2 50.928 37.1 50.928C36.2 50.928 35.4 50.928 34.5 50.928C34.4 50.928 34.3 50.9281 34.3 51.0281C34 51.7281 33.6 52.3281 33.5 53.0281C33.4 53.4281 33.4 53.428 33 53.428C32.5 53.428 32.1 53.428 31.6 53.428H31.5V53.328C32.1 52.528 32.5 51.628 33 50.728C33.9 48.928 34.8 47.128 35.7 45.228V45.1281C35.7 45.1281 35.7 45.0281 35.8 45.0281C35.9 45.0281 35.9 45.1281 35.9 45.1281C36.1 45.4281 36.2 45.8281 36.4 46.1281C37.2 47.9281 38.1 49.7281 38.9 51.5281C39.2 52.1281 39.5 52.6281 39.8 53.1281C39.8 53.1281 39.9 53.228 39.9 53.328C39.9 53.428 39.8 53.328 39.7 53.428C39.5 53.528 39.2 53.5281 39 53.5281ZM35.8 47.828C35.8 47.828 35.7 47.828 35.8 47.828C35.4 48.528 35.1 49.128 34.8 49.828C34.7 49.928 34.8 49.928 34.9 49.928C35.4 49.928 36 49.928 36.5 49.928C36.7 49.928 36.7 49.928 36.6 49.728C36.4 49.328 36.3 48.9281 36.1 48.6281C36 48.3281 35.9 48.028 35.8 47.828Z" fill="#73BE44"/>
<path d="M32.7001 58.428C31.9001 58.428 31.3 57.8281 31.3 57.0281C31.3 56.2281 32 55.6281 32.8 55.6281C33.7 55.6281 34.3 56.228 34.3 56.928C34.2 57.828 33.6001 58.428 32.7001 58.428ZM33.8 57.1281C33.8 56.9281 33.8001 56.728 33.7001 56.428C33.5001 56.028 33.1 55.828 32.6 55.828C32.1 55.928 31.8001 56.1281 31.7001 56.6281C31.6001 56.9281 31.7 57.228 31.8 57.428C32 57.928 32.4001 58.228 32.9001 58.228C33.4001 58.228 33.7 57.828 33.8 57.328C33.8 57.228 33.8 57.1281 33.8 57.1281Z" fill="#56341F"/>
<path d="M34.8 58.328C35 58.228 35.0001 58.028 35.0001 57.828C35.0001 57.328 35.0001 56.728 35.0001 56.228C35.0001 56.028 35.1001 55.728 34.7001 55.728C35.2001 55.728 35.7 55.628 36.1 55.828C36.6 56.028 36.6 56.528 36.3 56.928C36.2 57.028 36.1 57.128 36.1 57.228C36.1 57.328 36.2 57.4281 36.3 57.5281C36.4 57.6281 36.5001 57.828 36.7001 57.928C36.9001 58.128 37.1001 58.328 37.4001 58.328C37.1001 58.528 36.7001 58.428 36.4001 58.128C36.2001 57.928 36.0001 57.728 35.9001 57.428C35.8001 57.228 35.6001 57.228 35.4001 57.328C35.3001 57.328 35.3 57.428 35.3 57.428C35.3 57.628 35.3 57.828 35.3 58.128C35.3 58.328 35.5 58.328 35.6 58.428C35.4 58.428 35.1 58.428 34.8 58.328ZM35.4001 56.428C35.4001 56.528 35.4001 56.728 35.4001 56.828C35.4001 56.928 35.4001 56.9281 35.5001 57.0281C35.6001 57.1281 36 57.028 36.1 56.928C36.3 56.728 36.3001 56.428 36.2001 56.128C36.1001 55.928 35.9001 55.828 35.7001 55.728C35.5001 55.728 35.4001 55.828 35.5001 55.928C35.4001 56.228 35.4001 56.328 35.4001 56.428Z" fill="#56341F"/>
<path d="M19.4001 58.328C19.1001 58.328 18.8001 58.328 18.5001 58.328C18.8001 58.228 18.7001 58.028 18.7001 57.928C18.7001 57.328 18.7001 56.7281 18.7001 56.1281C18.7001 55.9281 18.7001 55.828 18.4001 55.728C18.4001 55.628 18.4001 55.6281 18.5001 55.6281C18.9001 55.6281 19.2001 55.6281 19.6001 55.6281C20.3001 55.7281 20.5001 56.228 20.1001 56.828C19.9001 57.128 19.9001 57.128 20.1001 57.428C20.2001 57.628 20.4001 57.828 20.6001 57.928C20.8001 58.128 20.9001 58.228 21.2001 58.228C20.9001 58.428 20.5001 58.3281 20.3001 58.1281C20.1001 57.9281 19.9001 57.628 19.7001 57.328C19.6001 57.228 19.3001 57.128 19.2001 57.228C19.1001 57.228 19.1001 57.328 19.1001 57.428C19.1001 57.528 19.1001 57.728 19.1001 57.828C19.1001 58.228 19.1001 58.228 19.4001 58.328ZM19.1001 56.428C19.1001 56.628 19.1001 56.728 19.1001 56.928C19.1001 57.028 19.1001 57.0281 19.2001 57.1281C19.3001 57.2281 19.7001 57.1281 19.8001 57.0281C20.0001 56.8281 20.0001 56.528 19.9001 56.228C19.8001 56.028 19.6001 55.828 19.4001 55.828C19.1001 55.828 19.1001 55.8281 19.1001 56.1281C19.1001 56.2281 19.1001 56.328 19.1001 56.428Z" fill="#56341F"/>
<path d="M25.2001 58.328C24.9001 58.328 24.6 58.328 24.3 58.328C24.5 58.228 24.5001 58.028 24.5001 57.828C24.5001 57.328 24.5001 56.728 24.5001 56.228C24.5001 55.928 24.5001 55.928 24.2001 55.728C24.2001 55.628 24.3 55.6281 24.3 55.6281C24.6 55.6281 24.9001 55.6281 25.2001 55.6281C25.5001 55.6281 25.8001 55.7281 25.9001 56.0281C26.0001 56.3281 25.9001 56.628 25.7001 56.828C25.5001 57.028 25.5001 57.128 25.7001 57.228C25.8001 57.328 26 57.528 26.1 57.728C26.3 57.928 26.5001 58.1281 26.9001 58.1281C26.6001 58.3281 26.2001 58.2281 26.0001 58.0281C25.8001 57.8281 25.6001 57.528 25.4001 57.328C25.3001 57.128 25.1001 57.1281 24.9001 57.1281C24.8001 57.1281 24.8 57.228 24.8 57.228C24.8 57.328 24.8 57.5281 24.8 57.6281C24.9 58.1281 24.9001 58.228 25.2001 58.328ZM24.9001 56.428C24.9001 56.528 24.9001 56.728 24.9001 56.828C24.9001 56.928 24.9001 57.0281 25.0001 57.0281C25.4001 57.0281 25.7001 57.1281 25.7001 56.5281C25.8001 56.0281 25.5001 55.728 25.0001 55.828C24.9001 55.828 24.8 55.8281 24.8 56.0281C24.9 56.1281 24.9001 56.328 24.9001 56.428Z" fill="#56341F"/>
<path d="M10.7001 58.328C11.1001 58.228 11.1001 57.928 11.2001 57.728C11.4001 57.128 11.7001 56.528 11.9001 55.828C11.9001 55.728 11.9001 55.6281 12.0001 55.6281C12.1001 55.6281 12.1001 55.728 12.2001 55.828C12.5001 56.428 12.7001 57.128 13.0001 57.728C13.1001 57.928 13.2001 58.228 13.5001 58.228C13.5001 58.328 13.4001 58.328 13.4001 58.328C13.2001 58.328 13.1001 58.328 12.9001 58.328C12.8001 58.328 12.8001 58.328 12.7001 58.228C12.7001 57.928 12.5001 57.728 12.4001 57.428C12.3001 57.328 11.6001 57.328 11.5001 57.428C11.4001 57.628 11.3 57.8281 11.3 58.1281V58.228C11.3 58.228 11.4001 58.228 11.4001 58.328C11.4001 58.328 11.3001 58.328 11.2001 58.328C11.1001 58.328 10.9001 58.428 10.7001 58.328ZM12.1 56.328C12 56.328 12 56.328 12.1 56.328C12 56.628 11.9 56.8281 11.8 57.1281C11.8 57.2281 11.8001 57.228 11.9001 57.228C12.0001 57.228 12.2 57.228 12.3 57.228C12.4 57.228 12.4001 57.2281 12.4001 57.1281C12.2001 56.8281 12.2 56.528 12.1 56.328Z" fill="#56341F"/>
<path d="M18.3001 58.328C18.1001 58.328 17.9001 58.328 17.6001 58.328C17.5001 58.328 17.5001 58.328 17.5001 58.228C17.5001 57.928 17.3001 57.728 17.2001 57.428C17.2001 57.328 17.1001 57.328 17.0001 57.328H16.9001C16.3001 57.328 16.3001 57.328 16.1001 57.928C16.0001 58.128 16.0001 58.128 16.2001 58.328C15.9001 58.328 15.6001 58.328 15.4001 58.328C15.8001 58.228 15.8001 57.8281 15.9001 57.6281C16.1001 57.0281 16.4001 56.428 16.6001 55.828C16.6001 55.728 16.6001 55.6281 16.7001 55.6281C16.8001 55.6281 16.8001 55.728 16.8001 55.828C17.1001 56.428 17.3001 57.128 17.6001 57.728C18.0001 58.128 18.0001 58.128 18.3001 58.328ZM16.8001 56.328C16.7001 56.428 16.7001 56.628 16.6001 56.728C16.4001 57.228 16.5001 57.2281 17.0001 57.1281C17.1001 57.1281 17.1001 57.1281 17.1001 57.0281C17.0001 56.8281 16.9001 56.528 16.8001 56.328Z" fill="#56341F"/>
<path d="M27.0001 58.328C27.2001 58.228 27.2001 58.1281 27.2001 58.0281C27.2001 57.4281 27.2001 56.7281 27.2001 56.1281C27.2001 55.9281 27.1001 55.928 26.9001 55.828C27.0001 55.728 27.1 55.728 27.1 55.728C27.5 55.728 27.9 55.728 28.3 55.728C28.4 55.728 28.5001 55.728 28.4001 55.828C28.4001 55.928 28.4001 56.0281 28.4001 56.0281C28.4001 56.0281 28.4 56.1281 28.3 56.1281C28.2 56.1281 28.2001 56.1281 28.2001 56.0281C28.2001 55.9281 28.1001 55.928 28.0001 55.928C27.5001 55.828 27.4001 55.928 27.4001 56.428C27.4001 56.928 27.4001 56.928 27.9001 56.928C28.0001 56.928 28 56.928 28.1 56.928C28.3 56.828 28.3 56.9281 28.3 57.1281C28.3 57.2281 28.3001 57.328 28.2001 57.428C28.1001 57.228 27.8001 57.128 27.5001 57.228C27.4001 57.228 27.4001 57.328 27.4001 57.428C27.4001 57.628 27.4001 57.9281 27.4001 58.1281C27.4001 58.2281 27.4001 58.228 27.4001 58.328C27.5001 58.528 28.1001 58.428 28.2001 58.228C28.2001 58.228 28.2 58.1281 28.3 58.1281C28.4 58.1281 28.3 58.228 28.3 58.228C28.3 58.528 28.2001 58.5281 27.9001 58.5281C27.5001 58.5281 27.2 58.5281 26.8 58.5281C27.2 58.3281 27.1001 58.428 27.0001 58.328Z" fill="#56341F"/>
<path d="M29.8001 58.428C29.7001 58.428 29.7001 58.428 29.6001 58.428C29.2001 58.428 29.1001 58.228 29.2001 57.828V57.728C29.3001 57.728 29.3001 57.728 29.3001 57.828C29.4001 58.128 29.7001 58.328 30.0001 58.228C30.4001 58.128 30.5001 57.7281 30.2001 57.5281C30.1001 57.3281 29.9001 57.2281 29.7001 57.1281C29.6001 57.0281 29.4001 56.928 29.3001 56.828C29.0001 56.428 29.1001 55.928 29.6001 55.728C29.9001 55.628 30.1001 55.728 30.4001 55.728C30.5001 55.728 30.5001 55.828 30.5001 55.828C30.5001 55.928 30.5001 56.0281 30.5001 56.1281C30.5001 56.1281 30.4001 56.1281 30.4001 56.0281C30.3001 55.8281 30.0001 55.728 29.8001 55.728C29.5001 55.828 29.4001 56.128 29.6001 56.328C29.7001 56.428 29.9001 56.5281 30.0001 56.6281C30.1001 56.7281 30.3001 56.828 30.4001 56.928C30.6001 57.128 30.7001 57.428 30.6001 57.828C30.5001 58.128 30.2001 58.228 29.9001 58.328C29.9001 58.428 29.8001 58.428 29.8001 58.428Z" fill="#56341F"/>
<path d="M9.00005 57.728C9.00005 57.728 9.10005 57.728 9.00005 57.728C9.20005 58.128 9.60008 58.3281 9.90008 58.1281C10.1001 58.0281 10.2001 57.728 10.0001 57.428C9.90005 57.328 9.80003 57.2281 9.60003 57.1281C9.40003 57.0281 9.30007 56.928 9.20007 56.728C9.00007 56.528 8.90005 56.228 9.00005 55.928C9.10005 55.628 9.30003 55.5281 9.60003 55.5281C9.80003 55.5281 10.0001 55.5281 10.2001 55.5281C10.3001 55.5281 10.4 55.628 10.3 55.728C10.3 55.828 10.3 55.9281 10.3 56.0281H10.2001C10.1001 55.7281 9.80005 55.628 9.50005 55.728C9.20005 55.828 9.10004 56.128 9.30004 56.328C9.40004 56.428 9.50003 56.5281 9.60003 56.6281C9.80003 56.7281 10 56.8281 10.1 57.0281C10.3 57.2281 10.4 57.528 10.3 57.828C10.2 58.128 10.0001 58.228 9.70007 58.328C9.50007 58.328 9.30003 58.328 9.10003 58.328C8.90003 58.328 8.80008 58.128 8.90008 57.928C9.00008 57.928 8.90005 57.828 9.00005 57.728Z" fill="#56341F"/>
<path d="M39.5001 56.228C39.3001 55.828 39.0001 55.928 38.7001 55.928C38.6001 55.928 38.6 56.0281 38.6 56.0281C38.6 56.7281 38.6 57.3281 38.6 58.0281C38.6 58.2281 38.8001 58.228 38.9001 58.328C38.5001 58.328 38.2001 58.328 37.9001 58.328C38.1001 58.228 38.1 58.028 38.1 57.928C38.2 57.328 38.1 56.7281 38.1 56.1281C38.1 55.9281 38.0001 55.928 37.9001 55.928C37.8001 55.928 37.7 55.928 37.6 55.928C37.5 55.928 37.4001 55.9281 37.3001 56.0281C37.3001 56.0281 37.3001 56.1281 37.2001 56.1281C37.1001 56.1281 37.2001 56.0281 37.2001 56.0281C37.2001 55.7281 37.3 55.728 37.6 55.728C38.2 55.728 38.7001 55.728 39.3001 55.728C39.4001 55.728 39.5 55.628 39.6 55.728C39.6 55.828 39.6001 56.028 39.5001 56.228Z" fill="#56341F"/>
<path d="M14.7001 58.328C14.3001 58.328 14.0001 58.328 13.7001 58.328C13.9001 58.228 13.9001 58.028 13.9001 57.828C13.9001 57.228 13.9001 56.7281 13.9001 56.1281C13.9001 55.9281 13.9001 55.728 13.6001 55.728C13.7001 55.628 13.7001 55.6281 13.8001 55.6281C14.2001 55.6281 14.7001 55.6281 15.1001 55.6281C15.2001 55.6281 15.2001 55.628 15.2001 55.728C15.2001 55.828 15.2001 55.828 15.2001 55.928C15.2001 56.028 15.2001 56.0281 15.1001 56.1281C15.0001 56.1281 15.0001 56.0281 15.0001 56.0281C15.0001 55.9281 14.9001 55.928 14.8001 55.928C14.2001 55.828 14.2001 55.8281 14.2001 56.5281C14.2001 56.9281 14.2001 57.028 14.6001 56.928C14.7001 56.928 14.8001 56.928 14.9001 56.928C15.0001 56.928 15.1001 56.9281 15.0001 57.0281C15.0001 57.1281 15.0001 57.128 15.0001 57.228C15.0001 57.328 15.0001 57.428 14.9001 57.428C14.8001 57.428 14.8001 57.328 14.8001 57.328C14.7001 57.228 14.6001 57.228 14.5001 57.228C13.9001 57.228 14.0001 57.2281 14.0001 57.6281C14.0001 57.7281 14.0001 57.828 14.0001 57.928C14.4001 58.228 14.4001 58.228 14.7001 58.328Z" fill="#56341F"/>
<path d="M22.2001 58.328C21.9001 58.328 21.6 58.328 21.3 58.328C21.6 58.128 21.5 57.928 21.6 57.728C21.6 57.228 21.6 56.7281 21.6 56.1281C21.6 55.9281 21.6 55.728 21.3 55.728C21.6 55.628 21.9001 55.728 22.2001 55.728C21.9001 55.828 22.0001 56.028 22.0001 56.228C22.0001 56.728 22.0001 57.328 22.0001 57.828C21.9001 58.028 21.9001 58.328 22.2001 58.328C22.3001 58.328 22.2001 58.328 22.2001 58.328Z" fill="#56341F"/>
</svg>
