<svg width="62" height="54" viewBox="0 0 62 54" fill="none" xmlns="http://www.w3.org/2000/svg">
<path d="M33.2 39.728H35.1C36.8 39.728 37.6 40.428 37.6 41.728C37.6 43.028 36.8 43.728 35.3 43.728H34.7V45.928H33.2V40.928V39.728ZM34.8 42.6281H35.2C35.5 42.6281 35.7 42.528 35.9 42.428C36.1 42.328 36.2 42.028 36.2 41.728C36.2 41.428 36.1 41.2281 35.9 41.0281C35.7 40.9281 35.5 40.828 35.2 40.828H34.8V42.6281Z" fill="#231F20"/>
<path d="M39.4 39.728H41.4L43.5 45.928H41.9L41.5 44.6281H39.4L39 45.928H37.5L39.2 40.928L39.4 39.728ZM40.5 41.0281L39.7 43.5281H41.1L40.5 41.0281Z" fill="#231F20"/>
<path d="M44.1 39.728H46.1L48 43.928V39.728H49.3V45.928H47.5L45.6 41.6281V45.928H44.3V40.928L44.1 39.728Z" fill="#231F20"/>
<path d="M50.4 39.728H52.6C53.6 39.728 54.4 39.928 54.9 40.328C55.5 40.828 55.8 41.628 55.8 42.828C55.8 44.028 55.5 44.828 54.9 45.228C54.3 45.728 53.5 45.928 52.6 45.928H50.6V40.928L50.4 39.728ZM52 44.728H52.6C53.7 44.728 54.3 44.128 54.3 42.828C54.3 41.528 53.7 40.928 52.6 40.928H52V44.728Z" fill="#231F20"/>
<path d="M57.7 39.728H59.7L61.8 45.928H60.2L59.8 44.6281H57.7L57.3 45.928H55.8L57.5 40.928L57.7 39.728ZM58.9 41.0281L58.1 43.5281H59.5L58.9 41.0281Z" fill="#231F20"/>
<path d="M0.699951 39.728H2.30005V45.928H0.800049V40.928L0.699951 39.728Z" fill="#231F20"/>
<path d="M9.19995 40.928H7.80005L7.59998 39.728H11.9V40.928H10.5V45.928H9V40.928H9.19995Z" fill="#231F20"/>
<path d="M13.8 39.728H15.8L17.9 45.928H16.3L15.9 44.6281H13.8L13.4 45.928H11.9L13.6 40.928L13.8 39.728ZM15 41.0281L14.2 43.5281H15.6L15 41.0281Z" fill="#231F20"/>
<path d="M18.4 39.728H20.4L22.3 43.928V39.728H23.6V45.928H21.8L19.9 41.6281V45.928H18.6V40.928L18.4 39.728Z" fill="#231F20"/>
<path d="M26.2 39.728H28.2L30.3 45.928H28.7L28.3 44.6281H26.2L25.8 45.928H24.3L26 40.928L26.2 39.728ZM27.3 41.0281L26.5 43.5281H27.9L27.3 41.0281Z" fill="#231F20"/>
<path d="M7.19995 43.228C7.09995 43.028 7.00002 42.828 6.90002 42.728C6.80002 42.628 6.6 42.528 6.5 42.428C6.3 42.328 6.2 42.228 6 42.228C5.8 42.128 5.7 42.1281 5.5 42.0281C5.3 41.9281 5.19998 41.928 5.09998 41.928C4.99998 41.828 4.90005 41.828 4.80005 41.728C4.70005 41.628 4.69995 41.528 4.69995 41.428C4.69995 41.128 4.79998 41.028 5.09998 40.928C5.19998 40.928 5.30002 40.828 5.40002 40.828C5.50002 40.828 5.59995 40.828 5.69995 40.828C6.09995 40.828 6.6 40.9281 7 41.1281L7.09998 39.928C6.69998 39.828 6.19995 39.728 5.69995 39.728C5.39995 39.728 5.10002 39.728 4.90002 39.828C4.60002 39.928 4.39998 40.0281 4.09998 40.1281C3.89998 40.2281 3.7 40.428 3.5 40.728C3.3 40.928 3.30005 41.2281 3.30005 41.6281C3.30005 42.1281 3.39995 42.528 3.69995 42.828C3.79995 42.928 3.99998 43.0281 4.09998 43.1281C4.29998 43.2281 4.39998 43.328 4.59998 43.328C4.79998 43.428 4.89998 43.4281 5.09998 43.5281C5.29998 43.6281 5.4 43.628 5.5 43.728C5.6 43.828 5.70005 43.828 5.80005 43.928C5.90005 44.028 5.90002 44.128 5.90002 44.328C5.90002 44.528 5.79998 44.728 5.59998 44.828C5.39998 44.928 5.2 44.928 5 44.928C4.4 44.928 3.30005 44.928 3.30005 44.928L3.5 46.1281H5.30005C5.90005 46.1281 6.30005 45.928 6.80005 45.728C7.30005 45.428 7.49998 44.9281 7.59998 44.1281C7.29998 43.7281 7.29995 43.428 7.19995 43.228Z" fill="#231F20"/>
<path d="M10 47.228H11.6V53.428H10.1V48.328L10 47.228Z" fill="#D71921"/>
<path d="M12.7 47.228H14.7L16.6 51.428V47.228H17.9V53.428H16.1L14.2 49.1281V53.428H12.9V48.328L12.7 47.228Z" fill="#D71921"/>
<path d="M18.8 47.228H21C22 47.228 22.8 47.428 23.3 47.828C23.9 48.328 24.2 49.128 24.2 50.328C24.2 51.528 23.9 52.328 23.3 52.728C22.7 53.228 21.9 53.428 21 53.428H19V48.328L18.8 47.228ZM20.5 52.228H21.1C22.2 52.228 22.8 51.628 22.8 50.328C22.8 49.028 22.2 48.428 21.1 48.428H20.5V52.228Z" fill="#D71921"/>
<path d="M25 50.328C25 48.228 25.9 47.1281 27.8 47.1281C29.6 47.1281 30.5 48.228 30.6 50.328C30.6 52.428 29.7 53.5281 27.8 53.5281C25.9 53.5281 25 52.428 25 50.328ZM26.5 50.328C26.5 50.828 26.6 51.328 26.8 51.728C27 52.128 27.3 52.328 27.7 52.328C28.1 52.328 28.5 52.128 28.7 51.728C28.9 51.328 29 50.928 29 50.328C29 49.728 28.9 49.328 28.7 48.928C28.5 48.528 28.2 48.328 27.7 48.328C27.3 48.328 26.9 48.528 26.8 48.928C26.6 49.328 26.5 49.728 26.5 50.328Z" fill="#D71921"/>
<path d="M31.2 47.228H33.2L35.1 51.428V47.228H36.4V53.428H34.6L32.7 49.1281V53.428H31.4V48.328L31.2 47.228Z" fill="#D71921"/>
<path d="M37.3 47.228H41.3V48.428H38.9V49.728H41.2V50.928H38.9V52.328H41.4V53.5281H37.4V48.428L37.3 47.228Z" fill="#D71921"/>
<path d="M47.2 47.228H48.8V53.428H47.3V48.328L47.2 47.228Z" fill="#D71921"/>
<path d="M51.3 47.228H53.3L55.4 53.428H53.8L53.4 52.1281H51.3L50.9 53.428H49.4L51.1 48.328L51.3 47.228ZM52.5 48.5281L51.7 51.0281H53.1L52.5 48.5281Z" fill="#D71921"/>
<path d="M46.4 50.728C46.3 50.528 46.2 50.328 46.1 50.228C46 50.128 45.8 50.028 45.7 49.928C45.5 49.828 45.4 49.728 45.2 49.728C45 49.628 44.9 49.6281 44.7 49.5281C44.5 49.4281 44.4 49.428 44.3 49.428C44.2 49.328 44.1 49.328 44 49.228C43.9 49.128 43.9 49.028 43.9 48.928C43.9 48.628 44 48.528 44.3 48.428C44.4 48.428 44.5 48.328 44.6 48.328C44.7 48.328 44.8 48.328 44.9 48.328C45.3 48.328 45.8 48.4281 46.2 48.6281L46.3 47.428C45.9 47.328 45.4 47.228 44.9 47.228C44.6 47.228 44.3 47.228 44.1 47.328C43.8 47.428 43.6 47.5281 43.3 47.6281C43.1 47.7281 42.9 47.928 42.7 48.228C42.5 48.428 42.5 48.7281 42.5 49.1281C42.5 49.6281 42.6 50.028 42.9 50.328C43 50.428 43.2 50.5281 43.3 50.6281C43.5 50.7281 43.6 50.828 43.8 50.828C44 50.928 44.1 50.9281 44.3 51.0281C44.5 51.1281 44.6 51.128 44.7 51.228C44.8 51.328 44.9 51.328 45 51.428C45.1 51.528 45.1 51.628 45.1 51.828C45.1 52.028 45 52.228 44.8 52.328C44.6 52.428 44.4 52.428 44.2 52.428C43.6 52.428 42.5 52.428 42.5 52.428L42.7 53.6281H44.5C45.1 53.6281 45.5 53.428 46 53.228C46.5 52.928 46.7 52.4281 46.8 51.6281C46.5 51.2281 46.5 50.928 46.4 50.728Z" fill="#D71921"/>
<path d="M29.9 21.0281C29.9 22.8281 28.7 24.328 27.1 24.328C25.6 24.328 24.3 22.8281 24.3 21.0281C24.3 19.2281 25.5 17.728 27.1 17.728C28.7 17.728 29.9 19.2281 29.9 21.0281Z" fill="#231F20"/>
<path d="M33.9 21.0281C33.9 22.8281 35.1 24.328 36.7 24.328C38.3 24.328 39.5 22.8281 39.5 21.0281C39.5 19.2281 38.3 17.728 36.7 17.728C35.1 17.728 33.9 19.2281 33.9 21.0281Z" fill="#231F20"/>
<path d="M22.9 17.228C23 17.128 23.1 16.928 23.2 16.828C23 16.828 22.8 16.7281 22.7 16.5281C22.2 16.0281 22.6 14.9281 23.5 14.1281C24.4 13.3281 25.5 13.0281 26 13.6281C26.2 13.8281 26.2 14.028 26.2 14.328C26.4 14.228 26.5 14.1281 26.7 14.0281C27 13.1281 27 12.2281 26.5 11.6281C25.6 10.6281 23.6 10.928 22.1 12.428C20.5 13.828 20 15.828 20.9 16.728C21.3 17.228 22.1 17.428 22.9 17.228Z" fill="#231F20"/>
<path d="M41.9 12.4279C40.3 11.0279 38.4 10.728 37.5 11.628C37 12.228 36.9001 13.028 37.3001 14.028C37.5001 14.128 37.6001 14.228 37.8001 14.328C37.8001 14.028 37.9 13.828 38 13.628C38.5 13.128 39.6 13.328 40.5 14.128C41.4 14.928 41.8001 16.028 41.3001 16.528C41.2001 16.628 41.0001 16.728 40.8001 16.828C40.9001 16.928 41 17.128 41.1 17.228C42 17.428 42.7 17.228 43.2 16.728C43.9 15.728 43.4 13.8279 41.9 12.4279Z" fill="#231F20"/>
<path d="M52.8 12.328C46.1 12.328 43.6 9.12805 43.7 9.12805H40V7.328H42.1C42.1 7.328 45 7.428 46.8 5.828C47.7001 5.028 47.9 3.828 47.9 3.828C47.9 3.828 46.8 3.92798 45.9 3.92798C39.2 3.92798 36.7 0.728027 36.8 0.728027H25.5C25.5 0.728027 23.1 3.92798 16.4 3.92798C15.6 3.92798 14.4 3.828 14.4 3.828C14.4 3.828 14.6 5.128 15.5 5.828C17.3 7.428 20.2 7.328 20.2 7.328H22.3V9.12805H18.6C18.6 9.12805 16.2 12.328 9.5 12.328C8.7 12.328 7.5 12.228 7.5 12.228C7.5 12.228 7.69998 13.528 8.59998 14.228C10.4 15.828 13.3 15.728 13.3 15.728H19.7C19.6 14.528 20.2 13.028 21.5 11.828C22.5 10.928 23.8 10.328 24.9 10.328C25.7 10.328 26.4 10.6281 26.8 11.1281C27.4 11.7281 27.5 12.6281 27.3 13.5281C27.7 13.3281 28.2 13.2281 28.6 13.0281C27.9 12.0281 28.3 10.928 28.3 10.928C29.1 11.728 29.9 11.928 29.9 11.928C29.9 11.928 29 7.62803 29.8 9.72803C30.6 11.828 33.6 12.728 33.8 12.728C34.6 12.928 35.4 13.1281 36.3 13.5281C36.1 12.6281 36.2 11.7281 36.8 11.1281C37.3 10.6281 37.9 10.328 38.7 10.328C39.7999 10.328 41.1 10.828 42.1 11.828C43.4 13.028 44.1 14.528 43.9 15.728H48.8C48.8 15.728 51.7 15.828 53.5 14.228C54.4 13.428 54.6 12.228 54.6 12.228C54.6 12.228 53.6 12.328 52.8 12.328ZM35.6 9.02808H26.9V7.22803H35.6V9.02808Z" fill="#D71921"/>
<path d="M54.7 34.928C53.6 30.928 51.7 27.1281 49.2 23.5281C47.6 21.2281 45.7 19.0281 43.6 17.0281C43.6 17.0281 43.6 17.1281 43.5 17.1281C43 17.6281 42.4 17.928 41.6 17.928C41.5 17.928 41.4 17.928 41.3 17.928C41.7 18.828 41.9 19.728 41.9 20.928C41.9 20.928 42 22.728 41.9 23.828C42.1 24.128 42.2 24.3281 42.4 24.6281C45.2 29.2281 46.6 33.228 47.1 34.728V34.828C47.3 35.428 48.3 35.6281 48.3 35.6281H53.9C54.2 35.6281 54.4 35.528 54.5 35.428C54.8 35.228 54.7 34.928 54.7 34.928Z" fill="#8AC540"/>
<path d="M29.3 22.0281C29.3 23.0281 28.7 23.728 28.1 23.728C27.5 23.728 27 22.928 27 21.928C27 20.928 27.6 20.228 28.2 20.228C28.8 20.228 29.3 21.0281 29.3 22.0281Z" fill="#231F20"/>
<path d="M33.4 25.1281C33.4 25.6281 32.7 26.1281 31.9 26.1281C31 26.1281 30.4 25.7281 30.4 25.1281C30.4 24.6281 31.1 24.1281 31.9 24.1281C32.8 24.2281 33.4 24.6281 33.4 25.1281Z" fill="#231F20"/>
<path d="M41.6 17.928C42.4 17.928 43.1001 17.6281 43.5001 17.1281C44.7001 15.8281 44.1001 13.528 42.3001 11.828C41.3001 10.928 40.0001 10.328 38.9001 10.328C38.1001 10.328 37.4001 10.6281 37.0001 11.1281C36.4001 11.7281 36.3001 12.6281 36.5001 13.5281C35.7001 13.2281 34.8001 12.9281 34.0001 12.7281C33.9001 12.7281 30.8001 11.8281 30.0001 9.72805C29.2001 7.62805 30.1 11.928 30.1 11.928C30.1 11.928 29.3001 11.728 28.5001 10.928C28.5001 10.928 28.1001 12.0281 28.8001 13.0281C28.4001 13.1281 28.0001 13.3281 27.5001 13.5281C27.7001 12.6281 27.6001 11.7281 27.0001 11.1281C26.5001 10.6281 25.9 10.328 25.1 10.328C24 10.328 22.7 10.828 21.7 11.828C19.9 13.528 19.3001 15.8281 20.5001 17.1281C21.0001 17.6281 21.6001 17.928 22.4001 17.928C22.5001 17.928 22.6 17.928 22.7 17.928C22.3 18.828 22.1 19.728 22.1 20.928C22.1 20.928 22 23.7281 22.2 24.5281C22.3 24.9281 22.4 25.328 22.6 25.828C24.1 26.528 25.7 27.628 27.1 29.328C26.1 29.228 25.1001 29.028 24.3001 28.828C24.4001 28.928 24.6 29.1281 24.7 29.2281L33.8001 30.6281L33.9001 30.5281C34.1001 30.2281 34.4 29.9281 34.6 29.6281C35.1 29.1281 36.0001 28.928 36.9001 28.928C37.0001 28.928 37.1001 28.928 37.3001 28.928C37.4001 28.928 37.5001 28.928 37.5001 28.928C37.6001 28.928 37.7001 28.9281 37.8001 29.0281C38.2001 29.1281 38.5 29.228 38.7 29.428C38.8 29.528 38.8001 29.5281 38.9001 29.6281C41.1001 28.0281 41.7001 25.728 42.0001 24.428C42.2001 23.628 42.1 20.828 42.1 20.828C42.1 19.728 41.9001 18.728 41.5001 17.828C41.4001 17.928 41.5 17.928 41.6 17.928ZM31.9001 24.2281C32.8001 24.2281 33.4001 24.6281 33.4001 25.2281C33.4001 25.7281 32.7001 26.2281 31.9001 26.2281C31.0001 26.2281 30.4001 25.8281 30.4001 25.2281C30.4001 24.6281 31.0001 24.2281 31.9001 24.2281ZM22.7 16.6281C22.8 16.7281 23 16.828 23.2 16.928C23.1 17.028 23.0001 17.228 22.9001 17.328C22.0001 17.528 21.3001 17.328 20.8001 16.828C19.9001 15.828 20.4001 13.9281 22.0001 12.5281C23.6001 11.1281 25.5001 10.8281 26.4001 11.7281C26.9001 12.3281 27 13.1281 26.6 14.1281C26.4 14.2281 26.3 14.328 26.1 14.428C26.1 14.128 26.0001 13.9281 25.9001 13.7281C25.4001 13.2281 24.3001 13.4281 23.4001 14.2281C22.5001 14.9281 22.2 16.0281 22.7 16.6281ZM27.2 24.428C25.7 24.428 24.4001 22.9281 24.4001 21.1281C24.4001 19.3281 25.6 17.828 27.2 17.828C28.7 17.828 30.0001 19.3281 30.0001 21.1281C30.0001 21.7281 29.9 22.328 29.6 22.828C29.7 22.528 29.8001 22.1281 29.8001 21.7281C29.9001 20.3281 29.1 19.1281 28.1 19.0281C27.1 19.0281 26.3001 20.1281 26.3001 21.5281C26.2001 22.9281 27.0001 24.1281 28.0001 24.2281C28.1001 24.2281 28.2 24.2281 28.2 24.2281C27.9 24.3281 27.5 24.428 27.2 24.428ZM28.1 23.7281C27.5 23.7281 27.0001 22.928 27.0001 21.928C27.0001 20.928 27.6 20.2281 28.2 20.2281C28.8 20.2281 29.3001 21.0281 29.3001 22.0281C29.3001 23.0281 28.7 23.7281 28.1 23.7281ZM33.6 28.1281C33.2 28.4281 32.7001 28.728 31.9001 28.828C31.2001 28.728 30.6 28.4281 30.2 28.1281C29.5 27.5281 29.3001 26.7281 29.3001 26.7281C31.3001 27.6281 31.9001 26.7281 31.9001 26.7281C31.9001 26.7281 32.5001 27.6281 34.5001 26.7281C34.5001 26.6281 34.3 27.5281 33.6 28.1281ZM34.5001 22.0281C34.5001 21.0281 35 20.2281 35.6 20.2281C36.2 20.2281 36.8001 20.928 36.8001 21.928C36.8001 22.928 36.3 23.7281 35.7 23.7281C35.1 23.7281 34.6001 23.0281 34.5001 22.0281ZM36.7 24.428C36.3 24.428 36 24.3281 35.7 24.2281C35.8 24.2281 35.9001 24.2281 35.9001 24.2281C36.9001 24.2281 37.6 23.0281 37.6 21.5281C37.5 20.1281 36.7001 18.9281 35.8001 19.0281C34.8001 19.0281 34.1 20.2281 34.1 21.7281C34.1 22.1281 34.2001 22.528 34.3001 22.828C34.1001 22.328 33.9001 21.7281 33.9001 21.1281C33.9001 19.3281 35.1 17.828 36.7 17.828C38.3 17.828 39.5001 19.3281 39.5001 21.1281C39.5001 22.9281 38.2 24.428 36.7 24.428ZM40.9001 17.2281C40.8001 17.1281 40.7 16.928 40.6 16.828C40.8 16.828 41 16.7281 41.1 16.5281C41.6 16.0281 41.2001 14.9281 40.3001 14.1281C39.4001 13.3281 38.3001 13.0281 37.8001 13.6281C37.6001 13.8281 37.6 14.028 37.6 14.328C37.4 14.228 37.3 14.1281 37.1 14.0281C36.8 13.1281 36.8001 12.2281 37.3001 11.6281C38.2001 10.6281 40.2 10.928 41.7 12.428C43.3 13.828 43.8001 15.8281 42.9001 16.7281C42.6001 17.2281 41.8001 17.4281 40.9001 17.2281Z" fill="white"/>
<path d="M34.5 26.6281C32.5 27.5281 31.9 26.6281 31.9 26.6281C31.9 26.6281 31.3 27.5281 29.3 26.6281C29.3 26.6281 29.5 27.4281 30.2 28.0281C30.2 27.8281 30.4 27.328 31.9 27.328C33.3 27.328 33.5 27.8281 33.6 28.0281C34.3 27.5281 34.5 26.6281 34.5 26.6281Z" fill="#231F20"/>
<path d="M31.9 27.328C30.5 27.328 30.3 27.8281 30.2 28.0281C30.6 28.3281 31.1 28.628 31.9 28.728C32.6 28.628 33.2 28.3281 33.6 28.0281C33.5 27.9281 33.3 27.328 31.9 27.328Z" fill="#BE263A"/>
<path d="M12.6 32.728C12.6 32.728 14.5 30.9281 17.1 30.0281C17.2 29.8281 17.3001 29.628 17.4001 29.428C16.7001 29.028 15.8001 28.428 15.8001 28.428C15.8001 28.428 17 28.128 18.2 27.828C18.4 27.428 18.6001 27.0281 18.8001 26.6281C17.1001 25.2281 16.6 24.0281 16.6 24.0281H18.1C18.5 24.0281 19.2 24.128 20.1 24.328C20.7 23.328 21.3001 22.4281 21.9001 21.5281C21.9001 21.1281 21.9001 20.828 21.9001 20.828C21.9001 19.728 22.1 18.728 22.5 17.828C22.4 17.828 22.3 17.828 22.2 17.828C21.4 17.828 20.7001 17.5281 20.3001 17.0281C20.2001 16.9281 20.2 16.928 20.1 16.828C20.1 16.728 20 16.7281 20 16.6281C20 16.5281 19.9001 16.428 19.9001 16.428C19.9001 16.328 19.8001 16.2281 19.8001 16.1281C17.3001 18.4281 15 20.9281 13.2 23.5281C10.7 27.0281 8.9 30.928 7.7 34.928C7.7 34.928 7.6001 35.128 7.8001 35.328C7.9001 35.428 8.10007 35.5281 8.40007 35.5281H14C14 35.5281 15 35.328 15.2 34.728V34.6281C15.3 34.2281 15.5 33.7281 15.7 33.1281C14.6 33.1281 12.6 32.728 12.6 32.728Z" fill="#8AC540"/>
<path d="M17.8 24.6281C17.8 24.6281 23 24.628 26.9 29.328C20.7 28.928 17.8 24.6281 17.8 24.6281Z" fill="#8AC540"/>
<path d="M44.4 29.428C44.3 29.228 44.2 29.028 44 28.828C43.8 28.528 43.5 28.3281 43.2 28.1281C42.9 27.9281 42.6 27.828 42.2 27.828C42.1 27.828 42 27.828 41.9 27.828C41.8 27.828 41.7 27.828 41.6 27.828C41.5 27.828 41.4 27.828 41.2 27.828C40.8 27.828 40.5 27.9281 40.1 28.1281C39.8 28.5281 39.5 28.928 39.1 29.228C39.3 29.428 39.5 29.728 39.6 29.928C39.7 30.128 39.8 30.4281 39.9 30.6281C40.2 31.5281 40.1 32.5281 39.7 33.5281C39 34.9281 37.5 37.0281 35.4 38.1281C35 38.3281 34.6 38.5281 34.1 38.6281C36.7 38.6281 39.3 38.028 41 36.828C42.9 35.428 44 33.028 44.3 31.828C44.9 31.128 44.8 30.228 44.4 29.428Z" fill="#231F20"/>
<path d="M24.5 29.228V29.328C20.6 27.428 17.2 28.5281 17 28.5281C17.1 28.6281 18.4 29.528 20.5 29.928C16.5 30.228 14 32.228 13.9 32.328C14.2 32.428 20.5 33.528 24.4 29.928L24.2 30.928L30.7 31.828C31.1 31.828 31.8 31.7281 32.3 31.5281H32.4C32.9 31.3281 33.2 30.9281 33.5 30.5281L24.5 29.228Z" fill="#8AC540"/>
<path d="M39.5 30.928C39.4 30.728 39.3 30.528 39.2 30.328C39 30.028 38.8 29.7281 38.6 29.5281C38.4 29.3281 38.1 29.2281 37.7 29.1281C37.6 29.1281 37.5 29.1281 37.4 29.0281C37.3 29.0281 37.2 29.0281 37.2 29.0281C37.1 29.0281 37 29.0281 36.8 29.0281C35.9 29.0281 34.9 29.228 34.5 29.728C34.2 30.028 34 30.3281 33.8 30.6281L33.7 30.728C33.4 31.028 33.1 31.528 32.6 31.728H32.5C31.9 31.928 31.3 32.0281 30.9 32.0281L24.4 31.1281L24.6 30.1281C24.4 30.3281 24.1 30.528 23.8 30.728C23.8 30.728 23.7 30.728 23.7 30.828C23.6 30.928 23.5 30.9281 23.4 31.0281C23.4 31.0281 23.3 31.0281 23.3 31.1281C23.2 31.2281 23.1 31.228 23 31.328C23 31.328 23 31.328 22.9 31.328C22.4 31.628 21.8 31.8281 21.2 32.0281C21.2 33.0281 21.5 34.2281 22.4 35.5281C24.9 38.7281 31.8 39.728 35.3 37.828C37.4 36.728 38.9 34.628 39.4 33.428C39.7 32.628 39.8 31.728 39.5 30.928Z" fill="black"/>
<path d="M34.5 22.0281C34.5 23.0281 35.1 23.728 35.7 23.728C36.3 23.728 36.8 22.928 36.8 21.928C36.8 20.928 36.2 20.228 35.6 20.228C35 20.228 34.5 21.0281 34.5 22.0281Z" fill="#231F20"/>
</svg>
