<svg width="60" height="63" viewBox="0 0 60 63" fill="none" xmlns="http://www.w3.org/2000/svg">
<path d="M40.1001 46.428V46.328C40.2001 46.328 40.2001 46.328 40.3001 46.328C41.2001 46.328 42.1001 46.328 43.0001 46.328C44.5001 46.328 46.0001 46.228 47.4001 46.328C48.0001 46.428 48.6001 46.528 49.2001 46.828C50.2001 47.328 50.5001 48.228 50.4001 49.228C50.2001 50.028 49.7001 50.6281 49.0001 51.0281C48.7001 51.1281 48.5001 51.228 48.2001 51.428C48.4001 51.628 48.5001 51.728 48.7001 51.928C49.1001 52.428 49.6001 52.928 50.0001 53.428C50.6001 54.128 51.2001 54.728 52.0001 55.228C52.2001 55.428 52.4001 55.6281 52.8001 55.5281C52.9001 55.6281 52.9001 55.728 52.7001 55.728C52.6001 55.728 52.6001 55.728 52.5001 55.828C51.5001 56.028 50.5001 56.1281 49.6001 56.0281C48.8001 55.9281 48.2001 55.6281 47.7001 55.1281C47.1001 54.6281 46.7001 54.028 46.3001 53.328C46.0001 52.728 45.7001 52.1281 45.3001 51.5281L45.2001 51.428C45.1001 51.428 44.9001 51.428 44.8001 51.428C44.8001 51.428 44.8001 51.4281 44.8001 51.5281C44.8001 52.4281 44.8001 53.328 44.9001 54.228C45.0001 54.628 45.1001 54.928 45.4001 55.228C45.7001 55.528 46.1001 55.728 46.6001 55.728C46.8001 55.728 46.8001 55.828 46.7001 55.928C44.6001 55.928 42.5001 55.928 40.4001 55.928C40.4001 55.828 40.4001 55.828 40.5001 55.728C41.0001 55.528 41.4001 55.1281 41.6001 54.6281C41.8001 54.1281 41.8001 53.5281 41.8001 53.0281C41.8001 51.9281 41.8001 50.828 41.8001 49.728C41.8001 49.128 41.8001 48.528 41.7001 47.928C41.6001 47.428 41.4001 46.9281 40.9001 46.6281C40.6001 46.5281 40.3001 46.528 40.1001 46.428ZM44.7001 50.728C44.7001 50.828 44.7001 50.928 44.9001 50.928C45.3001 50.928 45.7001 51.0281 46.1001 51.0281C46.5001 51.1281 46.7001 50.9281 46.9001 50.5281C47.2001 49.8281 47.3001 49.128 47.2001 48.428C47.1001 47.928 46.9001 47.4281 46.4001 47.0281C46.0001 46.7281 45.6001 46.5281 45.1001 46.6281C45.0001 46.6281 45.0001 46.728 45.0001 46.828C44.7001 47.728 44.7001 50.328 44.7001 50.728Z" fill="#C07173"/>
<path d="M53.6 55.928C53.6 55.828 53.6 55.728 53.7 55.728C54.4 55.428 54.8001 54.928 54.9001 54.228C55.0001 53.928 55 53.528 55 53.228C55 51.828 55 50.328 55 48.928C55 48.528 55 48.0281 54.8 47.6281C54.6 47.1281 54.3 46.7281 53.7 46.5281C53.6 46.5281 53.5 46.428 53.6 46.328C55.5 46.328 57.4 46.328 59.3 46.328V46.428C59.1 46.528 58.9 46.628 58.8 46.828C58.4 47.128 58.3 47.5281 58.2 48.0281C58.1 49.1281 58.1 50.128 58.1 51.228C58.1 52.028 58.1 52.8281 58.1 53.5281C58.1 53.8281 58.1 54.128 58.2 54.428C58.3 55.028 58.6 55.528 59.2 55.728C59.2 55.928 59.1 55.928 59 55.928C57.2 55.928 55.5 55.928 53.7 55.928C53.7 55.928 53.7 55.928 53.6 55.928Z" fill="#C07173"/>
<path d="M20.1001 46.228C20.3001 46.228 20.5001 46.228 20.6001 46.228C23.1001 46.228 25.6001 46.228 28.1001 46.228C28.4001 46.228 28.6001 46.228 28.9001 46.228C29.0001 46.228 29.0001 46.228 29.1001 46.328C29.2001 47.028 29.2001 47.8281 29.3001 48.5281C29.3001 48.6281 29.3001 48.728 29.3001 48.928C29.3001 49.028 29.3001 49.0281 29.3001 49.1281C29.2001 49.1281 29.2001 49.1281 29.1001 49.0281C28.9001 48.7281 28.6001 48.4281 28.4001 48.1281C27.8001 47.5281 27.1001 47.028 26.3001 46.728C26.0001 46.628 25.7001 46.5281 25.3001 46.5281C25.2001 46.5281 25.1001 46.5281 25.0001 46.6281C24.9001 48.0281 24.9001 49.428 24.9001 50.828C25.3001 50.828 25.7001 50.828 26.1001 50.828C26.5001 50.828 26.8001 50.7281 27.1001 50.5281C27.5001 50.2281 27.8001 49.9281 28.0001 49.5281C28.0001 49.4281 28.1001 49.428 28.1001 49.328C28.2001 49.328 28.2001 49.328 28.2001 49.328C28.2001 50.428 28.2001 51.5281 28.2001 52.6281C28.1001 52.6281 28.0001 52.6281 28.0001 52.5281C27.6001 51.8281 27.1001 51.428 26.3001 51.228C25.9001 51.128 25.4001 51.128 25.0001 51.228C25.0001 51.328 25.0001 51.328 25.0001 51.428C25.0001 52.228 25.0001 53.028 25.1001 53.728C25.1001 54.228 25.2001 54.6281 25.6001 55.0281C25.9001 55.3281 26.3001 55.5281 26.7001 55.6281C26.9001 55.6281 26.9001 55.628 26.8001 55.828C24.7001 55.828 22.6001 55.828 20.5001 55.828C20.5001 55.728 20.5001 55.7281 20.6001 55.6281C21.3001 55.3281 21.7001 54.8281 21.8001 54.1281C21.9001 53.6281 21.9001 53.0281 21.9001 52.5281C21.9001 51.2281 21.9001 50.028 21.9001 48.728C21.9001 48.328 21.9001 47.9281 21.8001 47.6281C21.6001 46.9281 21.2001 46.528 20.4001 46.328C20.4001 46.328 20.4001 46.328 20.3001 46.328C20.1001 46.328 20.1001 46.328 20.1001 46.228Z" fill="#C07173"/>
<path d="M31.3001 52.728C31.2001 53.228 31.1001 53.828 31.2001 54.328C31.3001 54.928 31.7001 55.3281 32.3001 55.6281L32.4001 55.728L32.3001 55.828C30.9001 55.828 29.5001 55.828 28.1001 55.828C28.1001 55.728 28.1001 55.7281 28.2001 55.6281C28.9001 55.2281 29.4001 54.6281 29.9001 54.0281C30.6001 53.0281 31.2001 51.828 31.7001 50.728C32.4001 49.428 33.0001 48.128 33.6001 46.728C33.7001 46.528 33.8001 46.2281 33.9001 46.0281C33.9001 45.9281 34.0001 45.928 34.1001 45.928C34.4001 45.928 34.4001 45.928 34.5001 46.228C35.6001 48.528 36.7001 50.8281 37.9001 53.1281C38.2001 53.7281 38.5001 54.228 38.9001 54.828C39.2001 55.228 39.5001 55.528 40.0001 55.728L40.1001 55.828L40.0001 55.928C39.2001 55.928 38.4001 55.928 37.7001 55.928C36.6001 55.928 35.5001 55.928 34.4001 55.928C34.3001 55.928 34.3001 55.928 34.2001 55.828C34.2001 55.728 34.2001 55.7281 34.3001 55.6281C34.6001 55.4281 34.9001 55.228 35.0001 54.928C35.1001 54.628 35.1001 54.3281 35.0001 54.0281C34.8001 53.6281 34.7001 53.228 34.5001 52.728L34.4001 52.6281C33.2001 52.7281 32.3001 52.728 31.3001 52.728ZM32.7001 49.328C32.2001 50.328 31.7001 51.228 31.4001 52.228C32.3001 52.228 33.2001 52.228 34.0001 52.228C33.6001 51.328 33.2001 50.328 32.7001 49.328Z" fill="#C07173"/>
<path d="M3.59998 56.0281H3.5C2.9 56.0281 2.30001 55.928 1.70001 55.928C1.30001 55.928 0.9 55.7281 0.5 55.6281L0.400024 55.5281C0.300024 55.2281 0.300012 54.8281 0.200012 54.5281C0.100012 54.0281 0.1 53.528 0 52.928V52.8281C0.1 52.7281 0.199988 52.828 0.299988 52.928C0.899988 53.728 1.6 54.428 2.5 54.928C3 55.228 3.49998 55.5281 4.09998 55.7281C4.09998 55.7281 4.19999 55.7281 4.29999 55.7281C4.79999 55.4281 5.09998 55.1281 5.09998 54.5281C5.09998 54.1281 5.00001 53.8281 4.70001 53.5281C4.50001 53.3281 4.20002 53.128 3.90002 52.928C3.30002 52.528 2.69998 52.2281 2.09998 51.8281C1.49998 51.4281 0.899976 50.9281 0.599976 50.3281C0.299976 49.7281 0.200024 49.2281 0.400024 48.6281C0.600024 47.4281 1.4 46.828 2.5 46.428C3.3 46.228 4.10002 46.1281 4.90002 46.2281C5.70002 46.2281 6.50001 46.3281 7.20001 46.5281C7.70001 46.6281 7.60001 46.5281 7.70001 47.1281C7.80001 47.8281 7.80002 48.5281 7.90002 49.2281V49.3281C7.80002 49.3281 7.80001 49.3281 7.70001 49.3281C7.10001 48.5281 6.39998 47.8281 5.59998 47.2281C5.19998 46.9281 4.79999 46.7281 4.29999 46.5281C4.19999 46.5281 4.1 46.5281 4 46.6281C3.6 47.0281 3.40002 47.5281 3.40002 48.0281C3.40002 48.6281 3.70001 49.128 4.20001 49.428C4.70001 49.728 5.19999 50.0281 5.79999 50.3281C6.29999 50.6281 6.89999 50.9281 7.29999 51.3281C7.79999 51.7281 8.10001 52.2281 8.20001 52.8281C8.30001 53.8281 8.09999 54.6281 7.29999 55.2281C6.69999 55.7281 6.00001 55.9281 5.20001 56.0281C4.90001 56.0281 4.70002 56.1281 4.40002 56.1281C4.00002 56.0281 3.79998 56.0281 3.59998 56.0281Z" fill="#C07173"/>
<path d="M19.7001 55.928C19.6001 55.928 19.6 55.928 19.5 55.928C17.6 55.928 15.8001 55.928 13.9001 55.928C13.8001 55.928 13.8001 55.928 13.7001 55.828C13.7001 55.728 13.7 55.7281 13.8 55.6281C14.1 55.4281 14.4 55.228 14.6 54.928C14.7 54.628 14.7 54.3281 14.6 54.1281C14.4 53.7281 14.3 53.328 14.1 52.828L14 52.728C13 52.728 12.1 52.728 11.1 52.728C10.9 53.428 10.8 54.0281 11.1 54.6281C11.3 55.0281 11.6 55.3281 12 55.6281C12.1 55.6281 12.1 55.728 12.1 55.828C12.1 55.828 12.0001 55.928 11.9001 55.928C10.5001 55.928 9.20004 55.928 7.80004 55.928C7.80004 55.928 7.80006 55.928 7.70006 55.928C7.70006 55.828 7.60004 55.828 7.80004 55.728C8.50004 55.328 9.00005 54.7281 9.50005 54.0281C10.2 53.0281 10.7001 51.928 11.2001 50.828C11.8001 49.728 12.3 48.528 12.8 47.428C13 47.028 13.2001 46.5281 13.4001 46.0281C13.4001 45.9281 13.5 45.928 13.6 45.928C13.9 45.928 13.9 45.928 14 46.228C15.1 48.528 16.2001 50.8281 17.4001 53.1281C17.7001 53.7281 18.0001 54.228 18.4001 54.728C18.7001 55.128 19.1 55.428 19.5 55.728C19.7 55.728 19.7001 55.828 19.7001 55.928ZM12.6 49.328C12.1 50.328 11.6 51.228 11.3 52.228C12.2 52.228 13.1001 52.228 13.9001 52.228C13.4001 51.328 13 50.328 12.6 49.328Z" fill="#C07173"/>
<path d="M47.3999 43.828C47.3999 43.728 47.4999 43.7281 47.4999 43.6281C48.1999 43.3281 48.5999 42.8281 48.6999 42.1281C48.7999 41.8281 48.7999 41.4281 48.7999 41.0281C48.7999 39.6281 48.7999 38.228 48.7999 36.828C48.7999 36.328 48.7999 35.928 48.5999 35.428C48.3999 34.928 48.0999 34.528 47.4999 34.328C47.3999 34.328 47.3999 34.3281 47.3999 34.1281C49.3999 34.1281 51.2999 34.1281 53.2999 34.1281V34.228C53.0999 34.328 52.9999 34.328 52.8999 34.428C52.2999 34.728 51.9999 35.228 51.9999 35.828C51.8999 37.128 51.8999 38.428 51.8999 39.728C51.8999 40.428 51.8999 41.128 51.8999 41.828C51.8999 42.228 51.8999 42.528 52.0999 42.828C52.1999 42.928 52.1999 43.0281 52.2999 43.1281C52.4999 43.3281 52.6999 43.328 52.8999 43.228C53.5999 42.928 54.1999 42.5281 54.7999 42.0281C55.2999 41.6281 55.6999 41.1281 56.0999 40.5281C56.1999 40.4281 56.1999 40.4281 56.2999 40.5281C56.0999 41.5281 55.8999 42.628 55.7999 43.728C53.0999 43.928 50.1999 43.928 47.3999 43.828Z" fill="#C07173"/>
<path d="M27.7 43.828C27.7 43.728 27.6999 43.6281 27.7999 43.6281C28.1999 43.4281 28.5999 43.128 28.7999 42.728C28.9999 42.428 28.9999 42.028 29.0999 41.728C29.0999 41.328 29.1 41.0281 29.2 40.6281C29.2 40.3281 29.0999 40.028 29.0999 39.828C28.5999 38.328 28 37.028 27 35.728C26.7 35.428 26.4 35.128 26 34.828C25.8 34.728 25.5 34.6281 25.2 34.6281C25.1 34.5281 25.0999 34.528 25.2999 34.428C26.0999 34.128 27 34.0281 27.9 34.0281C28.4 34.0281 28.7999 34.128 29.2999 34.328C29.8999 34.528 30.2999 35.0281 30.5999 35.5281C30.9999 36.1281 31.2 36.8281 31.4 37.5281C31.6 38.1281 31.6999 38.728 31.7999 39.328C31.7999 39.328 31.8 39.428 31.9 39.428C31.9 39.328 31.9 39.1281 31.9 39.0281C32 38.2281 32.0999 37.428 32.2999 36.728C32.3999 36.128 32.6 35.5281 33 35.0281C33.5 34.3281 34.2 34.0281 35 34.1281C35.5 34.1281 36 34.2281 36.4 34.5281C36.4 34.5281 36.4 34.5281 36.5 34.6281C36.5 34.7281 36.4 34.728 36.4 34.828C35.6 35.228 34.9 35.8281 34.4 36.5281C33.6 37.5281 32.9 38.628 32.5 39.928C32.4 40.228 32.3 40.428 32.4 40.728C32.5 41.328 32.4999 41.828 32.5999 42.428C32.6999 43.028 33.1 43.528 33.7 43.828H33.7999V43.928L33.7 44.0281C33.2 44.0281 32.7999 44.0281 32.2999 44.0281C31.2999 44.0281 30.2 44.0281 29.2 44.0281C28.4 43.8281 28.1 43.828 27.7 43.828Z" fill="#C07173"/>
<path d="M2.8999 34.328V34.228C2.9999 34.228 2.99985 34.228 3.09985 34.228C3.99985 34.228 4.89987 34.228 5.79987 34.228C7.29987 34.228 8.79989 34.128 10.1999 34.228C10.7999 34.328 11.3999 34.428 11.9999 34.728C12.9999 35.228 13.2999 36.1281 13.1999 37.1281C12.9999 37.9281 12.4999 38.528 11.7999 38.928C11.5999 39.028 11.2999 39.128 10.9999 39.328C11.1999 39.528 11.2999 39.628 11.4999 39.828C11.8999 40.328 12.3999 40.828 12.7999 41.328C13.3999 42.028 13.9999 42.6281 14.7999 43.1281C14.9999 43.3281 15.1999 43.528 15.5999 43.428C15.6999 43.528 15.6999 43.6281 15.4999 43.6281C15.3999 43.6281 15.3999 43.628 15.2999 43.728C14.2999 43.928 13.3999 44.028 12.3999 43.928C11.5999 43.828 10.9999 43.5281 10.4999 43.0281C9.89988 42.5281 9.49985 41.928 9.09985 41.228C8.79985 40.628 8.49985 40.028 8.09985 39.428L7.99988 39.328C7.89988 39.328 7.69985 39.328 7.59985 39.328C7.59985 39.328 7.59985 39.328 7.59985 39.428C7.59985 40.328 7.59989 41.2281 7.69989 42.1281C7.79989 42.5281 7.89989 42.8281 8.19989 43.1281C8.49989 43.4281 8.8999 43.6281 9.3999 43.6281C9.5999 43.6281 9.59988 43.728 9.49988 43.828C7.39988 43.828 5.29987 43.828 3.29987 43.828C3.29987 43.728 3.2999 43.7281 3.3999 43.6281C3.8999 43.4281 4.29988 43.0281 4.49988 42.5281C4.69988 42.0281 4.69989 41.428 4.69989 40.928C4.69989 39.828 4.69989 38.7281 4.69989 37.6281C4.69989 37.0281 4.69985 36.428 4.59985 35.828C4.49985 35.328 4.29987 34.8281 3.79987 34.5281C3.39987 34.5281 3.0999 34.428 2.8999 34.328ZM7.49988 38.6281C7.49988 38.7281 7.49989 38.828 7.69989 38.828C8.09989 38.828 8.4999 38.928 8.8999 38.928C9.2999 39.028 9.49989 38.828 9.69989 38.428C9.99989 37.728 10.0999 37.028 9.99988 36.328C9.89988 35.828 9.69989 35.328 9.19989 34.928C8.79989 34.628 8.3999 34.4281 7.8999 34.5281C7.7999 34.5281 7.79987 34.628 7.79987 34.728C7.49987 35.628 7.49988 38.2281 7.49988 38.6281Z" fill="#C07173"/>
<path d="M20.4999 44.0281C20.3999 44.0281 20.1998 44.0281 20.0998 44.0281C19.9998 44.0281 19.9999 44.0281 19.8999 44.0281C19.4999 43.9281 19.0999 43.928 18.6999 43.828C17.4999 43.528 16.4999 43.0281 15.6999 42.1281C15.2999 41.7281 14.9999 41.2281 14.8999 40.6281C14.6999 40.0281 14.5999 39.328 14.6999 38.728C14.7999 38.128 14.8999 37.428 15.1999 36.928C16.0999 35.328 17.4998 34.528 19.2998 34.228C19.5998 34.228 19.7998 34.1281 20.0998 34.1281C20.2998 34.1281 20.3998 34.1281 20.5998 34.1281C20.7998 34.1281 20.8998 34.128 21.0998 34.228C22.2998 34.328 23.2999 34.7281 24.1999 35.5281C24.8999 36.1281 25.2999 36.8281 25.4999 37.6281C25.6999 38.3281 25.6999 38.9281 25.6999 39.6281C25.5999 40.2281 25.4999 40.828 25.1999 41.428C24.3999 42.928 22.9999 43.7281 21.3999 44.0281C21.0999 43.9281 20.7999 43.9281 20.4999 44.0281ZM18.0998 39.0281C18.0998 39.1281 18.0999 39.4281 18.1999 39.6281C18.2999 40.5281 18.5998 41.428 19.0998 42.228C19.3998 42.728 19.8999 43.2281 20.4999 43.5281C20.5999 43.5281 20.5999 43.5281 20.6999 43.5281C21.0999 43.3281 21.3998 42.9281 21.5998 42.5281C22.1998 41.6281 22.3999 40.6281 22.3999 39.5281C22.3999 38.8281 22.3998 38.2281 22.2998 37.5281C22.1998 36.7281 21.8999 35.928 21.3999 35.328C21.0999 34.928 20.6999 34.628 20.1999 34.428H20.0998C19.9998 34.428 19.8998 34.5281 19.7998 34.6281C19.2998 35.0281 18.9999 35.5281 18.6999 36.0281C18.1999 36.9281 18.0998 37.9281 18.0998 39.0281Z" fill="#C07173"/>
<path d="M46.4999 43.828C46.4999 43.828 45.2999 43.828 43.2999 43.828C43.3999 39.628 42.8 36.2281 41.7 34.6281C42 33.9281 42.2999 33.628 42.5999 33.228C46.9999 36.528 46.4999 43.828 46.4999 43.828Z" fill="#C07173"/>
<path d="M40.3999 31.928C40.0999 32.028 39.8999 32.228 39.5999 32.428C38.9999 31.928 38.3999 31.628 38.0999 31.328C38.8999 31.428 39.6999 31.628 40.3999 31.928Z" fill="#C07173"/>
<path d="M38.5999 43.828C36.5999 43.828 35.3999 43.828 35.3999 43.828C35.3999 43.828 35.0999 32.728 43.7999 31.228C42.4999 32.428 38.4999 35.428 38.5999 43.828Z" fill="#C07173"/>
<path d="M43.9999 16.6281C43.3999 15.4281 43.0999 14.1281 43.0999 14.1281H41.9999L40.8999 13.928C40.8999 13.928 42.1999 16.128 43.4999 17.728C44.7999 19.228 46.1999 20.0281 46.2999 20.1281C46.1999 19.8281 44.5999 17.8281 43.9999 16.6281Z" fill="#E9BD7F"/>
<path d="M50.7999 15.728C50.0999 15.328 49.4999 14.828 48.8999 14.328C48.8999 14.728 48.9999 15.1281 48.9999 15.5281C48.9999 15.7281 48.9999 15.8281 48.9999 16.0281C49.2999 16.1281 49.6999 16.328 50.0999 16.428C51.3999 16.928 54.2999 17.5281 54.3999 17.5281C54.3999 17.5281 52.2999 16.728 50.7999 15.728Z" fill="#E9BD7F"/>
<path d="M22.3999 23.428C20.3999 23.128 19.7999 22.528 18.9999 22.228C18.9999 22.228 17.9999 22.9281 17.5999 23.6281C17.0999 24.4281 17.0999 24.828 17.0999 24.828C18.1999 27.528 18.6999 29.328 18.6999 29.328H23.2999C23.2999 29.328 22.4999 26.4281 22.3999 24.0281C22.3999 23.8281 22.3999 23.728 22.3999 23.428Z" fill="#E9BD7F"/>
<path d="M44.5999 19.5281C44.9999 21.4281 45.6999 23.1281 45.8999 24.6281C46.0999 26.2281 45.9999 27.828 45.9999 27.828H47.9999C47.9999 27.828 48.6999 25.928 48.8999 22.328C48.8999 22.328 45.5999 20.5281 44.5999 19.5281Z" fill="#E9BD7F"/>
<path d="M48.2999 13.328C48.0999 11.728 47.8999 10.3281 47.5999 9.12805C46.8999 5.82805 45.3999 1.42798 45.3999 1.42798C45.3999 1.42798 43.5999 1.828 40.6999 1.828C40.1999 1.828 39.6999 1.828 39.1999 1.828C35.5999 1.628 33.1999 0.427979 33.1999 0.427979L31.1999 1.828C29.6999 2.928 27.4999 4.52803 25.8999 7.22803C25.9999 7.02803 26.3999 5.62803 27.7999 3.72803C28.5999 2.62803 29.0999 2.22803 29.0999 2.22803C29.0999 2.22803 27.5999 1.728 25.8999 1.828C24.9999 1.928 20.9999 2.72803 18.2999 3.72803C14.8999 5.12803 12.9999 6.22803 12.9999 6.22803C12.9999 6.22803 9.8999 9.128 9.3999 15.328L10.0999 29.6281L14.8999 29.728C14.8999 29.728 15.4999 22.7281 18.8999 21.5281C18.8999 21.5281 21.3999 23.328 25.2999 23.328C26.7999 23.328 27.9999 23.2281 28.9999 23.1281C29.5999 23.0281 30.1999 23.0281 30.7999 23.0281C30.6999 21.3281 30.3999 19.828 30.3999 19.828C30.3999 19.828 31.3999 20.8281 31.6999 23.0281L32.6999 29.728H36.4999C36.4999 29.728 36.9999 27.528 37.6999 24.728C38.1999 22.728 38.5999 21.0281 39.8999 18.5281C39.8999 18.5281 38.8999 22.3281 38.2999 25.6281L38.8999 26.5281L39.0999 29.6281H42.7999C42.7999 29.6281 43.0999 26.9281 42.4999 24.0281C41.9999 21.4281 41.2999 18.828 41.1999 16.328L41.2999 16.228L39.8999 14.1281C39.9999 13.8281 40.0999 13.6281 40.2999 13.5281L40.9999 13.6281L41.6999 13.728C41.4999 13.128 41.3999 12.1281 41.0999 11.1281C40.5999 9.22805 38.9999 4.92798 38.7999 4.42798C39.0999 5.02798 41.2999 10.028 42.5999 13.828L43.3999 13.928C43.3999 13.928 43.8999 15.7281 44.5999 17.1281C46.1999 20.2281 48.7999 22.1281 48.7999 22.1281C48.7999 20.3281 48.6999 18.1281 48.4999 16.0281C48.4999 14.8281 48.3999 14.028 48.2999 13.328ZM30.8999 12.6281C27.6999 11.1281 25.0999 8.52808 25.0999 8.52808L25.7999 7.328C25.7999 7.328 26.5999 8.628 29.3999 10.828C32.0999 12.928 36.8999 14.728 37.1999 14.828C36.9999 14.728 33.9999 14.1281 30.8999 12.6281Z" fill="#E9BD7F"/>
<path d="M10.2 60.428C10.2 61.628 10.6999 62.328 11.7999 62.328C12.8999 62.328 13.0999 61.828 13.0999 61.228V61.1281C13.0999 60.9281 12.9 60.828 12.4 60.728V60.6281C12.4 60.6281 13.1999 60.6281 13.7999 60.6281C14.2999 60.6281 14.9 60.6281 14.9 60.6281V60.728C14.6 60.828 14.4 60.9281 14.4 61.1281V62.5281H14.2999C14.2999 62.5281 14.1 61.9281 13.9 61.5281C13.6 62.0281 13 62.5281 11.7 62.5281C9.89995 62.5281 8.69995 61.528 8.69995 60.328C8.69995 59.128 9.89993 58.1281 11.7999 58.1281C12.6999 58.1281 13 58.228 13.4 58.428C13.5 58.428 13.6 58.5281 13.7 58.5281C13.8 58.5281 13.9 58.528 13.9 58.228H14.0999C14.0999 58.228 14.1 59.228 14.2 59.928H14.0999C13.9999 59.728 13.8 59.4281 13.7 59.1281C13.4 58.6281 12.8999 58.328 11.9999 58.328C10.7999 58.428 10.2 59.128 10.2 60.428Z" fill="#C07173"/>
<path d="M19.7999 61.428H16.9999L16.8999 61.6281C16.6999 62.0281 16.6999 62.228 17.2999 62.328V62.428C17.2999 62.428 16.8999 62.428 16.3999 62.428C15.7999 62.428 15.5999 62.428 15.5999 62.428V62.328C15.9999 62.228 16.2999 62.028 16.4999 61.728L18.1999 58.6281C17.9999 58.5281 17.6999 58.428 17.2999 58.328V58.228C17.2999 58.228 17.9999 58.228 18.5999 58.228C19.0999 58.228 19.5999 58.228 19.5999 58.228L21.4999 61.728C21.6999 62.028 21.7999 62.128 22.2999 62.328V62.428C22.2999 62.428 21.6999 62.428 20.9999 62.428C20.2999 62.428 19.5999 62.428 19.5999 62.428V62.328C20.1999 62.228 20.2999 62.028 20.0999 61.828L19.7999 61.428ZM17.1999 61.1281H19.6999L18.4999 58.828L17.1999 61.1281Z" fill="#C07173"/>
<path d="M26.2999 60.6281C26.5999 60.8281 27.0999 60.928 27.8999 60.928L28.6999 61.928C28.8999 62.228 28.9999 62.228 29.4999 62.328V62.428C29.4999 62.428 28.7999 62.428 28.3999 62.428C28.0999 62.428 27.5999 62.428 27.5999 62.428L25.9999 60.6281C25.7999 60.6281 25.5999 60.6281 25.4999 60.6281V61.928C25.4999 62.228 25.8999 62.228 26.1999 62.328V62.428C26.1999 62.428 25.0999 62.428 24.7999 62.428C24.4999 62.428 23.3999 62.428 23.3999 62.428V62.328C23.8999 62.228 24.0999 62.128 24.0999 61.928V58.828C24.0999 58.628 23.8999 58.528 23.3999 58.428V58.328C23.3999 58.328 25.2999 58.328 26.0999 58.328C27.7999 58.328 28.8999 58.628 28.8999 59.428C28.9999 60.228 27.9999 60.6281 26.2999 60.6281ZM26.1999 60.428C26.9999 60.428 27.4999 60.128 27.4999 59.428C27.4999 58.728 26.9999 58.5281 26.0999 58.5281C25.7999 58.5281 25.5999 58.5281 25.3999 58.6281V60.428C25.5999 60.328 25.8999 60.428 26.1999 60.428Z" fill="#C07173"/>
<path d="M30.5 62.328C31 62.228 31.2 62.128 31.2 61.928V58.828C31.2 58.628 31 58.528 30.5 58.428V58.328C31.4 58.328 32.6 58.228 33.2 58.228C35.4 58.228 36.6 59.028 36.6 60.428C36.6 61.728 35.2 62.5281 33.2 62.5281C32.4 62.5281 31.2 62.428 30.5 62.328ZM33.3 58.5281C33.1 58.5281 32.8 58.5281 32.7 58.6281V61.828C32.7 62.228 32.9 62.328 33.4 62.328C34.7 62.328 35.3 61.7281 35.3 60.5281C35.2 59.0281 34.7 58.5281 33.3 58.5281Z" fill="#C07173"/>
<path d="M43.4999 60.728C43.4999 61.628 43.3999 62.428 43.3999 62.428C43.3999 62.428 41.9999 62.428 39.2999 62.428C38.6999 62.428 37.8999 62.428 37.8999 62.428V62.328C38.3999 62.228 38.5999 62.128 38.5999 61.928V58.828C38.5999 58.628 38.3999 58.528 37.8999 58.428V58.328C37.8999 58.328 38.7999 58.328 39.2999 58.328C41.8999 58.328 43.1999 58.328 43.1999 58.328C43.1999 58.328 43.2999 59.128 43.2999 59.828H43.1999C42.5999 58.928 42.3999 58.6281 42.0999 58.6281H39.9999V60.228H41.1999C41.3999 60.228 41.5999 60.128 41.8999 59.328H41.9999C41.9999 59.328 41.9999 59.828 41.9999 60.328C41.9999 60.728 41.9999 61.328 41.9999 61.328H41.8999C41.4999 60.528 41.3999 60.428 41.1999 60.428H39.9999V61.728C39.9999 62.028 40.1999 62.1281 40.5999 62.1281H42.2999C42.5999 62.1281 42.8999 61.728 43.4999 60.728Z" fill="#C07173"/>
<path d="M44.7 58.328C44.7 58.328 45.1999 58.328 45.7999 58.328C46.2999 58.328 46.7 58.328 46.7 58.328L49.5999 60.928V58.928C49.5999 58.628 49.3 58.528 48.9 58.428V58.328C48.9 58.328 49.4999 58.328 49.7999 58.328C50.0999 58.328 50.5999 58.328 50.5999 58.328V58.428C50.1999 58.528 49.9999 58.628 49.9999 58.928V62.5281H49.7L45.9 59.0281V61.828C45.9 62.128 46.1999 62.228 46.5999 62.328V62.428C46.5999 62.428 46 62.428 45.7 62.428C45.4 62.428 44.7999 62.428 44.7999 62.428V62.328C45.2999 62.228 45.4999 62.128 45.4999 61.828V58.6281C45.1999 58.5281 45.1 58.428 44.7 58.328Z" fill="#C07173"/>
</svg>
