<svg width="74" height="59" viewBox="0 0 74 59" fill="none" xmlns="http://www.w3.org/2000/svg">
<path d="M30.4001 49.1281C35.7001 49.1281 41 49.1281 46.3 49.1281C46.5 49.1281 46.7001 49.228 46.9001 49.228C51.6001 49.328 56.3001 49.328 61.0001 49.428C64.6001 49.528 68.2001 49.628 71.8 49.728C72.3 49.728 72.9001 49.828 73.4001 49.828C73.2001 49.928 72.9001 50.0281 72.7001 50.0281C69.2001 50.1281 65.7001 50.328 62.3 50.428C56.9 50.528 51.6001 50.5281 46.2001 50.6281C46.0001 50.6281 45.8001 50.628 45.5001 50.728C40.8001 50.728 36 50.728 31.3 50.728C31.1 50.728 30.9 50.6281 30.6 50.6281C25.5 50.5281 20.4 50.528 15.3 50.428C11.9 50.328 8.50004 50.2281 5.10004 50.1281C4.50004 50.1281 3.90005 50.0281 3.30005 50.0281C3.50005 49.9281 3.70009 49.828 3.90009 49.828C7.60009 49.728 11.4 49.528 15.1 49.428C20 49.328 24.9001 49.328 29.7001 49.228C30.0001 49.128 30.2001 49.1281 30.4001 49.1281Z" fill="#E96D24"/>
<path d="M15.1001 39.228C17.1001 39.228 18.8001 38.628 19.8001 36.828C20.4001 35.828 20.5001 34.828 20.5001 33.728C20.5001 32.928 20.3001 32.2281 19.9001 31.5281C19.7001 31.2281 19.5001 31.128 19.1001 31.328C18.5001 31.528 18.0001 31.728 17.4001 31.928C16.9001 32.128 16.8001 32.228 17.0001 32.728C17.4001 33.728 17.6001 34.828 17.1001 35.828C16.8001 36.428 16.2001 36.7281 15.6001 36.5281C15.3001 36.4281 15.0001 36.2281 14.7001 36.0281C13.5001 35.0281 12.9001 33.728 12.5001 32.328C11.9001 30.228 11.9001 28.1281 12.3001 26.0281C12.3001 25.9281 12.3001 25.7281 12.2001 25.6281C12.1001 25.6281 11.9001 25.628 11.8001 25.728C10.9001 26.028 10.1001 26.528 9.20013 26.728C8.30013 27.028 7.40012 27.128 6.50012 27.228C6.10012 27.328 5.90015 27.528 5.90015 27.928C6.00015 29.028 6.0001 30.128 6.1001 31.228C6.3001 32.828 6.90015 34.428 7.90015 35.828C9.90015 38.128 12.3001 39.128 15.1001 39.228Z" fill="#7A3D1A"/>
<path d="M69.1001 16.928C68.4001 13.828 66.7001 11.2281 64.3001 9.22807C61.1001 6.42807 57.6001 4.3281 53.5001 3.1281C51.4001 2.5281 49.2001 2.12812 47.0001 2.02812C44.5001 1.92812 42.0001 1.82805 39.4001 1.82805C38.5001 1.82805 37.6001 1.92812 36.8001 2.02812C35.7001 2.12812 34.6001 2.02802 33.5001 1.92802C32.3001 1.82802 31.1001 1.72802 29.9001 1.92802C27.3001 2.22802 24.7001 2.0281 22.2001 1.1281C21.3001 0.828096 20.3001 0.628022 19.3001 0.428022C17.8001 0.128022 16.5001 0.628071 15.4001 1.72807C15.0001 2.12807 14.6001 2.62807 14.2001 3.22807C13.3001 4.62807 12.4001 6.0281 11.1001 7.1281C10.3001 7.9281 10.0001 8.92802 9.90015 9.92802C9.70015 10.928 9.60015 12.0281 9.40015 13.0281C9.30015 13.6281 9.20015 14.2281 8.90015 14.7281C8.00015 16.7281 7.4001 18.728 7.1001 20.928C7.0001 21.528 6.8001 22.128 6.6001 22.828C6.8001 22.828 7.0001 22.828 7.1001 22.828C8.0001 22.428 8.90011 22.1281 9.80011 21.7281C9.90011 21.6281 10.1001 21.6281 10.3001 21.6281C10.1001 22.2281 9.70011 22.528 9.30011 22.828C7.30011 24.328 4.9001 24.628 2.6001 24.828C1.9001 24.928 1.20015 24.928 0.400146 24.928C0.400146 25.028 0.400146 25.228 0.400146 25.328C2.60015 26.028 4.90013 26.4281 7.20013 26.0281C9.40013 25.7281 11.5001 24.9281 13.4001 23.7281C13.7001 23.5281 14.0001 23.3281 14.3001 23.1281C14.4001 23.1281 14.5001 23.1281 14.6001 23.1281C15.1001 23.3281 15.5001 23.2281 15.7001 22.7281C16.5001 21.2281 17.9001 20.628 19.4001 20.428C20.3001 20.228 21.0001 19.9281 21.6001 19.2281C21.8001 18.9281 22.0001 18.9281 22.2001 19.2281C22.9001 19.9281 23.6001 20.628 24.3001 21.328C24.4001 21.428 24.5001 21.728 24.5001 21.828C24.3001 24.428 24.1001 27.0281 23.7001 29.7281C23.2001 33.5281 23.7001 37.3281 23.5001 41.2281C23.5001 42.4281 23.4001 43.628 23.2001 44.828C23.1001 45.928 22.5001 46.8281 21.9001 47.7281C21.0001 49.1281 21.3001 49.8281 22.9001 50.0281C24.5001 50.2281 26.2001 50.128 27.8001 49.828C28.6001 49.7281 28.8001 49.3281 28.7001 48.5281C28.5001 47.7281 28.3001 46.9281 28.0001 46.1281C27.9001 45.8281 27.8001 45.628 27.9001 45.328C28.2001 42.828 28.6001 40.328 28.9001 37.928C28.9001 37.828 29.0001 37.6281 29.1001 37.5281C29.2001 37.6281 29.4001 37.7281 29.4001 37.828C30.0001 39.928 30.7001 42.1281 31.3001 44.2281C31.5001 44.9281 31.3001 45.628 31.1001 46.328C30.9001 47.2281 30.6001 48.128 30.5001 48.928C30.4001 49.428 30.6001 49.828 31.0001 49.928C32.9001 50.628 34.8001 50.728 36.8001 49.928C38.0001 49.428 38.4001 48.8281 37.7001 47.7281C36.7001 46.0281 36.6001 44.228 36.5001 42.428C36.3001 39.628 36.3001 36.728 36.2001 33.928C36.2001 33.228 36.2001 32.628 36.3001 31.928C36.4001 30.628 37.1001 29.5281 37.9001 28.6281C38.1001 28.4281 38.3001 28.5281 38.5001 28.6281C40.3001 29.3281 42.2001 30.028 44.1001 30.328C45.1001 30.428 46.2001 30.5281 47.2001 30.6281C47.6001 30.6281 47.9001 30.8281 48.1001 31.2281C48.6001 32.4281 49.4001 33.5281 50.3001 34.5281C51.6001 35.9281 52.3001 37.7281 52.5001 39.6281C52.8001 42.4281 52.2001 45.028 50.7001 47.428C50.5001 47.728 50.3001 48.028 50.2001 48.428C50.0001 48.928 50.2001 49.228 50.6001 49.428C51.0001 49.628 51.4001 49.7281 51.8001 49.7281C53.6001 49.9281 55.5001 49.8281 57.3001 49.5281C57.6001 49.4281 57.9001 49.328 57.9001 48.928C57.9001 47.228 58.0001 45.528 58.0001 43.828C58.0001 41.7281 57.8001 39.7281 57.7001 37.6281C57.7001 37.4281 57.8001 37.3281 57.9001 37.1281C58.0001 37.2281 58.2001 37.328 58.3001 37.328C59.3001 37.928 59.6001 38.7281 59.7001 39.828C59.8001 41.328 60.1001 42.828 60.2001 44.328C60.3001 45.528 59.9001 46.6281 59.4001 47.7281C59.2001 48.1281 59.0001 48.528 58.8001 48.928C58.6001 49.328 58.8001 49.6281 59.1001 49.7281C59.6001 49.9281 60.2001 50.1281 60.7001 50.1281C62.1001 50.1281 63.5001 50.128 64.9001 49.928C66.2001 49.728 66.6001 49.028 66.3001 47.828C65.5001 44.528 65.2001 41.128 64.9001 37.828C64.7001 36.128 65.1001 34.528 65.5001 32.828C65.9001 30.928 66.4001 29.1281 66.9001 27.2281C67.0001 26.9281 67.1001 26.728 67.2001 26.428C67.3001 26.428 67.3001 26.428 67.4001 26.428C67.5001 26.728 67.6001 27.128 67.6001 27.428C67.8001 29.028 67.6001 30.5281 67.5001 32.0281C67.4001 33.6281 67.4001 35.2281 67.3001 36.7281C67.3001 36.9281 67.4001 37.0281 67.4001 37.2281H67.5001C67.6001 37.0281 67.7001 36.8281 67.8001 36.6281C68.0001 35.5281 68.1001 34.3281 68.3001 33.2281C68.5001 31.5281 68.7001 29.8281 68.9001 28.1281C69.9001 24.3281 69.9001 20.628 69.1001 16.928ZM14.4001 13.0281C14.3001 13.1281 14.0001 13.028 13.9001 12.928C13.7001 12.728 13.9001 12.528 14.1001 12.428C14.5001 12.328 15.0001 12.2281 15.4001 12.0281C15.4001 12.1281 15.5001 12.1281 15.5001 12.2281C15.1001 12.5281 14.7001 12.8281 14.4001 13.0281ZM29.3001 14.428C28.6001 14.928 28.3001 15.628 28.1001 16.428C28.0001 16.928 27.9001 17.5281 27.7001 18.0281C27.4001 18.9281 26.7001 19.1281 25.9001 18.6281C24.4001 17.6281 23.4001 16.4281 23.1001 14.5281C23.0001 14.1281 23.0001 13.7281 22.9001 13.2281H23.0001C23.1001 13.6281 23.3001 13.928 23.4001 14.328C23.8001 15.928 24.7001 17.028 26.1001 17.828C26.6001 18.128 26.8001 18.1281 26.9001 17.5281C27.1001 16.8281 27.2001 16.128 27.3001 15.428C27.4001 14.828 27.8001 14.328 28.3001 13.928C29.5001 13.028 30.1001 11.928 29.7001 10.328C29.3001 8.92805 28.7001 7.62812 27.8001 6.52812C27.2001 5.72812 26.4001 5.02812 25.4001 4.52812C24.2001 3.92812 23.1001 3.92807 22.0001 4.72807C21.7001 4.92807 21.4001 5.12802 21.0001 5.42802C22.1001 3.72802 23.9001 3.12802 25.6001 3.92802C27.3001 4.62802 28.5001 5.82802 29.4001 7.42802C29.8001 8.22802 30.2001 9.12812 30.5001 10.0281C31.4001 11.8281 30.8001 13.328 29.3001 14.428ZM39.9001 28.328C39.7001 28.328 39.5001 28.428 39.3001 28.328C39.2001 28.328 39.2001 28.2281 39.1001 28.1281C39.2001 28.1281 39.3001 28.0281 39.4001 28.0281C39.6001 28.0281 39.8001 28.1281 39.9001 28.2281C39.9001 28.2281 39.9001 28.228 39.9001 28.328Z" fill="#7A3D1A"/>
<path d="M15.4002 12.328C15.0002 12.628 14.7001 12.9281 14.3001 13.1281C14.2001 13.2281 13.9001 13.1281 13.8001 13.0281C13.6001 12.8281 13.8001 12.6281 14.0001 12.5281C14.4001 12.4281 14.9001 12.3281 15.3001 12.1281C15.4001 12.1281 15.4002 12.228 15.4002 12.328Z" fill="white"/>
<path d="M15.1002 39.228C12.3002 39.128 9.9002 38.128 8.2002 35.728C7.2002 34.328 6.70021 32.8281 6.40021 31.1281C6.20021 30.0281 6.2002 28.928 6.2002 27.828C6.2002 27.428 6.40017 27.2281 6.80017 27.1281C7.70017 26.9281 8.60018 26.8281 9.50018 26.6281C10.4002 26.3281 11.2002 25.9281 12.1002 25.6281C12.2002 25.6281 12.4002 25.5281 12.5002 25.5281C12.5002 25.6281 12.6002 25.828 12.6002 25.928C12.1002 28.028 12.2002 30.128 12.8002 32.228C13.2002 33.628 13.8002 34.928 15.0002 35.928C15.3002 36.128 15.6002 36.328 15.9002 36.428C16.4002 36.628 17.1002 36.328 17.4002 35.728C17.9002 34.728 17.7002 33.6281 17.3002 32.6281C17.1002 32.1281 17.2002 32.028 17.7002 31.828C18.3002 31.628 18.9002 31.428 19.4002 31.228C19.8002 31.128 20.0002 31.228 20.2002 31.428C20.6002 32.128 20.8002 32.8281 20.8002 33.6281C20.8002 34.7281 20.6002 35.728 20.1002 36.728C18.8002 38.528 17.2002 39.228 15.1002 39.228Z" fill="#7A3D1A"/>
<path d="M66.9002 47.5281C67.0002 46.5281 66.8002 45.6281 66.0002 45.0281C65.9002 44.9281 65.9002 44.828 65.8002 44.728C66.0002 44.528 66.2002 44.428 66.4002 44.228C66.6002 43.328 66.4002 42.5281 66.0002 41.6281C65.8002 41.3281 65.9002 40.8281 65.9002 40.5281C66.1002 38.2281 66.2002 35.828 64.9002 33.728C64.3002 32.628 63.7002 31.528 63.2002 30.428C62.6002 28.928 61.5002 28.1281 60.1002 27.6281C58.8002 27.1281 57.5002 26.728 56.2002 26.228C55.0002 25.728 53.8002 25.728 52.5002 25.928C51.6002 26.128 50.7002 26.228 49.8002 26.428C49.6002 26.428 49.3002 26.428 49.0002 26.428C48.7002 26.428 48.3002 26.328 48.0002 26.428C47.2002 26.628 46.5002 26.428 45.9002 25.828C45.5002 25.428 45.2002 25.128 44.8002 24.728C43.9002 23.928 42.8002 23.828 41.7002 23.828C41.1002 23.828 40.4002 23.6281 39.8002 24.0281C39.3002 24.3281 38.8002 24.528 38.3002 24.828C38.1002 24.928 38.0002 25.228 37.8002 25.328C37.6002 25.528 37.4002 25.728 37.2002 25.728C36.5002 25.828 36.0002 26.228 35.7002 26.828C35.6002 27.128 35.3002 27.328 35.0002 27.328C34.8002 27.328 34.6002 27.5281 34.4002 27.6281C34.0002 27.7281 34.0002 27.3281 33.8002 27.1281C33.7002 27.0281 33.7002 26.7281 33.8002 26.6281C34.3002 26.2281 34.7002 25.728 35.2002 25.428C36.1002 24.728 36.7002 23.8281 36.6002 22.6281C36.6002 22.1281 36.3002 21.628 36.2002 21.228C36.1002 20.828 36.1002 20.428 36.1002 19.928C36.1002 19.728 36.1002 19.428 36.1002 19.228C35.9002 19.228 35.8002 19.228 35.6002 19.228C35.4002 19.728 34.9002 19.9281 34.5002 20.1281C33.8002 20.4281 33.7002 20.828 34.2002 21.428L34.3002 21.5281C34.9002 22.5281 34.9002 22.7281 33.9002 23.5281C33.2002 24.1281 32.4002 24.628 31.7002 25.228C31.1002 25.728 30.5002 26.428 30.2002 27.228C30.2002 27.528 30.2002 27.928 30.2002 28.228C30.4002 28.628 30.4002 29.028 30.7002 29.328C31.5002 30.528 32.6002 31.028 34.0002 31.228C34.7002 31.328 35.4002 31.428 36.0002 31.428C35.9002 31.928 35.8002 32.328 35.7002 32.828C35.7002 33.328 35.9002 33.528 36.4002 33.228C36.7002 33.128 36.9002 32.928 37.2002 32.828C37.8002 32.628 38.2002 32.828 38.6002 33.228C39.1002 33.728 39.7002 33.7281 40.3002 33.5281C40.6002 33.4281 40.9002 33.428 41.3002 33.428C41.7002 33.428 41.9002 33.628 42.0002 33.928C42.1002 34.228 42.3002 34.528 42.5002 34.728C42.8002 35.128 43.2002 35.328 43.4002 35.828C43.5002 36.128 43.9002 36.2281 44.0002 36.5281C44.4002 37.1281 44.8002 37.728 45.2002 38.328C45.3002 38.428 45.3002 38.5281 45.3002 38.6281C45.2002 39.9281 45.1002 41.2281 44.9002 42.5281C44.8002 43.1281 44.8002 43.728 44.7002 44.328C44.7002 44.428 44.7002 44.528 44.6002 44.728C44.2002 45.328 44.1002 46.028 44.1002 46.828C44.2002 47.428 43.9002 47.828 43.6002 48.328C43.5002 48.628 43.3002 48.9281 43.2002 49.1281C43.0002 49.7281 43.1002 49.928 43.7002 49.928C43.8002 49.928 44.0002 50.0281 44.1002 50.0281C45.0002 50.0281 45.9002 50.0281 46.8002 50.0281C47.1002 49.7281 46.9002 49.4281 46.9002 49.0281C46.8002 48.1281 46.9002 47.128 47.2002 46.328C47.4002 45.828 47.7002 45.328 48.0002 44.828C48.1002 46.028 49.0002 46.9281 48.9002 48.1281C48.9002 48.4281 48.8002 48.728 48.6002 48.928C48.3002 49.228 48.3002 49.6281 48.4002 50.0281C49.5002 50.0281 50.7002 50.0281 51.8002 50.0281C52.0002 49.6281 51.9002 49.228 51.8002 48.828C51.6002 48.228 51.6002 47.528 51.6002 46.928C51.5002 46.128 51.6002 45.3281 51.3002 44.5281C50.9002 43.1281 50.5002 41.828 50.5002 40.428C50.5002 39.928 50.6002 39.828 51.1002 39.928C51.9002 40.228 52.7002 40.528 53.5002 40.828C53.8002 40.928 54.1002 41.0281 54.4002 41.0281C55.3002 41.1281 56.1002 41.1281 57.0002 41.1281C57.4002 41.1281 57.5002 41.2281 57.6002 41.6281C57.7002 42.1281 58.0002 42.728 57.9002 43.228C57.8002 44.328 57.9002 45.428 57.4002 46.428C57.2002 46.828 57.3002 47.328 57.2002 47.828C57.2002 48.028 57.1002 48.128 57.0002 48.328C56.8002 48.628 56.6002 48.928 56.4002 49.228C56.2002 49.528 56.4002 49.8281 56.6002 50.0281C57.8002 50.0281 58.9002 50.0281 60.1002 50.0281C60.7002 49.4281 60.5002 48.7281 60.4002 48.0281C60.2002 47.0281 60.3002 46.0281 60.6002 45.1281C60.8002 44.5281 60.9002 43.8281 61.0002 43.1281H61.1002C61.3002 43.4281 61.6002 43.628 61.8002 43.928C62.3002 44.728 62.8002 45.428 63.3002 46.228C63.4002 46.428 63.4002 46.628 63.5002 46.828C63.5002 47.128 63.6002 47.428 63.6002 47.728C63.6002 48.128 63.5002 48.528 63.3002 48.828C63.0002 49.428 63.0002 49.6281 63.4002 50.0281C64.1002 50.0281 64.8002 50.0281 65.5002 50.0281C65.7002 49.9281 65.9002 49.828 66.1002 49.728C66.5002 49.528 66.9002 49.4281 67.1002 49.0281C67.1002 48.9281 67.1002 48.7281 67.1002 48.6281C67.0002 48.2281 66.9002 47.9281 66.9002 47.5281ZM39.9002 28.328C39.7002 28.328 39.5002 28.428 39.3002 28.328C39.2002 28.328 39.2002 28.2281 39.1002 28.1281C39.2002 28.1281 39.3002 28.0281 39.4002 28.0281C39.6002 28.0281 39.8002 28.128 39.9002 28.228C39.9002 28.228 39.9002 28.228 39.9002 28.328ZM64.8002 42.728C64.4002 41.728 64.3002 40.728 64.4002 39.728C64.5002 38.528 64.6002 37.428 64.7002 36.228C64.7002 36.128 64.7002 36.1281 64.7002 36.0281C65.4002 38.2281 65.6002 40.428 64.8002 42.728Z" fill="#E96D24"/>
<path d="M6.1001 58.328C5.8001 58.228 5.50011 58.128 5.30011 57.928C5.10011 57.728 5.00012 57.528 5.00012 57.328V56.228H5.30011C5.40011 56.828 5.60015 57.3281 5.90015 57.5281C6.20015 57.8281 6.6001 57.928 7.1001 57.928C7.4001 57.928 7.70015 57.828 7.90015 57.728C8.10015 57.528 8.20013 57.3281 8.20013 57.1281C8.20013 56.9281 8.10012 56.7281 8.00012 56.5281C7.80012 56.3281 7.60011 56.128 7.30011 55.928L6.20013 55.228C5.80013 55.028 5.50011 54.7281 5.30011 54.5281C5.10011 54.2281 5.00012 54.0281 5.00012 53.6281C5.00012 53.1281 5.20012 52.7281 5.50012 52.5281C5.90012 52.2281 6.40012 52.1281 7.00012 52.1281C7.30012 52.1281 7.70012 52.128 8.00012 52.228C8.30012 52.328 8.60011 52.4281 8.80011 52.6281C9.00011 52.8281 9.1001 53.028 9.1001 53.228V54.328H8.80011C8.70011 53.728 8.50013 53.2281 8.20013 53.0281C7.90013 52.7281 7.6001 52.6281 7.1001 52.6281C6.8001 52.6281 6.50011 52.728 6.30011 52.828C6.10011 53.028 6.00012 53.228 6.00012 53.428C6.00012 53.628 6.10013 53.8281 6.20013 54.0281C6.30013 54.2281 6.60015 54.3281 6.90015 54.5281L8.00012 55.228C8.40012 55.428 8.70015 55.728 8.90015 55.928C9.10015 56.128 9.20013 56.428 9.20013 56.728C9.20013 57.228 9.0001 57.628 8.6001 57.928C8.2001 58.228 7.60015 58.328 6.90015 58.328C6.70015 58.428 6.4001 58.428 6.1001 58.328Z" fill="#7A3D1A"/>
<path d="M7.1001 58.428C6.8001 58.428 6.4001 58.428 6.1001 58.328C5.8001 58.228 5.50011 58.128 5.30011 57.928C5.10011 57.728 5.00012 57.528 5.00012 57.328V56.228H5.30011C5.40011 56.828 5.60015 57.3281 5.90015 57.5281C6.20015 57.8281 6.6001 57.928 7.1001 57.928C7.4001 57.928 7.70015 57.828 7.90015 57.728C8.10015 57.628 8.20013 57.3281 8.20013 57.1281C8.20013 56.9281 8.10012 56.7281 8.00012 56.5281C7.90012 56.3281 7.60011 56.1281 7.30011 56.0281L6.20013 55.328C5.80013 55.128 5.50011 54.8281 5.30011 54.6281C5.10011 54.3281 5.00012 54.028 5.00012 53.728C5.00012 53.228 5.2001 52.8281 5.6001 52.6281C6.0001 52.3281 6.5001 52.228 7.1001 52.228C7.4001 52.228 7.8001 52.228 8.1001 52.328C8.4001 52.428 8.70015 52.528 8.90015 52.728C9.10015 52.928 9.20013 53.128 9.20013 53.328V54.428H8.90015C8.80015 53.828 8.60011 53.3281 8.30011 53.1281C8.00011 52.8281 7.70013 52.728 7.20013 52.728C6.90013 52.728 6.60015 52.828 6.40015 52.928C6.20015 53.128 6.1001 53.3281 6.1001 53.5281C6.1001 53.7281 6.20011 53.9281 6.30011 54.1281C6.40011 54.3281 6.70012 54.4281 7.00012 54.6281L8.1001 55.328C8.5001 55.528 8.80012 55.8281 9.00012 56.0281C9.20012 56.2281 9.30011 56.528 9.30011 56.828C9.30011 57.328 9.10013 57.7281 8.70013 58.0281C8.30013 58.3281 7.8001 58.428 7.1001 58.428ZM6.1001 58.328C6.4001 58.428 6.7001 58.428 7.1001 58.428C7.8001 58.428 8.40011 58.3281 8.80011 58.0281C9.20011 57.7281 9.40015 57.328 9.40015 56.828C9.40015 56.528 9.3001 56.2281 9.1001 56.0281C8.9001 55.8281 8.60013 55.528 8.20013 55.328L7.1001 54.6281C6.8001 54.4281 6.50015 54.2281 6.40015 54.1281C6.30015 53.9281 6.20013 53.7281 6.20013 53.5281C6.20013 53.2281 6.30012 53.028 6.50012 52.828C6.70012 52.628 7.00011 52.6281 7.30011 52.6281C7.80011 52.6281 8.20015 52.7281 8.40015 53.0281C8.70015 53.3281 8.90012 53.728 9.00012 54.328H9.20013V53.328C9.20013 53.128 9.10015 52.928 8.90015 52.728C8.70015 52.528 8.4001 52.428 8.1001 52.328C7.8001 52.228 7.5001 52.228 7.1001 52.228C6.5001 52.228 6.0001 52.3281 5.6001 52.6281C5.2001 52.9281 5.1001 53.228 5.1001 53.728C5.1001 54.028 5.20015 54.3281 5.40015 54.6281C5.60015 54.8281 5.90011 55.128 6.30011 55.328L7.40015 56.0281C7.70015 56.2281 8.0001 56.4281 8.1001 56.6281C8.3001 56.8281 8.30011 57.028 8.30011 57.228C8.30011 57.528 8.20012 57.728 8.00012 57.928C7.80012 58.128 7.50013 58.1281 7.20013 58.1281C6.70013 58.1281 6.30012 58.028 6.00012 57.728C5.70012 57.428 5.50015 57.028 5.40015 56.428H5.00012V57.428C5.00012 57.628 5.10011 57.8281 5.30011 58.0281C5.50011 58.1281 5.8001 58.228 6.1001 58.328Z" fill="#7A3E1B"/>
<path d="M14.5001 58.1281C14.2001 57.9281 13.9001 57.628 13.8001 57.228L13.6001 56.728H11.2001L10.5001 58.328H10.0001L12.7001 52.328H13.1001L15.1001 57.1281C15.3001 57.7281 15.6001 58.0281 16.0001 58.0281V58.228C15.9001 58.228 15.7001 58.228 15.6001 58.228C15.2001 58.328 14.8001 58.2281 14.5001 58.1281ZM11.4001 56.228H13.4001L12.4001 53.828L11.4001 56.228Z" fill="#7A3D1A"/>
<path d="M15.6001 58.328C15.2001 58.328 14.9001 58.2281 14.6001 58.1281C14.3001 57.9281 14.0001 57.628 13.8001 57.228L13.6001 56.728H11.2001L10.5001 58.328H10.0001L12.7001 52.328H13.1001L15.1001 57.1281C15.3001 57.7281 15.6001 58.0281 16.0001 58.0281V58.228C15.9001 58.328 15.7001 58.328 15.6001 58.328ZM11.2001 56.6281H13.6001L13.8001 57.1281C14.0001 57.6281 14.2001 57.9281 14.5001 58.0281C14.8001 58.2281 15.1001 58.228 15.5001 58.228C15.7001 58.228 15.8001 58.228 15.9001 58.228V58.0281C15.5001 58.0281 15.2001 57.6281 15.0001 57.1281L13.0001 52.328H12.6001L10.0001 58.228H10.4001L11.2001 56.6281ZM13.4001 56.228H11.3001L12.4001 53.828L13.4001 56.228ZM11.4001 56.228H13.4001L12.4001 53.928L11.4001 56.228Z" fill="#7A3E1B"/>
<path d="M16.8001 53.5281C16.8001 53.2281 16.8001 53.028 16.7001 52.828C16.6001 52.728 16.4001 52.6281 16.2001 52.6281H16.1001V52.328H19.9001C20.4001 52.328 20.7001 52.5281 20.7001 53.0281V53.828H20.4001C20.4001 53.428 20.3001 53.1281 20.1001 53.0281C19.9001 52.8281 19.6001 52.728 19.3001 52.728H18.0001V55.0281H20.0001V55.428H18.0001V58.228H16.8001V53.5281Z" fill="#7A3D1A"/>
<path d="M18.0001 58.328H16.8001V53.5281C16.8001 53.2281 16.8001 53.028 16.7001 52.828C16.6001 52.728 16.5001 52.6281 16.2001 52.6281H16.1001V52.328H19.9001C20.4001 52.328 20.7001 52.5281 20.7001 53.0281V53.828H20.4001C20.4001 53.428 20.3001 53.2281 20.1001 53.0281C19.9001 52.8281 19.6001 52.728 19.3001 52.728H18.0001V55.0281H20.0001V55.428H18.0001V58.328ZM16.8001 58.228H17.9001V55.428H19.9001V55.0281H17.9001V52.728H19.2001C19.6001 52.728 19.9001 52.8281 20.1001 53.0281C20.3001 53.2281 20.4001 53.428 20.4001 53.828H20.6001V53.0281C20.6001 52.5281 20.4001 52.328 19.8001 52.328H16.0001V52.5281H16.1001C16.4001 52.5281 16.5001 52.628 16.6001 52.728C16.7001 52.828 16.7001 53.128 16.7001 53.428V58.228H16.8001Z" fill="#7A3E1B"/>
<path d="M25.0001 58.1281C24.7001 57.9281 24.4001 57.628 24.3001 57.228L24.1001 56.728H21.7001L21.0001 58.328H20.5001L23.2001 52.328H23.6001L25.6001 57.1281C25.8001 57.7281 26.1001 58.0281 26.5001 58.0281V58.228C26.4001 58.228 26.2001 58.228 26.1001 58.228C25.6001 58.328 25.3001 58.2281 25.0001 58.1281ZM21.8001 56.228H23.8001L22.8001 53.828L21.8001 56.228Z" fill="#7A3D1A"/>
<path d="M26.0001 58.328C25.6001 58.328 25.3001 58.2281 25.0001 58.1281C24.7001 57.9281 24.4001 57.628 24.2001 57.228L24.0001 56.728H21.6001L20.9001 58.328H20.4001L23.1001 52.328H23.5001L25.5001 57.1281C25.7001 57.7281 26.0001 58.0281 26.4001 58.0281V58.228C26.4001 58.328 26.2001 58.328 26.0001 58.328ZM21.6001 56.6281H24.0001L24.2001 57.1281C24.4001 57.6281 24.6001 57.9281 24.9001 58.0281C25.2001 58.2281 25.5001 58.228 25.9001 58.228C26.1001 58.228 26.2001 58.228 26.3001 58.228V58.0281C25.9001 58.0281 25.6001 57.6281 25.4001 57.1281L23.4001 52.328H23.0001L20.4001 58.228H20.8001L21.6001 56.6281ZM23.9001 56.228H21.8001L22.9001 53.828L23.9001 56.228ZM21.9001 56.228H23.9001L22.9001 53.928L21.9001 56.228Z" fill="#7A3E1B"/>
<path d="M30.6001 58.1281C30.3001 57.9281 30.0001 57.6281 29.8001 57.1281L28.9001 55.6281H28.5001V58.328H27.3001V53.5281C27.3001 53.2281 27.3001 53.028 27.2001 52.828C27.1001 52.728 26.9001 52.6281 26.7001 52.6281H26.6001V52.328H29.1001C29.7001 52.328 30.3001 52.4281 30.8001 52.6281C31.3001 52.8281 31.5001 53.328 31.5001 53.928C31.5001 54.728 31.0001 55.228 30.0001 55.428L30.9001 57.0281C31.3001 57.6281 31.6001 57.9281 32.0001 58.0281V58.228C32.0001 58.228 31.9001 58.228 31.7001 58.328C31.6001 58.328 31.5001 58.328 31.3001 58.328C31.1001 58.428 30.8001 58.3281 30.6001 58.1281ZM29.0001 55.228C29.3001 55.228 29.6001 55.128 29.9001 54.928C30.1001 54.728 30.3001 54.428 30.3001 53.928C30.3001 53.528 30.2001 53.2281 29.9001 53.0281C29.7001 52.8281 29.4001 52.728 29.1001 52.728C28.9001 52.728 28.8001 52.728 28.7001 52.728H28.5001V55.1281H29.0001V55.228Z" fill="#7A3D1A"/>
<path d="M31.5001 58.428C31.2001 58.428 30.9001 58.3281 30.6001 58.1281C30.3001 57.9281 30.0001 57.6281 29.7001 57.1281L28.8001 55.6281H28.5001V58.328H27.3001V53.5281C27.3001 53.2281 27.3001 53.028 27.2001 52.828C27.1001 52.728 27.0001 52.6281 26.7001 52.6281H26.6001V52.328H29.1001C29.7001 52.328 30.3001 52.4281 30.8001 52.6281C31.3001 52.8281 31.6001 53.328 31.6001 53.928C31.6001 54.728 31.1001 55.228 30.1001 55.428L31.0001 57.0281C31.4001 57.6281 31.7001 57.9281 32.1001 58.0281V58.228C32.0001 58.228 32.0001 58.228 31.8001 58.328C31.7001 58.428 31.6001 58.428 31.5001 58.428ZM28.5001 55.5281H28.9001L29.8001 57.0281C30.1001 57.5281 30.4001 57.8281 30.6001 58.0281C30.9001 58.2281 31.2001 58.328 31.5001 58.328C31.6001 58.328 31.7001 58.328 31.9001 58.328C32.0001 58.328 32.1001 58.328 32.1001 58.228V58.0281C31.7001 57.9281 31.3001 57.6281 31.0001 57.0281L30.0001 55.428C31.0001 55.228 31.5001 54.728 31.5001 53.928C31.5001 53.328 31.3001 52.8281 30.8001 52.6281C30.3001 52.4281 29.7001 52.328 29.1001 52.328H26.6001V52.5281H26.7001C27.0001 52.5281 27.1001 52.628 27.2001 52.728C27.3001 52.828 27.3001 53.128 27.3001 53.428V58.228H28.5001V55.5281ZM29.0001 55.228H28.4001V52.728H28.6001C28.7001 52.728 28.8001 52.728 29.0001 52.728C29.3001 52.728 29.6001 52.8281 29.8001 53.0281C30.0001 53.2281 30.2001 53.5281 30.2001 54.0281C30.2001 54.4281 30.1001 54.8281 29.8001 55.0281C29.6001 55.1281 29.3001 55.228 29.0001 55.228ZM28.5001 55.228H29.0001C29.3001 55.228 29.6001 55.128 29.9001 54.928C30.1001 54.728 30.3001 54.4281 30.3001 54.0281C30.3001 53.6281 30.2001 53.3281 30.0001 53.1281C29.8001 52.9281 29.5001 52.828 29.2001 52.828C29.0001 52.828 28.9001 52.828 28.8001 52.828H28.6001V55.228H28.5001Z" fill="#7A3E1B"/>
<path d="M33.2001 58.228C33.1001 58.128 33.0001 58.028 33.0001 57.828C33.0001 57.628 32.9001 57.4281 32.9001 57.1281V52.328H34.1001V57.1281C34.1001 57.4281 34.1001 57.628 34.2001 57.828C34.3001 57.928 34.5001 58.0281 34.7001 58.0281H34.8001V58.328H33.7001C33.5001 58.328 33.4001 58.228 33.2001 58.228Z" fill="#7A3D1A"/>
<path d="M34.8001 58.328H33.7001C33.5001 58.328 33.3001 58.328 33.2001 58.228C33.1001 58.128 33.0001 58.028 33.0001 57.828C33.0001 57.628 32.9001 57.4281 32.9001 57.1281V52.328H34.1001V57.1281C34.1001 57.4281 34.1001 57.628 34.2001 57.828C34.3001 57.928 34.4001 58.0281 34.7001 58.0281H34.8001V58.328ZM32.9001 52.328V57.1281C32.9001 57.4281 32.9001 57.728 33.0001 57.828C33.0001 58.028 33.1001 58.1281 33.2001 58.1281C33.3001 58.2281 33.5001 58.228 33.7001 58.228H34.8001V58.0281H34.7001C34.4001 58.0281 34.3001 57.928 34.2001 57.828C34.1001 57.728 34.1001 57.4281 34.1001 57.1281V52.328H32.9001Z" fill="#7A3E1B"/>
<path d="M41.8 58.1281C41.5 57.9281 41.2001 57.6281 41.0001 57.1281L40.1 55.6281H39.7001V58.328H38.5001V53.5281C38.5001 53.2281 38.5001 53.028 38.4001 52.828C38.3001 52.728 38.1001 52.6281 37.9001 52.6281H37.8V52.328H40.3C40.9 52.328 41.5001 52.4281 42.0001 52.6281C42.5001 52.8281 42.7001 53.328 42.7001 53.928C42.7001 54.728 42.2001 55.228 41.2001 55.428L42.1 57.0281C42.5 57.6281 42.8001 57.9281 43.2001 58.0281V58.228C43.2001 58.228 43.1001 58.228 42.9001 58.328C42.8001 58.328 42.7001 58.328 42.5001 58.328C42.4001 58.428 42.1 58.3281 41.8 58.1281ZM40.2001 55.228C40.5001 55.228 40.8 55.128 41.1 54.928C41.3 54.728 41.5001 54.428 41.5001 53.928C41.5001 53.528 41.4 53.2281 41.1 53.0281C40.9 52.8281 40.6 52.728 40.3 52.728C40.1 52.728 40.0001 52.728 39.9001 52.728H39.7001V55.1281H40.2001V55.228Z" fill="#7A3D1A"/>
<path d="M42.7001 58.428C42.4001 58.428 42.1 58.3281 41.8 58.1281C41.5 57.9281 41.2001 57.6281 40.9001 57.1281L40.0001 55.6281H39.7001V58.328H38.5001V53.5281C38.5001 53.2281 38.5001 53.028 38.4001 52.828C38.3001 52.728 38.2001 52.6281 37.9001 52.6281H37.8V52.328H40.3C40.9 52.328 41.5001 52.4281 42.0001 52.6281C42.5001 52.8281 42.8 53.328 42.8 53.928C42.8 54.728 42.3 55.228 41.3 55.428L42.2001 57.0281C42.6001 57.6281 42.9 57.9281 43.3 58.0281V58.228C43.2 58.228 43.2001 58.228 43.0001 58.328C42.9001 58.428 42.8001 58.428 42.7001 58.428ZM39.7001 55.5281H40.1L41.0001 57.0281C41.3001 57.5281 41.6 57.8281 41.8 58.0281C42.1 58.2281 42.4001 58.328 42.7001 58.328C42.8001 58.328 42.9 58.328 43.1 58.328C43.2 58.328 43.3 58.328 43.3 58.228V58.0281C42.9 57.9281 42.5001 57.6281 42.2001 57.0281L41.2001 55.428C42.2001 55.228 42.7001 54.728 42.7001 53.928C42.7001 53.328 42.5001 52.8281 42.0001 52.6281C41.5001 52.4281 40.9 52.328 40.3 52.328H37.8V52.5281H37.9001C38.2001 52.5281 38.3001 52.628 38.4001 52.728C38.5001 52.828 38.5001 53.128 38.5001 53.428V58.228H39.7001V55.5281ZM40.2001 55.228H39.6V52.728H39.8C39.9 52.728 40.0001 52.728 40.2001 52.728C40.5001 52.728 40.8001 52.8281 41.0001 53.0281C41.2001 53.2281 41.4001 53.5281 41.4001 54.0281C41.4001 54.4281 41.3001 54.8281 41.0001 55.0281C40.9001 55.1281 40.6001 55.228 40.2001 55.228ZM39.7001 55.228H40.2001C40.5001 55.228 40.8 55.128 41.1 54.928C41.3 54.728 41.5001 54.4281 41.5001 54.0281C41.5001 53.6281 41.4001 53.3281 41.2001 53.1281C41.0001 52.9281 40.7001 52.828 40.4001 52.828C40.2001 52.828 40.1001 52.828 40.0001 52.828H39.8V55.228H39.7001Z" fill="#7A3E1B"/>
<path d="M44.3001 53.5281C44.3001 53.2281 44.3001 53.028 44.2001 52.828C44.1001 52.728 43.9001 52.6281 43.7001 52.6281H43.6001V52.328H47.6001C48.1001 52.328 48.4001 52.5281 48.4001 53.0281V53.828H48.1001C48.1001 53.428 48.0001 53.2281 47.8001 53.0281C47.6001 52.8281 47.3001 52.728 47.0001 52.728H45.5001V55.0281H47.8001V55.428H45.5001V57.928H47.0001C47.3001 57.928 47.6001 57.828 47.9001 57.728C48.1001 57.528 48.3001 57.328 48.5001 56.928L48.7001 57.0281L48.4001 57.728C48.3001 57.928 48.2001 58.128 48.1001 58.228C48.0001 58.328 47.8001 58.428 47.6001 58.428H44.3001V53.5281Z" fill="#7A3D1A"/>
<path d="M47.6001 58.328H44.2001V53.5281C44.2001 53.2281 44.2001 53.028 44.1001 52.828C44.0001 52.728 43.9001 52.6281 43.6001 52.6281H43.5001V52.328H47.5001C48.0001 52.328 48.3001 52.5281 48.3001 53.0281V53.828H48.0001C48.0001 53.428 47.9001 53.2281 47.7001 53.0281C47.5001 52.8281 47.2001 52.728 46.9001 52.728H45.5001V54.928H47.8001V55.328H45.5001V57.828H47.0001C47.3001 57.828 47.6001 57.7281 47.8001 57.6281C48.0001 57.4281 48.2001 57.228 48.4001 56.828L48.7001 56.928L48.4001 57.6281C48.3001 57.8281 48.2001 58.0281 48.1001 58.1281C48.0001 58.2281 47.9001 58.328 47.6001 58.328ZM44.3001 58.228H47.6001C47.8001 58.228 48.0001 58.1281 48.1001 58.1281C48.2001 58.0281 48.3001 57.8281 48.4001 57.6281L48.7001 56.928L48.5001 56.828C48.3001 57.228 48.2001 57.4281 47.9001 57.6281C47.7001 57.8281 47.4001 57.828 47.0001 57.828H45.4001V55.328H47.7001V54.928H45.4001V52.6281H46.9001C47.3001 52.6281 47.6001 52.728 47.8001 52.928C48.0001 53.128 48.1001 53.328 48.1001 53.728H48.3001V52.928C48.3001 52.428 48.1001 52.228 47.5001 52.228H43.5001V52.428H43.6001C43.9001 52.428 44.0001 52.5281 44.1001 52.6281C44.2001 52.7281 44.2001 53.028 44.2001 53.328V58.228H44.3001Z" fill="#7A3E1B"/>
<path d="M50.6001 58.328C50.3001 58.228 50.0001 58.128 49.8001 57.928C49.6001 57.728 49.5001 57.528 49.5001 57.328V56.228H49.8001C49.9001 56.828 50.1001 57.3281 50.4001 57.5281C50.7001 57.8281 51.1001 57.928 51.6001 57.928C51.9001 57.928 52.2001 57.828 52.4001 57.728C52.6001 57.528 52.7001 57.3281 52.7001 57.1281C52.7001 56.9281 52.6001 56.7281 52.5001 56.5281C52.3001 56.3281 52.1001 56.128 51.8001 55.928L50.7001 55.228C50.3001 55.028 50.0001 54.7281 49.8001 54.5281C49.6001 54.2281 49.5001 54.0281 49.5001 53.6281C49.5001 53.1281 49.7001 52.7281 50.0001 52.5281C50.4001 52.2281 50.9001 52.1281 51.5001 52.1281C51.8001 52.1281 52.2001 52.128 52.5001 52.228C52.8001 52.328 53.1001 52.4281 53.3001 52.6281C53.5001 52.8281 53.6001 53.028 53.6001 53.228V54.328H53.3001C53.2001 53.728 53.0001 53.2281 52.7001 53.0281C52.4001 52.7281 52.1001 52.6281 51.6001 52.6281C51.3001 52.6281 51.0001 52.728 50.8001 52.828C50.6001 53.028 50.5001 53.228 50.5001 53.428C50.5001 53.628 50.6001 53.8281 50.7001 54.0281C50.8001 54.2281 51.1001 54.3281 51.4001 54.5281L52.5001 55.228C52.9001 55.428 53.2001 55.728 53.4001 55.928C53.6001 56.128 53.7001 56.428 53.7001 56.728C53.7001 57.228 53.5001 57.628 53.1001 57.928C52.7001 58.228 52.1001 58.328 51.4001 58.328C51.2001 58.428 50.9001 58.428 50.6001 58.328Z" fill="#7A3D1A"/>
<path d="M51.6001 58.428C51.3001 58.428 50.9001 58.428 50.6001 58.328C50.3001 58.228 50.0001 58.128 49.8001 57.928C49.6001 57.728 49.5001 57.528 49.5001 57.328V56.228H49.8001C49.9001 56.828 50.1001 57.3281 50.4001 57.5281C50.7001 57.8281 51.1001 57.928 51.6001 57.928C51.9001 57.928 52.2001 57.828 52.4001 57.728C52.6001 57.628 52.7001 57.3281 52.7001 57.1281C52.7001 56.9281 52.6001 56.7281 52.5001 56.5281C52.4001 56.3281 52.1001 56.1281 51.8001 56.0281L50.7001 55.328C50.3001 55.128 50.0001 54.8281 49.8001 54.6281C49.6001 54.3281 49.5001 54.028 49.5001 53.728C49.5001 53.228 49.7001 52.8281 50.1001 52.6281C50.5001 52.3281 51.0001 52.228 51.6001 52.228C51.9001 52.228 52.3001 52.228 52.6001 52.328C52.9001 52.428 53.2001 52.528 53.4001 52.728C53.6001 52.928 53.7001 53.128 53.7001 53.328V54.428H53.4001C53.3001 53.828 53.1001 53.3281 52.8001 53.1281C52.5001 52.8281 52.2001 52.728 51.7001 52.728C51.4001 52.728 51.1001 52.828 50.9001 52.928C50.7001 53.128 50.6001 53.3281 50.6001 53.5281C50.6001 53.7281 50.7001 53.9281 50.8001 54.1281C50.9001 54.3281 51.2001 54.4281 51.5001 54.6281L52.6001 55.328C53.0001 55.528 53.3001 55.8281 53.5001 56.0281C53.7001 56.2281 53.8001 56.528 53.8001 56.828C53.8001 57.328 53.6001 57.7281 53.2001 58.0281C52.8001 58.3281 52.3001 58.428 51.6001 58.428ZM50.6001 58.328C50.9001 58.428 51.2001 58.428 51.6001 58.428C52.3001 58.428 52.9001 58.3281 53.3001 58.0281C53.7001 57.7281 53.9001 57.328 53.9001 56.828C53.9001 56.528 53.8001 56.2281 53.6001 56.0281C53.4001 55.8281 53.1001 55.528 52.7001 55.328L51.6001 54.6281C51.3001 54.4281 51.0001 54.2281 50.9001 54.1281C50.8001 53.9281 50.7001 53.7281 50.7001 53.5281C50.7001 53.2281 50.8001 53.028 51.0001 52.828C51.2001 52.628 51.5001 52.6281 51.8001 52.6281C52.3001 52.6281 52.7001 52.7281 52.9001 53.0281C53.2001 53.3281 53.4001 53.728 53.5001 54.328H53.7001V53.328C53.7001 53.128 53.6001 52.928 53.4001 52.728C53.2001 52.528 52.9001 52.428 52.6001 52.328C52.3001 52.228 52.0001 52.228 51.6001 52.228C51.0001 52.228 50.5001 52.3281 50.1001 52.6281C49.7001 52.9281 49.6001 53.228 49.6001 53.728C49.6001 54.028 49.7001 54.3281 49.9001 54.6281C50.1001 54.8281 50.4001 55.128 50.8001 55.328L51.9001 56.0281C52.2001 56.2281 52.5001 56.4281 52.6001 56.6281C52.8001 56.8281 52.8001 57.028 52.8001 57.228C52.8001 57.528 52.7001 57.728 52.5001 57.928C52.3001 58.128 52.0001 58.1281 51.7001 58.1281C51.2001 58.1281 50.8001 58.028 50.5001 57.728C50.2001 57.428 50.0001 57.028 49.9001 56.428H49.7001V57.428C49.7001 57.628 49.8001 57.8281 50.0001 58.0281C50.0001 58.1281 50.3001 58.228 50.6001 58.328Z" fill="#7A3E1B"/>
<path d="M56.1001 58.0281C55.6001 57.7281 55.3001 57.328 55.0001 56.928C54.8001 56.428 54.6001 55.928 54.6001 55.328C54.6001 54.728 54.7001 54.228 55.0001 53.728C55.2001 53.228 55.6001 52.8281 56.1001 52.6281C56.6001 52.3281 57.1001 52.228 57.7001 52.228C58.3001 52.228 58.8001 52.3281 59.3001 52.6281C59.8001 52.9281 60.1001 53.328 60.3001 53.728C60.5001 54.228 60.7001 54.728 60.7001 55.328C60.7001 55.928 60.6001 56.428 60.3001 56.928C60.1001 57.428 59.7001 57.8281 59.3001 58.0281C58.8001 58.3281 58.3001 58.428 57.7001 58.428C57.1001 58.428 56.6001 58.3281 56.1001 58.0281ZM59.0001 57.328C59.3001 56.828 59.5001 56.128 59.5001 55.328C59.5001 54.428 59.3001 53.728 59.0001 53.328C58.7001 52.828 58.3001 52.6281 57.7001 52.6281C57.2001 52.6281 56.7001 52.828 56.4001 53.328C56.1001 53.828 56.0001 54.528 56.0001 55.328C56.0001 56.228 56.1001 56.928 56.4001 57.328C56.7001 57.828 57.1001 58.0281 57.7001 58.0281C58.2001 58.0281 58.7001 57.828 59.0001 57.328Z" fill="#7A3D1A"/>
<path d="M57.7001 58.5281C57.1001 58.5281 56.6001 58.4281 56.1001 58.1281C55.6001 57.8281 55.3001 57.4281 55.0001 57.0281C54.8001 56.5281 54.6001 56.028 54.6001 55.428C54.6001 54.828 54.7001 54.328 55.0001 53.828C55.2001 53.328 55.6001 52.928 56.1001 52.728C56.6001 52.428 57.1001 52.328 57.7001 52.328C58.3001 52.328 58.8001 52.428 59.3001 52.728C59.8001 53.028 60.1001 53.428 60.4001 53.828C60.6001 54.328 60.8001 54.828 60.8001 55.428C60.8001 56.028 60.7001 56.5281 60.4001 57.0281C60.2001 57.5281 59.8001 57.9281 59.3001 58.1281C58.8001 58.3281 58.3001 58.5281 57.7001 58.5281ZM57.7001 52.1281C57.1001 52.1281 56.6001 52.2281 56.2001 52.5281C55.8001 52.8281 55.4001 53.2281 55.2001 53.6281C55.0001 54.1281 54.8001 54.628 54.8001 55.228C54.8001 55.828 54.9001 56.328 55.2001 56.828C55.4001 57.328 55.8001 57.728 56.2001 57.928C56.7001 58.228 57.2001 58.328 57.7001 58.328C58.3001 58.328 58.8001 58.228 59.2001 57.928C59.6001 57.628 60.0001 57.228 60.2001 56.828C60.4001 56.328 60.6001 55.828 60.6001 55.228C60.6001 54.628 60.5001 54.1281 60.2001 53.6281C60.0001 53.1281 59.6001 52.7281 59.2001 52.5281C58.8001 52.3281 58.3001 52.1281 57.7001 52.1281ZM57.7001 58.1281C57.1001 58.1281 56.7001 57.928 56.4001 57.428C56.1001 56.928 56.0001 56.228 56.0001 55.428C56.0001 54.528 56.2001 53.828 56.4001 53.428C56.7001 52.928 57.1001 52.728 57.7001 52.728C58.3001 52.728 58.7001 52.928 59.0001 53.428C59.3001 53.928 59.5001 54.628 59.5001 55.428C59.5001 56.328 59.3001 57.028 59.0001 57.428C58.7001 57.828 58.2001 58.1281 57.7001 58.1281ZM57.7001 52.5281C57.2001 52.5281 56.7001 52.728 56.4001 53.228C56.1001 53.728 56.0001 54.428 56.0001 55.228C56.0001 56.128 56.1001 56.828 56.4001 57.228C56.7001 57.728 57.1001 57.928 57.7001 57.928C58.3001 57.928 58.7001 57.728 59.0001 57.228C59.3001 56.728 59.4001 56.028 59.4001 55.228C59.4001 54.328 59.2001 53.628 59.0001 53.228C58.7001 52.828 58.2001 52.5281 57.7001 52.5281Z" fill="#7A3E1B"/>
<path d="M65.3 58.1281C65 57.9281 64.7001 57.6281 64.5001 57.1281L63.6 55.6281H63.2001V58.328H62.0001V53.5281C62.0001 53.2281 62.0001 53.028 61.9001 52.828C61.8001 52.728 61.6001 52.6281 61.4001 52.6281H61.3V52.328H63.8C64.4 52.328 65.0001 52.4281 65.5001 52.6281C66.0001 52.8281 66.2001 53.328 66.2001 53.928C66.2001 54.728 65.7001 55.228 64.7001 55.428L65.6 57.0281C66 57.6281 66.3001 57.9281 66.7001 58.0281V58.228C66.7001 58.228 66.6001 58.228 66.4001 58.328C66.2001 58.428 66.2001 58.328 66.0001 58.328C65.9001 58.428 65.6 58.3281 65.3 58.1281ZM63.7001 55.228C64.0001 55.228 64.3 55.128 64.6 54.928C64.8 54.728 65.0001 54.428 65.0001 53.928C65.0001 53.528 64.9 53.2281 64.6 53.0281C64.4 52.8281 64.1 52.728 63.8 52.728C63.6 52.728 63.5001 52.728 63.4001 52.728H63.2001V55.1281H63.7001V55.228Z" fill="#7A3D1A"/>
<path d="M66.2001 58.428C65.9001 58.428 65.6 58.3281 65.3 58.1281C65 57.9281 64.7001 57.6281 64.4001 57.1281L63.5001 55.6281H63.2001V58.328H62.0001V53.5281C62.0001 53.2281 62.0001 53.028 61.9001 52.828C61.8001 52.728 61.7001 52.6281 61.4001 52.6281H61.3V52.328H63.8C64.4 52.328 65.0001 52.4281 65.5001 52.6281C66.0001 52.8281 66.3 53.328 66.3 53.928C66.3 54.728 65.8 55.228 64.8 55.428L65.7001 57.0281C66.1001 57.6281 66.4 57.9281 66.8 58.0281V58.228C66.7 58.228 66.7001 58.228 66.5001 58.328C66.4001 58.428 66.3001 58.428 66.2001 58.428ZM63.2001 55.5281H63.6L64.5001 57.0281C64.8001 57.5281 65.1 57.8281 65.3 58.0281C65.6 58.2281 65.9001 58.328 66.2001 58.328C66.3001 58.328 66.4 58.328 66.6 58.328C66.7 58.328 66.8 58.328 66.8 58.228V58.0281C66.4 57.9281 66.0001 57.6281 65.7001 57.0281L64.7001 55.428C65.7001 55.228 66.2001 54.728 66.2001 53.928C66.2001 53.328 66.0001 52.8281 65.5001 52.6281C65.0001 52.4281 64.4 52.328 63.8 52.328H61.3V52.5281H61.4001C61.7001 52.5281 61.8001 52.628 61.9001 52.728C62.0001 52.828 62.0001 53.128 62.0001 53.428V58.228H63.2001V55.5281ZM63.7001 55.228H63.1V52.728H63.3C63.4 52.728 63.5001 52.728 63.7001 52.728C64.0001 52.728 64.3001 52.8281 64.5001 53.0281C64.7001 53.2281 64.9001 53.5281 64.9001 54.0281C64.9001 54.4281 64.8001 54.8281 64.5001 55.0281C64.4001 55.1281 64.1001 55.228 63.7001 55.228ZM63.2001 55.228H63.7001C64.0001 55.228 64.3 55.128 64.6 54.928C64.8 54.728 65.0001 54.4281 65.0001 54.0281C65.0001 53.6281 64.9001 53.3281 64.7001 53.1281C64.5001 52.9281 64.2001 52.828 63.9001 52.828C63.7001 52.828 63.6001 52.828 63.5001 52.828H63.3V55.228H63.2001Z" fill="#7A3E1B"/>
<path d="M69.0001 52.728H68.4001C68.1001 52.728 67.8001 52.8281 67.6001 53.0281C67.4001 53.2281 67.3001 53.428 67.3001 53.828H67.0001V53.0281C67.0001 52.5281 67.3001 52.328 67.8001 52.328H72.0001V52.728H70.1001V58.328H69.0001V52.728Z" fill="#7A3D1A"/>
<path d="M70.2001 58.328H69.0001V52.728H68.4001C68.1001 52.728 67.8001 52.828 67.6001 52.928C67.4001 53.128 67.3001 53.328 67.3001 53.728H67.0001V52.928C67.0001 52.428 67.3001 52.228 67.8001 52.228H72.1001V52.6281H70.2001V58.328ZM69.1001 58.228H70.2001V52.6281H72.1001V52.228H67.9001C67.4001 52.228 67.1001 52.428 67.1001 52.928V53.728H67.3001C67.3001 53.328 67.4001 53.028 67.6001 52.928C67.8001 52.728 68.0001 52.6281 68.4001 52.6281H69.1001V58.228Z" fill="#7A3E1B"/>
</svg>
