<svg width="46" height="67" viewBox="0 0 46 67" fill="none" xmlns="http://www.w3.org/2000/svg">
<path d="M33 20C33 19.7 33 19.4 33 19.1C32.9 18.6 32.8 18.1 32.4 17.6C32.4 17.6 32.4 17.6 32.4 17.5C32.3 17.4 32.3 17.4 32.2 17.3C31.9 16.9 31.5 16.5 31.2 16.2C29.2 14.2 26.7 13.7 25 13.6C24.9 13.6 24.8 13.6 24.7 13.6C24.1 13.6 23.6 13.7 23.2 13.7H23.1C22.7 13.8 22.4 13.9 22 14C21.8 14 21.6 14.1 21.4 14.1C20.7 14.2 20.2 14.1 20.2 14.1C19.5 13.9 18.8 13.9 18.1 13.9C18 13.9 17.9 13.9 17.8 13.9C17.3 14 16.8 14.1 16.5 14.2C15.6 14.5 15.1 14.9 15 14.9C14.8 15.1 14.6 15.3 14.6 15.6C14.7 15.8 14.9 15.9 15.2 16H15.3C15.5 16.1 15.8 16.1 16.1 16.2C16.1 16.2 16.1 16.2 16.2 16.2C16.3 16.3 16.4 16.4 16.4 16.5C16.5 16.9 16.1 17.5 16 17.7C13.9 20.5 12.3 24.9 11.9 27.1C11.8 27.6 11.8 28 11.7 28.3C11.3 28.4 9.90001 28.9 9.20001 30.1C8.80001 30.7 8.70001 31.4 8.70001 32.2C9.20001 31.8 9.80001 31.4 10.2 31.2C11.2 30.8 12.7 30.3 12.8 30C12.8 30 13 30.1 13.3 30.3C13.5 30.4 13.8 30.5 14 30.6C14.2 30.7 14.4 30.7 14.7 30.8C14.8 30.8 14.9 30.8 15 30.9C15.1 30.9 15.1 30.9 15.2 31C15.3 31 15.4 31.1 15.4 31.1C15.4 30.8 15.3 30.4 15.2 30C14.9 29.4 14.3 28.9 13.4 28.6C13.7 27.7 16.3 23.4 20.1 21.5C20 21.8 19.9 22 19.7 22.3C19.7 22.3 19.1 23.2 19.3 23.7C19.4 23.9 19.5 24 19.7 24C19.9 24.1 20.1 24.1 20.3 24C20.4 24 20.6 24 20.8 23.9C22.5 23.1 23 21.4 23.2 21.1C23.3 20.8 23.3 20.6 23.4 20.4C23.7 20.5 23.9 20.7 24 20.9C24.1 21 24.1 21.1 24.2 21.2C24.3 21.4 24.5 21.6 24.6 21.9C24.6 22 24.8 22.8 25.3 23C25.4 23 25.5 23.1 25.7 23.1C25.8 23.1 25.9 23.1 26 23C26.5 22.7 26.7 22 26.8 21.2C26.9 20.9 26.9 20.6 27 20.3C27.8 20.4 28.8 20.5 29.7 20.8C30.6 21.1 31.5 21.4 32.3 21.8C33.3 22.3 33.8 22.1 34 21.8C34 21.8 34 21.7 34.1 21.7C34.2 21.6 34.1 21.6 34.1 21.5C33.9 21.5 33.7 21.5 33.5 21.4C33 21.2 32.4 20.8 31.9 20.3C31.4 19.8 30.9 19.4 30.5 19.1C30.3 19 30.1 18.9 30 18.8C29.9 18.7 29.8 18.8 29.8 18.8C29.8 18.8 29.9 18.8 30 18.8C30.2 18.8 30.4 18.9 30.6 19C30.8 19.1 31.1 19.3 31.3 19.5C31.6 19.7 31.8 19.9 32.1 20.2C32.3 20.4 32.6 20.7 32.8 20.9C33.1 21.1 33.3 21.2 33.5 21.3C33.7 21.4 33.9 21.4 34.1 21.4C34.2 21.4 34.2 21.3 34.1 21.2C33.8 20.9 33 20 33 20ZM18.1 16.4C18.2 15.7 17.5 15.4 16.8 15.4C16.3 15.4 15.9 15.5 15.5 15.5C15.3 15.5 15.1 15.6 15.1 15.6C15.3 15.3 15.6 15.1 15.9 14.9C16.2 14.7 16.6 14.6 17.1 14.5C17.3 14.5 17.5 14.4 17.6 14.4C19.1 14.2 20.6 14.8 20.7 14.8C20.7 14.8 21.3 14.6 22.2 14.4C23.6 14 24.7 14 25.2 14C25.3 14 25.4 14 25.4 14C25.3 14 25.3 14 25.2 14C21.8 14.6 19.8 16.7 19.8 16.7C20.1 16 20.4 15.6 20.8 15.3C19 16.2 17.1 17.5 15.7 19.5C15.7 19.6 16.8 17.8 18.1 16.4ZM20.1 23.4C20 23.4 20 23.4 19.9 23.4H19.8C19.8 23.4 19.9 23.3 19.9 23.2C20 23.1 20 23 20.1 22.8C20.2 22.5 20.4 22.2 20.5 21.9C20.6 21.6 20.7 21.4 20.8 21.1C20.8 21 20.8 21 20.8 20.9C20.8 20.8 20.8 20.7 20.8 20.7C15.6 22.9 12.8 28.9 12.8 28.9H12.9C13.1 29 13.4 29.1 13.7 29.3C14 29.5 14.3 29.7 14.5 30C14.6 30.2 14.7 30.3 14.8 30.5C14.8 30.5 14.2 30.3 13.8 30.2C12.9 29.9 12.7 29.6 12.6 29.3C12.5 29 12.6 28.8 12.6 28.8C13.6 25.7 16.1 22.9 18.3 21.2C18.8 20.8 19.3 20.5 19.7 20.2C20.6 19.6 21.4 19.2 22.1 19C22 19.6 21.6 22.6 20.6 23.1C20.6 23.3 20.3 23.4 20.1 23.4ZM26.4 20C26.2 20 25.7 19.9 25.1 19.9C24.9 19.9 24.6 19.9 24.3 19.9C24.1 19.9 24 19.9 23.8 19.9H23.6C24 19.1 24.6 18.6 24.9 18.6H25C24.8 18.6 24.4 18.5 23.9 18.6C23.8 18.6 23.7 18.6 23.6 18.6C23.6 18.6 26.1 17.9 27.5 18.8C27.5 18.8 26.9 18.5 26 19C26.7 19.1 28 19.4 29.2 20.3C29.3 20.3 29.3 20.4 29.4 20.4C29.4 20.6 27.9 20.1 26.4 20ZM29.7 18.7C29.7 18.7 29.6 18.8 29.5 18.9C29.5 18.9 29.6 18.8 29.6 18.7C28.9 18.9 28.9 17.9 28.9 17.9C29.5 17.9 29.6 18.1 29.6 18.1C29.8 18.4 29.7 18.7 29.7 18.7Z" fill="#28AAE1"/>
<path d="M43.2 23.8C41.7 20.7 39.8 17.7 37.6 15C35.3 12.1 32.7 9.60002 29.8 7.40002C28.7 6.60002 27.6 5.79998 26.5 5.09998C26.1 5.39998 25.6 5.79998 25.2 6.09998L24.9 6.30005C24.5 6.60005 24.1 7.00002 23.7 7.40002C24.4 8.10002 25.1 8.8 25.8 9.5C26.9 10.8 28.2 12.4 29.3 13.8C30.5 14.4 31.8 15.4 32.9 16.8C32.9 16.8 33.7 18 33.9 18.8C34 19.2 34 19.4 34 19.7C34.3 20 34.7 20.6 35 21C35.1 21.3 35.1 21.6 35.1 21.8C35.1 22 35.1 22.2 35 22.4V22.5L34.9 22.6C35.1 23 35.3 23.4 35.5 23.8H43.2Z" fill="#05552E"/>
<path d="M0.900025 28.8C0.700025 29.6 0.599988 30.3 1.29999 30.3H7.59998H7.70001C7.90001 30.3 8.40001 30.1 8.70001 29.1C8.80001 28.9 8.80002 28.7 8.90002 28.5H0.900025C1.00002 28.6 1.00002 28.7 0.900025 28.8Z" fill="#05552E"/>
<path d="M45.1 28.4H37.1C37.2 28.6 37.2 28.8 37.3 29V29.1C37.6 30.1 38.1 30.3 38.3 30.3H38.4H44.7C45.4 30.3 45.4 29.6 45.1 28.8C45.2 28.7 45.1 28.6 45.1 28.4Z" fill="#05552E"/>
<path d="M24.4 5.70001L24.7 5.50006C25.7 4.70006 26.7 3.90001 27.7 3.20001L27.9 3.10003C28.1 3.00003 28.3 2.80001 28.5 2.70001C28.6 2.70001 28.6 2.60003 28.7 2.60003C30.4 1.50003 33 -1.09992 25.9 1.90008C25.6 2.00008 25.3 2.20011 25 2.30011C24 2.80011 23 3.30011 22 3.80011C20 4.90011 18.1 6.10006 16.4 7.50006C13.7 9.60006 11.3 11.9001 9.09998 14.5001C8.99998 14.7001 8.79998 14.9001 8.59998 15.0001C6.39998 17.7001 4.5 20.7001 3 23.8001H10.8C11.3 22.7001 11.8 21.7 12.3 20.7C13 19.3 13.8 18.1001 14.6 16.9001C14.2 16.8001 13.8 16.5001 13.7 16.0001C13.5 15.2001 14.1 14.6001 14.3 14.4001H14.4C14.5 14.3001 15.6 13.5 17.3 13.2C18.6 11.5 19.5 10.5001 19.5 10.5001C20.4 9.50006 21.4 8.50003 22.4 7.60003C23.1 6.80003 23.7 6.20001 24.4 5.70001Z" fill="#05552E"/>
<path d="M17.5 2.49997C17.6 2.49997 17.6 2.59995 17.7 2.59995C17.9 2.69995 18.1 2.89997 18.3 2.99997L18.5 3.09995C18.9 3.39995 19.3 3.69997 19.7 3.99997C20.3 3.59997 20.9 3.3 21.6 2.9C21.8 2.8 22 2.69995 22.2 2.59995C21.9 2.39995 21.6 2.29995 21.2 2.09995C20.9 1.99995 20.6 1.79992 20.3 1.69992C13.2 -1.20008 15.8 1.29997 17.5 2.49997Z" fill="#05552E"/>
<path d="M8.79999 27.8H8.70001H8.59998C8.49998 28 8.40001 28.1 8.20001 28.1H9.20001C9.00001 28 8.89999 27.9 8.79999 27.8Z" fill="#05552E"/>
<path d="M2.09998 25.8C2.09998 25.8 2.09998 25.7 2.09998 25.8C2.19998 25.8 2.29999 25.8 2.29999 25.8C2.39999 25.6 2.59999 25.5 2.79999 25.5C2.79999 25.5 2.90002 25.5 2.90002 25.6C2.90002 25.8 2.79998 26 2.59998 26.1V26.2V26.3C2.79998 26.4 2.90002 26.6 2.90002 26.8C2.90002 26.8 2.89999 26.9 2.79999 26.9C2.59999 26.9 2.39999 26.8 2.29999 26.6H2.20001H2.09998C1.99998 26.7 1.89999 26.8 1.79999 26.9C1.69999 27.2 1.60002 27.5 1.40002 27.8C1.50002 27.9 1.49998 28 1.59998 28.1C1.59998 28.1 1.6 28.2 1.5 28.2C1.4 28.2 1.39999 28.2 1.29999 28.1V28.2H8.20001C8.20001 28.2 8.20001 28.2 8.20001 28.1C8.20001 27.9 8.3 27.7 8.5 27.6C8.5 27.5 8.5 27.4 8.5 27.3C8.3 27.2 8.20001 27 8.20001 26.8C8.20001 26.8 8.19999 26.7 8.29999 26.7C8.49999 26.7 8.69999 26.8 8.79999 27H8.90002H9C9.1 26.8 9.3 26.7 9.5 26.7C9.5 26.7 9.59998 26.7 9.59998 26.8C9.59998 27 9.49999 27.2 9.29999 27.3C9.29999 27.4 9.29999 27.5 9.29999 27.6C9.39999 27.6 9.5 27.7 9.5 27.8C9.6 27.5 9.80002 27.1 9.90002 26.7C9.80002 26.7 9.80001 26.8 9.70001 26.8C9.70001 26.8 9.59998 26.8 9.59998 26.7C9.59998 26.5 9.70002 26.3 9.90002 26.2V26.1V26C9.70002 25.9 9.59998 25.7 9.59998 25.5C9.59998 25.5 9.60001 25.4 9.70001 25.4C9.90001 25.4 10.1 25.5 10.2 25.7H10.3C10.4 25.5 10.5 25.3 10.5 25.1C10.4 25.2 10.3 25.2 10.2 25.2C10.1 25.2 10 25.2 9.90002 25.1C9.80002 25 9.79999 24.9 9.79999 24.8C9.79999 24.7 9.80002 24.6 9.90002 24.5C10 24.4 10.1 24.4 10.2 24.4C10.3 24.4 10.4 24.4 10.5 24.5C10.6 24.6 10.6 24.6 10.6 24.7C10.7 24.5 10.8 24.3 10.8 24.1H2.90002C2.60002 24.5 2.39998 25.1 2.09998 25.8ZM2.5 27.7C2.4 27.8 2.30001 27.8 2.20001 27.8C2.10001 27.8 2.00002 27.8 1.90002 27.7C1.70002 27.5 1.70002 27.2 1.90002 27.1C2.00002 27 2.10001 27 2.20001 27C2.30001 27 2.4 27 2.5 27.1C2.6 27.3 2.6 27.6 2.5 27.7ZM9 26.4C8.9 26.5 8.80001 26.5 8.70001 26.5C8.60001 26.5 8.50002 26.5 8.40002 26.4C8.30002 26.3 8.29999 26.2 8.29999 26.1C8.29999 26 8.30002 25.9 8.40002 25.8C8.50002 25.7 8.60001 25.7 8.70001 25.7C8.80001 25.7 8.9 25.7 9 25.8C9.2 26 9.2 26.3 9 26.4ZM8.40002 24.7C8.20002 24.6 8.09998 24.4 8.09998 24.2C8.09998 24.2 8.10001 24.1 8.20001 24.1C8.40001 24.1 8.60001 24.2 8.70001 24.4H8.79999H8.90002C9.00002 24.2 9.20002 24.1 9.40002 24.1C9.40002 24.1 9.5 24.1 9.5 24.2C9.5 24.4 9.40001 24.6 9.20001 24.7C9.20001 24.8 9.20001 24.9 9.20001 25C9.40001 25.1 9.5 25.3 9.5 25.5C9.5 25.5 9.50002 25.6 9.40002 25.6C9.20002 25.6 9.00002 25.5 8.90002 25.3H8.79999H8.70001C8.60001 25.5 8.40001 25.6 8.20001 25.6C8.20001 25.6 8.09998 25.6 8.09998 25.5C8.09998 25.3 8.20002 25.1 8.40002 25C8.30002 24.9 8.30002 24.8 8.40002 24.7ZM3.79999 27.4V27.5C3.99999 27.6 4.09998 27.8 4.09998 28C4.09998 28 4.1 28.1 4 28.1C3.8 28.1 3.6 28 3.5 27.8H3.40002H3.29999C3.19999 28 2.99999 28.1 2.79999 28.1C2.79999 28.1 2.70001 28.1 2.70001 28C2.70001 27.8 2.8 27.6 3 27.5V27.4V27.3C2.8 27.2 2.70001 27 2.70001 26.8C2.70001 26.8 2.69999 26.7 2.79999 26.7C2.99999 26.7 3.19999 26.8 3.29999 27H3.40002H3.5C3.6 26.8 3.8 26.7 4 26.7C4 26.7 4.09998 26.7 4.09998 26.8C4.09998 27 3.99999 27.2 3.79999 27.3V27.4ZM3.09998 25.8C3.19998 25.7 3.30002 25.7 3.40002 25.7C3.50002 25.7 3.60001 25.7 3.70001 25.8C3.90001 26 3.90001 26.3 3.70001 26.4C3.60001 26.5 3.50002 26.5 3.40002 26.5C3.30002 26.5 3.19998 26.5 3.09998 26.4C2.99998 26.3 2.99998 26 3.09998 25.8ZM5.09998 27.7C4.99998 27.8 4.89999 27.8 4.79999 27.8C4.69999 27.8 4.6 27.8 4.5 27.7C4.4 27.6 4.40002 27.5 4.40002 27.4C4.40002 27.3 4.4 27.2 4.5 27.1C4.6 27 4.69999 27 4.79999 27C4.89999 27 4.99998 27 5.09998 27.1C5.19998 27.2 5.20001 27.3 5.20001 27.4C5.20001 27.6 5.19998 27.7 5.09998 27.7ZM6.5 27.4V27.5C6.7 27.6 6.79999 27.8 6.79999 28C6.79999 28 6.80001 28.1 6.70001 28.1C6.50001 28.1 6.30001 28 6.20001 27.8H6.09998H6C5.9 28 5.7 28.1 5.5 28.1C5.5 28.1 5.40002 28.1 5.40002 28C5.40002 27.8 5.50001 27.6 5.70001 27.5V27.4V27.3C5.50001 27.2 5.40002 27 5.40002 26.8C5.40002 26.8 5.4 26.7 5.5 26.7C5.7 26.7 5.9 26.8 6 27H6.09998H6.20001C6.30001 26.8 6.50001 26.7 6.70001 26.7C6.70001 26.7 6.79999 26.7 6.79999 26.8C6.79999 27 6.7 27.2 6.5 27.3C6.4 27.3 6.5 27.4 6.5 27.4ZM5.79999 25.8C5.89999 25.7 5.99998 25.7 6.09998 25.7C6.19998 25.7 6.30002 25.7 6.40002 25.8C6.50002 25.9 6.5 26 6.5 26.1C6.5 26.2 6.50002 26.3 6.40002 26.4C6.30002 26.5 6.19998 26.5 6.09998 26.5C5.99998 26.5 5.89999 26.5 5.79999 26.4C5.59999 26.3 5.59999 26 5.79999 25.8ZM7.70001 27.8C7.60001 27.9 7.50002 27.9 7.40002 27.9C7.30002 27.9 7.19998 27.9 7.09998 27.8C6.89998 27.6 6.89998 27.3 7.09998 27.2C7.19998 27.1 7.30002 27.1 7.40002 27.1C7.50002 27.1 7.60001 27.1 7.70001 27.2C7.90001 27.3 7.90001 27.6 7.70001 27.8ZM7.09998 24.5C7.19998 24.4 7.30002 24.4 7.40002 24.4C7.50002 24.4 7.60001 24.4 7.70001 24.5C7.90001 24.7 7.90001 25 7.70001 25.1C7.60001 25.2 7.50002 25.2 7.40002 25.2C7.30002 25.2 7.19998 25.2 7.09998 25.1C6.89998 24.9 6.89998 24.7 7.09998 24.5ZM7 26.1V26C6.8 25.9 6.70001 25.7 6.70001 25.5C6.70001 25.5 6.69999 25.4 6.79999 25.4C6.99999 25.4 7.19999 25.5 7.29999 25.7H7.40002H7.5C7.6 25.5 7.8 25.4 8 25.4C8 25.4 8.09998 25.4 8.09998 25.5C8.09998 25.7 7.99999 25.9 7.79999 26V26.1V26.2C7.99999 26.3 8.09998 26.5 8.09998 26.7C8.09998 26.7 8.1 26.8 8 26.8C7.8 26.8 7.6 26.7 7.5 26.5H7.40002H7.29999C7.19999 26.7 6.99999 26.8 6.79999 26.8C6.79999 26.8 6.70001 26.8 6.70001 26.7C6.70001 26.5 6.8 26.3 7 26.2C7 26.2 7 26.2 7 26.1ZM5.70001 24.7C5.50001 24.6 5.40002 24.4 5.40002 24.2C5.40002 24.2 5.4 24.1 5.5 24.1C5.7 24.1 5.9 24.2 6 24.4H6.09998H6.20001C6.30001 24.2 6.50001 24.1 6.70001 24.1C6.70001 24.1 6.79999 24.1 6.79999 24.2C6.79999 24.4 6.7 24.6 6.5 24.7C6.5 24.8 6.5 24.9 6.5 25C6.7 25.1 6.79999 25.3 6.79999 25.5C6.79999 25.5 6.80001 25.6 6.70001 25.6C6.50001 25.6 6.30001 25.5 6.20001 25.3H6.09998H6C5.9 25.5 5.7 25.6 5.5 25.6C5.5 25.6 5.40002 25.6 5.40002 25.5C5.40002 25.3 5.50001 25.1 5.70001 25C5.70001 24.9 5.70001 24.8 5.70001 24.7ZM4.40002 24.5C4.50002 24.4 4.60001 24.4 4.70001 24.4C4.80001 24.4 4.9 24.4 5 24.5C5.2 24.7 5.2 25 5 25.1C4.9 25.2 4.80001 25.2 4.70001 25.2C4.60001 25.2 4.50002 25.2 4.40002 25.1C4.30002 24.9 4.30002 24.7 4.40002 24.5ZM4.40002 26C4.20002 25.9 4.09998 25.7 4.09998 25.5C4.09998 25.5 4.10001 25.4 4.20001 25.4C4.40001 25.4 4.60001 25.5 4.70001 25.7H4.79999H4.90002C5.00002 25.5 5.20002 25.4 5.40002 25.4C5.40002 25.4 5.5 25.4 5.5 25.5C5.5 25.7 5.40001 25.9 5.20001 26C5.20001 26.1 5.20001 26.2 5.20001 26.3C5.40001 26.4 5.5 26.6 5.5 26.8C5.5 26.8 5.50002 26.9 5.40002 26.9C5.20002 26.9 5.00002 26.8 4.90002 26.6H4.79999H4.70001C4.60001 26.8 4.40001 26.9 4.20001 26.9C4.20001 26.9 4.09998 26.9 4.09998 26.8C4.09998 26.6 4.20002 26.4 4.40002 26.3C4.40002 26.2 4.40002 26.1 4.40002 26ZM2.90002 24.1C3.10002 24.1 3.30002 24.2 3.40002 24.4H3.5H3.59998C3.69998 24.2 3.89998 24.1 4.09998 24.1C4.09998 24.1 4.20001 24.1 4.20001 24.2C4.20001 24.4 4.10002 24.6 3.90002 24.7C3.90002 24.8 3.90002 24.9 3.90002 25C4.10002 25.1 4.20001 25.3 4.20001 25.5C4.20001 25.5 4.19998 25.6 4.09998 25.6C3.89998 25.6 3.69998 25.5 3.59998 25.3H3.5H3.40002C3.30002 25.5 3.10002 25.6 2.90002 25.6C2.90002 25.6 2.79999 25.6 2.79999 25.5C2.79999 25.3 2.89998 25.1 3.09998 25C3.09998 24.9 3.09998 24.8 3.09998 24.7C2.89998 24.6 2.80002 24.4 2.90002 24.1C2.80002 24.2 2.80002 24.1 2.90002 24.1Z" fill="#05552E"/>
<path d="M9.99999 24.4C9.89999 24.4 9.79998 24.4 9.79998 24.5C9.69998 24.6 9.69998 24.9 9.79998 25C9.89998 25.1 9.99999 25.1 9.99999 25.1C9.99999 25.1 10.2 25.1 10.2 25C10.3 24.9 10.3 24.6 10.2 24.5C10.2 24.5 10.1 24.4 9.99999 24.4ZM9.99999 25C9.89999 25 9.89998 25 9.79998 24.9C9.69998 24.8 9.69998 24.6 9.79998 24.5C9.79998 24.5 9.89999 24.4 9.99999 24.4C10.1 24.4 10.1 24.4 10.2 24.5C10.2 24.5 10.3 24.6 10.3 24.7C10.3 24.8 10.3 24.8 10.2 24.9C10.1 25 10.1 25 9.99999 25Z" fill="#05552E"/>
<path d="M8.7 25.8C8.6 25.8 8.50001 25.8 8.40001 25.9C8.30001 26 8.30001 26.3 8.40001 26.4C8.50001 26.5 8.6 26.5 8.7 26.5C8.8 26.5 8.89999 26.5 8.99999 26.4C9.09999 26.3 9.09999 26 8.99999 25.9C8.89999 25.8 8.8 25.8 8.7 25.8ZM8.7 26.4C8.6 26.4 8.59999 26.4 8.49999 26.3C8.39999 26.2 8.39999 26 8.49999 25.9C8.49999 25.9 8.6 25.8 8.7 25.8C8.8 25.8 8.80001 25.8 8.90001 25.9C8.90001 25.9 8.99999 26 8.99999 26.1C8.99999 26.2 9.00001 26.2 8.90001 26.3C8.80001 26.4 8.8 26.4 8.7 26.4Z" fill="#05552E"/>
<path d="M7.40001 25.2C7.50001 25.2 7.6 25.2 7.7 25.1C7.8 25 7.8 24.7 7.7 24.6C7.6 24.5 7.50001 24.5 7.40001 24.5C7.30001 24.5 7.19996 24.5 7.09996 24.6C6.99996 24.7 6.99996 25 7.09996 25.1C7.19996 25.1 7.30001 25.2 7.40001 25.2ZM7.40001 24.5C7.50001 24.5 7.49996 24.5 7.59996 24.6C7.69996 24.7 7.69996 24.9 7.59996 25C7.59996 25 7.50001 25.1 7.40001 25.1C7.30001 25.1 7.3 25.1 7.2 25C7.1 24.9 7.1 24.7 7.2 24.6C7.3 24.6 7.30001 24.5 7.40001 24.5Z" fill="#05552E"/>
<path d="M4.79998 27.1C4.69998 27.1 4.59999 27.1 4.49999 27.2C4.39999 27.3 4.39999 27.6 4.49999 27.7C4.59999 27.8 4.69998 27.8 4.79998 27.8C4.89998 27.8 4.99996 27.8 5.09996 27.7C5.19996 27.6 5.19996 27.3 5.09996 27.2C4.89996 27.1 4.89998 27.1 4.79998 27.1ZM4.79998 27.7C4.69998 27.7 4.69996 27.7 4.59996 27.6C4.49996 27.5 4.49996 27.3 4.59996 27.2C4.59996 27.2 4.69998 27.1 4.79998 27.1C4.89998 27.1 4.89999 27.1 4.99999 27.2C5.09999 27.3 5.09999 27.5 4.99999 27.6C4.89999 27.7 4.79998 27.7 4.79998 27.7Z" fill="#05552E"/>
<path d="M3.7 26.4C3.8 26.3 3.8 26 3.7 25.9C3.6 25.8 3.50001 25.8 3.40001 25.8C3.30001 25.8 3.19996 25.8 3.09996 25.9C2.99996 26 2.99996 26.3 3.09996 26.4C3.19996 26.5 3.30001 26.5 3.40001 26.5C3.50001 26.5 3.6 26.4 3.7 26.4ZM3.49999 25.9C3.59999 25.9 3.6 25.9 3.7 26C3.8 26.1 3.8 26.3 3.7 26.4C3.7 26.4 3.59999 26.5 3.49999 26.5C3.39999 26.5 3.39998 26.5 3.29998 26.4C3.19998 26.3 3.19998 26.1 3.29998 26C3.29998 25.9 3.39999 25.9 3.49999 25.9Z" fill="#05552E"/>
<path d="M7.40001 27.1C7.30001 27.1 7.19996 27.1 7.09996 27.2C6.99996 27.3 6.99996 27.6 7.09996 27.7C7.19996 27.8 7.30001 27.8 7.40001 27.8C7.50001 27.8 7.6 27.8 7.7 27.7C7.8 27.6 7.8 27.3 7.7 27.2C7.6 27.1 7.50001 27.1 7.40001 27.1ZM7.40001 27.7C7.30001 27.7 7.3 27.7 7.2 27.6C7.1 27.5 7.1 27.3 7.2 27.2C7.2 27.2 7.30001 27.1 7.40001 27.1C7.50001 27.1 7.49996 27.1 7.59996 27.2C7.69996 27.3 7.69996 27.5 7.59996 27.6C7.49996 27.7 7.50001 27.7 7.40001 27.7Z" fill="#05552E"/>
<path d="M6.29998 26.4C6.39998 26.3 6.39998 26 6.29998 25.9C6.19998 25.8 6.09999 25.8 5.99999 25.8C5.89999 25.8 5.8 25.8 5.7 25.9C5.6 26 5.6 26.3 5.7 26.4C5.8 26.5 5.89999 26.5 5.99999 26.5C6.19999 26.5 6.29998 26.4 6.29998 26.4ZM6.09996 25.9C6.19996 25.9 6.19998 25.9 6.29998 26C6.39998 26.1 6.39998 26.3 6.29998 26.4C6.29998 26.4 6.19996 26.5 6.09996 26.5C5.99996 26.5 6.00001 26.5 5.90001 26.4C5.80001 26.3 5.80001 26.1 5.90001 26C5.90001 25.9 5.99996 25.9 6.09996 25.9Z" fill="#05552E"/>
<path d="M4.79998 25.2C4.89998 25.2 4.99996 25.2 5.09996 25.1C5.19996 25 5.19996 24.7 5.09996 24.6C4.99996 24.5 4.89998 24.5 4.79998 24.5C4.69998 24.5 4.59999 24.5 4.49999 24.6C4.39999 24.7 4.39999 25 4.49999 25.1C4.59999 25.1 4.69998 25.2 4.79998 25.2ZM4.79998 24.5C4.89998 24.5 4.89999 24.5 4.99999 24.6C5.09999 24.7 5.09999 24.9 4.99999 25C4.99999 25 4.89998 25.1 4.79998 25.1C4.69998 25.1 4.69996 25.1 4.59996 25C4.49996 24.9 4.49996 24.7 4.59996 24.6C4.59996 24.6 4.69998 24.5 4.79998 24.5Z" fill="#05552E"/>
<path d="M2.09996 27.1C1.99996 27.1 1.89998 27.1 1.79998 27.2C1.69998 27.3 1.69998 27.6 1.79998 27.7C1.89998 27.8 1.99996 27.8 2.09996 27.8C2.19996 27.8 2.30001 27.8 2.40001 27.7C2.50001 27.6 2.50001 27.3 2.40001 27.2C2.30001 27.1 2.19996 27.1 2.09996 27.1ZM2.09996 27.7C1.99996 27.7 2.00001 27.7 1.90001 27.6C1.90001 27.6 1.79998 27.5 1.79998 27.4C1.79998 27.3 1.80001 27.3 1.90001 27.2C1.90001 27.2 1.99996 27.1 2.09996 27.1C2.19996 27.1 2.19998 27.1 2.29998 27.2C2.39998 27.3 2.39998 27.5 2.29998 27.6C2.29998 27.7 2.19996 27.7 2.09996 27.7Z" fill="#05552E"/>
<path d="M9.90002 25.9L9.79999 25.8C9.79999 25.8 9.80001 25.8 9.70001 25.8C9.70001 25.8 9.70001 25.8 9.70001 25.9H9.90002C9.80002 26 9.79999 26 9.79999 26C9.79999 26.1 9.79999 26.1 9.79999 26.2C9.79999 26.2 9.79999 26.2 9.79999 26.3C9.79999 26.3 9.79999 26.3 9.79999 26.4V26.3C9.79999 26.3 9.79999 26.2 9.79999 26.1C9.79999 26.1 9.79999 26.1 9.79999 26C9.89999 26 9.90002 26 9.90002 25.9C9.90002 26 9.90002 26 9.90002 25.9C10 25.9 10 25.9 9.90002 25.9C10 25.9 10 25.9 9.90002 25.9C10 25.9 10 25.9 10 25.9H9.90002Z" fill="#05552E"/>
<path d="M4.5 26.5L4.59998 26.4C4.59998 26.4 4.60001 26.4 4.70001 26.4H4.79999H4.90002C4.90002 26.4 4.9 26.4 5 26.4L5.09998 26.5C5.09998 26.5 5.09998 26.5 5.09998 26.4L5 26.3C5 26.3 5 26.3 5 26.2C5 26.1 5 26.1 5 26C5 26 5 26 5 25.9L5.09998 25.8C5.09998 25.8 5.09998 25.8 5.09998 25.7C5.09998 25.7 5.1 25.7 5 25.7L4.90002 25.8C4.90002 25.8 4.89999 25.8 4.79999 25.8H4.70001H4.59998C4.59998 25.8 4.6 25.8 4.5 25.8L4.40002 25.7C4.40002 25.7 4.39999 25.7 4.29999 25.7C4.29999 25.7 4.29999 25.7 4.29999 25.8L4.40002 25.9C4.40002 25.9 4.40002 25.9 4.40002 26C4.40002 26.1 4.40002 26.1 4.40002 26.2C4.40002 26.2 4.40002 26.2 4.40002 26.3L4.5 26.5C4.4 26.4 4.4 26.5 4.5 26.5C4.4 26.5 4.4 26.5 4.5 26.5ZM4.59998 26C4.69998 26 4.69998 26 4.59998 26C4.69998 25.9 4.69999 25.9 4.79999 25.9H4.90002C4.90002 25.9 4.9 25.9 5 25.9C5 25.9 5 25.9 5 26V26.1V26.2C5 26.2 5 26.2 5 26.3C5 26.3 5.00002 26.3 4.90002 26.3H4.79999H4.70001C4.70001 26.3 4.69998 26.3 4.59998 26.3C4.59998 26.3 4.59998 26.3 4.59998 26.2C4.59998 26.1 4.59998 26.1 4.59998 26Z" fill="#05552E"/>
<path d="M1.79999 26.5L1.90002 26.4C1.90002 26.4 1.9 26.4 2 26.4H2.09998H2.20001C2.20001 26.4 2.19999 26.4 2.29999 26.4L2.40002 26.5C2.40002 26.5 2.40002 26.5 2.40002 26.4L2.29999 26.3C2.29999 26.3 2.29999 26.3 2.29999 26.2C2.29999 26.1 2.29999 26.1 2.29999 26C2.29999 26 2.29999 26 2.29999 25.9L2.40002 25.8C2.40002 25.8 2.40002 25.8 2.40002 25.7C2.40002 25.7 2.39999 25.7 2.29999 25.7L2.20001 25.8C2.20001 25.8 2.19998 25.8 2.09998 25.8H2H1.90002C1.90002 25.8 1.90002 25.8 1.90002 25.9V26V26.1C1.90002 26.1 1.90002 26.1 1.90002 26.2C1.90002 26.2 1.90002 26.2 1.90002 26.3C1.80002 26.4 1.79999 26.4 1.79999 26.5ZM2 26C2.1 25.9 2.10001 25.9 2.20001 25.9H2.29999C2.29999 25.9 2.30002 25.9 2.40002 25.9C2.40002 25.9 2.40002 25.9 2.40002 26V26.1V26.2C2.40002 26.2 2.40002 26.2 2.40002 26.3C2.40002 26.3 2.39999 26.3 2.29999 26.3H2.20001H2.09998C2.09998 26.3 2.1 26.3 2 26.3C2 26.3 2 26.3 2 26.2C2 26.2 2 26.1 2 26C2 26.1 2 26.1 2 26Z" fill="#05552E"/>
<path d="M7.09998 26.5L7.20001 26.4C7.20001 26.4 7.19999 26.4 7.29999 26.4H7.40002H7.5C7.5 26.4 7.49998 26.4 7.59998 26.4L7.70001 26.5C7.70001 26.5 7.70001 26.5 7.70001 26.4L7.59998 26.3C7.59998 26.2 7.59998 26.2 7.59998 26.1C7.59998 26.1 7.59998 26.1 7.59998 26L7.70001 25.9C7.70001 25.9 7.70001 25.9 7.70001 25.8C7.70001 25.8 7.69998 25.8 7.59998 25.8L7.5 25.9C7.5 25.9 7.50002 25.9 7.40002 25.9H7.29999H7.20001C7.20001 25.9 7.19998 25.9 7.09998 25.9L7 25.8C7 25.8 7.00002 25.8 6.90002 25.8C6.90002 25.8 6.90002 25.8 6.90002 25.9L7 26C7 26 7 26 7 26.1C7 26.2 7 26.2 7 26.3L7.09998 26.5C6.99998 26.4 6.99998 26.5 7.09998 26.5ZM7.20001 26C7.30001 26 7.30001 26 7.20001 26C7.30001 25.9 7.30002 25.9 7.40002 25.9H7.5C7.5 25.9 7.49998 25.9 7.59998 25.9C7.59998 25.9 7.59998 25.9 7.59998 26V26.1V26.2C7.59998 26.2 7.59998 26.2 7.59998 26.3C7.59998 26.3 7.6 26.3 7.5 26.3H7.40002H7.29999C7.29999 26.3 7.30001 26.3 7.20001 26.3C7.20001 26.3 7.20001 26.3 7.20001 26.2C7.20001 26.2 7.20001 26.1 7.20001 26Z" fill="#05552E"/>
<path d="M5.79999 25.2L5.90002 25.1H6H6.09998C6.09998 25.1 6.10001 25.1 6.20001 25.1L6.29999 25.2C6.29999 25.2 6.29999 25.2 6.29999 25.1L6.20001 25C6.20001 24.9 6.20001 24.9 6.20001 24.8L6.29999 24.7C6.29999 24.7 6.29999 24.7 6.29999 24.6C6.29999 24.6 6.30001 24.6 6.20001 24.6L6.09998 24.7C6.09998 24.7 6.1 24.7 6 24.7H5.90002H5.79999L5.70001 24.6C5.70001 24.6 5.69998 24.6 5.59998 24.6C5.59998 24.6 5.59998 24.6 5.59998 24.7L5.70001 24.8C5.70001 24.8 5.70001 24.8 5.70001 24.9C5.70001 25 5.70001 25 5.70001 25.1C5.70001 25.1 5.70001 25.1 5.70001 25.2H5.79999C5.69999 25.1 5.69999 25.1 5.79999 25.2ZM5.90002 24.9C5.90002 24.8 5.90002 24.8 5.90002 24.7C5.90002 24.7 5.90002 24.7 5.90002 24.6C5.90002 24.6 5.9 24.6 6 24.6H6.09998H6.20001C6.20001 24.6 6.19999 24.6 6.29999 24.6C6.29999 24.6 6.29999 24.6 6.29999 24.7V24.8V24.9C6.29999 24.9 6.29999 24.9 6.29999 25C6.29999 25 6.30001 25 6.20001 25H6.09998C5.99998 25 6.00002 25 5.90002 24.9C6.00002 25 6.00002 25 5.90002 24.9Z" fill="#05552E"/>
<path d="M3.20001 24.6C3.20001 24.7 3.20001 24.7 3.20001 24.7C3.20001 24.8 3.20001 24.8 3.20001 24.9C3.20001 24.9 3.20001 24.9 3.20001 25L3.09998 25.1C3.09998 25.1 3.09998 25.1 3.09998 25.2L3.20001 25.1H3.29999H3.40002C3.40002 25.1 3.4 25.1 3.5 25.1L3.59998 25.2C3.59998 25.2 3.59998 25.2 3.59998 25.1L3.5 25C3.5 25 3.5 25 3.5 24.9C3.5 24.8 3.5 24.8 3.5 24.7L3.59998 24.6C3.59998 24.6 3.59998 24.6 3.59998 24.5C3.59998 24.5 3.6 24.5 3.5 24.5L3.40002 24.6C3.40002 24.6 3.39999 24.6 3.29999 24.6H3.20001H3.09998C3.09998 24.6 3.1 24.6 3 24.6H3.20001V24.5C3.20001 24.5 3.19998 24.5 3.09998 24.5C3.09998 24.5 3.10001 24.5 3.20001 24.6ZM3.59998 24.8C3.59998 24.8 3.59998 24.9 3.59998 24.8C3.59998 24.9 3.6 24.9 3.5 24.9C3.5 24.9 3.50002 24.9 3.40002 24.9H3.29999H3.20001C3.20001 24.9 3.19998 24.9 3.09998 24.9C3.09998 24.9 3.09998 24.9 3.09998 24.8C3.09998 24.7 3.09998 24.7 3.09998 24.6C3.09998 24.6 3.09998 24.6 3.09998 24.5C3.09998 24.5 3.10001 24.5 3.20001 24.5H3.29999H3.40002C3.40002 24.5 3.4 24.5 3.5 24.5C3.6 24.7 3.59998 24.7 3.59998 24.8C3.59998 24.7 3.59998 24.8 3.59998 24.8Z" fill="#05552E"/>
<path d="M8.40002 25.2L8.5 25.1C8.5 25.1 8.49998 25.1 8.59998 25.1H8.70001H8.79999C8.79999 25.1 8.80002 25.1 8.90002 25.1L9 25.2C9 25.2 9 25.2 9 25.1L8.90002 25C8.90002 25 8.90002 25 8.90002 24.9C8.90002 24.8 8.90002 24.8 8.90002 24.7C8.90002 24.7 8.90002 24.7 8.90002 24.6L9 24.5C9 24.5 9 24.5 9 24.4C9 24.4 9.00002 24.4 8.90002 24.4L8.79999 24.5C8.79999 24.5 8.80001 24.5 8.70001 24.5H8.59998H8.5C8.5 24.5 8.50002 24.5 8.40002 24.5L8.29999 24.4C8.29999 24.4 8.30001 24.4 8.20001 24.4C8.20001 24.4 8.20001 24.4 8.20001 24.5L8.29999 24.6C8.29999 24.6 8.29999 24.6 8.29999 24.7C8.29999 24.8 8.29999 24.8 8.29999 24.9C8.29999 24.9 8.29999 24.9 8.29999 25L8.40002 25.2C8.30002 25.1 8.30002 25.1 8.40002 25.2ZM8.5 24.7C8.5 24.7 8.6 24.7 8.5 24.7C8.6 24.7 8.6 24.7 8.5 24.7C8.6 24.6 8.60001 24.6 8.70001 24.6H8.79999C8.79999 24.6 8.80002 24.6 8.90002 24.6C8.90002 24.6 8.90002 24.6 8.90002 24.7V24.8V24.9C8.90002 24.9 8.90002 24.9 8.90002 25C8.90002 25 8.89999 25 8.79999 25H8.70001H8.59998C8.59998 25 8.6 25 8.5 25C8.5 25 8.5 25 8.5 24.9C8.5 24.8 8.5 24.8 8.5 24.7Z" fill="#05552E"/>
<path d="M6.40002 27.1L6.29999 27.2C6.29999 27.2 6.30001 27.2 6.20001 27.2H6.09998H6C6 27.2 6.00002 27.2 5.90002 27.2L5.79999 27.1C5.79999 27.1 5.80001 27.1 5.70001 27.1C5.70001 27.1 5.70001 27.1 5.70001 27.2L5.79999 27.3C5.79999 27.3 5.79999 27.3 5.79999 27.4C5.79999 27.5 5.79999 27.5 5.79999 27.6C5.79999 27.6 5.79999 27.6 5.79999 27.7L5.70001 27.8C5.70001 27.8 5.70001 27.8 5.70001 27.9L5.79999 27.8H5.90002H6C6 27.8 5.99998 27.8 6.09998 27.8L6.20001 27.9C6.20001 27.9 6.20001 27.9 6.20001 27.8L6.09998 27.7C6.09998 27.7 6.09998 27.7 6.09998 27.6C6.09998 27.5 6.09998 27.5 6.09998 27.4L6.40002 27.1C6.50002 27.1 6.50002 27.1 6.40002 27.1ZM6.29999 27.4C6.29999 27.5 6.29999 27.5 6.29999 27.4C6.29999 27.5 6.30001 27.5 6.20001 27.5C6.20001 27.5 6.19998 27.5 6.09998 27.5H6H5.90002C5.90002 27.5 5.89999 27.5 5.79999 27.5C5.79999 27.5 5.79999 27.5 5.79999 27.4C5.79999 27.3 5.79999 27.3 5.79999 27.2C5.79999 27.2 5.79999 27.2 5.79999 27.1C5.79999 27.1 5.80002 27.1 5.90002 27.1H6H6.09998C6.09998 27.1 6.10001 27.1 6.20001 27.1C6.20001 27.3 6.19999 27.3 6.29999 27.4Z" fill="#05552E"/>
<path d="M3.79999 27.1L3.70001 27.2C3.70001 27.2 3.69998 27.2 3.59998 27.2H3.5H3.40002C3.40002 27.2 3.39999 27.2 3.29999 27.2L3.20001 27.1C3.20001 27.1 3.19998 27.1 3.09998 27.1C3.09998 27.1 3.09998 27.1 3.09998 27.2L3.20001 27.3C3.20001 27.3 3.20001 27.3 3.20001 27.4C3.20001 27.5 3.20001 27.5 3.20001 27.6C3.20001 27.6 3.20001 27.6 3.20001 27.7L3.09998 27.8C3.09998 27.8 3.09998 27.8 3.09998 27.9L3.20001 27.8H3.29999H3.40002C3.40002 27.8 3.4 27.8 3.5 27.8L3.59998 27.9C3.59998 27.9 3.59998 27.9 3.59998 27.8L3.5 27.7C3.5 27.7 3.5 27.7 3.5 27.6C3.5 27.5 3.5 27.5 3.5 27.4L3.79999 27.1ZM3.59998 27.4C3.59998 27.5 3.59998 27.5 3.59998 27.4C3.59998 27.5 3.6 27.5 3.5 27.5C3.5 27.5 3.50002 27.5 3.40002 27.5H3.29999H3.20001C3.20001 27.5 3.19998 27.5 3.09998 27.5C3.09998 27.5 3.09998 27.5 3.09998 27.4C3.09998 27.3 3.09998 27.3 3.09998 27.2C3.09998 27.2 3.09998 27.2 3.09998 27.1C3.09998 27.1 3.10001 27.1 3.20001 27.1H3.29999H3.40002C3.40002 27.1 3.4 27.1 3.5 27.1C3.6 27.3 3.59998 27.3 3.59998 27.4Z" fill="#05552E"/>
<path d="M8.5 27.6C8.4 27.7 8.40002 27.7 8.40002 27.8L8.5 27.6C8.5 27.7 8.5 27.7 8.5 27.6C8.6 27.6 8.59998 27.7 8.59998 27.7H8.70001H8.79999C8.79999 27.7 8.80002 27.7 8.90002 27.7L9 27.8C9 27.8 9 27.8 9 27.7L8.90002 27.6C8.90002 27.5 8.90002 27.5 8.90002 27.4C8.90002 27.4 8.90002 27.4 8.90002 27.3L9 27.2C9 27.2 9 27.2 9 27.1C9 27.1 9.00002 27.1 8.90002 27.1L8.79999 27.2C8.79999 27.2 8.80001 27.2 8.70001 27.2H8.59998H8.5C8.5 27.2 8.50002 27.2 8.40002 27.2L8.29999 27.1C8.29999 27.1 8.30001 27.1 8.20001 27.1C8.20001 27.1 8.20001 27.1 8.20001 27.2L8.29999 27.3C8.29999 27.3 8.29999 27.3 8.29999 27.4C8.39999 27.4 8.4 27.5 8.5 27.6ZM8.5 27.4C8.5 27.3 8.6 27.3 8.5 27.4C8.6 27.3 8.6 27.3 8.5 27.4C8.6 27.3 8.60001 27.3 8.70001 27.3H8.79999C8.79999 27.3 8.80002 27.3 8.90002 27.3C8.90002 27.3 8.90002 27.3 8.90002 27.4V27.5V27.6C8.90002 27.6 8.90002 27.6 8.90002 27.7C8.90002 27.7 8.89999 27.7 8.79999 27.7H8.70001H8.59998C8.59998 27.7 8.6 27.7 8.5 27.7C8.5 27.7 8.5 27.7 8.5 27.6C8.5 27.5 8.5 27.4 8.5 27.4Z" fill="#05552E"/>
<path d="M37.6 27.8H37.5H37.4C37.3 27.9 37.2 28 37.1 28.1H38.1C37.8 28.1 37.6 27.9 37.6 27.8Z" fill="#05552E"/>
<path d="M37.1 27.3C36.9 27.2 36.8 27 36.8 26.8C36.8 26.8 36.8 26.7 36.9 26.7C37.1 26.7 37.3 26.8 37.4 27H37.5H37.6C37.7 26.8 37.9 26.7 38.1 26.7C38.1 26.7 38.2 26.7 38.2 26.8C38.2 27 38.1 27.2 37.9 27.3V27.4V27.5C38.1 27.6 38.2 27.8 38.2 28C38.2 28 38.2 28 38.2 28.1H45.1V28C45 28 45 28 44.9 28.1C44.9 28.1 44.8 28.1 44.8 28C44.8 27.9 44.9 27.7 45 27.7C44.9 27.4 44.8 27.1 44.6 26.8C44.5 26.7 44.3 26.7 44.3 26.5H44.2H44.1C44 26.7 43.8 26.8 43.6 26.8C43.6 26.8 43.5 26.8 43.5 26.7C43.5 26.5 43.6 26.3 43.8 26.2V26.1V26C43.6 25.9 43.5 25.7 43.5 25.5C43.5 25.5 43.5 25.4 43.6 25.4C43.8 25.4 44 25.5 44.1 25.7H44.2C44.2 25.7 44.2 25.7 44.3 25.7C44 25 43.7 24.4 43.6 24.1H35.7C35.8 24.3 35.8 24.5 35.9 24.7C35.9 24.6 35.9 24.5 36 24.5C36.1 24.4 36.2 24.4 36.3 24.4C36.4 24.4 36.5 24.4 36.6 24.5C36.7 24.6 36.7 24.7 36.7 24.8C36.7 24.9 36.7 25 36.6 25.1C36.5 25.2 36.4 25.2 36.3 25.2C36.2 25.2 36.1 25.2 36 25.1C36.1 25.3 36.2 25.5 36.2 25.7H36.3C36.4 25.5 36.6 25.4 36.8 25.4C36.8 25.4 36.9 25.4 36.9 25.5C36.9 25.7 36.8 25.9 36.6 26V26.1V26.2C36.8 26.3 36.9 26.5 36.9 26.7C36.9 26.7 36.9 26.8 36.8 26.8C36.7 26.8 36.6 26.8 36.6 26.7C36.8 27.1 36.9 27.5 37 27.8C37.1 27.7 37.1 27.7 37.2 27.6C37 27.5 37 27.4 37.1 27.3ZM43.7 27.1C43.8 27 43.9 27 44 27C44.1 27 44.2 27 44.3 27.1C44.5 27.3 44.5 27.6 44.3 27.7C44.2 27.8 44.1 27.8 44 27.8C43.9 27.8 43.8 27.8 43.7 27.7C43.6 27.6 43.6 27.5 43.6 27.4C43.5 27.3 43.6 27.2 43.7 27.1ZM37.7 26.4C37.6 26.5 37.5 26.5 37.4 26.5C37.3 26.5 37.2 26.5 37.1 26.4C36.9 26.2 36.9 25.9 37.1 25.8C37.2 25.7 37.3 25.7 37.4 25.7C37.5 25.7 37.6 25.7 37.7 25.8C37.8 25.9 37.8 26 37.8 26.1C37.8 26.2 37.8 26.4 37.7 26.4ZM39.1 27.8C39 27.9 38.9 27.9 38.8 27.9C38.7 27.9 38.6 27.9 38.5 27.8C38.4 27.7 38.4 27.6 38.4 27.5C38.4 27.4 38.4 27.3 38.5 27.2C38.6 27.1 38.7 27.1 38.8 27.1C38.9 27.1 39 27.1 39.1 27.2C39.2 27.3 39.2 27.6 39.1 27.8ZM40.4 27.6C40.6 27.7 40.7 27.9 40.7 28.1C40.7 28.1 40.7 28.2 40.6 28.2C40.4 28.2 40.2 28.1 40.1 27.9H40H39.9C39.8 28.1 39.6 28.2 39.4 28.2C39.4 28.2 39.3 28.2 39.3 28.1C39.3 27.9 39.4 27.7 39.6 27.6V27.5V27.4C39.4 27.3 39.3 27.1 39.3 26.9C39.3 26.9 39.3 26.8 39.4 26.8C39.6 26.8 39.8 26.9 39.9 27.1H40H40.1C40.2 26.9 40.4 26.8 40.6 26.8C40.6 26.8 40.7 26.8 40.7 26.9C40.7 27.1 40.6 27.3 40.4 27.4C40.4 27.4 40.4 27.5 40.4 27.6ZM39.6 26.1C39.6 26 39.6 25.9 39.7 25.8C39.8 25.7 39.9 25.7 40 25.7C40.1 25.7 40.2 25.7 40.3 25.8C40.4 25.9 40.4 26 40.4 26.1C40.4 26.2 40.4 26.3 40.3 26.4C40.2 26.5 40.1 26.5 40 26.5C39.9 26.5 39.8 26.5 39.7 26.4C39.7 26.4 39.6 26.2 39.6 26.1ZM41.7 27.7C41.6 27.8 41.5 27.8 41.4 27.8C41.3 27.8 41.2 27.8 41.1 27.7C41 27.6 41 27.5 41 27.4C41 27.3 41 27.2 41.1 27.1C41.2 27 41.3 27 41.4 27C41.5 27 41.6 27 41.7 27.1C41.8 27.2 41.8 27.3 41.8 27.4C41.8 27.6 41.8 27.7 41.7 27.7ZM42.3 24.7C42.1 24.6 42 24.4 42 24.2C42 24.2 42 24.1 42.1 24.1C42.3 24.1 42.5 24.2 42.6 24.4H42.7H42.8C42.9 24.2 43.1 24.1 43.3 24.1C43.3 24.1 43.4 24.1 43.4 24.2C43.4 24.4 43.3 24.6 43.1 24.7V24.8V24.9C43.3 25 43.4 25.2 43.4 25.4C43.4 25.4 43.4 25.5 43.3 25.5C43.1 25.5 42.9 25.4 42.8 25.2H42.7H42.6C42.5 25.4 42.3 25.5 42.1 25.5C42.1 25.5 42 25.5 42 25.4C42 25.2 42.1 25 42.3 24.9C42.3 24.9 42.3 24.8 42.3 24.7ZM43.1 26.1C43.1 26.2 43.1 26.3 43 26.4C42.9 26.5 42.8 26.5 42.7 26.5C42.6 26.5 42.5 26.5 42.4 26.4C42.2 26.2 42.2 25.9 42.4 25.8C42.5 25.7 42.6 25.7 42.7 25.7C42.8 25.7 42.9 25.7 43 25.8C43.1 25.9 43.1 26 43.1 26.1ZM42.3 27.3C42.1 27.2 42 27 42 26.8C42 26.8 42 26.7 42.1 26.7C42.3 26.7 42.5 26.8 42.6 27H42.7H42.8C42.9 26.8 43.1 26.7 43.3 26.7C43.3 26.7 43.4 26.7 43.4 26.8C43.4 27 43.3 27.2 43.1 27.3V27.4V27.5C43.3 27.6 43.4 27.8 43.4 28C43.4 28 43.4 28.1 43.3 28.1C43.1 28.1 42.9 28 42.8 27.8H42.7H42.6C42.5 28 42.3 28.1 42.1 28.1C42.1 28.1 42 28.1 42 28C42 27.8 42.1 27.6 42.3 27.5C42.3 27.5 42.3 27.4 42.3 27.3ZM41.1 24.5C41.2 24.4 41.3 24.4 41.4 24.4C41.5 24.4 41.6 24.4 41.7 24.5C41.8 24.6 41.8 24.7 41.8 24.8C41.8 24.9 41.8 25 41.7 25.1C41.6 25.2 41.5 25.2 41.4 25.2C41.3 25.2 41.2 25.2 41.1 25.1C40.9 24.9 40.9 24.7 41.1 24.5ZM40.8 25.5C41 25.5 41.2 25.6 41.3 25.8H41.4H41.5C41.6 25.6 41.8 25.5 42 25.5C42 25.5 42.1 25.5 42.1 25.6C42.1 25.8 42 26 41.8 26.1C41.8 26.2 41.8 26.3 41.8 26.4C42 26.5 42.1 26.7 42.1 26.9C42.1 26.9 42.1 27 42 27C41.8 27 41.6 26.9 41.5 26.7H41.4H41.3C41.2 26.9 41 27 40.8 27C40.8 27 40.7 27 40.7 26.9C40.7 26.7 40.8 26.5 41 26.4C41 26.3 41 26.2 41 26.1C40.9 25.9 40.7 25.7 40.8 25.5C40.7 25.5 40.7 25.5 40.8 25.5ZM39.7 24.7C39.5 24.6 39.4 24.4 39.4 24.2C39.4 24.2 39.4 24.1 39.5 24.1C39.7 24.1 39.9 24.2 40 24.4H40.1H40.2C40.3 24.2 40.5 24.1 40.7 24.1C40.7 24.1 40.8 24.1 40.8 24.2C40.8 24.4 40.7 24.6 40.5 24.7C40.5 24.8 40.5 24.9 40.5 25C40.7 25.1 40.8 25.3 40.8 25.5C40.8 25.5 40.8 25.6 40.7 25.6C40.5 25.6 40.3 25.5 40.2 25.3H40.1H40C39.9 25.5 39.7 25.6 39.5 25.6C39.5 25.6 39.4 25.6 39.4 25.5C39.4 25.3 39.5 25.1 39.7 25C39.7 24.9 39.7 24.8 39.7 24.7ZM38.4 24.5C38.5 24.4 38.6 24.4 38.7 24.4C38.8 24.4 38.9 24.4 39 24.5C39.2 24.7 39.2 25 39 25.1C38.9 25.2 38.8 25.2 38.7 25.2C38.6 25.2 38.5 25.2 38.4 25.1C38.3 25 38.3 24.9 38.3 24.8C38.3 24.7 38.3 24.6 38.4 24.5ZM38.4 26.1V26C38.2 25.9 38.1 25.7 38.1 25.5C38.1 25.5 38.1 25.4 38.2 25.4C38.4 25.4 38.6 25.5 38.7 25.7H38.8H38.9C39 25.5 39.2 25.4 39.4 25.4C39.4 25.4 39.5 25.4 39.5 25.5C39.5 25.7 39.4 25.9 39.2 26C39.2 26.1 39.2 26.2 39.2 26.3C39.4 26.4 39.5 26.6 39.5 26.8C39.5 26.8 39.5 26.9 39.4 26.9C39.2 26.9 39 26.8 38.9 26.6H38.8H38.7C38.6 26.8 38.4 26.9 38.2 26.9C38.2 26.9 38.1 26.9 38.1 26.8C38.1 26.6 38.2 26.4 38.4 26.3C38.4 26.2 38.4 26.2 38.4 26.1ZM37.1 24.7C36.9 24.6 36.8 24.4 36.8 24.2C36.8 24.2 36.8 24.1 36.9 24.1C37.1 24.1 37.3 24.2 37.4 24.4H37.5H37.6C37.7 24.2 37.9 24.1 38.1 24.1C38.1 24.1 38.2 24.1 38.2 24.2C38.2 24.4 38.1 24.6 37.9 24.7V24.8V24.9C38.1 25 38.2 25.2 38.2 25.4C38.2 25.4 38.2 25.5 38.1 25.5C37.9 25.5 37.7 25.4 37.6 25.2H37.5H37.4C37.3 25.4 37.1 25.5 36.9 25.5C36.9 25.5 36.8 25.5 36.8 25.4C36.8 25.2 36.9 25 37.1 24.9C37 24.9 37 24.8 37.1 24.7Z" fill="#05552E"/>
<path d="M36.1 25.1C36.2 25.1 36.3 25.1 36.3 25C36.4 24.9 36.4 24.6 36.3 24.5C36.2 24.4 36.1 24.4 36.1 24.4C36 24.4 35.9 24.4 35.9 24.5C35.8 24.6 35.8 24.9 35.9 25C35.9 25.1 36 25.1 36.1 25.1ZM36.1 24.5C36.2 24.5 36.2 24.5 36.3 24.6C36.4 24.7 36.4 24.9 36.3 25C36.3 25 36.2 25.1 36.1 25.1C36 25.1 36 25.1 35.9 25C35.9 25 35.8 24.9 35.8 24.8C35.8 24.7 35.8 24.7 35.9 24.6C36 24.6 36.1 24.5 36.1 24.5Z" fill="#05552E"/>
<path d="M37.4 25.8C37.3 25.8 37.2 25.8 37.1 25.9C37 26 37 26.3 37.1 26.4C37.2 26.5 37.3 26.5 37.4 26.5C37.5 26.5 37.6 26.5 37.7 26.4C37.8 26.3 37.8 26 37.7 25.9C37.6 25.8 37.5 25.8 37.4 25.8ZM37.4 26.4C37.3 26.4 37.3 26.4 37.2 26.3C37.2 26.3 37.1 26.2 37.1 26.1C37.1 26 37.1 26 37.2 25.9C37.2 25.9 37.3 25.8 37.4 25.8C37.5 25.8 37.5 25.8 37.6 25.9C37.7 26 37.7 26.2 37.6 26.3C37.6 26.4 37.5 26.4 37.4 26.4Z" fill="#05552E"/>
<path d="M38.7 25.2C38.8 25.2 38.9 25.2 39 25.1C39.1 25 39.1 24.7 39 24.6C38.9 24.5 38.8 24.5 38.7 24.5C38.6 24.5 38.5 24.5 38.4 24.6C38.3 24.7 38.3 25 38.4 25.1C38.6 25.1 38.6 25.2 38.7 25.2ZM38.7 24.5C38.8 24.5 38.8 24.5 38.9 24.6C39 24.7 39 24.9 38.9 25C38.9 25 38.8 25.1 38.7 25.1C38.6 25.1 38.6 25.1 38.5 25C38.4 24.9 38.4 24.7 38.5 24.6C38.6 24.6 38.7 24.5 38.7 24.5Z" fill="#05552E"/>
<path d="M41.4 27.1C41.3 27.1 41.2 27.1 41.1 27.2C41 27.3 41 27.6 41.1 27.7C41.2 27.8 41.3 27.8 41.4 27.8C41.5 27.8 41.6 27.8 41.7 27.7C41.8 27.6 41.8 27.3 41.7 27.2C41.5 27.1 41.5 27.1 41.4 27.1ZM41.4 27.7C41.3 27.7 41.3 27.7 41.2 27.6C41.1 27.5 41.1 27.3 41.2 27.2C41.2 27.2 41.3 27.1 41.4 27.1C41.5 27.1 41.5 27.1 41.6 27.2C41.7 27.3 41.7 27.5 41.6 27.6C41.5 27.7 41.4 27.7 41.4 27.7Z" fill="#05552E"/>
<path d="M42.4 25.9C42.3 26 42.3 26.3 42.4 26.4C42.5 26.5 42.6 26.5 42.7 26.5C42.8 26.5 42.9 26.5 43 26.4C43.1 26.3 43.1 26 43 25.9C42.9 25.8 42.8 25.8 42.7 25.8C42.6 25.8 42.5 25.8 42.4 25.9ZM42.7 26.4C42.6 26.4 42.6 26.4 42.5 26.3C42.4 26.2 42.4 26 42.5 25.9C42.5 25.9 42.6 25.8 42.7 25.8C42.8 25.8 42.8 25.8 42.9 25.9C43 26 43 26.2 42.9 26.3C42.8 26.4 42.7 26.4 42.7 26.4Z" fill="#05552E"/>
<path d="M38.7 27.1C38.6 27.1 38.5 27.1 38.4 27.2C38.3 27.3 38.3 27.6 38.4 27.7C38.5 27.8 38.6 27.8 38.7 27.8C38.8 27.8 38.9 27.8 39 27.7C39.1 27.6 39.1 27.3 39 27.2C38.9 27.1 38.8 27.1 38.7 27.1ZM38.7 27.7C38.6 27.7 38.6 27.7 38.5 27.6C38.4 27.5 38.4 27.3 38.5 27.2C38.5 27.2 38.6 27.1 38.7 27.1C38.8 27.1 38.8 27.1 38.9 27.2C39 27.3 39 27.5 38.9 27.6C38.9 27.7 38.8 27.7 38.7 27.7Z" fill="#05552E"/>
<path d="M40.3 26.4C40.4 26.3 40.4 26 40.3 25.9C40.2 25.8 40.1 25.8 40 25.8C39.9 25.8 39.8 25.8 39.7 25.9C39.6 26 39.6 26.3 39.7 26.4C39.8 26.5 39.9 26.5 40 26.5C40.1 26.5 40.2 26.4 40.3 26.4ZM40.1 25.9C40.2 25.9 40.2 25.9 40.3 26C40.4 26.1 40.4 26.3 40.3 26.4C40.3 26.4 40.2 26.5 40.1 26.5C40 26.5 40 26.5 39.9 26.4C39.8 26.3 39.8 26.1 39.9 26C39.9 25.9 40 25.9 40.1 25.9Z" fill="#05552E"/>
<path d="M41.4 25.2C41.5 25.2 41.6 25.2 41.7 25.1C41.8 25 41.8 24.7 41.7 24.6C41.6 24.5 41.5 24.5 41.4 24.5C41.3 24.5 41.2 24.5 41.1 24.6C41 24.7 41 25 41.1 25.1C41.2 25.1 41.3 25.2 41.4 25.2ZM41.4 24.5C41.5 24.5 41.5 24.5 41.6 24.6C41.7 24.7 41.7 24.9 41.6 25C41.6 25 41.5 25.1 41.4 25.1C41.3 25.1 41.3 25.1 41.2 25C41.1 24.9 41.1 24.7 41.2 24.6C41.2 24.6 41.3 24.5 41.4 24.5Z" fill="#05552E"/>
<path d="M44 27.8C44.1 27.8 44.2 27.8 44.3 27.7C44.4 27.6 44.4 27.3 44.3 27.2C44.2 27.1 44.1 27.1 44 27.1C43.9 27.1 43.8 27.1 43.7 27.2C43.6 27.3 43.6 27.6 43.7 27.7C43.8 27.8 43.9 27.8 44 27.8ZM44 27.2C44.1 27.2 44.1 27.2 44.2 27.3C44.2 27.3 44.3 27.4 44.3 27.5C44.3 27.6 44.3 27.6 44.2 27.7C44.2 27.7 44.1 27.8 44 27.8C43.9 27.8 43.9 27.8 43.8 27.7C43.7 27.6 43.7 27.4 43.8 27.3C43.9 27.2 43.9 27.2 44 27.2Z" fill="#05552E"/>
<path d="M43.9 25.9C43.9 25.9 43.8 25.9 43.9 25.9C43.8 25.9 43.8 25.9 43.9 25.9H43.8L43.7 25.8C43.7 25.8 43.7 25.8 43.6 25.8C43.6 25.8 43.6 25.8 43.6 25.9L43.7 26C43.7 26 43.7 26 43.7 26.1C43.7 26.2 43.7 26.2 43.7 26.3C43.7 26.3 43.7 26.3 43.7 26.4L43.6 26.5C43.6 26.5 43.6 26.5 43.6 26.6L43.7 26.5C43.7 26.5 43.7 26.5 43.8 26.5H43.9H44C44 26.5 44 26.5 44.1 26.5L44.2 26.6V26.5C44.2 26.5 44.2 26.5 44.2 26.4C44.2 26.4 44.2 26.4 44.2 26.3V26.2V26.1C44.2 26.1 44.2 26.1 44.2 26H44.1C44 25.8 43.9 25.8 43.9 25.9ZM44.2 26C44.2 26.1 44.2 26.1 44.2 26C44.2 26.1 44.2 26.1 44.2 26.2C44.2 26.2 44.2 26.2 44.2 26.3C44.2 26.4 44.2 26.3 44.1 26.3H44H43.9C43.9 26.3 43.9 26.3 43.8 26.3C43.8 26.3 43.8 26.3 43.8 26.2V26.1V26C43.8 26 43.8 26 43.8 25.9C43.8 25.9 43.8 25.9 43.9 25.9H44C44 25.9 44 25.9 44.2 26C44.1 26 44.1 26 44.2 26C44.1 26 44.2 26 44.2 26Z" fill="#05552E"/>
<path d="M41.1 25.9C41.1 26 41.1 26 41.1 25.9C41.2 26 41.1 26 41.1 26C41.1 26.1 41.1 26.1 41.1 26.2C41.1 26.2 41.1 26.2 41.1 26.3L41 26.4C41 26.4 41 26.4 41 26.5L41.1 26.4C41.1 26.4 41.1 26.4 41.2 26.4H41.3H41.4C41.4 26.4 41.4 26.4 41.5 26.4L41.6 26.5C41.6 26.5 41.6 26.5 41.6 26.4L41.5 26.3C41.5 26.3 41.5 26.3 41.5 26.2C41.5 26.1 41.5 26.1 41.5 26C41.5 26 41.5 26 41.5 25.9L41.6 25.8C41.6 25.8 41.6 25.8 41.6 25.7C41.6 25.7 41.6 25.7 41.5 25.7L41.4 25.8C41.4 25.8 41.4 25.8 41.3 25.8H41.2H41.1C41.1 25.8 41.1 25.8 41 25.8L41.1 25.9V25.8C41.1 25.8 41.1 25.8 41 25.8C41 25.8 41 25.8 41.1 25.9ZM41.5 26.2C41.5 26.3 41.5 26.3 41.5 26.2C41.4 26.3 41.4 26.3 41.3 26.3H41.2C41.2 26.3 41.2 26.3 41.1 26.3C41.1 26.3 41.1 26.3 41.1 26.2V26.1V26C41.1 26 41.1 26 41.1 25.9C41.1 25.9 41.1 25.9 41.2 25.9H41.3H41.4C41.4 25.9 41.4 25.9 41.5 25.9C41.5 25.9 41.5 25.9 41.5 26C41.6 26.1 41.6 26.1 41.5 26.2Z" fill="#05552E"/>
<path d="M38.4 26.5C38.4 26.5 38.5 26.5 38.4 26.5L38.5 26.4C38.5 26.4 38.5 26.4 38.6 26.4H38.7H38.8C38.8 26.4 38.8 26.4 38.9 26.4L39 26.5C39 26.5 39 26.5 39 26.4L38.9 26.3C38.9 26.2 38.9 26.2 38.9 26.1C38.9 26.1 38.9 26.1 38.9 26L39 25.9C39 25.9 39 25.9 39 25.8C39 25.8 39 25.8 38.9 25.8L38.8 25.9C38.8 25.9 38.8 25.9 38.7 25.9H38.6H38.5C38.5 25.9 38.5 25.9 38.4 25.9L38.3 25.8C38.3 25.8 38.3 25.8 38.2 25.8C38.2 25.8 38.2 25.8 38.2 25.9L38.3 26C38.3 26 38.3 26 38.3 26.1C38.3 26.2 38.3 26.2 38.3 26.3L38.4 26.5C38.4 26.4 38.4 26.4 38.4 26.5ZM38.6 26.1C38.6 26 38.6 26 38.7 26C38.7 26 38.7 26 38.8 26H38.9H39C39 26 39 26 39.1 26C39.1 26 39.1 26 39.1 26.1C39.1 26.2 39.1 26.2 39.1 26.3C39.1 26.3 39.1 26.3 39.1 26.4C39.1 26.4 39.1 26.4 39 26.4H38.9H38.8C38.8 26.4 38.8 26.4 38.7 26.4C38.6 26.2 38.6 26.2 38.6 26.1C38.6 26.2 38.6 26.2 38.6 26.1Z" fill="#05552E"/>
<path d="M36.4 25.9C36.5 25.8 36.5 25.8 36.4 25.8C36.4 25.8 36.4 25.8 36.3 25.8L36.4 25.9H36.3H36.2C36.2 25.9 36.2 25.9 36.3 25.9C36.3 25.9 36.3 25.9 36.3 26C36.3 26 36.3 26.1 36.3 26.2V26.3C36.3 26.3 36.3 26.3 36.3 26.2C36.3 26.2 36.3 26.2 36.3 26.1C36.3 26 36.3 26 36.3 25.9C36.4 26 36.3 26 36.4 25.9Z" fill="#05552E"/>
<path d="M39.7 25.2C39.7 25.2 39.8 25.2 39.7 25.2L39.8 25.1C39.8 25.1 39.8 25.1 39.9 25.1H40H40.1L40.2 25.2C40.2 25.2 40.2 25.2 40.2 25.1L40.1 25C40.1 25 40.1 25 40.1 24.9C40.1 24.8 40.1 24.8 40.1 24.7C40.1 24.7 40.1 24.7 40.1 24.6L40.2 24.5C40.2 24.5 40.2 24.5 40.2 24.4C40.2 24.4 40.2 24.4 40.1 24.4L40 24.5H39.9H39.8C39.8 24.5 39.8 24.5 39.7 24.5L39.6 24.4C39.6 24.4 39.6 24.4 39.5 24.4C39.5 24.4 39.5 24.4 39.5 24.5L39.6 24.6C39.6 24.7 39.6 24.7 39.6 24.8L39.7 25.2C39.7 25.1 39.7 25.1 39.7 25.2ZM39.9 24.8C39.9 24.7 39.9 24.7 40 24.7C40 24.7 40 24.7 40.1 24.7H40.2H40.3C40.3 24.7 40.3 24.7 40.4 24.7C40.4 24.7 40.4 24.7 40.4 24.8C40.4 24.9 40.4 24.9 40.4 25C40.4 25 40.4 25 40.4 25.1C40.4 25.1 40.4 25.1 40.3 25.1H40.2H40.1C40.1 25.1 40.1 25.1 40 25.1C39.9 24.9 39.9 24.9 39.9 24.8C39.9 24.9 39.9 24.8 39.9 24.8Z" fill="#05552E"/>
<path d="M42.4 25.2L42.5 25.1C42.5 25.1 42.5 25.1 42.6 25.1H42.7H42.8L42.9 25.2C42.9 25.2 42.9 25.2 42.9 25.1L42.8 25C42.8 25 42.8 25 42.8 24.9C42.8 24.8 42.8 24.8 42.8 24.7C42.8 24.7 42.8 24.7 42.8 24.6L42.9 24.5C42.9 24.5 42.9 24.5 42.9 24.4C42.9 24.4 42.9 24.4 42.8 24.4L42.7 24.5C42.7 24.5 42.7 24.5 42.6 24.5H42.5H42.4C42.4 24.5 42.4 24.5 42.3 24.5L42.2 24.4C42.2 24.4 42.2 24.4 42.1 24.4C42.1 24.4 42.1 24.4 42.1 24.5L42.2 24.6C42.2 24.7 42.2 24.7 42.2 24.8C42.2 24.8 42.2 24.8 42.2 24.9L42.4 25.2C42.3 25.1 42.3 25.1 42.4 25.2C42.3 25.2 42.3 25.2 42.4 25.2ZM42.5 24.8C42.5 24.8 42.5 24.7 42.5 24.8C42.5 24.7 42.5 24.7 42.6 24.7C42.6 24.7 42.6 24.7 42.7 24.7H42.8H42.9C42.9 24.7 42.9 24.7 43 24.7C43 24.7 43 24.7 43 24.8C43 24.9 43 24.9 43 25C43 25 43 25 43 25.1C43 25.1 43 25.1 42.9 25.1H42.8H42.7C42.7 25.1 42.7 25.1 42.6 25.1C42.5 24.9 42.5 24.9 42.5 24.8C42.5 24.9 42.5 24.8 42.5 24.8Z" fill="#05552E"/>
<path d="M37.1 25.2L37.2 25.1C37.2 25.1 37.2 25.1 37.3 25.1H37.4H37.5C37.5 25.1 37.5 25.1 37.6 25.1L37.7 25.2C37.7 25.2 37.7 25.2 37.7 25.1L37.6 25C37.6 25 37.6 25 37.6 24.9C37.6 24.8 37.6 24.8 37.6 24.7C37.6 24.7 37.6 24.7 37.6 24.6L37.7 24.5C37.7 24.5 37.7 24.5 37.7 24.4C37.7 24.4 37.7 24.4 37.6 24.4L37.5 24.5C37.5 24.5 37.5 24.5 37.4 24.5H37.3H37.2C37.2 24.5 37.2 24.5 37.1 24.5L37 24.4C37 24.4 37 24.4 36.9 24.4C36.9 24.4 36.9 24.4 36.9 24.5L37 24.6C37 24.6 37 24.6 37 24.7C37 24.8 37 24.8 37 24.9C37 24.9 37 24.9 37 25L37.1 25.2C37.1 25.1 37.1 25.1 37.1 25.2ZM37.2 24.8C37.2 24.7 37.2 24.7 37.3 24.7C37.3 24.7 37.3 24.7 37.4 24.7H37.5H37.6C37.6 24.7 37.6 24.7 37.7 24.7C37.7 24.7 37.7 24.7 37.7 24.8C37.7 24.9 37.7 24.9 37.7 25C37.7 25 37.7 25 37.7 25.1C37.7 25.1 37.7 25.1 37.6 25.1H37.5H37.4C37.4 25.1 37.4 25.1 37.3 25.1C37.3 24.9 37.3 24.9 37.2 24.8C37.2 24.9 37.2 24.8 37.2 24.8Z" fill="#05552E"/>
<path d="M40.3 27.1L40.2 27.2C40.2 27.2 40.2 27.2 40.1 27.2H40H39.9C39.9 27.2 39.9 27.2 39.8 27.2L39.7 27.1C39.7 27.1 39.7 27.1 39.6 27.1C39.6 27.1 39.6 27.1 39.6 27.2L39.7 27.3C39.7 27.4 39.7 27.4 39.7 27.5C39.7 27.5 39.7 27.5 39.7 27.6L39.6 27.7C39.6 27.7 39.6 27.7 39.6 27.8L39.7 27.7C39.7 27.7 39.7 27.7 39.8 27.7H39.9H40L40.1 27.8C40.1 27.8 40.1 27.8 40.1 27.7L40 27.6C40 27.6 40 27.6 40 27.5C40 27.4 40 27.4 40 27.3C40 27.3 40 27.3 40 27.2L40.3 27.1C40.4 27.1 40.4 27.1 40.3 27.1C40.4 27.1 40.3 27.1 40.3 27.1ZM40.2 27.5C40.2 27.6 40.1 27.6 40.2 27.5C40.1 27.6 40.1 27.6 40 27.6H39.9C39.9 27.6 39.9 27.6 39.8 27.6C39.8 27.6 39.8 27.6 39.8 27.5V27.4V27.3C39.8 27.3 39.8 27.3 39.8 27.2C39.8 27.2 39.8 27.2 39.9 27.2H40H40.1C40.1 27.2 40.1 27.2 40.2 27.2C40.2 27.2 40.2 27.2 40.2 27.3C40.2 27.4 40.2 27.5 40.2 27.5Z" fill="#05552E"/>
<path d="M42.4 27.8L42.5 27.7C42.5 27.7 42.5 27.7 42.6 27.7H42.7H42.8L42.9 27.8C42.9 27.8 42.9 27.8 42.9 27.7L42.8 27.6C42.8 27.6 42.8 27.6 42.8 27.5C42.8 27.4 42.8 27.4 42.8 27.3C42.8 27.3 42.8 27.3 42.8 27.2L42.9 27.1C42.9 27.1 42.9 27.1 42.9 27C42.9 27 42.9 27 42.8 27L42.7 27.1C42.7 27.1 42.7 27.1 42.6 27.1H42.5H42.4C42.4 27.1 42.4 27.1 42.3 27.1L42.2 27C42.2 27 42.2 27 42.1 27C42.1 27 42.1 27 42.1 27.1L42.2 27.2C42.2 27.3 42.2 27.3 42.2 27.4C42.2 27.4 42.2 27.4 42.2 27.5L42.4 27.8C42.3 27.7 42.3 27.8 42.4 27.8C42.3 27.8 42.3 27.8 42.4 27.8ZM42.5 27.4C42.5 27.3 42.5 27.3 42.6 27.3C42.6 27.3 42.6 27.3 42.7 27.3H42.8H42.9C42.9 27.3 42.9 27.3 43 27.3C43 27.3 43 27.3 43 27.4C43 27.5 43 27.5 43 27.6C43 27.6 43 27.6 43 27.7C43 27.7 43 27.7 42.9 27.7H42.8H42.7C42.7 27.7 42.7 27.7 42.6 27.7C42.5 27.5 42.5 27.5 42.5 27.4C42.5 27.5 42.5 27.5 42.5 27.4Z" fill="#05552E"/>
<path d="M37.2 27.6C37.1 27.7 37.1 27.7 37.1 27.8L37.2 27.6C37.3 27.7 37.3 27.7 37.2 27.6C37.3 27.6 37.3 27.7 37.4 27.7H37.5H37.6C37.6 27.7 37.6 27.7 37.7 27.7L37.8 27.8C37.8 27.8 37.8 27.8 37.8 27.7L37.7 27.6C37.7 27.6 37.7 27.6 37.7 27.5C37.7 27.4 37.7 27.4 37.7 27.3C37.7 27.3 37.7 27.3 37.7 27.2L37.8 27.1C37.8 27.1 37.8 27.1 37.8 27C37.8 27 37.8 27 37.7 27L37.6 27.1C37.6 27.1 37.6 27.1 37.5 27.1H37.4H37.3C37.3 27.1 37.3 27.1 37.2 27.1L37.1 27C37.1 27 37.1 27 37 27C37 27 37 27 37 27.1L37.1 27.2C37.1 27.2 37.1 27.2 37.1 27.3C37.1 27.4 37.1 27.5 37.2 27.6ZM37.2 27.4C37.2 27.3 37.2 27.3 37.3 27.3C37.3 27.3 37.3 27.3 37.4 27.3H37.5H37.6C37.6 27.3 37.6 27.3 37.7 27.3C37.7 27.3 37.7 27.3 37.7 27.4C37.7 27.5 37.7 27.5 37.7 27.6C37.7 27.6 37.7 27.6 37.7 27.7C37.7 27.7 37.7 27.7 37.6 27.7H37.5H37.4C37.4 27.7 37.4 27.7 37.3 27.7C37.3 27.6 37.3 27.5 37.2 27.4C37.2 27.5 37.2 27.5 37.2 27.4Z" fill="#05552E"/>
<path d="M0.800003 42.5C0.700003 42.2 1.39999 40.2 1.59999 40.2C1.89999 40.3 2.90001 41 4.00002 41C4.60002 41 4.90004 40.9 4.90004 40.6C4.90004 40.3 4.69999 40.1 3.59999 39.9C1.89999 39.6 0.900039 38.8 0.900039 37C0.900039 35.5 2.10004 34.2 4.40004 34.2C5.80004 34.2 7.09999 34.5 7.59999 34.9C7.79999 35 6.9 37.1 6.8 37.1C6.7 37.1 5.70002 36.6 4.50002 36.6C3.90001 36.6 3.70003 36.8 3.70003 37C3.70003 37.3 3.90001 37.4 5.00001 37.6C6.50001 37.9 7.90004 38.5 7.90004 40.5C7.90004 41.8 6.89999 43.4 4.09999 43.4C2.69999 43.3 1.3 42.8 0.800003 42.5Z" fill="#05552E"/>
<path d="M13.6 41.6C13.5 41.6 11.7 41.6 11.4 41.6C11.3 41.9 11 43.3001 10.9 43.3001C10.8 43.4001 8.10002 43.2 7.90002 43.1C8.10002 42.2 10.5 34.4001 10.6 34.3001C10.7 34.2001 13.9 34.1 14.2 34.2C14.2 34.2 16.8 41.4 17.1 43.1C16.8 43.3 14.2 43.4 14.2 43.4C14.1 43.3 13.7 42 13.6 41.6ZM12.5 36.8001C12.3 37.4001 11.9 39.1 11.8 39.5C12 39.5 12.9 39.5 13.4 39.5C13.2 39 12.8 37.4001 12.5 36.8001C12.6 36.8001 12.5 36.8001 12.5 36.8001Z" fill="#05552E"/>
<path d="M18 43.2C17.9 43.1 17.8 35.1 17.9 34.2C18.5 34.1 24.4 34.1 24.4 34.2C24.5 34.5 24.5 36.1 24.4 36.6C23.9 36.7 21.8 36.6 20.7 36.6L20.8 38.3001C22.1 38.3001 23.7 38.3001 23.8 38.4001C23.9 38.5001 23.9 40.5 23.9 40.5C23.9 40.6 22.3 40.6 20.9 40.5C20.9 41.7 20.9 42.8 20.9 43C20.7 43.3 18 43.3 18 43.2Z" fill="#05552E"/>
<path d="M29.7 41.6C29.6 41.6 27.8 41.6 27.5 41.6C27.4 41.9 27.1 43.3001 27 43.3001C26.9 43.4001 24.2 43.2 24 43.1C24.2 42.2 26.6 34.4001 26.7 34.3001C26.8 34.2001 30 34.1 30.3 34.2C30.3 34.2 32.9 41.4 33.2 43.1C32.9 43.3 30.3 43.4 30.3 43.4C30.2 43.3 29.8 42 29.7 41.6ZM28.6 36.8001C28.4 37.4001 28 39.1 27.9 39.5C28.1 39.5 29 39.5 29.5 39.5C29.3 39 28.9 37.4001 28.6 36.8001C28.7 36.8001 28.6 36.8001 28.6 36.8001Z" fill="#05552E"/>
<path d="M33.9 43.2C33.8 42.4 33.9 35.4 34 34.3C34.9 34.2 36.3 34.2 37.2 34.2C39.8 34.2 41.3 35.2 41.3 37.4C41.3 38.7 40.8 39.5 39.8 39.9C40.7 41.1 41.6 42.5 41.6 42.6C41.4 42.8 39.6 43.6 39.1 43.5C39.1 43.5 38 41.7 37 40.4H36.6C36.6 41.6 36.6 43 36.5 43.3C36.5 43.2 33.9 43.3 33.9 43.2ZM37.5 38.2C38.1 38.2 38.5 38 38.5 37.4C38.5 36.9 38.3 36.6 37.4 36.6C37.3 36.6 37 36.6 36.9 36.6C36.9 37.1 36.9 37.6 36.9 38.1C37 38.2 37.3 38.2 37.5 38.2Z" fill="#05552E"/>
<path d="M45.4 34.3001C45.5 34.4001 45.5 42.7 45.4 43.2C45.3 43.5 42.6 43.4001 42.6 43.3001C42.5 42.5001 42.5 35.5 42.6 34.4C43.1 34.2 45.2 34.2001 45.4 34.3001Z" fill="#05552E"/>
<path d="M6.59995 49.7C7.39995 49.9 8.19998 50.6 8.19998 51.9C8.19998 53.6 6.79997 54.4 4.49997 54.4C3.19997 54.4 0.999995 54.3 0.899995 54.2C0.799995 54.1 0.699959 45.6 0.799959 45.5C0.799959 45.4 3.29997 45.3 3.49997 45.3C5.49997 45.3 7.59995 45.7 7.59995 47.7C7.59995 48.8 7.19995 49.2 6.59995 49.7ZM3.49997 48.7C3.59997 48.7 3.69996 48.7 3.79996 48.7C4.49996 48.7 4.9 48.5 4.9 48C4.9 47.5 4.3 47.4 3.9 47.4C3.8 47.4 3.69995 47.4 3.59995 47.4C3.49995 47.6 3.49997 48.7 3.49997 48.7ZM3.59995 52.1C3.79995 52.1 3.99995 52.1 4.09995 52.1C4.89995 52.1 5.19998 51.8 5.19998 51.4C5.19998 50.9 4.79997 50.7 3.99997 50.7C3.89997 50.7 3.69995 50.7 3.59995 50.7C3.59995 50.9 3.59995 52.1 3.59995 52.1Z" fill="#05552E"/>
<path d="M16.2 54.3001C16.3 54.4001 11.2 54.4001 9.79996 54.3001C9.69996 53.4001 9.8 47.2001 9.9 45.3001C11.3 45.2001 16.2 45.2001 16.3 45.3001C16.4 45.6001 16.4 47.1 16.3 47.7C15.8 47.8 13.6999 47.7 12.5999 47.7V48.6C13.8999 48.6 15.3 48.6 15.3 48.7C15.4 48.8 15.3 50.9 15.3 51C15.3 51.1 13.9 51.1 12.5 51V52C13.7 52 15.6999 52 16.0999 52C16.2999 52.5 16.2 54.0001 16.2 54.3001Z" fill="#05552E"/>
<path d="M23.1 52.7C23 52.7 21.2 52.7 20.9 52.7C20.8 53 20.5 54.4001 20.4 54.4001C20.3 54.4001 17.6 54.3 17.4 54.2C17.6 53.3 20 45.5001 20.1 45.4001C20.2 45.3001 23.4 45.2001 23.7 45.3001C23.7 45.3001 26.3 52.5 26.6 54.2C26.3 54.4 23.7 54.5 23.7 54.5C23.7 54.5 23.2 53.1 23.1 52.7ZM22 47.9001C21.8 48.5001 21.4 50.2 21.3 50.6C21.5 50.6 22.4 50.6 22.9 50.6C22.7 50.1 22.3 48.5001 22 47.9001C22.1 47.9001 22.1 47.9001 22 47.9001Z" fill="#05552E"/>
<path d="M32.3 51.9C33.3 51.9 33.9 51.4 34.2 51.2C34.5 51.4 35.3 52.7 35.5 53.3C34.9 54 33.6 54.6 32 54.6C28.9 54.6 27.4 52.4 27.4 49.8C27.4 47.2 29.3 45.2 32.4 45.2C34 45.2 35.1 45.6 35.5 46.1C35.5 46.4 34.8 48.1 34.4 48.5C33.9 48.2 33.2 47.9 32.4 47.9C31.3 47.9 30.4 48.7 30.4 49.9C30.4 51.5 31.6 51.9 32.3 51.9Z" fill="#05552E"/>
<path d="M42.4 54.3001C42.4 54.0001 42.3 52.7001 42.3 51.3001C41.5 51.3001 40.7 51.3001 39.9 51.3001C39.9 52.6001 39.9 53.8 39.9 54.4C39.4 54.5 37 54.6 37 54.4C36.9 53.9 36.8 46.1 36.9 45.4C36.9 45.1 39.7 45.3001 39.8 45.3001C39.8 45.4001 39.9 46.9 39.9 48.7C40.7 48.7 41.5 48.7 42.3 48.7C42.3 47.2 42.3 45.9 42.4 45.4C42.9 45.3 45.1 45.3 45.2 45.4C45.3 45.5 45.3 53.8001 45.2 54.3001C45.2 54.5001 42.5 54.4001 42.4 54.3001Z" fill="#05552E"/>
<path d="M44.8 56.5L39.1 56.2L33.7 56.5L28.3 56.6L22.9 56L17.4 56.2L12 56.6H6.5L1.29999 56C1.19999 56 1.1 56 1 56.1C0.9 56.2 0.900024 56.3 0.900024 56.4L1.09998 61.1V65.7C1.09998 65.8 1.10001 65.9 1.20001 66C1.30001 66.1 1.4 66.1 1.5 66.1L6.70001 65.9H12.1C12.1 65.8 17.6 66 17.6 66L23 65.5L28.4 65.9L33.8 65.5H39.2L44.8 66C44.9 66 45 66 45.1 65.9C45.2 65.8 45.2 65.7 45.3 65.6L45.5 61.2V56.7C45.2 56.7 45 56.5 44.8 56.5Z" fill="#28AAE1"/>
<path d="M8.7 62.4C8.9 62.5 9.10001 62.7 9.40001 62.7C9.70001 62.7 9.90001 62.5 9.90001 62C9.90001 61.1 9.90001 59.7 9.90001 59C10.1 58.9 11.1 58.9 11.1 58.9C11.1 59.1 11.2 61 11.2 62.1C11.2 63.2 10.6 63.8 9.7 63.8C9 63.8 8.60001 63.6 8.40001 63.4C8.30001 63.3 8.6 62.5 8.7 62.4Z" fill="white"/>
<path d="M15.5 62.8001C15.3 62.8001 14.3 62.8001 14.1 62.8001C14 63.1001 13.8 63.7001 13.8 63.8001C13.8 63.8001 12.6 63.7 12.5 63.7C12.6 63.2 13.9 59.1 14 59C14.1 59 15.4 58.9 15.6 59C15.6 59 17 63 17.2 63.7C17.1 63.8 16 63.8001 15.9 63.8001C15.8 63.7001 15.5 63.0001 15.5 62.8001ZM14.7 60.1C14.6 60.4 14.3 61.4 14.2 61.9C14.4 61.9 15 61.9 15.3 61.9C15.2 61.4 14.9 60.4 14.7 60.1C14.8 60 14.8 60.1 14.7 60.1Z" fill="white"/>
<path d="M17.8 59C17.9 59 21.1 58.9 21.4 58.9C21.5 58.9 21.5 59.9 21.4 59.9C21.3 59.9 20.8 59.9 20.2 60C20.2 61.3 20.2 63.4 20.2 63.7C20.2 63.7 19 63.8 19 63.7C19 63.3 19 61.2 19 60C18.6 60 18 60 17.8 60C17.8 59.8 17.8 59.1 17.8 59Z" fill="white"/>
<path d="M26.1 63.8001C26.2 63.8001 23.4 63.8001 22.9 63.8001C22.9 63.3001 22.9 60 22.9 59C23.5 59 26.1 58.9 26.1 59C26.1 59.1 26.1 59.8 26.1 60C25.9 60 24.6 60 24 60V60.8001C24.6 60.8001 25.5 60.8001 25.6 60.8001C25.7 60.9001 25.6 61.8001 25.6 61.8001C25.6 61.8001 24.6 61.8001 24 61.8001C24 62.1001 24 62.4 24 62.7C24.6 62.7 25.8 62.7 26 62.7C26.2 63 26.2 63.6001 26.1 63.8001Z" fill="white"/>
<path d="M30.7 63.8C30.6 63.6 29.6 62 28.9 61C28.9 62 28.9 63.2 28.9 63.7C28.7 63.8 27.7 63.8 27.7 63.7C27.7 63.3 27.6 59.5 27.7 59C27.7 58.9 28.8 58.9 28.8 58.9C28.9 59 30 60.8 30.6 61.8C30.6 60.7 30.6 59.3 30.6 59C30.8 58.9 31.7 59 31.8 59C31.8 59 31.8 63.2 31.8 63.6C31.8 63.8 30.8 63.8 30.7 63.8Z" fill="white"/>
<path d="M35.9 62.8C36.1 62.8 36.4 62.7 36.5 62.7C36.5 62.5 36.5 62.1 36.5 62.1C36.5 62.1 35.8 62.1 35.7 62.1C35.7 62.1 35.7 61.3 35.7 61.2C35.9 61.2 37.6 61.1 37.6 61.1C37.6 61.2 37.6 63.2 37.6 63.3C37.3 63.5 36.5 63.8 35.8 63.8C34.2 63.8 33.5 62.7 33.5 61.3C33.5 59.9 34.4 58.9 36 58.9C36.8 58.9 37.3 59.2 37.6 59.4C37.6 59.5 37.2 60.2 37.1 60.4C36.8 60.3 36.5 60.1 36.1 60.1C35.4 60.1 34.9 60.7 34.9 61.4C34.8 62.3 35.3 62.8 35.9 62.8Z" fill="white"/>
</svg>
