<svg width="44" height="67" viewBox="0 0 44 67" fill="none" xmlns="http://www.w3.org/2000/svg">
<path d="M0.700001 27.6C0.500001 28.4 0.399995 29.1 1.09999 29.1H7.1H7.2C7.4 29.1 7.9 28.9 8.2 27.9C8.3 27.6 8.39999 27.3 8.49999 27H0.999989C0.899989 27.2 0.800001 27.4 0.700001 27.6Z" fill="#04542E"/>
<path d="M43.4 27.6C43.3 27.4 43.2 27.2 43.2 26.9H35.6C35.7 27.2 35.8 27.5 35.9 27.8V27.9C36.2 28.9 36.7 29.1 36.9 29.1H37H43C43.7 29.1 43.6 28.3 43.4 27.6Z" fill="#04542E"/>
<path d="M37.2 26C37.4 26.4 38 26.5 38.2 26.5L37.3 24.8C37.3 24.8 37.2 24.5 36.9 24.5C36.9 24.5 36.9 24.5 36.8 24.5H36.7C36.7 24.5 36.7 24.5 36.6 24.5C36.6 24.5 36.5 24.5 36.5 24.6C36.4 24.7 36.4 24.7 36.5 24.8C36.5 24.9 36.6 24.9 36.6 24.9V24.8C36.6 24.7 36.6 24.7 36.7 24.7H36.8C36.9 24.7 37 25 37 25.3C37.1 25.6 37.1 25.8 37.2 26Z" fill="#04542E"/>
<path d="M38.4 25.6C38.5 25.6 38.5 25.6 38.5 25.6C38.5 25.6 38.5 25.6 38.6 25.6C38.6 25.6 38.7 25.6 38.7 25.5C38.8 25.4 38.8 25.4 38.7 25.3C38.7 25.2 38.6 25.2 38.6 25.2V25.3C38.6 25.4 38.6 25.4 38.5 25.4H38.4C38.3 25.4 38.2 25.1 38.2 24.8C38.2 24.5 38.2 24.3 38.1 24.1C37.9 23.7 37.3 23.6 37.1 23.6L38 25.3C37.9 25.4 38 25.6 38.4 25.6C38.3 25.6 38.4 25.6 38.4 25.6Z" fill="#04542E"/>
<path d="M38.6 24.3C38.6 24.3 38.5 24.4 38.6 24.3C38.5 24.4 38.5 24.4 38.5 24.4V24.5H38.6C38.6 24.5 38.6 24.5 38.7 24.5H38.8C38.8 24.5 38.8 24.4 38.7 24.4C38.7 24.3 38.7 24.3 38.6 24.3Z" fill="#04542E"/>
<path d="M38.3 23.8C38.3 23.8 38.2 23.9 38.3 23.8L38.5 24.3H38.6C38.6 24.3 38.6 24.3 38.7 24.3L38.5 23.9C38.4 23.8 38.4 23.8 38.3 23.8Z" fill="#04542E"/>
<path d="M36.6 25.8H36.7C36.7 25.8 36.8 25.8 36.8 25.7V25.6H36.7C36.7 25.6 36.7 25.6 36.6 25.6C36.6 25.7 36.6 25.7 36.6 25.8C36.5 25.7 36.5 25.7 36.6 25.8C36.5 25.7 36.5 25.7 36.6 25.8C36.5 25.7 36.5 25.8 36.6 25.8Z" fill="#04542E"/>
<path d="M36.2 24.1C36 23.7 35.4 23.6 35.2 23.6L36.1 25.3C36.1 25.3 36.2 25.6 36.5 25.6C36.5 25.6 36.5 25.6 36.6 25.6H36.7C36.7 25.6 36.7 25.6 36.8 25.6C36.8 25.6 36.9 25.6 36.9 25.5C37 25.4 37 25.4 36.9 25.3C36.9 25.2 36.8 25.2 36.8 25.2V25.3C36.8 25.4 36.8 25.4 36.7 25.4H36.6C36.5 25.4 36.4 25.1 36.4 24.8C36.3 24.5 36.3 24.2 36.2 24.1Z" fill="#04542E"/>
<path d="M38.5 25.8H38.6C38.6 25.8 38.7 25.8 38.7 25.7V25.6H38.6C38.6 25.6 38.6 25.6 38.5 25.6C38.5 25.7 38.5 25.7 38.5 25.8C38.4 25.7 38.4 25.7 38.5 25.8C38.4 25.7 38.4 25.7 38.5 25.8C38.4 25.7 38.4 25.8 38.5 25.8Z" fill="#04542E"/>
<path d="M37 26.3C37 26.3 37.1 26.2 37 26.3L36.8 25.8H36.7C36.7 25.8 36.7 25.8 36.6 25.8L36.8 26.2C36.9 26.3 36.9 26.3 37 26.3Z" fill="#04542E"/>
<path d="M40.3 25.6C40.4 25.6 40.4 25.6 40.4 25.6C40.4 25.6 40.4 25.6 40.5 25.6C40.5 25.6 40.6 25.6 40.6 25.5C40.7 25.4 40.7 25.4 40.6 25.3C40.6 25.2 40.5 25.2 40.5 25.2V25.3C40.5 25.4 40.5 25.4 40.4 25.4H40.3C40.2 25.4 40.1 25.1 40.1 24.8C40.1 24.5 40.1 24.3 40 24.1C39.8 23.7 39.2 23.6 39 23.6L39.9 25.3C39.8 25.4 39.9 25.6 40.3 25.6C40.2 25.6 40.2 25.6 40.3 25.6Z" fill="#04542E"/>
<path d="M40.3 25.8C40.4 25.8 40.4 25.8 40.3 25.8H40.4C40.4 25.8 40.5 25.8 40.5 25.7V25.6H40.4C40.4 25.6 40.4 25.6 40.3 25.6C40.4 25.7 40.3 25.7 40.3 25.8C40.3 25.7 40.3 25.7 40.3 25.8C40.3 25.7 40.3 25.7 40.3 25.8C40.3 25.7 40.3 25.8 40.3 25.8Z" fill="#04542E"/>
<path d="M40.5 24.3C40.4 24.3 40.4 24.4 40.5 24.3C40.4 24.4 40.4 24.4 40.4 24.4V24.5H40.5C40.5 24.5 40.5 24.5 40.6 24.5H40.7C40.7 24.5 40.7 24.4 40.6 24.4C40.6 24.3 40.5 24.3 40.5 24.3Z" fill="#04542E"/>
<path d="M40.8 26.3C40.8 26.3 40.8 26.2 40.8 26.3L40.6 25.8H40.5C40.5 25.8 40.5 25.8 40.4 25.8L40.6 26.2C40.6 26.3 40.7 26.3 40.8 26.3Z" fill="#04542E"/>
<path d="M41 26C41.2 26.4 41.8 26.5 42 26.5L41.1 24.8C41.1 24.8 41 24.5 40.7 24.5C40.7 24.5 40.7 24.5 40.6 24.5H40.5C40.5 24.5 40.5 24.5 40.4 24.5C40.4 24.5 40.3 24.5 40.3 24.6C40.2 24.7 40.2 24.7 40.3 24.8C40.3 24.9 40.4 24.9 40.4 24.9V24.8C40.4 24.7 40.4 24.7 40.5 24.7H40.6C40.7 24.7 40.8 25 40.8 25.3C40.9 25.6 40.9 25.8 41 26Z" fill="#04542E"/>
<path d="M40.2 23.8C40.2 23.8 40.1 23.9 40.2 23.8L40.4 24.3H40.5C40.5 24.3 40.5 24.3 40.6 24.3L40.4 23.9C40.3 23.8 40.3 23.8 40.2 23.8Z" fill="#04542E"/>
<path d="M39.1 26C39.3 26.4 39.9 26.5 40.1 26.5L39.2 24.8C39.2 24.8 39.1 24.5 38.8 24.5C38.8 24.5 38.8 24.5 38.7 24.5H38.6C38.6 24.5 38.6 24.5 38.5 24.5C38.5 24.5 38.4 24.5 38.4 24.6C38.3 24.7 38.3 24.7 38.4 24.8C38.4 24.9 38.5 24.9 38.5 24.9V24.8C38.5 24.7 38.5 24.7 38.6 24.7H38.7C38.8 24.7 38.9 25 38.9 25.3C39 25.6 39 25.8 39.1 26Z" fill="#04542E"/>
<path d="M38.9 26.3C38.9 26.3 38.9 26.2 38.9 26.3L38.7 25.8H38.6C38.6 25.8 38.6 25.8 38.5 25.8L38.7 26.2C38.8 26.3 38.8 26.3 38.9 26.3Z" fill="#04542E"/>
<path d="M36.7 24.3C36.7 24.3 36.6 24.4 36.7 24.3C36.6 24.4 36.6 24.4 36.6 24.4V24.5H36.7C36.7 24.5 36.7 24.5 36.8 24.5H36.9C36.9 24.5 36.9 24.4 36.8 24.4C36.8 24.3 36.8 24.3 36.7 24.3Z" fill="#04542E"/>
<path d="M41.7 25.3C41.7 25.3 41.8 25.6 42.1 25.6C42.1 25.6 42.1 25.6 42.2 25.6H42.3C42.3 25.6 42.3 25.6 42.4 25.6C42.4 25.6 42.5 25.6 42.5 25.5C42.6 25.4 42.6 25.4 42.5 25.3C42.5 25.2 42.4 25.2 42.4 25.2V25.3C42.4 25.4 42.4 25.4 42.3 25.4H42.2C42.1 25.4 42 25.1 42 24.8C42 24.5 42 24.3 41.9 24.1C41.7 23.7 41.1 23.6 40.9 23.6L41.7 25.3Z" fill="#04542E"/>
<path d="M34.8 24.3001C34.8 24.3001 34.9 24.3001 34.8 24.3001L34.7 23.9C34.7 23.9 34.6 23.8 34.6 23.9L34.5 24L34.8 24.3001C34.7 24.3001 34.8 24.3001 34.8 24.3001Z" fill="#04542E"/>
<path d="M34.9 24.3C34.8 24.3 34.8 24.3 34.8 24.3C34.8 24.3 34.7 24.3 34.7 24.4V24.5H34.8C34.8 24.5 34.8 24.5 34.9 24.5C34.9 24.4 35 24.4 34.9 24.3C35 24.4 35 24.4 34.9 24.3C35 24.4 35 24.4 35 24.4C35 24.4 35 24.3 34.9 24.3C35 24.3 34.9 24.3 34.9 24.3Z" fill="#04542E"/>
<path d="M35.5 24.7C35.5 24.7 35.4 24.4 35.1 24.4C35.1 24.4 35.1 24.4 35 24.4H34.9C34.9 24.4 34.9 24.4 34.8 24.4C34.8 24.4 34.7 24.4 34.7 24.5C34.6 24.6 34.6 24.6 34.7 24.7C34.7 24.8 34.8 24.8 34.8 24.8V24.7C34.8 24.6 34.8 24.6 34.9 24.6H35C35.1 24.6 35.2 24.9 35.2 25.2C35.2 25.5 35.2 25.7 35.3 25.9C35.5 26.3 36.1 26.4 36.3 26.4L35.5 24.7Z" fill="#04542E"/>
<path d="M42.4 25.8C42.4 25.8 42.4 25.7 42.4 25.8C42.5 25.7 42.5 25.7 42.5 25.7V25.6H42.4C42.4 25.6 42.4 25.6 42.3 25.6H42.2C42.2 25.6 42.2 25.7 42.3 25.7C42.3 25.8 42.3 25.8 42.4 25.8Z" fill="#04542E"/>
<path d="M42.4 25.8C42.3 25.8 42.3 25.8 42.4 25.8L42.5 26.2C42.5 26.2 42.6 26.3 42.6 26.2L42.7 26.1L42.4 25.8C42.5 25.8 42.4 25.8 42.4 25.8Z" fill="#04542E"/>
<path d="M36.4 23.8C36.4 23.8 36.4 23.9 36.4 23.8L36.6 24.3H36.7C36.7 24.3 36.7 24.3 36.8 24.3L36.6 23.9C36.5 23.8 36.5 23.8 36.4 23.8Z" fill="#04542E"/>
<path d="M7.39999 25.8C7.29999 25.8 7.29999 25.8 7.29999 25.8L7.10001 26.2C7.10001 26.2 7.10001 26.3 7.20001 26.3H7.29999L7.39999 25.8Z" fill="#04542E"/>
<path d="M9.29999 24.5C9.19999 24.5 9.19999 24.5 9.29999 24.5C9.19999 24.5 9.20001 24.5 9.10001 24.5C9.10001 24.5 9.1 24.5 9 24.5C8.7 24.5 8.60001 24.8 8.60001 24.8L7.70001 26.5C7.90001 26.5 8.50001 26.5 8.70001 26C8.80001 25.8 8.79999 25.6 8.79999 25.3C8.79999 24.9 8.8 24.7 9 24.7C9.1 24.7 9.10001 24.7 9.10001 24.7C9.20001 24.7 9.20001 24.8 9.20001 24.8V24.9C9.30001 24.9 9.29999 24.9 9.29999 24.8C9.29999 24.7 9.29999 24.6 9.29999 24.6C9.39999 24.5 9.29999 24.5 9.29999 24.5Z" fill="#04542E"/>
<path d="M8.10001 25.4L9 23.7C8.8 23.7 8.2 23.7 8 24.2C7.9 24.4 7.89999 24.6 7.89999 24.9C7.89999 25.3 7.90001 25.5 7.70001 25.5C7.60001 25.5 7.60001 25.5 7.60001 25.5C7.50001 25.5 7.5 25.4 7.5 25.4V25.3C7.4 25.3 7.39999 25.3 7.39999 25.4C7.39999 25.5 7.39999 25.6 7.39999 25.6C7.39999 25.6 7.5 25.6 7.5 25.7C7.5 25.7 7.50001 25.7 7.60001 25.7H7.70001C7.70001 25.7 7.69999 25.7 7.79999 25.7C7.99999 25.6 8.10001 25.4 8.10001 25.4Z" fill="#04542E"/>
<path d="M1.89999 25.7H1.79999C1.79999 25.7 1.80001 25.7 1.70001 25.7H1.60001V25.8C1.60001 25.8 1.70001 25.8 1.70001 25.9C1.80001 25.8 1.79999 25.8 1.89999 25.7C1.89999 25.8 1.89999 25.8 1.89999 25.7C1.89999 25.8 1.99999 25.7 1.89999 25.7C1.99999 25.7 1.99999 25.7 1.89999 25.7Z" fill="#04542E"/>
<path d="M7.70001 23.8H7.60001L7.39999 24.2C7.39999 24.2 7.4 24.2 7.5 24.2H7.60001L7.70001 23.8C7.70001 23.9 7.70001 23.8 7.70001 23.8Z" fill="#04542E"/>
<path d="M6.70001 24.7L5.79999 26.4C5.99999 26.4 6.59999 26.4 6.79999 25.9C6.89999 25.7 6.89999 25.5 6.89999 25.2C6.89999 24.8 6.90001 24.6 7.10001 24.6C7.20001 24.6 7.20001 24.6 7.20001 24.6C7.30001 24.6 7.29999 24.7 7.29999 24.7V24.8C7.39999 24.8 7.39999 24.8 7.39999 24.7C7.39999 24.6 7.39999 24.5 7.39999 24.5C7.39999 24.5 7.29999 24.5 7.29999 24.4C7.29999 24.4 7.30001 24.4 7.20001 24.4H7.10001C7.10001 24.4 7.1 24.4 7 24.4C6.8 24.5 6.70001 24.7 6.70001 24.7Z" fill="#04542E"/>
<path d="M9.60001 23.8H9.5L9.29999 24.2C9.29999 24.2 9.29999 24.2 9.39999 24.2H9.5L9.60001 23.8C9.60001 23.9 9.60001 23.8 9.60001 23.8Z" fill="#04542E"/>
<path d="M7.29998 24.3C7.19998 24.3 7.19998 24.4 7.29998 24.3C7.19998 24.4 7.19998 24.4 7.29998 24.3C7.19998 24.4 7.19998 24.4 7.29998 24.3C7.29998 24.4 7.29998 24.4 7.39998 24.4C7.39998 24.4 7.39999 24.4 7.49999 24.4H7.59999V24.3C7.59999 24.3 7.49999 24.3 7.49999 24.2C7.29999 24.3 7.29998 24.3 7.29998 24.3Z" fill="#04542E"/>
<path d="M1.49999 26.3H1.59999L1.79998 25.9C1.79998 25.9 1.8 25.9 1.7 25.9H1.59999L1.49999 26.3C1.39999 26.2 1.39999 26.3 1.49999 26.3Z" fill="#04542E"/>
<path d="M5.39998 24.3C5.29998 24.3 5.29998 24.4 5.39998 24.3C5.29998 24.4 5.29998 24.4 5.39998 24.3C5.29998 24.4 5.29998 24.4 5.39998 24.3C5.39998 24.4 5.39999 24.4 5.49999 24.4C5.49999 24.4 5.49999 24.4 5.59999 24.4H5.7V24.3C5.7 24.3 5.59999 24.3 5.59999 24.2C5.49999 24.3 5.39998 24.3 5.39998 24.3Z" fill="#04542E"/>
<path d="M5.79999 23.8H5.70001L5.5 24.2C5.5 24.2 5.50001 24.2 5.60001 24.2H5.70001L5.79999 23.8C5.89999 23.9 5.79999 23.8 5.79999 23.8Z" fill="#04542E"/>
<path d="M4.79999 24.7L3.89999 26.4C4.09999 26.4 4.69999 26.4 4.89999 25.9C4.99999 25.7 5 25.5 5 25.2C5 24.8 5.00001 24.6 5.20001 24.6C5.30001 24.6 5.29999 24.6 5.29999 24.6C5.39999 24.6 5.39999 24.7 5.39999 24.7V24.8C5.49999 24.8 5.5 24.8 5.5 24.7C5.5 24.6 5.5 24.5 5.5 24.5C5.5 24.5 5.39999 24.5 5.39999 24.4C5.39999 24.4 5.39999 24.4 5.29999 24.4H5.20001C5.20001 24.4 5.20001 24.4 5.10001 24.4C5.00001 24.5 4.79999 24.7 4.79999 24.7Z" fill="#04542E"/>
<path d="M5.60001 25.8C5.70001 25.8 5.70001 25.7 5.60001 25.8C5.70001 25.7 5.70001 25.7 5.60001 25.8C5.70001 25.7 5.70001 25.7 5.60001 25.8C5.60001 25.7 5.6 25.7 5.5 25.7C5.5 25.7 5.49999 25.7 5.39999 25.7H5.29999V25.8C5.29999 25.8 5.39999 25.8 5.39999 25.9C5.59999 25.8 5.60001 25.8 5.60001 25.8Z" fill="#04542E"/>
<path d="M3 24.7L2.10001 26.4C2.30001 26.4 2.90001 26.4 3.10001 25.9C3.20001 25.7 3.20001 25.5 3.20001 25.2C3.20001 24.8 3.19999 24.6 3.39999 24.6C3.49999 24.6 3.5 24.6 3.5 24.6C3.6 24.6 3.60001 24.7 3.60001 24.7V24.8C3.70001 24.8 3.70001 24.8 3.70001 24.7C3.70001 24.6 3.70001 24.5 3.70001 24.5C3.70001 24.5 3.60001 24.5 3.60001 24.4C3.60001 24.4 3.6 24.4 3.5 24.4H3.39999C3.39999 24.4 3.39999 24.4 3.29999 24.4C3.09999 24.5 3 24.7 3 24.7Z" fill="#04542E"/>
<path d="M5.5 25.8C5.4 25.8 5.39999 25.8 5.39999 25.8L5.20001 26.2C5.20001 26.2 5.19999 26.3 5.29999 26.3H5.39999L5.5 25.8C5.6 25.8 5.5 25.8 5.5 25.8Z" fill="#04542E"/>
<path d="M3.89999 23.8H3.79999L3.60001 24.2C3.60001 24.2 3.60001 24.2 3.70001 24.2H3.79999L3.89999 23.8C3.99999 23.9 3.99999 23.8 3.89999 23.8Z" fill="#04542E"/>
<path d="M3.49999 24.3C3.39999 24.3 3.39999 24.4 3.49999 24.3C3.39999 24.4 3.39999 24.4 3.49999 24.3C3.39999 24.4 3.39999 24.4 3.49999 24.3C3.49999 24.4 3.49999 24.4 3.59999 24.4C3.59999 24.4 3.6 24.4 3.7 24.4H3.79998V24.3C3.79998 24.3 3.7 24.3 3.7 24.2C3.6 24.3 3.49999 24.3 3.49999 24.3Z" fill="#04542E"/>
<path d="M4.10001 24.1C4.00001 24.3 4 24.5 4 24.8C4 25.2 3.99999 25.4 3.79999 25.4C3.69999 25.4 3.70001 25.4 3.70001 25.4C3.60001 25.4 3.60001 25.3 3.60001 25.3V25.2C3.50001 25.2 3.5 25.2 3.5 25.3C3.5 25.4 3.5 25.5 3.5 25.5C3.5 25.5 3.60001 25.5 3.60001 25.6C3.60001 25.6 3.60001 25.6 3.70001 25.6H3.79999C3.79999 25.6 3.79999 25.6 3.89999 25.6C4.19999 25.6 4.29999 25.3 4.29999 25.3L5.20001 23.6C5.00001 23.6 4.40001 23.7 4.10001 24.1Z" fill="#04542E"/>
<path d="M3.60001 25.8C3.50001 25.8 3.5 25.8 3.5 25.8L3.29999 26.2C3.29999 26.2 3.29999 26.3 3.39999 26.3H3.5L3.60001 25.8C3.70001 25.8 3.60001 25.8 3.60001 25.8Z" fill="#04542E"/>
<path d="M3.79999 25.8C3.79999 25.8 3.79999 25.7 3.79999 25.8C3.79999 25.7 3.79999 25.7 3.79999 25.8C3.79999 25.7 3.79999 25.7 3.79999 25.8C3.79999 25.7 3.80001 25.7 3.70001 25.7C3.70001 25.7 3.70001 25.7 3.60001 25.7H3.5V25.8C3.5 25.8 3.60001 25.8 3.60001 25.9C3.70001 25.8 3.69999 25.8 3.79999 25.8C3.69999 25.8 3.79999 25.8 3.79999 25.8Z" fill="#04542E"/>
<path d="M9.10001 24.4H9.20001C9.20001 24.4 9.19999 24.4 9.29999 24.4H9.39999V24.3C9.39999 24.3 9.29999 24.3 9.29999 24.2C9.19999 24.3 9.20001 24.3 9.10001 24.4C9.20001 24.3 9.20001 24.3 9.10001 24.4C9.10001 24.3 9.10001 24.4 9.10001 24.4Z" fill="#04542E"/>
<path d="M6 24.1C5.9 24.3 5.89999 24.5 5.89999 24.8C5.89999 25.2 5.90001 25.4 5.70001 25.4C5.60001 25.4 5.60001 25.4 5.60001 25.4C5.50001 25.4 5.5 25.3 5.5 25.3V25.2C5.4 25.2 5.39999 25.2 5.39999 25.3C5.39999 25.4 5.39999 25.5 5.39999 25.5C5.39999 25.5 5.5 25.5 5.5 25.6C5.5 25.6 5.50001 25.6 5.60001 25.6H5.70001C5.70001 25.6 5.69999 25.6 5.79999 25.6C6.09999 25.6 6.20001 25.3 6.20001 25.3L7.10001 23.6C6.90001 23.6 6.2 23.7 6 24.1Z" fill="#04542E"/>
<path d="M7.5 25.8C7.6 25.8 7.6 25.7 7.5 25.8C7.6 25.7 7.6 25.7 7.5 25.8C7.6 25.7 7.6 25.7 7.5 25.8C7.5 25.7 7.49999 25.7 7.39999 25.7C7.39999 25.7 7.39999 25.7 7.29999 25.7H7.20001V25.8C7.20001 25.8 7.29999 25.8 7.29999 25.9C7.49999 25.8 7.5 25.8 7.5 25.8Z" fill="#04542E"/>
<path d="M1.79998 25.6C1.89998 25.6 1.89999 25.6 1.99999 25.6C1.99999 25.6 1.99999 25.6 2.09999 25.6C2.39999 25.6 2.49999 25.3 2.49999 25.3L3.39998 23.6C3.19998 23.6 2.59998 23.6 2.39998 24.1C2.29998 24.3 2.29998 24.5 2.29998 24.8C2.29998 25.2 2.29999 25.4 2.09999 25.4C1.99999 25.4 1.99999 25.4 1.99999 25.4C1.89999 25.4 1.89998 25.3 1.89998 25.3V25.2C1.79998 25.2 1.79998 25.2 1.79998 25.3C1.79998 25.4 1.79998 25.5 1.79998 25.5C1.69998 25.5 1.69998 25.6 1.79998 25.6Z" fill="#04542E"/>
<path d="M16.7 2.19995C16.8 2.19995 16.8 2.30005 16.9 2.30005C17.1 2.40005 17.3 2.59995 17.5 2.69995L17.6 2.80005C18 3.10005 18.4 3.29998 18.8 3.59998C19.4 3.19998 20 2.9 20.6 2.5C20.8 2.4 21 2.29995 21.2 2.19995C21.1 2.09995 20.9 2.1 20.8 2C20.6 1.9 20.5 1.80005 20.3 1.80005C20 1.70005 19.7 1.50002 19.5 1.40002C17.1 0.400024 15.9 0.0999756 15.3 0.0999756C14.1 0.199976 15.6 1.49995 16.7 2.19995Z" fill="#04542E"/>
<path d="M9.79999 21.2C9.59999 20.5 9.8 19.5001 10.5 17.4001C10.9 16.3001 11.3 15.3001 11.4 15.0001C11.8 13.7001 12.9 13.1001 13.7 12.9001H13.9L14.2 12.6C14.6 11.9 15.7 10.4001 17.7 9.50005C18.2 9.30005 18.7 9.10005 19.3 9.00005C19.5 8.80005 19.7 8.5001 20 8.3001C20.5 7.8001 21 7.30007 21.5 6.90007C21.7 6.70007 21.9 6.50007 22.1 6.40007C22.5 6.00007 22.9 5.7001 23.3 5.3001L23.6 5.10003C23.9 4.80003 24.3 4.5001 24.7 4.3001C25.3 3.8001 25.9 3.40007 26.5 2.90007L26.6 2.8001C26.8 2.7001 27 2.50007 27.2 2.40007C27.3 2.40007 27.3 2.3001 27.4 2.3001C29.1 1.2001 31.5 -1.19997 24.7 1.60003C24.4 1.70003 24.1 1.80005 23.9 2.00005C23.3 2.30005 22.7 2.60007 22.1 2.90007C21.7 3.10007 21.4 3.30005 21 3.50005C20.5 3.80005 20 4.10007 19.5 4.40007C18.1 5.20007 16.8 6.10003 15.6 7.10003C12.8 9.20003 10.3 11.7001 8.10001 14.4001C5.90001 17.1001 4.10001 20.1 2.60001 23.2H10.2C10.3 22.9 10.4 22.6001 10.6 22.4001C10.5 22.3001 10.4 22.1001 10.3 21.9001C9.99999 21.7001 9.89999 21.5 9.79999 21.2Z" fill="#04542E"/>
<path d="M41 22C39.6 19.3 38 16.7 36 14.3C35.8 14 35.5 13.7 35.3 13.5C33.3 11.1 31 8.9 28.5 7C28 6.6 27.5 6.20002 27 5.90002L26.9 5.80005C26.5 5.50005 26 5.20002 25.5 4.90002C25.4 4.90002 25.4 4.80005 25.3 4.80005C24.9 5.10005 24.5 5.50005 24 5.80005L23.7 6C23.3 6.3 22.9 6.7 22.5 7C23 7.4 23.4 7.90002 23.9 8.40002C23.9 8.40002 23.9 8.4 24 8.5C25.3 9.9 26.6 11.3 27.6 12.7C28.7 12.8 29.5 13 29.7 13.1L29.9 13.2L30 13.3C30.8 13.7 31.6 14.6 32.3 15.8C32.7 16.6 33 17.3 33 17.3L33.2 17.9L33 18.5C32.9 18.7 32.9 18.9 32.8 19.2C32.7 19.6 32.6 20 32.4 20.4C32.6 20.8 32.8 21.1 32.9 21.4C33.2 22 33.5 22.7 33.8 23.4H41.3C41.4 22.8 41.2 22.4 41 22Z" fill="#04542E"/>
<path d="M25.1 18.9001C25.1 18.6001 24.9 18.2 24.9 18.2C24.9 18.1 24.8 18.1 24.8 18.1C24.7 18 24.7 17.9001 24.7 17.9001C23.7 17.0001 22.8 17.8001 22.8 17.8001C22.9 18.1001 23 18.3001 23.2 18.5001C23.7 19.0001 24.4 18.9001 24.4 18.9001H24.5C24.6 18.9001 24.7 18.9001 24.7 18.9001C25 18.9001 25.2 19.7 25.2 19.7V19.3001L25.1 18.9001Z" fill="#04542E"/>
<path d="M31.8 16C31.2 14.9 30.5 14.2 29.8 13.8H29.7H29.6C29.5 13.8 29 13.6 28.3 13.5C28.2 13.5 28.1 13.5 28 13.5C27.8 13.5 27.5 13.5 27.2 13.5C26.9 13.2 26.6 13 26.2 12.7C25.7 11.7 25.1 11.1 24.5 10.7C23.5 9.99995 22.3 9.90005 21.2 9.80005C21.1 9.80005 21.1 9.80005 21 9.80005C20 9.80005 19.1 10 18.4 10.3C18.3 10.3 18.2 10.4 18.1 10.4C16.3 11.2 15.3 12.6 14.9 13.3L14.4 13.8L14 13.9C13.9 13.9 12.7 14.2 12.2 15.6C12.1 15.8 11.7 16.9 11.3 18C10.6 20 10.4 20.8 10.6 21.3C10.6 21.5 10.7 21.6 10.8 21.7L10.9 21.8C11.4 22.5 12.3 23 14.1 23.6C14.8 23.8 15.3 24.6 15.5 26C15.5 26.1 15.5 26.1 15.5 26.2C15.7 27 16.3 27.4 16.8 27.4C17.1 27.4 17.3 27.3 17.5 27.2C18 26.9 18.5 26.2 18.6 26C18.8 25.7 18.9 25.3 19 25C19.7 25.7 20.5 26.1 21.3 26.1C21.5 26.1 21.9 26 22.3 25.9C22.7 26.8 23.2 27.6 23.9 28.4C23.2 28.6 22.1 29.3 22.2 31.5C22.2 32.1 22.4 32.6 22.8 33C23.7 33.9 25.5 34 25.7 33.9C25.9 33.9 26 33.9 26.2 33.9C27.9 33.9 29.2 33.5 30.2 32.5C31.7 31.2 32.2 29 32.4 26.9C32.4 26.7 32.4 26.4 32.4 26.2C32.4 26.1 32.4 26 32.4 25.9C32.4 25.5 32.4 25 32.4 24.6C32.4 24.1 32.4 23.7 32.3 23.5C32.3 23.2 32.2 23 32.2 22.7C32.2 22.4 32.1 22.2 32.1 21.9C32.1 21.8 32.1 21.7 32 21.6V21.5C31.9 21.1 31.8 20.7 31.8 20.4C31.8 20.3 31.9 20.2 31.9 20.1C32 19.9 32 19.7 32.1 19.5C32.1 19.3 32.2 19.2 32.2 19C32.3 18.8 32.3 18.5 32.4 18.3L32.5 17.9L32.4 17.5C32.4 17.4 32.2 16.7 31.8 16ZM31.2 18.2C31.2 18.3 31.2 18.3 31.2 18.4C30.7 17.3 30.2 16.5 29.5 15.8C29.3 15.6 29 15.4 28.7 15.2C28.6 15 28.5 14.8 28.3 14.5C28.5 14.5 28.6 14.6 28.8 14.6C29.1 14.7 29.2 14.7 29.2 14.7L29.3 14.8C29.7 15.1 30.1 15.6 30.4 16.1C30.4 16.2 30.5 16.2 30.5 16.3C30.5 16.4 30.6 16.4 30.6 16.5C30.6 16.6 30.7 16.6 30.7 16.7C30.9 17.1 31.1 17.5 31.1 17.6V17.7C31.3 18 31.3 18.1 31.2 18.2ZM28 32.3C27.3 32.5 26.6 32.6 25.7 32.5C25.3 32.5 24.1 32.4 23.5 31.9C23.3 31.7 23.2 31.5 23.2 31.2C23.2 31.2 22.9 29.1 24.6 29C24.9 29.3 25.2 29.6 25.5 29.8C25.5 29.9 25.5 30 25.5 30.1C25.5 30.1 25.5 30.2 25.5 30.3C25.5 30.3 25.5 30.4 25.4 30.4L25.3 30.5L25.2 30.6C25.1 30.7 25 30.7 25 30.7C24.9 30.7 24.9 30.7 24.9 30.7C24.9 30.7 24.9 30.7 25 30.7C25.1 30.7 25.2 30.7 25.3 30.7C25.4 30.7 25.4 30.7 25.5 30.7C25.6 30.7 25.6 30.7 25.7 30.6C25.8 30.6 25.8 30.5 25.9 30.5C26 30.5 26 30.4 26.1 30.3L26.2 30.2C27.2 30.9 28.2 31.5 28.9 31.8C28.6 32 28.3 32.2 28 32.3ZM23 24.4C23 24.2 23 23.7 23.5 23.3C23.7 23.1 24 23 24.4 22.9C24.9 24 26.9 28.6 29.6 30.9C27.9 30.2 24 28 23 24.4ZM28.6 23.7C28.7 23.8 28.8 23.8 28.9 23.9C29.2 24.1 29.6 24.3 30 24.5C30.4 24.7 30.9 24.8 31.2 24.9H31.3C31.3 25.2 31.3 25.4 31.3 25.7C31.3 25.7 31.2 25.7 31.1 25.7C30.8 25.7 30.4 25.7 30 25.7C29.6 25.7 29.2 25.6 28.9 25.5C28.8 25.5 28.6 25.4 28.5 25.4C28.4 25.4 28.4 25.4 28.4 25.4C28.4 25.4 28.4 25.4 28.5 25.5C28.6 25.6 28.7 25.6 28.8 25.7C29.1 25.9 29.4 26.1 29.8 26.3C30.2 26.5 30.6 26.6 30.9 26.7C31 26.7 31 26.7 31 26.7C31 27 30.9 27.2 30.9 27.5C30.8 27.5 30.8 27.5 30.7 27.5C30.5 27.5 30.1 27.5 29.8 27.5C29.5 27.5 29.1 27.4 28.8 27.3C28.7 27.3 28.6 27.2 28.5 27.2C28.4 27.2 28.4 27.2 28.4 27.2C28.4 27.2 28.4 27.2 28.5 27.3C28.6 27.4 28.7 27.4 28.8 27.5C29 27.7 29.3 27.9 29.7 28C30 28.2 30.4 28.3 30.7 28.4H30.8C30.7 28.7 30.6 29 30.5 29.3C30.5 29.3 30.4 29.5 30.3 29.8C28.3 28 26.5 24.6 25.8 23C25.5 22.4 25.2 21.8 25 20.4C25 20.4 24.6 20.8 24.4 21.6H24.3H24.2C23.6 21.7 23.1 21.9 22.7 22.2C21.8 22.9 21.7 24 21.7 24.3C21.6 24.3 21.5 24.4 21.4 24.4C21.2 24.5 21 24.5 20.6 24.4C20.6 24.4 20.5 24.4 20.5 24.3C20.5 24.3 20.4 24.3 20.4 24.2C20.2 24.1 19.9 23.9 19.7 23.6L19.6 23.5L19.5 23.4C19.3 23.2 19.1 22.9 18.8 22.5C18.7 22.3 18.5 22.1 18.4 21.9C18.3 21.8 18.3 21.7 18.2 21.6V21.5V21.4C18.2 21.3 18.2 21.2 18.1 21.1C18.1 21.1 18.1 21.1 18.1 21C18 20.2 18.2 19.3 18.2 19.1C18.2 19.1 18.2 19.1 18.2 19.2C18.1 19.4 18 19.9 17.8 20.6C17.6 21.5 17.5 22.8 17.8 23.7C18 24.4 17.1 25.5 16.8 25.7C16.8 25.7 16.7 25.8 16.6 25.7C16.6 25.7 16.5 25.6 16.5 25.5C16.5 25.3 16.4 24.6 16.1 23.9C15.8 23.2 15.3 22.4 14.3 22.1C14.1 22 13.9 22 13.8 21.9C13.7 21.8 13.6 21.6 13.5 21.3C13.2 20.6 13.1 19.6 13.5 18.4C13.5 18.3 13.5 18.3 13.6 18.2C13.6 18.2 13.6 18.2 13.6 18.1C13.6 18 13.7 17.9 13.7 17.8C13.7 17.8 12.6 19 12.5 21.4C12 21.1 11.8 20.9 11.6 20.7C11.6 20.6 11.6 20.5 11.6 20.4C11.6 20.1 11.7 19.8 11.8 19.4C11.9 19 12.1 18.6 12.2 18.2C12.3 17.9 12.4 17.6 12.5 17.3C12.8 16.4 13.1 15.7 13.1 15.7C13.2 15.5 13.2 15.4 13.3 15.3C13.6 14.9 14 14.8 14 14.8H14.1L14.6 14.7L17.5 14.1C16.7 13.8 16.5 13.8 15.5 13.9C15.5 13.9 16.6 11.8 19 11.1C19.2 11.1 19.3 11 19.5 11C19.6 11 19.7 11 19.8 11C20.2 10.9 20.5 10.9 21 10.9C22.6 10.9 24 11.1 25.2 13.4C25.2 13.4 25.2 13.4 25.3 13.4C26.1 13.8 26.6 14.5 27 15C27.4 15.6 27.6 16 27.7 16.1C28.8 16.6 29.6 17.8 30.1 19.2L30.6 20.8C30.6 20.9 30.6 20.9 30.6 21C30.7 21.3 30.8 21.7 30.8 22C30.9 22.4 31 23.2 31 24C30.7 24 30.3 24 29.9 24C29.5 24 29.1 23.9 28.7 23.8C28.8 23.7 28.7 23.7 28.6 23.7C28.5 23.6 28.5 23.6 28.5 23.6C28.5 23.6 28.5 23.7 28.6 23.7Z" fill="#04542E"/>
<path d="M31.8 60.7C31.7 60.7 31.5 60.7 31.4 60.7C31.4 60.9 31.4 61.6 31.4 61.8C31.5 61.8 31.7 61.8 31.9 61.8C32.3 61.8 32.6 61.6 32.6 61.2C32.5 60.9 32.3 60.7 31.8 60.7Z" fill="#8CC340"/>
<path d="M26.8 60.6C26.1 60.6 25.8 61.1 25.8 61.9C25.8 62.6 26.2 63.2 26.8 63.2C27.5 63.2 27.8 62.7 27.8 61.9C27.8 61.1 27.4 60.6 26.8 60.6Z" fill="#8CC340"/>
<path d="M16.5 60.6C15.8 60.6 15.5 61.1 15.5 61.9C15.5 62.6 15.9 63.2 16.5 63.2C17.2 63.2 17.5 62.7 17.5 61.9C17.5 61.1 17.1 60.6 16.5 60.6Z" fill="#8CC340"/>
<path d="M43.1 57.3L37.6 57L32.4 57.3L27.2 57.4L22 56.9L16.7 57.1L11.5 57.5H6.29999L1.29999 56.9C1.19999 56.9 1.1 56.9 1 57C0.9 57.1 0.899994 57.2 0.899994 57.3V61.8L1 66.2C1 66.3 1.00001 66.4 1.10001 66.5C1.20001 66.6 1.29999 66.6 1.39999 66.6L6.39999 66.4H11.6L16.8 66.6L22 66.1L27.2 66.5L32.4 66.2L37.6 66.1L43 66.6C43.1 66.6 43.2 66.6 43.3 66.5C43.4 66.4 43.4 66.3 43.4 66.2L43.5 62V57.7C43.5 57.5 43.3 57.3 43.1 57.3ZM11.6 64.3C11 64.3 9.89999 64.2 9.89999 64.2L9.79999 59.8C9.79999 59.7 11 59.7 11.1 59.7C12.1 59.7 13.1 60 13.1 60.9C13.1 61.4 12.9 61.7 12.6 61.8C13 61.9 13.4 62.3 13.4 62.9C13.5 63.9 12.8 64.3 11.6 64.3ZM16.5 64.3C15.1 64.3 14.2 63.3 14.2 61.9C14.2 60.7 14.9 59.6 16.4 59.6C17.8 59.6 18.7 60.5 18.7 62C18.8 63.2 18.1 64.3 16.5 64.3ZM23.6 63.9C23.3 64.1 22.6 64.4 21.8 64.4C20.3 64.4 19.6 63.3 19.6 62C19.6 60.7 20.5 59.7 21.9 59.7C22.7 59.7 23.2 60 23.4 60.1C23.4 60.2 23 60.9 22.9 61C22.7 60.9 22.3 60.7 21.9 60.7C21.2 60.7 20.7 61.2 20.7 62C20.7 62.9 21.2 63.4 21.8 63.4C22 63.4 22.2 63.3 22.4 63.3C22.4 63.1 22.4 62.7 22.4 62.7C22.4 62.7 21.8 62.7 21.6 62.7V61.9C21.8 61.9 23.4 61.8 23.4 61.8C23.7 61.8 23.7 63.7 23.6 63.9ZM26.8 64.3C25.4 64.3 24.5 63.3 24.5 61.9C24.5 60.7 25.2 59.6 26.7 59.6C28.1 59.6 29 60.5 29 62C29 63.2 28.4 64.3 26.8 64.3ZM32.8 64.3C32.8 64.3 32.2 63.4 31.7 62.7H31.6C31.5 62.7 31.3 62.7 31.3 62.7C31.3 63.1 31.3 64 31.3 64.2C31.2 64.2 30.2 64.3 30.2 64.2C30.2 63.9 30.2 60.1 30.3 59.7C30.6 59.7 31.3 59.6 31.8 59.6C33 59.6 33.8 60.1 33.8 61.2C33.8 61.9 33.5 62.3 33 62.5C33.5 63.1 34 63.9 34 63.9C33.8 64 33 64.3 32.8 64.3Z" fill="#8CC340"/>
<path d="M12 61C12 60.6 11.6 60.5 11.3 60.5C11.2 60.5 11.1 60.5 11 60.5C11 60.6 11 61.4 11 61.4C11.1 61.4 11.1 61.4 11.3 61.4C11.8 61.5 12 61.3 12 61Z" fill="#8CC340"/>
<path d="M11.5 62.3C11.3 62.3 11.2 62.3 11.1 62.3C11.1 62.4 11.1 63.3 11.1 63.3C11.2 63.3 11.4 63.3 11.5 63.3C12 63.3 12.2 63.1 12.2 62.8C12.2 62.5 12 62.3 11.5 62.3Z" fill="#8CC340"/>
<path d="M2.7 37.7C2.7 39.9 2.7 43.2 2.7 43.9C2.7 44.1 2.89999 44.1 3.49999 44.1C3.89999 44.1 4.89999 44.1 5.09999 43.9V43.8C5.09999 43.4 5.09999 40.5 5.09999 38.1V37.7H5.39998C6.19998 37.7 6.79999 37.7 6.99999 37.6C7.19999 37.6 7.2 37.4 7.2 37.2C7.2 36.9 7.2 36.6 7.2 36.2C7.2 35.6 7.09999 35.5 6.99999 35.4C6.99999 35.4 6.79999 35.4 5.99999 35.4C4.99999 35.4 0.999976 35.5 0.799976 35.6C0.699976 35.8 0.699976 37.2 0.799976 37.5V37.6H0.899982C0.999982 37.6 1.29998 37.6 1.79998 37.6C1.99998 37.7 2.3 37.7 2.7 37.7Z" fill="#04542E"/>
<path d="M7.10001 43.8C7.40001 44 9.09999 44.1 9.29999 44.1C9.39999 44.1 9.5 44.1 9.5 44.1C9.6 44 9.59999 43.7 9.89999 42.7C9.89999 42.6 10 42.5 10 42.4C10.1 42.4 10.3 42.4 10.4 42.4C10.8 42.4 11.2 42.4 11.6 42.4C11.8 42.4 12 42.4 12.2 42.4C12.4 42.9 12.7 43.8 12.8 44C12.8 44 12.9 44 13 44C13.2 44 14.9 43.9 15.2 43.8L15.3 43.7V43.6C15.2 42.9 14.4 40.7 13.9 39.1C13.6 38.3 13.3 37.4 13 36.6C12.6 35.4 12.6 35.4 12.5 35.4C12.5 35.4 12.4 35.4 11.9 35.4C11.9 35.4 9.90001 35.4 9.70001 35.5C9.60001 35.5 9.59999 35.6 8.39999 39.3C7.79999 41.1 7.20001 43.1 7.10001 43.6V43.8ZM11.3 38C11.5 38.7 11.8 39.7 12 40.4C11.6 40.4 11 40.4 10.6 40.4C10.8 39.8 11.1 38.7 11.3 38Z" fill="#04542E"/>
<path d="M24.1 44.1C24.4 44.1 24.8 44.1 25.1 44C25.7 43.9 25.9 43.8 25.9 43.7C25.9 43.4 25.5 41 25.3 39.5C24.7 35.6 24.7 35.6 24.6 35.5C24.5 35.5 24 35.5 23.8 35.5C22.6 35.5 22.4 35.6 22.4 35.6C22.1 35.8 21.3 39.1 20.9 40.5C20.5 38.8 19.7 35.9 19.5 35.6V35.5H19.4C19.3 35.5 18.9 35.5 18.5 35.5C17.3 35.5 17.3 35.7 17.3 35.8C17.2 36.2 16 43.1 15.9 43.7C15.9 43.8 16 43.9 16.8 44C17.2 44.1 17.7 44.1 17.9 44.1C18 44.1 18 44.1 18 44.1H18.1V44C18.2 43.5 18.4 41.9 18.6 40.5C18.6 40.2 18.7 40 18.7 39.8C19.1 41.3 19.7 43.8 19.8 44C19.8 44.1 19.9 44.1 20.8 44.1C21 44.1 21.5 44.1 21.7 44H21.8V43.9C22 43.2 22.6 41.2 23 39.7C23.2 41.3 23.5 43.7 23.5 44C23.8 44.1 24 44.1 24.1 44.1Z" fill="#04542E"/>
<path d="M34.9 43.8L35 43.6C34.9 42.9 34.1 40.7 33.6 39.1C33.3 38.3 33 37.4 32.7 36.6C32.3 35.4 32.3 35.4 32.2 35.4C32.2 35.4 32.1 35.4 31.6 35.4C31.6 35.4 29.6 35.4 29.4 35.5C29.3 35.5 29.3 35.6 28.1 39.3C27.5 41.1 26.9 43.1 26.8 43.6V43.7L26.9 43.8C27.1 43.9 28.8 44 29 44C29.1 44 29.2 44 29.2 44C29.3 43.9 29.3 43.6 29.6 42.6C29.6 42.5 29.7 42.4 29.7 42.3C29.8 42.3 30 42.3 30.1 42.3C30.5 42.3 30.9 42.3 31.3 42.3C31.5 42.3 31.7 42.3 31.8 42.3C32 42.8 32.3 43.7 32.4 43.9C32.4 43.9 32.5 43.9 32.6 43.9C32.9 44.1 34.6 44 34.9 43.8ZM30.9 38C31.1 38.7 31.4 39.7 31.6 40.4C31.2 40.4 30.6 40.4 30.2 40.4C30.4 39.8 30.7 38.7 30.9 38Z" fill="#04542E"/>
<path d="M43.4 35.7C43.4 35.7 43.3 35.6 42.4 35.6C42.1 35.6 41.5 35.6 41.3 35.7H41.2V35.8C41.2 36.1 41.2 36.9 41.2 37.9C41.2 38.6 41.2 39.3 41.2 40C40.3 38.4 38.9 36.3 38.5 35.6C38.5 35.5 38.4 35.5 37.7 35.5C36.3 35.5 36.3 35.7 36.3 35.8C36.2 36.6 36.2 43.2 36.3 43.8C36.3 44 36.4 44 37.3 44C37.7 44 38.3 44 38.5 43.9H38.6V43.8C38.6 43.3 38.6 42.4 38.6 41.4C38.6 40.9 38.6 40.3 38.6 39.7C39 40.4 39.5 41.2 40 41.9C40.7 43 41.2 43.8 41.3 44C41.3 44 41.4 44.1 42 44.1C43.4 44.1 43.5 43.9 43.5 43.8C43.6 43.4 43.6 41.3 43.6 39.5C43.5 35.8 43.5 35.7 43.4 35.7Z" fill="#04542E"/>
<path d="M4.40001 49.4C3.20001 49.1 3.20003 49 3.20003 48.8C3.20003 48.4 3.80002 48.3 4.10002 48.3C4.70002 48.3 5.30002 48.5 6.00002 48.8H6.10002C6.40002 48.8 6.90001 47.5 6.90001 47.5C7.00001 47.2 7.00001 47 6.90001 46.9C6.40001 46.5 5.40002 46.2 4.10002 46.2C2.20002 46.2 0.900009 47.3 0.900009 48.8C0.900009 50.3 1.70001 51.2 3.40001 51.5C4.70001 51.8 4.70003 52.1 4.70003 52.2C4.70003 52.6 4.40003 52.7 3.70003 52.7C2.90003 52.7 2.1 52.2 1.8 52C1.8 52 1.70003 52 1.70003 51.9H1.60002C1.50002 51.9 1.40001 52 1.40001 52C1.20001 52.2 0.700003 53.5 0.800003 53.8V53.9H0.900009C1.40001 54.2 2.50001 54.8 3.90001 54.8C6.30001 54.8 7.3 53.5 7.3 52.1C7.2 51.2 6.90001 50 4.40001 49.4Z" fill="#04542E"/>
<path d="M14.6 49.9C14.3 49.1 14 48.2 13.7 47.4C13.3 46.2 13.3 46.2 13.2 46.2C13.2 46.2 13.1 46.2 12.6 46.2C12.6 46.2 10.6 46.2 10.4 46.3C10.3 46.3 10.3 46.4 9.10001 50.1C8.50001 51.9 7.89999 53.9 7.79999 54.4V54.5L7.89999 54.6C8.09999 54.7 9.8 54.8 10 54.8C10.1 54.8 10.2 54.8 10.2 54.8C10.3 54.7 10.3 54.4 10.6 53.4C10.6 53.3 10.7 53.2 10.7 53.1C10.8 53.1 11 53.1 11.1 53.1C11.5 53.1 11.9 53.1 12.3 53.1C12.5 53.1 12.7 53.1 12.9 53.1C13.1 53.6 13.4 54.5 13.5 54.7C13.5 54.7 13.6 54.7 13.7 54.7C13.9 54.7 15.6 54.6 15.9 54.5L16 54.4V54.3C15.9 53.7 15.1 51.6 14.6 49.9ZM11.9 48.8C12.1 49.5 12.4 50.5 12.6 51.2C12.2 51.2 11.6 51.2 11.2 51.2C11.4 50.5 11.7 49.5 11.9 48.8Z" fill="#04542E"/>
<path d="M23 46.4C22.9 46.3 22.8 46.3 20.7 46.3C19.3 46.3 17.6 46.3 17.3 46.4H17.2V46.5C17.1 47.4 17.3 54.2 17.3 54.7V54.8C17.3 54.8 17.4 54.9 18 54.9C19.5 54.9 19.5 54.8 19.6 54.7C19.6 54.4 19.6 53.2 19.6 52.3C20 52.3 20.4 52.3 20.9 52.3C21.3 52.3 21.7 52.3 21.9 52.3C22.3 52.3 22.5 52.3 22.5 52.1C22.5 52.1 22.5 52.1 22.5 52C22.6 50.5 22.5 50.4 22.4 50.4C22.3 50.3 21.5 50.3 19.9 50.3C19.8 50.3 19.7 50.3 19.6 50.3V48.6C20.2 48.6 21.1 48.6 21.9 48.6C22.5 48.6 22.9 48.6 23.1 48.6H23.2V48.5C23.1 47.9 23.2 46.7 23 46.4Z" fill="#04542E"/>
<path d="M30.1 49.9C29.8 49.1 29.5 48.2 29.2 47.4C28.8 46.2 28.8 46.2 28.7 46.2C28.7 46.2 28.6 46.2 28.1 46.2C28.1 46.2 26.1 46.2 25.9 46.3C25.8 46.3 25.8 46.4 24.6 50.1C24 51.9 23.4 53.9 23.3 54.4V54.5L23.4 54.6C23.6 54.7 25.3 54.8 25.5 54.8C25.6 54.8 25.7 54.8 25.7 54.8C25.8 54.7 25.8 54.4 26.1 53.4C26.1 53.3 26.2 53.2 26.2 53.1C26.3 53.1 26.5 53.1 26.6 53.1C27 53.1 27.4 53.1 27.8 53.1C28 53.1 28.2 53.1 28.4 53.1C28.6 53.6 28.9 54.5 29 54.7C29 54.7 29.1 54.7 29.2 54.7C29.3 54.7 31.1 54.6 31.4 54.5L31.5 54.4V54.3C31.4 53.7 30.6 51.6 30.1 49.9ZM27.4 48.8C27.6 49.5 27.9 50.5 28.1 51.2C27.7 51.2 27.1 51.2 26.7 51.2C26.9 50.5 27.2 49.5 27.4 48.8Z" fill="#04542E"/>
<path d="M37.9 51.6C38.8 51.2 39.3 50.4 39.3 49.3C39.3 47.3 38 46.3 35.6 46.3C34.7 46.3 33.4 46.4 32.8 46.4H32.7V46.5C32.6 47.3 32.5 54 32.6 54.6C32.6 54.8 32.8 54.8 33.3 54.8C33.6 54.8 34.7 54.8 34.9 54.7H35V54.6C35 54.3 35 53.4 35.1 52.6C35.1 52.4 35.1 52.2 35.1 52.1C35.2 52.1 35.4 52.1 35.5 52.1C35.5 52.1 35.5 52.1 35.6 52.1C36.2 52.9 36.8 53.9 37.2 54.4C37.6 55 37.6 55 37.7 55C38.1 55 39.5 54.4 39.6 54.2C39.7 54.1 39.7 54.1 39.1 53.1C38.8 52.8 38.4 52.2 37.9 51.6ZM35.8 50.1C35.6 50.1 35.3 50.1 35.1 50.1C35.1 50 35.1 49.9 35.1 49.7C35.1 49.3 35.1 48.7 35.1 48.4C35.3 48.4 35.5 48.4 35.7 48.4C36.7 48.4 36.9 48.9 36.9 49.3C36.9 50 36.3 50.1 35.8 50.1Z" fill="#04542E"/>
<path d="M43.3 46.4C43.2 46.3 43.1 46.2 42.1 46.2C41.8 46.2 41.2 46.2 41 46.3H40.9V46.4C40.8 47.5 40.8 53.6 40.9 54.5C40.9 54.6 40.9 54.7 42.2 54.7C43.2 54.7 43.3 54.6 43.3 54.5C43.4 53.8 43.4 47 43.3 46.4Z" fill="#04542E"/>
</svg>
