<svg width="40" height="67" viewBox="0 0 40 67" fill="none" xmlns="http://www.w3.org/2000/svg">
<path d="M14.7 2.00004C14.8 2.00004 14.8 2.10002 14.9 2.10002C15.1 2.20002 15.3 2.30004 15.5 2.50004L15.6 2.60002C16 2.80002 16.3 3.10007 16.6 3.40007C17.1 3.10007 17.7 2.70007 18.2 2.40007C18.4 2.30007 18.5 2.20002 18.7 2.10002C18.4 2.00002 18.1 1.79999 17.9 1.69999C17.6 1.59999 17.4 1.50007 17.1 1.40007C10.9 -1.19993 13.2 1.00004 14.7 2.00004Z" fill="#05552E"/>
<path d="M0.200001 25C1.08778e-06 25.7 -0.100005 26.3 0.599995 26.3H6.1H6.2C6.4 26.3 6.79999 26.1 7.1 25.2C7.2 24.9 7.29998 24.6 7.39998 24.3H0.499989C0.399989 24.6 0.300001 24.8 0.200001 25Z" fill="#05552E"/>
<path d="M38.9 25C38.8 24.8 38.7 24.6 38.7 24.4H31.8C31.9 24.7 32 24.9 32.1 25.2C32.1 25.2 32.1 25.2 32.1 25.3C32.4 26.2 32.8 26.3 33 26.4H33.1H38.6C39.2 26.3 39.1 25.7 38.9 25Z" fill="#05552E"/>
<path d="M37.2 21C35.9 18.2 34.2 15.5 32.2 13C29.4 9.6 26.2 6.70005 22.5 4.30005C22.1 4.60005 21.7 4.89995 21.3 5.19995L21.1 5.40002C20.7 5.70002 20.4 6.00005 20 6.30005C20.2 6.50005 20.3 6.60005 20.5 6.80005C21.7 8.00005 22.9 9.29995 24 10.7C24.2 10.9 24.3 11.1 24.5 11.3C24.6 11.3 24.7 11.2 24.7 11.2C24.9 11.1 25.2 11 25.4 11C25.8 11 26.1 11.2 26.4 11.5C26.6 11.8 26.7 12.3 26.7 12.9C27.3 13.5 27.8 14.1 28.2 14.7C28.8 15.6 29.1 16.4 29.1 16.4V16.5L29.7 17.9C29.9 18.2 30.1 18.5 30.1 18.6C30.5 19.5 30.5 20.3 30.5 21H37.2Z" fill="#05552E"/>
<path d="M31.5 21.5C31.3 21.5 31.1 21.6 30.9 21.7L30.8 21.8C30.9 22 31 22.3 31.1 22.5L31.9 21.6C31.8 21.5 31.7 21.5 31.5 21.5Z" fill="#05552E"/>
<path d="M32.2 21.8L31.5 22.5C31.4 22.6 31.3 22.8 31.3 23L31.4 23.2C31.4 23.3 31.5 23.4 31.5 23.6L32.1 22.9C32.4 22.6 32.4 22.1 32.2 21.8Z" fill="#05552E"/>
<path d="M32.8 21.3C32.7 21.3 32.6 21.3 32.5 21.4C32.4 21.5 32.4 21.8 32.5 21.9C32.6 22 32.7 22 32.7 22C32.8 22 32.9 22 33 21.9C33.1 21.8 33.1 21.7 33.1 21.6C33.1 21.5 33.1 21.4 33 21.4C33 21.3 32.9 21.3 32.8 21.3Z" fill="#05552E"/>
<path d="M32.8 23.7L34.7 21.6C34.6 21.5 34.4 21.4 34.2 21.4C34 21.4 33.8 21.5 33.6 21.6L31.7 23.7C31.8 23.8 32 23.9 32.2 23.9C32.4 23.9 32.6 23.8 32.8 23.7Z" fill="#05552E"/>
<path d="M34.9 21.8L34.2 22.5C34.1 22.7 34 22.8 34 23.1C34 23.3 34.1 23.5 34.2 23.6L34.9 22.9C35.2 22.6 35.2 22.1 34.9 21.8Z" fill="#05552E"/>
<path d="M33.3 23.5C33.2 23.6 33.2 23.7 33.2 23.8C33.2 23.9 33.2 24 33.3 24C33.4 24.1 33.5 24.1 33.5 24.1C33.6 24.1 33.7 24.1 33.7 24C33.8 23.9 33.8 23.6 33.7 23.5C33.6 23.4 33.5 23.4 33.5 23.4C33.5 23.4 33.4 23.4 33.3 23.5Z" fill="#05552E"/>
<path d="M35.8 21.9C35.9 21.8 35.9 21.6 35.8 21.4C35.7 21.3 35.6 21.3 35.6 21.3C35.5 21.3 35.4 21.3 35.3 21.4C35.2 21.5 35.2 21.8 35.3 21.9C35.4 22 35.5 22 35.5 22C35.6 22 35.7 22 35.8 21.9Z" fill="#05552E"/>
<path d="M36.4 21.7L34.5 23.8001C34.6 23.9001 34.8 24.0001 35 24.0001C35.2 24.0001 35.4 23.9001 35.6 23.8001L37.5 21.7C37.4 21.6 37.2 21.5001 37 21.5001C36.7 21.4001 36.5 21.5 36.4 21.7Z" fill="#05552E"/>
<path d="M37 23.6L37.7 22.9C37.8 22.8 37.9 22.6 37.9 22.4L37.8 22.2C37.8 22.1 37.7 22 37.7 21.9L37.1 22.6C36.7 22.8 36.7 23.3 37 23.6Z" fill="#05552E"/>
<path d="M36.1 23.5C36 23.6 36 23.9 36.1 24C36.2 24.1 36.3 24.1 36.3 24.1C36.4 24.1 36.5 24.1 36.5 24C36.6 23.9 36.6 23.6 36.5 23.5C36.4 23.4 36.3 23.4 36.3 23.4C36.2 23.4 36.1 23.4 36.1 23.5Z" fill="#05552E"/>
<path d="M37.7 23.9C37.9 23.9 38.1 23.8 38.3 23.7L38.4 23.6C38.3 23.4 38.2 23.1 38.1 22.9L37.3 23.8C37.3 23.9 37.5 23.9 37.7 23.9Z" fill="#05552E"/>
<path d="M7 21.8C6.9 21.9 6.79999 22.1 6.79999 22.3C6.79999 22.5 6.9 22.7 7 22.9L7.60001 23.6C7.70001 23.4 7.79999 23.2 7.79999 23C7.79999 22.9 7.70001 22.7 7.60001 22.6L7 21.8Z" fill="#05552E"/>
<path d="M6.60001 21.9C6.70001 21.8 6.80001 21.5 6.60001 21.4C6.50001 21.3 6.39999 21.3 6.29999 21.3C6.19999 21.3 6.10001 21.3 6.10001 21.4C6.00001 21.5 6 21.5 6 21.6C6 21.7 6.00001 21.8 6.10001 21.9C6.20001 22 6.29999 22 6.39999 22C6.39999 22 6.50001 22 6.60001 21.9Z" fill="#05552E"/>
<path d="M5 21.4C4.8 21.4 4.7 21.5 4.5 21.6L6.39999 23.7C6.49999 23.9 6.7 23.9 7 23.9C7.2 23.9 7.3 23.8 7.5 23.7L5.60001 21.6C5.40001 21.5 5.2 21.4 5 21.4Z" fill="#05552E"/>
<path d="M5.09997 23.1C5.09997 22.9 4.99996 22.7 4.89996 22.5L4.19998 21.8C3.89998 22.1 3.89998 22.6 4.19998 22.8L4.89996 23.5C5.09996 23.4 5.09997 23.3 5.09997 23.1Z" fill="#05552E"/>
<path d="M5.6 24.1C5.7 24.1 5.79998 24.1 5.79998 24C5.89998 23.9 5.89999 23.8 5.89999 23.8C5.89999 23.7 5.89998 23.6 5.79998 23.5C5.69998 23.4 5.59999 23.4 5.49999 23.4C5.39999 23.4 5.29998 23.4 5.29998 23.5C5.19998 23.6 5.09998 23.9 5.29998 24C5.39998 24 5.5 24.1 5.6 24.1Z" fill="#05552E"/>
<path d="M3.89995 21.9C3.99995 21.8 3.99995 21.5 3.89995 21.4C3.79995 21.3 3.69996 21.3 3.59996 21.3C3.49996 21.3 3.39995 21.3 3.39995 21.4C3.29995 21.5 3.29995 21.7 3.39995 21.9C3.49995 22 3.59997 22 3.69997 22C3.69997 22 3.79995 22 3.89995 21.9Z" fill="#05552E"/>
<path d="M2.20001 21.4C2.00001 21.4 1.90001 21.5 1.70001 21.6L3.60001 23.7C3.70001 23.9 3.90001 23.9 4.20001 23.9C4.40001 23.9 4.50001 23.8 4.70001 23.7L2.79999 21.6C2.59999 21.5 2.40001 21.4 2.20001 21.4Z" fill="#05552E"/>
<path d="M2.20004 23.6C2.50004 23.3 2.50004 22.8 2.20004 22.6L1.60004 21.9C1.60004 22 1.50003 22.1 1.50003 22.2L1.40002 22.4C1.40002 22.6 1.50004 22.7 1.60004 22.9L2.20004 23.6Z" fill="#05552E"/>
<path d="M2.59997 23.5C2.49997 23.6 2.39997 23.9 2.59997 24C2.69997 24.1 2.69995 24.1 2.79995 24.1C2.89995 24.1 2.99996 24.1 2.99996 24C3.09996 23.9 3.19996 23.6 2.99996 23.5C2.89996 23.4 2.79997 23.4 2.69997 23.4C2.79997 23.4 2.69997 23.4 2.59997 23.5Z" fill="#05552E"/>
<path d="M1.5 23.9C1.7 23.9 1.8 23.8 2 23.7L1.10001 22.8C1.00001 23 0.899988 23.3 0.799988 23.5L0.899994 23.6C1.09999 23.8 1.3 23.9 1.5 23.9Z" fill="#05552E"/>
<path d="M12.7 14C12.4 13.7 12.2 13.4 12 13.1C11.9 13 11.9 12.9001 11.8 12.8001C11.7 12.7001 11.7 12.6 11.6 12.5C11.5 12.4 11.5 12.3 11.4 12.1C11.4 12 11.3 11.8 11.3 11.7C11.3 11.6 11.2 11.4001 11.2 11.3001C11.2 11.1001 11.2 10.9001 11.2 10.8001C11.2 10.6001 11.2 10.5001 11.3 10.3001C11.3 10.1001 11.4 10.0001 11.4 9.90007L11.6 9.30009V9.19999C11.7 9.09999 11.9 8.79999 12.1 8.69999H12.2C12.3 8.69999 12.4 8.69999 12.5 8.69999C12.6 8.69999 12.8 8.80007 12.9 8.90007L13.5 9.40007C13.6 9.40007 13.6 9.50002 13.7 9.60002C13.8 9.70002 13.9 9.70009 13.9 9.80009C14.1 9.90009 14.2 10 14.4 10.1C14.5 10.2 14.7 10.3001 14.8 10.3001C14.9 10.4001 15 10.4 15.1 10.5C15.2 10.4 15.2 10.3001 15.3 10.3001C16.9 8.40009 18.6 6.60004 20.5 5.00004L20.7 4.80009C21.6 4.10009 22.4 3.40009 23.3 2.80009L23.4 2.69999C23.6 2.59999 23.8 2.50009 24 2.30009C24.1 2.30009 24.1 2.19999 24.2 2.19999C25.7 1.19999 28 -0.999983 21.7 1.60002C21.4 1.70002 21.2 1.80007 20.9 1.90007C20 2.30007 19.1 2.79999 18.3 3.19999C14.8 5.09999 11.7 7.60007 9 10.4001C8.2 11.3001 7.40001 12.1 6.70001 13.1C4.70001 15.6 3.00001 18.3 1.70001 21.1H8.5C8.7 20.6 8.99999 20 9.29999 19.5L9.10001 19.4001C8.70001 19.2001 8.5 19.0001 8.5 18.8001V18.7C8.5 18.6 8.60001 18.5 8.70001 18.5C8.80001 18.4 9.00001 18.3 9.20001 18.2C9.30001 18.2 9.29999 18.1 9.39999 18.1L9.70001 18L9.89999 17.9001C9.89999 17.9001 10.1 17.8 10.4 17.6C11.1 16.4 11.9 15.2 12.7 14Z" fill="#05552E"/>
<path d="M16.6 18.3C16.8 18.6 17 18.9 17.2 19.1C17.4 19.4 17.7 19.6 18 19.8C18 19.8 18.1 19.8 18.1 19.9C18.2 19.9 18.2 19.9 18.2 19.9C18.3 19.9 18.4 20 18.5 20C18.7 20 18.9 20 19 20C19.3 20 19.7 19.9 20 19.8C20.3 19.7 20.6 19.6 20.9 19.5C21.5 19.3 22.1 19.1 22.7 18.8C22.4 18.9 22.1 19 21.8 19C21.5 19.1 21.2 19.1 20.9 19.2C20.6 19.3 20.3 19.3 20 19.4C19.7 19.4 19.4 19.5 19.1 19.5C19 19.5 18.8 19.5 18.7 19.5H18.6H18.5C18.5 19.5 18.4 19.5 18.4 19.4C18.4 19.4 18.4 19.4 18.3 19.4C18.1 19.2 17.9 19 17.7 18.8C17.5 18.6 17.3 18.3 17.2 18C17.1 17.9 17 17.7 17 17.6C16.9 17.5 16.8 17.3 16.8 17.2C16.8 17.2 16.8 17.1 16.8 17C16.8 16.9 16.8 16.8 16.8 16.8C16.8 16.6 16.8 16.5 16.8 16.3C16.8 16.1 16.9 16 16.9 15.8C17 15.7 17 15.5 17.1 15.4C17.1 15.3 17.2 15.3 17.2 15.2C17.2 15.1 17.3 15.1 17.3 15C17.3 14.9 17.4 14.9 17.4 14.8C17.4 14.7 17.5 14.7 17.6 14.6C17.7 14.5 17.8 14.4 17.9 14.3C18 14.2 18.1 14.1 18.3 14L18.1 14.1L17.9 14.2C17.8 14.3 17.6 14.4 17.5 14.5C17.2 14.7 17 15 16.8 15.2C16.6 15.5 16.4 15.8 16.3 16.2C16.3 16.4 16.2 16.6 16.2 16.8C16.2 16.9 16.2 17 16.2 17.1C16.2 17.2 16.2 17.3 16.2 17.4C16.3 17.6 16.3 17.7 16.4 17.9C16.5 18 16.5 18.2 16.6 18.3Z" fill="#05552E"/>
<path d="M18.6 20.9C18.5 20.9 18.5 20.9 18.6 20.9L18.4 20.8C18.3 20.7 18.2 20.7 18.1 20.6C17.9 20.5 17.7 20.4 17.5 20.2C17.1 19.9 16.7 19.6 16.4 19.1C16.6 19.6 16.9 20.1 17.2 20.5C17.4 20.7 17.6 20.9 17.8 21.1C17.9 21.2 18 21.3 18.1 21.4L18.3 21.5C18.4 21.5 18.4 21.6 18.5 21.6L18.6 21.7H18.7L21.1 20.5L18.6 20.9Z" fill="#05552E"/>
<path d="M19.9 15.4C20 15.5 20 15.6 20.1 15.7C20.2 15.8 20.3 15.9 20.5 15.9C20.6 15.9 20.6 16 20.7 16C20.8 16 20.8 16 20.9 16H21H21.1C21.2 16 21.2 16 21.3 16C21.4 16 21.6 16 21.7 16H21.9C22 16 22 16 22.1 16C22.2 16 22.4 16.1 22.5 16.1C22.6 16.1 22.8 16.2 22.9 16.2C23 16.2 23.1 16.3 23.2 16.3C23.4 16.4 23.6 16.4 23.7 16.5C23.8 16.5 23.9 16.6 23.9 16.6C23.9 16.6 23.8 16.5 23.7 16.4C23.6 16.3 23.5 16.2 23.3 16.1C23.2 16 23.1 16 23 15.9C22.9 15.8 22.8 15.8 22.6 15.7C22.5 15.6 22.3 15.6 22.2 15.5C22.1 15.5 21.9 15.4 21.7 15.4C21.5 15.4 21.4 15.4 21.2 15.4H21.1H21H20.9H20.8C20.7 15.4 20.7 15.4 20.6 15.4C20.5 15.4 20.5 15.4 20.4 15.4C20.3 15.4 20.2 15.4 20.1 15.3C20 15.3 19.9 15.2 19.9 15.2C19.8 15.2 19.8 15.1 19.7 15.1C19.6 15 19.5 15 19.5 15C19.5 15 19.5 15.1 19.5 15.2C19.8 15.3 19.9 15.3 19.9 15.4Z" fill="#05552E"/>
<path d="M17.5 15.5C17.4 15.7 17.3 15.9 17.2 16.1C17.2 16.2 17.2 16.2 17.2 16.3C17.2 16.4 17.2 16.4 17.2 16.4C17.2 16.5 17.3 16.6 17.3 16.6C17.3 16.6 17.3 16.7 17.4 16.7C17.5 17 18.2 18.1 19.3 18.3C19.4 18.3 19.4 18.3 19.5 18.3C19.6 18.3 19.6 18.3 19.7 18.3C19.8 18.3 20 18.3 20.1 18.3C20.2 18.3 20.2 18.3 20.3 18.3H20.5C20.6 18.3 20.8 18.3 20.9 18.2C20.8 18.2 20.6 18.2 20.5 18.2H20.3C20.2 18.2 20.2 18.2 20.1 18.2C20 18.2 19.9 18.1 19.7 18.1C19.6 18.1 19.6 18.1 19.5 18C19.4 18 19.4 18 19.3 17.9C19.2 17.9 19.2 17.8 19.1 17.8L18.9 17.7C18.8 17.6 18.7 17.6 18.6 17.5C18.5 17.4 18.4 17.3 18.3 17.3L18.2 17.2C18.2 17.2 18.2 17.1 18.3 17.1C18.3 17 18.4 17 18.4 16.9C18.4 16.8 18.5 16.8 18.5 16.7C18.7 16.4 18.9 16.2 19.1 16C18.8 16.1 18.5 16.3 18.2 16.5C18.1 16.6 18.1 16.6 18 16.7C17.9 16.8 17.9 16.8 17.8 16.9L17.6 16.5C17.6 16.5 17.6 16.4 17.5 16.4C17.5 16.4 17.5 16.4 17.5 16.3V16.2C17.5 16.1 17.5 15.9 17.6 15.8C17.7 15.6 17.8 15.5 18 15.3C18.3 15 18.6 14.7 18.9 14.6C19.2 14.4 19.4 14.3 19.4 14.3C19.4 14.3 19.2 14.4 18.9 14.5C18.6 14.6 18.2 14.8 17.9 15.1C17.8 15.2 17.6 15.3 17.5 15.5Z" fill="#05552E"/>
<path d="M15.4 16C15.3 16.2 15.3 16.3 15.2 16.5C15.1 16.7 15.1 16.8 15 16.9C14.8 17.2 14.6 17.4 14.4 17.7C14.3 17.8 14.2 17.9 14.1 18C14 18 14 18.1 13.9 18.1C13.8 18.1 13.8 18.2 13.7 18.2L13.5 18.4L13.6 18.7C13.6 18.8 13.7 18.9 13.7 18.9C13.7 19 13.8 19 13.8 19.1C13.9 19.2 14 19.4 14.1 19.5C14.2 19.6 14.3 19.7 14.4 19.8C14.5 19.9 14.5 19.9 14.6 19.9C14.7 19.9 14.7 20 14.8 20C14.8 19.9 14.8 19.8 14.7 19.8L14.6 19.6C14.6 19.5 14.5 19.3 14.5 19.2C14.5 19.1 14.4 18.9 14.3 18.8C14.3 18.8 14.3 18.7 14.2 18.7C14.3 18.7 14.3 18.6 14.4 18.5C14.5 18.4 14.7 18.2 14.8 18.1C15 17.8 15.2 17.5 15.4 17.1C15.5 16.9 15.5 16.8 15.6 16.6C15.6 16.4 15.7 16.2 15.7 16.1C15.7 15.9 15.7 15.7 15.7 15.6C15.7 15.4 15.7 15.2 15.7 15.1C15.6 15.3 15.5 15.6 15.4 16Z" fill="#05552E"/>
<path d="M20.7 17.6C20.7 17.7 20.7 17.7 20.8 17.8C20.8 17.9 20.9 18 20.9 18C21 18.1 21 18.2 21.1 18.2C21.2 18.3 21.3 18.3 21.3 18.4L21.4 18.5L21.5 18.6C21.6 18.6 21.7 18.6 21.8 18.7C21.9 18.7 22 18.7 22.1 18.7C22.2 18.7 22.3 18.7 22.4 18.6C22.5 18.6 22.6 18.5 22.6 18.5C22.9 18.4 23 18.2 23 18.2C23 18.2 22.8 18.2 22.5 18.2C22.4 18.2 22.4 18.2 22.3 18.2H22.2H22.1C22 18.2 21.9 18.2 21.9 18.2H21.8H21.7H21.6C21.6 18.2 21.5 18.2 21.5 18.1C21.4 18.1 21.4 18 21.3 18C21.2 18 21.2 17.9 21.1 17.8C21 17.8 21 17.7 20.9 17.6C20.9 17.5 20.8 17.5 20.8 17.4L20.7 17.3C20.6 17.2 20.6 17.2 20.6 17.2V17.3C20.7 17.5 20.7 17.5 20.7 17.6Z" fill="#05552E"/>
<path d="M18.6 12.7C18.6 12.7 16.5 13 16.1 14.9C16.1 14.9 16.6 13.8 18.6 12.7Z" fill="#05552E"/>
<path d="M23 14.5001C23 14.5001 20.5 13.5001 20 14.9001C20 14.8001 20.8 14.1001 23 14.5001Z" fill="#05552E"/>
<path d="M22.1 24.1C22 24 21.9 23.9 21.8 23.9C21.7 23.8 21.6 23.7 21.5 23.6L21.4 23.5L21.3 23.4C21.3 23.4 21.3 23.4 21.2 23.3C21.1 23.1 21 22.8 21 22.6C21 22.5 21 22.3 21 22.2C21 22.1 21 22 21 21.8C21 21.3 21.1 21 21.1 21C21.1 21 21 21.3 20.8 21.7C20.8 21.8 20.7 21.9 20.7 22.1C20.7 22.2 20.7 22.4 20.7 22.5C20.7 22.8 20.7 23.2 20.9 23.5L21 23.6L21.1 23.7C21.1 23.8 21.2 23.8 21.3 23.9C21.4 24 21.5 24.1 21.7 24.2C21.8 24.3 21.9 24.3 22.1 24.4C22.2 24.5 22.3 24.5 22.4 24.5C22.8 24.7 23.1 24.7 23.1 24.7C23.1 24.7 22.9 24.5 22.5 24.3C22.3 24.3 22.2 24.2 22.1 24.1Z" fill="#05552E"/>
<path d="M23.6 20.2C23.3 20.7 23.8 21.2 23.8 21.2C24.3 21.5 26.1 21.8 26.1 21.8C23.8 21.1 23.6 20.2 23.6 20.2Z" fill="#05552E"/>
<path d="M23.7 22.1C24.3 22.2 26.2 22.1 26.2 22.1C23.8 22 23.1 21.3 23.1 21.3C22.9 21.8 23.7 22.1 23.7 22.1Z" fill="#05552E"/>
<path d="M23.3 22.6C23.4 23.1 24.1 23 24.1 23C24.6 22.9 26.2 22.3 26.2 22.3C24.2 23.1 23.3 22.6 23.3 22.6Z" fill="#05552E"/>
<path d="M7.70001 21.5C7.50001 21.5 7.40001 21.6 7.20001 21.7L8 22.6C8.1 22.4 8.19999 22.1 8.29999 21.9L8.20001 21.8C8.10001 21.6 7.90001 21.5 7.70001 21.5Z" fill="#05552E"/>
<path d="M29.6 21.5C29.7 21.1 29.9 20.4 29.7 19.6C29.7 19.4 29.6 19.2 29.5 19C29.5 18.9 29.3 18.6 29 18.1C28.9 18 28.8 17.8 28.7 17.6C28.7 17.6 28.8 17.5 28.7 17.4L28.6 17.2L28.4 16.6C28.4 16.5 27.7 14.9 26.3 13.5C26.2 13.4 26 13.2 25.9 13.1V13C26 12.5 26 12 25.7 11.8C25.6 11.7 25.5 11.6 25.2 11.8C25.2 11.8 25.1 11.9 25 11.9C24.8 12 24.6 12.1 24.4 12.1C24.2 12 24 11.9 23.9 11.8C22.9 11.3 21.7 11 20.4 10.9C19.5 10.8 18 10.9 16.3 11.5H16.2C15.8 11.4 15.4 11.3 15 11.2C14.9 11.1 14.7 11.1 14.6 11C14.4 10.9 14.1 10.8 13.9 10.6C13.7 10.5 13.5 10.4 13.4 10.3C13.3 10.2 13.2 10.2 13.1 10.1C13 9.99998 12.9 10 12.9 9.90002L12.5 9.5C12.5 9.5 12.4 9.5 12.3 9.5C12.2 9.5 12.2 9.59998 12.2 9.59998L12 10.2C12 10.3 11.9 10.4 11.9 10.5C11.9 10.6 11.9 10.7 11.9 10.7V10.8C11.9 10.9 11.9 11 11.9 11.2C11.9 11.3 11.9 11.4 12 11.5C12 11.6 12.1 11.7 12.1 11.8C12.1 11.9 12.2 12 12.2 12.1C12.3 12.3 12.4 12.4 12.5 12.6C12.7 12.8 12.8 13 13 13.2L13.1 13.3L13.7 13.9C13.7 13.9 13.7 13.9 13.8 14C13.9 14 13.9 14.1 14 14.1C14.1 14.3 14.2 14.4 14.3 14.6C14.3 14.7 14.1 15.2 12.9 16.4L12.2 17C11.4 17.7 10.6 18.3 10.2 18.4C10.1 18.4 10.1 18.5 10.1 18.6C10.1 18.7 10.1 18.7 10.2 18.8L10.6 19L11.7 19.6C11.6 19.8 11.6 20 11.6 20.2C11.5 20.6 11.5 21 11.5 21.4C11.5 21.8 11.6 22.2 11.8 22.6C11.8 22.7 11.9 22.8 11.9 22.8L12 22.9C12 23 12.1 23 12.1 23.1C12.2 23.2 12.2 23.3 12.3 23.4C12.3 23.5 12.4 23.5 12.4 23.6C12.4 23.6 12.4 23.6 12.5 23.7L13 24.2C13 24.2 13.1 24.3 13.2 24.3C13.3 24.3 13.3 24.2 13.3 24.2V24.1C13.4 24.2 13.4 24.3 13.5 24.3C13.6 24.4 13.7 24.6 13.8 24.7C14 25 14.2 25.2 14.4 25.4C14.6 25.6 14.8 25.9 15.1 26.1C15.2 26.2 15.2 26.2 15.3 26.3C15.4 26.3 15.4 26.4 15.5 26.4H15.6L15.7 26.5L15.8 26.6C15.8 26.6 16.2 26.9 16.5 27C16.6 27 16.6 27 16.6 27L16.7 26.9V26.6L16.8 26.7C16.9 26.8 17 26.9 17.1 26.9L17.4 27.1C17.7 27.3 17.9 27.4 18.1 27.5C18.4 27.7 18.6 27.8 18.9 27.9C19 27.9 19 28 19.1 28C19.1 28 19.1 28 19.2 28C19.2 28 19.3 28 19.3 28.1H19.4C19.5 28.1 19.5 28.1 19.6 28.1L20.2 28.2H20.3L20.4 28.1L20.5 27.6V27.5V27.4C20.5 27.3 20.5 27.2 20.6 27.2C20.7 27 20.7 26.9 20.8 26.8C20.8 26.8 20.8 26.7 20.9 26.7C21.3 26.3 22.5 26.1 23.3 26.8C24.1 27.4 24.7 28 25.8 28.1C25.9 28.1 26.1 28.1 26.2 28.1C26.3 28.1 26.5 28.1 26.6 28.1C26.7 28.1 26.9 28.1 27 28C27.5 27.8 28 27.4 28.4 26.8C29 25.8 29 24.8 28.8 24.2C29.3 23.9 30 22.9 29.6 21.5ZM28.7 22.9C28.6 22.9 28.4 22.8 28.3 22.8C28.3 22.8 28.5 22.9 28.6 23.1C28.5 23.4 28.3 23.6 28.2 23.7L27.5 23.3C27.6 23 27.7 22.6 27.7 22C27.9 21.9 28.1 21.6 28.2 21.4C28.2 21.4 28.3 21.3 28.4 21.3C28.4 21.3 28.5 21.3 28.5 21.4C28.5 21.5 28.6 21.6 28.6 21.7C28.5 21.8 28.3 21.8 28.2 21.8C28.2 21.8 28.4 21.8 28.7 21.9C28.7 22 28.7 22.2 28.7 22.3C28.5 22.3 28.4 22.3 28.3 22.3C28.3 22.3 28.5 22.4 28.7 22.4C28.8 22.6 28.8 22.7 28.7 22.9ZM27.6 20.5C27.3 20.5 27 20.4 26.6 20.3C26.4 20.2 26 20 25.6 19.6C25.6 19.6 25.2 19.4 25.3 19.9C25.3 20.2 25.3 20.8 26 21.3C26 21.3 26.1 21 26.3 21C26.4 21 26.5 21.1 26.7 21.3C26.9 21.6 27.1 21.8 27.3 22C27.3 22.6 27.2 22.9 27.1 23.2L26.7 23.4L26.2 23.6C25.9 23.7 25.6 23.8 25.2 23.9C25 23.9 24.9 24 24.7 24C24.6 24 24.5 24 24.5 24C23.5 24.2 22.2 22.2 22 21.7C22 21.6 21.9 21.5 21.9 21.4C21.8 21.2 21.8 21 21.9 20.8C21.9 20.6 22.1 20.5 22.2 20.3C22.3 20.1 22.5 20 22.7 19.9C22.9 19.8 23.1 19.6 23.2 19.5C23.4 19.4 23.6 19.3 23.7 19.1C23.9 18.9 24 18.7 24 18.4C24 18.1 23.9 17.9 23.8 17.7C23.8 17.7 23.8 17.6 23.7 17.5C23.6 17.3 23.4 17.1 23.1 16.9C22.8 16.8 22.5 16.7 22.4 16.7C22.3 16.7 22.3 16.7 22.2 16.7C21.4 16.6 20.9 16.6 20.3 16.2C20.3 16.2 20.7 16.6 21 16.8C21 17 21.2 18 22.4 17.9C22.9 17.9 23.1 17.8 23.2 17.7C23.3 17.8 23.3 17.9 23.4 18C23.5 18.1 23.5 18.2 23.5 18.4C23.5 18.5 23.4 18.6 23.3 18.7C23.2 18.8 23 18.9 22.8 19.1C22.4 19.3 22 19.6 21.7 20C21.5 20.2 21.4 20.4 21.3 20.7C21.2 21 21.3 21.3 21.4 21.5C22.4 24.6 24.7 24.3 24.7 24.3C24.9 24.3 25.1 24.3 25.2 24.3C25.6 24.3 25.9 24.2 26.3 24.1C26.5 24.1 26.6 24 26.8 24C26.9 24 27.1 23.9 27.2 23.9L27.9 24.2C28.1 24.6 28.3 25.4 27.7 26.4C27.6 26.6 27.5 26.7 27.4 26.8C26.7 27.5 25 27 24.3 26.4C24.2 26.3 24.2 26.3 24.1 26.2C23.6 25.5 22.8 25.2 21.9 25.3C21.8 25.2 21.6 25.1 21.5 25C21.3 24.8 21.1 24.7 20.9 24.5C20.8 24.4 20.7 24.3 20.6 24.2L20.5 24.1C20.5 24.1 20.5 24.1 20.5 24C20.5 24 20.4 23.9 20.3 23.7C20.2 23.6 20.2 23.5 20.1 23.4C20.1 23.3 20 23.3 20 23.2C20 23.1 19.9 23.1 19.9 23V22.9V22.8C19.9 22.7 19.9 22.7 19.8 22.6C19.8 22.5 19.8 22.5 19.8 22.4C19.8 22.3 19.8 22.3 19.8 22.2C19.8 22.1 19.8 22.1 19.8 22C19.8 21.9 19.8 21.9 19.8 21.9C19.8 21.8 19.8 21.8 19.8 21.8C19.8 21.8 19.8 21.8 19.7 21.9L19.6 22C19.6 22 19.5 22.1 19.5 22.2C19.5 22.3 19.5 22.3 19.4 22.4C19.4 22.5 19.4 22.6 19.4 22.6C19.4 22.7 19.4 22.8 19.4 22.9C19.4 23 19.4 23.1 19.4 23.2C19.3 23.2 19.2 23.2 19.1 23.1C18.9 23.1 18.7 23 18.5 22.9C18.4 22.9 18.3 22.8 18.2 22.8C18.1 22.8 18 22.7 17.9 22.7C17.8 22.7 17.7 22.6 17.6 22.5C17.5 22.4 17.4 22.4 17.3 22.3L17 22.1C16.9 22 16.8 22 16.8 21.9C16.7 21.8 16.6 21.8 16.6 21.7L16.4 21.5C16.2 21.4 16.1 21.2 16 21C15.9 20.8 15.7 20.7 15.6 20.5V20.4C15.6 20.4 15.6 20.3 15.5 20.2C15.5 20.1 15.4 20 15.4 19.9C15.4 19.8 15.3 19.7 15.3 19.6C15.3 19.5 15.3 19.4 15.2 19.3C15.2 19.2 15.2 19.2 15.2 19.1C15.2 19 15.2 19 15.2 18.9C15.2 18.8 15.2 18.8 15.2 18.7V18.5C15.2 18.4 15.2 18.4 15.2 18.3C15.2 18.2 15.2 18.2 15.3 18.1C15.3 18 15.3 18 15.4 17.9L15.5 17.8L15.4 17.9L15.3 18C15.3 18 15.2 18.1 15.2 18.2C15.2 18.3 15.1 18.3 15.1 18.4L15 18.6C15 18.7 15 18.7 15 18.8C15 18.9 15 18.9 15 19C15 19.1 15 19.1 15 19.2C15 19.3 15 19.4 15 19.6C15 19.7 15 19.8 15 20C15 20.1 15 20.2 15 20.4C15 20.5 15 20.5 15 20.6C15 20.7 15 20.7 15 20.8C15.1 21 15.3 21.2 15.4 21.3C15.6 21.5 15.7 21.6 15.9 21.8L16.1 22C16.2 22.1 16.3 22.1 16.4 22.2C16.5 22.3 16.6 22.3 16.7 22.4L17 22.6C17.1 22.7 17.2 22.7 17.3 22.8C17.4 22.9 17.5 22.9 17.6 23C17.7 23.1 17.8 23.1 17.9 23.2C18 23.2 18.1 23.3 18.2 23.3C18.4 23.4 18.6 23.5 18.8 23.5C18.9 23.5 19 23.5 19.1 23.6C19.2 23.6 19.2 23.6 19.3 23.6C19.3 23.7 19.4 23.8 19.4 23.8C19.5 23.9 19.5 23.9 19.6 24C19.6 24.1 19.7 24.1 19.7 24.1C19.8 24.2 19.8 24.2 19.8 24.2C19.8 24.3 19.9 24.3 19.9 24.4C20 24.5 20.1 24.6 20.2 24.7C20.4 24.9 20.6 25.1 20.8 25.2H20.7H20.6C20.5 25.2 20.3 25.2 20.1 25.1C19.9 25.1 19.7 25 19.4 24.9C19.2 24.8 18.9 24.7 18.7 24.6C18.6 24.5 18.5 24.5 18.3 24.4C18.2 24.3 18.1 24.3 18 24.2C17.9 24.1 17.8 24.1 17.7 24C17.6 23.9 17.5 23.9 17.4 23.8C17.3 23.7 17.3 23.7 17.2 23.6C17.1 23.5 17.1 23.5 17 23.4C16.9 23.3 16.9 23.3 16.9 23.3C16.9 23.3 16.9 23.4 17 23.5C17 23.6 17.1 23.6 17.1 23.7C17.2 23.8 17.2 23.8 17.3 23.9C17.4 24 17.4 24.1 17.5 24.2C17.6 24.3 17.7 24.4 17.8 24.5C17.9 24.6 18 24.7 18.1 24.8C18.2 24.9 18.3 25 18.4 25.1C18.6 25.3 18.8 25.5 19.1 25.6C19.3 25.8 19.5 25.9 19.7 26.1C19.7 26.1 19.8 26.1 19.8 26.2C19.7 26.3 19.6 26.5 19.6 26.7C19.6 26.8 19.5 26.9 19.5 26.9H19.4C19.3 26.9 19.3 26.9 19.2 26.8C19 26.7 18.7 26.6 18.5 26.5C18.3 26.4 18.1 26.2 17.8 26.1L17.5 25.9C17.4 25.8 17.3 25.8 17.2 25.7V25.6L17.1 25.5C17.1 25.4 17 25.4 17 25.3C17 25.2 16.9 25.1 16.9 25.1C16.9 25 16.8 24.9 16.8 24.8C16.7 24.6 16.7 24.4 16.6 24.3L16.5 24L16.4 23.7L15.8 21.9L15.7 23C15.5 22.9 15.3 22.8 15.2 22.7C15.1 22.6 15 22.5 14.9 22.4C14.8 22.3 14.8 22.3 14.8 22.3L14.7 22.2C14.6 22.1 14.6 22 14.5 22C14.5 21.9 14.4 21.9 14.4 21.9C14.4 21.9 14.4 21.9 14.4 22C14.4 22.1 14.5 22.2 14.5 22.3C14.5 22.4 14.6 22.4 14.6 22.5C14.6 22.6 14.7 22.6 14.7 22.7C14.7 22.8 14.8 22.8 14.8 22.9C14.8 23 14.9 23 14.9 23.1C15.1 23.4 15.3 23.6 15.5 23.8C15.5 23.8 15.5 23.8 15.6 23.9V24.1C15.6 24.2 15.6 24.3 15.6 24.4C15.6 24.6 15.6 24.9 15.6 25.1C15.6 25.2 15.6 25.2 15.6 25.3C15.4 25.1 15.2 24.9 15 24.7C14.8 24.5 14.6 24.3 14.4 24C14.3 23.9 14.2 23.8 14.1 23.6C14 23.5 13.9 23.4 13.9 23.3V23.2C13.9 23.2 13.9 23.2 13.9 23.1C13.9 23.1 13.9 23.1 13.9 23C13.9 22.9 13.9 22.8 13.9 22.7C13.9 22.6 13.9 22.5 13.9 22.3V22.1V21.9L14.1 20.6L13.3 21.4C13.3 21.3 13.2 21.3 13.2 21.2C13.1 21.1 13.1 20.9 13 20.8C13 20.7 13 20.7 12.9 20.6C12.9 20.5 12.9 20.5 12.9 20.4C12.9 20.3 12.9 20.2 12.9 20.1C12.9 20 12.9 20 12.9 20C12.9 20 12.9 20 12.9 20.1C12.9 20.2 12.9 20.3 12.9 20.4C12.9 20.5 12.9 20.5 12.9 20.6C12.9 20.7 12.9 20.7 12.9 20.8C12.9 20.9 12.9 21 12.9 21C12.9 21.1 12.9 21.2 12.9 21.2C12.9 21.3 13 21.5 13 21.6C12.9 21.7 12.8 21.9 12.7 22C12.7 21.9 12.6 21.9 12.6 21.8C12.5 21.5 12.4 21.2 12.4 20.9C12.4 20.6 12.4 20.3 12.5 20C12.5 19.8 12.6 19.7 12.6 19.5C12.6 19.4 12.6 19.3 12.7 19.3C12.7 19.2 12.8 19.1 12.8 19.1L13 18.7L12.6 18.5L12.3 18.3L12.4 18.2L13 17.7C13.4 17.3 13.8 17 14.1 16.6L14.2 16.4C14.2 16.4 14.3 16.3 14.3 16.2C14.4 16.1 14.5 16 14.6 15.9C14.8 15.7 14.9 15.4 15 15.1C15 15.1 15 15.1 15 15C15.1 14.9 15.1 14.8 15.1 14.6C15.2 14.4 15.2 14.2 15.3 14C15.3 13.9 15.3 13.8 15.3 13.7C15.3 13.6 15.3 13.5 15.3 13.4C15.3 13.3 15.3 13.2 15.3 13.2C15.3 13.1 15.3 13.1 15.3 13C15.3 12.9 15.3 12.9 15.3 12.9V13C15.3 13 15.3 13.1 15.3 13.2C15.3 13.3 15.3 13.3 15.3 13.4C15.3 13.5 15.3 13.5 15.2 13.6C15.2 13.7 15.1 13.8 15.1 13.8C15.1 13.8 15.1 13.9 15 13.9C14.9 13.6 14.8 13.3 14.6 13.1L14 12.5C13.9 12.4 13.8 12.3 13.8 12.2C13.7 12.1 13.7 12 13.6 11.9C13.6 11.5 13.8 11.3 14 11.1C14.2 11.2 14.3 11.3 14.5 11.3C14.7 11.4 15 11.5 15.2 11.6H15.3C15.4 11.6 15.4 11.7 15.5 11.7H15.6C15.9 11.8 16.1 11.8 16.4 11.8C16.9 11.8 17.5 11.8 17.8 11.8C18 11.8 18.2 11.7 18.4 11.7C18.3 11.8 18.2 11.8 18 11.9C17.9 12 17.8 12 17.6 12.1C17.5 12.2 17.4 12.3 17.3 12.3C17.2 12.4 17.1 12.4 17.1 12.5C17 12.6 17 12.6 16.9 12.7C16.8 12.8 16.8 12.9 16.8 12.9C16.8 12.9 16.9 12.9 17 12.8C17.1 12.8 17.1 12.7 17.2 12.7C17.3 12.7 17.4 12.6 17.5 12.5C17.6 12.4 17.7 12.4 17.8 12.3C17.9 12.2 18 12.2 18.2 12.1C18.3 12.1 18.5 12 18.6 12C18.7 12 18.9 11.9 19 11.9C19.3 11.8 19.6 11.8 19.8 11.7C20.1 11.7 20.3 11.6 20.5 11.6H20.6C21 11.6 21.3 11.7 21.6 11.7C22 11.9 22.4 12.1 22.8 12.4C22 12.2 20.2 12 19 12.9C19 12.9 21.3 12.3 23.5 13C23.6 13.1 23.7 13.3 23.9 13.4C23.4 13.3 22 13 20.7 13.3C20.7 13.3 23.4 13.5 24.4 14C24.4 14.1 24.5 14.1 24.5 14.2C24 14.1 23.1 13.9 23.8 14.7C24.7 15.7 24.4 15.4 24.4 15.4C24.4 15.4 23.5 14.3 24.4 14.6C24.6 14.7 24.7 14.7 24.8 14.8C25.3 15.6 25.6 16.2 25.6 16.2C25.5 15.6 25.3 15.1 25 14.7C25 14.7 25.1 14.7 25.2 14.7C25.7 14.7 25.8 15.4 25.8 15.4C25.8 15.4 25.9 15.6 25.8 15C25.7 14.6 25.2 14.5 24.9 14.4C24.9 14.3 24.8 14.2 24.8 14.1C24.9 14.1 25.4 14.2 26.1 14.4C26.1 14.4 25.7 13.9 24.6 13.6C24.5 13.4 24.4 13.3 24.3 13.2C24.8 13.3 25.5 13.7 25.5 13.7C25.1 13.3 24.3 13 24 12.8C23.8 12.6 23.6 12.3 23.4 12.2C23.6 12.3 23.8 12.4 24 12.5C25.2 13.1 26.1 14 26.7 14.8C26.4 14.7 26.2 14.8 26.2 14.8C26.6 14.8 26.8 15 26.9 15.1C27.2 15.4 27.4 15.8 27.5 16L27.4 16.1C27.3 16.2 27.2 16.4 27.2 16.5C27.2 16.6 27.1 16.7 27.1 16.7C27.1 16.7 27.2 16.6 27.3 16.6C27.4 16.5 27.5 16.5 27.6 16.4H27.7C27.7 16.4 27.7 16.4 27.8 16.4C27.9 16.7 28 16.8 28 16.8C28 16.8 27.6 16.8 27.5 17.4C27.5 17.4 27.6 17.3 27.7 17.3C27.7 17.3 27.7 17.4 27.8 17.4C28.5 18.1 29.1 19.2 29.1 19.2C29.2 19.4 29.2 19.5 29.3 19.7C28.8 20.2 28.5 20.6 27.6 20.5Z" fill="#05552E"/>
<path d="M2.09999 34.2C2.09999 36.2 2.09999 39.2 2.09999 39.7C2.09999 39.9 2.29998 39.9 2.79998 39.9C3.19998 39.9 4.1 39.9 4.2 39.8C4.2 39.4 4.2 36.8 4.2 34.7V34.3H4.49999C5.19999 34.3 5.69998 34.3 5.89998 34.2C5.99998 34.2 6.09999 34 6.09999 33.8C6.09999 33.6 6.09999 33.2 6.09999 32.9C6.09999 32.4 5.99998 32.3 5.89998 32.2C5.89998 32.2 5.69999 32.2 4.99999 32.2C4.09999 32.2 0.499976 32.3 0.299976 32.4C0.199976 32.6 0.199976 33.8 0.299976 34.1V34.2H0.399982C0.499982 34.2 0.8 34.2 1.2 34.2C1.5 34.2 1.79999 34.2 2.09999 34.2Z" fill="#05552E"/>
<path d="M6.09998 39.7C6.39998 39.9 7.89998 40 8.09998 40C8.19998 40 8.29996 40 8.29996 40C8.29996 39.9 8.39998 39.7 8.69998 38.8C8.69998 38.7 8.79996 38.6 8.79996 38.5C8.89996 38.5 8.99998 38.5 9.19998 38.5C9.49998 38.5 9.99996 38.5 10.3 38.5C10.5 38.5 10.7 38.5 10.8 38.5C10.9 38.9 11.2 39.8 11.3 40C11.3 40 11.4 40 11.5 40C11.6 40 13.2 39.9 13.4 39.8L13.5 39.7V39.6C13.4 39 12.7 37 12.2 35.5C11.9 34.8 11.7 34 11.4 33.3C11 32.3 11 32.3 10.9 32.2C10.9 32.2 10.8 32.2 10.4 32.2C10.4 32.2 8.59996 32.2 8.39996 32.3C8.29996 32.3 8.29998 32.4 7.19998 35.7C6.89998 37.3 6.29998 39.2 6.09998 39.7ZM9.89996 34.5C10.1 35.1 10.3 36 10.6 36.6C10.2 36.6 9.69996 36.6 9.29996 36.6C9.39996 36.1 9.69996 35.1 9.89996 34.5Z" fill="#05552E"/>
<path d="M21.4 40C21.6 40 22 40 22.3 39.9C22.9 39.8 23 39.7 23.1 39.6C23.1 39.4 22.8 37.1 22.6 35.9C22.1 32.4 22 32.4 22 32.3C21.9 32.3 21.5 32.3 21.3 32.3C20.2 32.3 20.1 32.4 20.1 32.4C19.9 32.6 19.1 35.5 18.8 36.8C18.4 35.3 17.7 32.7 17.5 32.4V32.3H17.4C17.3 32.3 16.9 32.3 16.6 32.3C15.6 32.3 15.5 32.4 15.5 32.5C15.4 32.9 14.3 39 14.3 39.6C14.3 39.7 14.4 39.8 15.1 39.9C15.5 39.9 15.9 40 16.1 40H16.2H16.3V39.9C16.4 39.5 16.6 38 16.8 36.7C16.8 36.5 16.9 36.2 16.9 36C17.2 37.3 17.8 39.6 17.9 39.8C17.9 39.9 18 39.9 18.8 39.9C19 39.9 19.4 39.9 19.6 39.8H19.7V39.7C19.9 39.1 20.4 37.2 20.8 35.9C21 37.4 21.2 39.5 21.3 39.8C21.1 40 21.3 40 21.4 40Z" fill="#05552E"/>
<path d="M31.1 39.8L31.2 39.6C31.1 39 30.4 37 29.9 35.5C29.6 34.8 29.4 34 29.1 33.3C28.7 32.3 28.7 32.3 28.6 32.2C28.6 32.2 28.5 32.2 28.1 32.2C28.1 32.2 26.3 32.2 26.1 32.3C26 32.3 26 32.4 24.9 35.7C24.4 37.3 23.8 39.1 23.7 39.5V39.6L23.8 39.7C24 39.8 25.5 39.9 25.7 39.9C25.8 39.9 25.9 39.9 25.9 39.9C25.9 39.8 26 39.6 26.3 38.7C26.3 38.6 26.4 38.5 26.4 38.4C26.5 38.4 26.6 38.4 26.8 38.4C27.1 38.4 27.6 38.4 27.9 38.4C28.1 38.4 28.3 38.4 28.4 38.4C28.5 38.8 28.8 39.7 28.9 39.9C28.9 39.9 29 39.9 29.1 39.9C29.3 40 30.8 39.9 31.1 39.8ZM27.5 34.5C27.7 35.1 27.9 36 28.2 36.6C27.8 36.6 27.3 36.6 26.9 36.6C27 36.1 27.3 35.1 27.5 34.5Z" fill="#05552E"/>
<path d="M38.8 32.4C38.8 32.4 38.7 32.3 37.9 32.3C37.7 32.3 37.1 32.3 36.9 32.4H36.8V32.5C36.8 32.8 36.8 33.5 36.8 34.4C36.8 35 36.8 35.7 36.8 36.3C36 34.9 34.7 32.9 34.3 32.3C34.3 32.2 34.2 32.2 33.6 32.2C32.4 32.2 32.3 32.4 32.3 32.5C32.2 33.3 32.2 39.1 32.3 39.7C32.3 39.8 32.4 39.9 33.2 39.9C33.6 39.9 34.1 39.9 34.3 39.8H34.4V39.7C34.4 39.2 34.4 38.4 34.4 37.5C34.4 37 34.4 36.5 34.4 36C34.8 36.6 35.3 37.3 35.7 38C36.3 39 36.8 39.7 36.9 39.8C36.9 39.8 37 39.9 37.5 39.9C38.8 39.9 38.8 39.7 38.9 39.6C39 39.2 39 37.4 39 35.8C38.9 32.5 38.8 32.5 38.8 32.4Z" fill="#05552E"/>
<path d="M3.60001 44.9C2.50001 44.7 2.5 44.5 2.5 44.3C2.5 43.9 2.99999 43.9 3.29999 43.9C3.79999 43.9 4.4 44 5 44.3H5.10001C5.40001 44.3 5.79999 43.1 5.79999 43.1C5.89999 42.8 5.89999 42.6 5.79999 42.5C5.39999 42.2 4.40001 41.8 3.20001 41.8C1.50001 41.8 0.299988 42.8 0.299988 44.2C0.299988 45.6 1.00001 46.3 2.60001 46.6C3.80001 46.8 3.79999 47.1 3.79999 47.3C3.79999 47.6 3.49999 47.8 2.89999 47.8C2.09999 47.8 1.40001 47.4 1.10001 47.2C1.10001 47.2 1 47.2 1 47.1C0.9 47.1 0.899988 47.2 0.799988 47.2C0.599988 47.4 0.200012 48.5 0.200012 48.8V48.9C0.600012 49.2 1.69999 49.7 2.89999 49.7C4.99999 49.7 6 48.5 6 47.3C6.1 46.5 5.80001 45.4 3.60001 44.9Z" fill="#05552E"/>
<path d="M12.8 45.3C12.5 44.6 12.3 43.7 12 43.1C11.6 42.1 11.6 42.1 11.5 42C11.5 42 11.4 42 11 42C11 42 9.19997 42 8.99997 42.1C8.89997 42.1 8.89996 42.2 7.79996 45.5C7.29996 47.1 6.69998 49 6.59998 49.4V49.5L6.69998 49.6C6.89998 49.7 8.39998 49.8 8.59998 49.8C8.69998 49.8 8.79996 49.8 8.79996 49.8C8.79996 49.7 8.89998 49.5 9.19998 48.6C9.19998 48.5 9.29996 48.4 9.29996 48.3C9.39996 48.3 9.49998 48.3 9.69998 48.3C9.99998 48.3 10.5 48.3 10.8 48.3C11 48.3 11.2 48.3 11.3 48.3C11.4 48.7 11.7 49.6 11.8 49.8C11.8 49.8 11.9 49.8 12 49.8C12.1 49.8 13.7 49.7 14 49.6L14.1 49.5V49.4C13.9 48.8 13.3 46.8 12.8 45.3ZM10.3 44.3C10.5 44.9 10.7 45.8 11 46.4C10.6 46.4 9.99998 46.4 9.69998 46.4C9.89998 45.9 10.2 44.9 10.3 44.3Z" fill="#05552E"/>
<path d="M20.4 42.1C20.3 42 20.3 42 18.3 42C17 42 15.5 42 15.2 42.1H15.1V42.2C15 43 15.2 49.2 15.2 49.6V49.7C15.2 49.7 15.3 49.8 15.9 49.8C17.2 49.8 17.3 49.7 17.3 49.6C17.3 49.3 17.3 48.3 17.3 47.4C17.7 47.4 18.1 47.4 18.4 47.4C18.8 47.4 19.1 47.4 19.3 47.4C19.7 47.4 19.8 47.4 19.8 47.2C19.8 47.2 19.8 47.2 19.8 47.1C19.9 45.7 19.8 45.7 19.7 45.6C19.6 45.5 18.8 45.5 17.4 45.5C17.3 45.5 17.2 45.5 17.2 45.5V44C17.7 44 18.6 44 19.3 44C19.9 44 20.2 44 20.3 44H20.4V43.9C20.5 43.5 20.6 42.4 20.4 42.1Z" fill="#05552E"/>
<path d="M26.8 45.3C26.5 44.6 26.3 43.7 26 43.1C25.6 42.1 25.6 42.1 25.5 42C25.5 42 25.4 42 25 42C25 42 23.2 42 23 42.1C22.9 42.1 22.9 42.2 21.8 45.5C21.3 47.1 20.7 49 20.6 49.4V49.5L20.7 49.6C20.9 49.7 22.4 49.8 22.6 49.8C22.7 49.8 22.8 49.8 22.8 49.8C22.8 49.7 22.9 49.5 23.2 48.6C23.2 48.5 23.3 48.4 23.3 48.3C23.4 48.3 23.5 48.3 23.7 48.3C24 48.3 24.5 48.3 24.8 48.3C25 48.3 25.2 48.3 25.3 48.3C25.4 48.7 25.7 49.6 25.8 49.8C25.8 49.8 25.9 49.8 26 49.8C26.1 49.8 27.7 49.7 28 49.6L28.1 49.5V49.4C28 48.8 27.3 46.8 26.8 45.3ZM24.4 44.3C24.6 44.9 24.8 45.8 25.1 46.4C24.7 46.4 24.1 46.4 23.8 46.4C23.9 45.9 24.2 44.9 24.4 44.3Z" fill="#05552E"/>
<path d="M33.9 46.8C34.7 46.4 35.1 45.7 35.1 44.7C35.1 42.9 34 42 31.8 42C31 42 29.8 42.1 29.3 42.1H29.2V42.2C29.1 42.9 29.1 49 29.1 49.5C29.1 49.7 29.3 49.7 29.7 49.7C29.9 49.7 31 49.7 31.1 49.6H31.2V49.5C31.2 49.3 31.2 48.4 31.2 47.7C31.2 47.5 31.2 47.4 31.2 47.2C31.3 47.2 31.5 47.2 31.6 47.2C31.6 47.2 31.6 47.2 31.7 47.2C32.3 47.9 32.8 48.8 33.2 49.3C33.5 49.8 33.5 49.8 33.6 49.8C34 49.8 35.2 49.3 35.4 49.1C35.5 49 35.5 49 34.9 48.1C34.7 47.9 34.4 47.4 33.9 46.8ZM32 45.5C31.8 45.5 31.6 45.5 31.4 45.5C31.4 45.4 31.4 45.3 31.4 45.2C31.4 44.8 31.4 44.3 31.4 44C31.6 44 31.8 44 31.9 44C32.8 44 33 44.4 33 44.8C33 45.4 32.5 45.5 32 45.5Z" fill="#05552E"/>
<path d="M38.8 42.2C38.7 42.1 38.7 42.1 37.8 42.1C37.5 42.1 37 42.1 36.8 42.2H36.7V42.3C36.6 43.3 36.6 48.9 36.7 49.7C36.7 49.8 36.7 49.9 37.8 49.9C38.7 49.9 38.8 49.8 38.8 49.7C38.9 48.9 38.9 42.7 38.8 42.2Z" fill="#05552E"/>
<path d="M14.3 61.1C14.2 61.4 13.9 62.3 13.8 62.7C14 62.7 14.6 62.7 14.8 62.7C14.6 62.3 14.4 61.4 14.3 61.1Z" fill="#8BC140"/>
<path d="M38.5 58.1L33.7 58L29 58.3L24.3 58.4L19.6 57.9L14.9 58.1L10.2 58.4H5.5L0.600006 57.9C0.500006 57.9 0.399994 57.9 0.399994 58C0.299994 58.1 0.299988 58.2 0.299988 58.3V62.3L0.399994 66.3C0.399994 66.4 0.4 66.5 0.5 66.6C0.6 66.7 0.699988 66.7 0.799988 66.7L5.70001 66.5H10.4L15.1 66.7L19.8 66.3L24.5 66.7L29.2 66.4L33.9 66.3L38.6 66.6C38.7 66.6 38.8 66.6 38.9 66.5C39 66.4 39 66.3 39 66.2L39.1 62.4V58.5C38.8 58.3 38.7 58.1 38.5 58.1ZM9.5 64.6C8.9 64.6 8.49999 64.4 8.29999 64.2C8.29999 64.1 8.60001 63.4 8.70001 63.3C8.80001 63.4 8.99999 63.5 9.29999 63.5C9.59999 63.5 9.79999 63.4 9.79999 62.9C9.79999 62.1 9.79999 60.8 9.79999 60.1C9.99999 60 10.9 60 10.9 60C10.9 60.2 11 61.9 11 62.9C11 64.1 10.4 64.6 9.5 64.6ZM15.3 64.6C15.3 64.5 15 63.9 15 63.7C14.9 63.7 13.9 63.7 13.7 63.7C13.6 63.9 13.4 64.6 13.4 64.6C13.4 64.6 12.3 64.6 12.2 64.5C12.3 64.1 13.5 60.3 13.6 60.2C13.7 60.2 14.9 60.1 15 60.2C15 60.2 16.3 63.8 16.4 64.5C16.3 64.5 15.3 64.6 15.3 64.6ZM20.4 61.1C20.3 61.1 19.8 61.1 19.3 61.1C19.3 62.3 19.3 64.2 19.3 64.4C19.3 64.4 18.2 64.5 18.2 64.4C18.2 64.1 18.2 62.1 18.2 61C17.8 61 17.3 61 17.1 61C17 60.8 17 60.1 17.1 60.1C17.2 60.1 20.1 60 20.4 60C20.5 60.2 20.5 61.1 20.4 61.1ZM22.9 64.5C22.9 64.6 21.8 64.6 21.8 64.5C21.8 64.1 21.8 60.8 21.8 60.2C22 60.1 22.9 60.2 22.9 60.2C22.9 60.4 22.9 64.1 22.9 64.5ZM28.4 64.6C28.4 64.4 28.2 62.7 28.1 61.9C27.9 62.6 27.5 64.1 27.4 64.6C27.3 64.6 26.5 64.6 26.5 64.6C26.4 64.4 26 62.6 25.8 61.9C25.7 62.6 25.5 64.2 25.4 64.6C25.2 64.6 24.4 64.5 24.4 64.5C24.4 64.2 25.1 60.5 25.1 60.3C25.1 60.2 26 60.2 26.1 60.2C26.2 60.4 26.7 62.2 26.9 63.1C27.1 62.1 27.6 60.3 27.7 60.2C27.8 60.1 28.6 60.1 28.8 60.2C28.8 60.2 29.5 64.3 29.5 64.5C29.4 64.5 28.4 64.6 28.4 64.6Z" fill="#8BC140"/>
<path d="M1.60004 51.9C1.60004 51.9 1.60004 55.8 1.60004 56.1C1.60004 56.2 0.400024 56.2 0.400024 56.1C0.400024 55.7 0.400024 52.5 0.400024 51.9C0.600024 51.9 1.50004 51.9 1.60004 51.9Z" fill="#05552E"/>
<path d="M4.9 56.1C4.8 55.9 4.30002 54.9 3.70002 54.1C3.70002 54.9 3.70002 55.7 3.70002 56.1C3.50002 56.2 2.50001 56.2 2.50001 56.1C2.50001 55.9 2.40001 52.3 2.50001 52C2.50001 51.9 3.60002 51.9 3.60002 51.9C3.70002 52 4.4 53.2 4.8 54.1C4.8 53.2 4.8 52.2 4.8 52C5 51.9 6.00001 52 6.00001 52C6.00001 52 6.00001 55.8 6.00001 56.1H4.9Z" fill="#05552E"/>
<path d="M7.00003 51.9C7.10003 51.9 7.90002 51.9 8.30002 51.9C9.60002 51.9 10.4 52.8 10.4 54C10.4 55.3 9.80004 56.2 8.20004 56.2C7.70004 56.2 7.00002 56.2 6.90002 56.1C7.00002 55.7 7.00003 52.5 7.00003 51.9ZM8.40002 53.1C8.30002 53.1 8.20004 53.1 8.20004 53.1C8.20004 53.7 8.20004 54.4 8.20004 54.9C8.30004 54.9 8.40003 54.9 8.50003 54.9C8.80003 54.9 9.30002 54.8 9.30002 54C9.20002 53.5 8.90002 53.1 8.40002 53.1Z" fill="#05552E"/>
<path d="M15 54.1C15 55.2 14.4 56.2 13 56.2C11.8 56.2 11 55.3 11 53.9C11 52.8 11.7 51.8 13 51.8C14.2 51.8 15 52.7 15 54.1ZM13 53C12.6 53 12.3 53.4 12.3 54C12.3 54.6 12.6 55 13 55C13.5 55 13.7 54.6 13.7 54C13.7 53.3 13.4 53 13 53Z" fill="#05552E"/>
<path d="M18.1001 56.1C18.0001 55.9 17.5001 54.9 16.9001 54.1C16.9001 54.9 16.9001 55.7 16.9001 56.1C16.7001 56.2 15.7001 56.2 15.7001 56.1C15.7001 55.9 15.6001 52.3 15.7001 52C15.7001 51.9 16.8001 51.9 16.8001 51.9C16.9001 52 17.6001 53.2 18.0001 54.1C18.0001 53.2 18.0001 52.2 18.0001 52C18.2001 51.9 19.2001 52 19.2001 52C19.2001 52 19.2001 55.8 19.2001 56.1C19.2001 56.1 18.2001 56.1 18.1001 56.1Z" fill="#05552E"/>
<path d="M23.0001 56.1C23.1001 56.1 20.8001 56.1 20.2001 56.1C20.2001 55.7 20.2 52.8 20.3 51.9C20.9 51.9 23.1001 51.9 23.1001 51.9C23.1001 52 23.1001 52.8 23.1001 53C22.9001 53 22.0001 53 21.5001 53V53.4C22.1001 53.4 22.7001 53.4 22.7001 53.4C22.8001 53.5 22.7001 54.4 22.7001 54.5C22.7001 54.5 22.1001 54.5 21.5001 54.5V55C22.0001 55 22.9001 55 23.1001 55C23.1001 55.2 23.0001 56 23.0001 56.1Z" fill="#05552E"/>
<path d="M23.7 55.7C23.7 55.6 24 54.6 24 54.6C24.1 54.6 24.6 55 25 55C25.3 55 25.4 54.9 25.4 54.8C25.4 54.7 25.3 54.6 24.8 54.5C24.1 54.4 23.6 54 23.6 53.1C23.6 52.4 24.1 51.8 25.1 51.8C25.7 51.8 26.3 52 26.5 52.1C26.6 52.2 26.2 53.1 26.1 53.1C26.1 53.1 25.6 52.9 25.1 52.9C24.9 52.9 24.8 53 24.8 53.1C24.8 53.2 24.9 53.3 25.4 53.4C26.1 53.5 26.7 53.8 26.7 54.7C26.7 55.3 26.3 56 25.1 56C24.5 56.1 23.9 55.9 23.7 55.7Z" fill="#05552E"/>
<path d="M28.7 51.9C28.7 51.9 28.7 55.8 28.7 56.1C28.7 56.2 27.5 56.2 27.5 56.1C27.5 55.7 27.5 52.5 27.5 51.9C27.7 51.9 28.7 51.9 28.7 51.9Z" fill="#05552E"/>
<path d="M31.8 55.3001C31.7 55.3001 31 55.3001 30.8 55.3001C30.8 55.4001 30.6001 56.1 30.6001 56.1C30.6001 56.1 29.4 56 29.3 56C29.4 55.6 30.4001 51.9 30.5001 51.9C30.6001 51.9 31.9001 51.8 32.1001 51.9C32.1001 51.9 33.2 55.3 33.3 56.1C33.1 56.2 32.0001 56.2 32.0001 56.2C32.1001 56.1 31.9 55.5001 31.8 55.3001ZM31.4001 53.1C31.3001 53.4 31.1001 54.2 31.1001 54.4C31.2001 54.4 31.6 54.4 31.8 54.4C31.6 54.1 31.5001 53.4 31.4001 53.1Z" fill="#05552E"/>
<path d="M36.1 55.4V52.7C36.1 52.3 36.5 52.4 36.5 52C36.5 52 36.5 51.9 36.4 51.9H34.6C34.5 51.9 34.5 52 34.5 52C34.5 52.4 34.9 52.3 34.9 52.7V55.4C34.9 55.8 34.5 55.7 34.5 56.1C34.5 56.1 34.5 56.2 34.6 56.2H36.4C36.5 56.2 36.5 56.1 36.5 56.1C36.6 55.7 36.1 55.8 36.1 55.4Z" fill="#05552E"/>
<path d="M38.5 55.4V52.7C38.5 52.3 38.9 52.4 38.9 52C38.9 52 38.9 51.9 38.8 51.9H37C36.9 51.9 36.9 52 36.9 52C36.9 52.4 37.3 52.3 37.3 52.7V55.4C37.3 55.8 36.9 55.7 36.9 56.1C36.9 56.1 36.9 56.2 37 56.2H38.8C38.9 56.2 38.9 56.1 38.9 56.1C38.9 55.7 38.5 55.8 38.5 55.4Z" fill="#05552E"/>
</svg>
