<svg xmlns="http://www.w3.org/2000/svg" xmlns:xlink="http://www.w3.org/1999/xlink" viewBox="0 0 2944.9 832.37"><defs><style>.cls-1{fill:none;}.cls-2{clip-path:url(#clip-path);}.cls-3{fill:#ebffdb;}.cls-4{fill:#dcf3cc;}</style><clipPath id="clip-path"><rect class="cls-1" width="2943.52" height="832.37"/></clipPath></defs><g id="_6" data-name="6"><g class="cls-2"><rect class="cls-3" width="2943.52" height="832.37"/><path class="cls-4" d="M577.14,801.46c2.45-29.69,4.08-66.43,4.32-63.5-.19-2.38-8.2-98.83-10.3-110.92-5-28.92-2.59-57.59-.52-86.56,2-28.2,4.93-58-5.35-85.62-4.92-13.22-11.55-26.13-16.52-39.35-6.3-16.74-6.36-35.41-6.68-42.59-1.25-27.61-7.35-54.87-14.87-82-7.43-26.86-17.55-53.73-17.45-81.21.11-23.62,7.65-46.82,21.33-68.57,7.49-11.9,43.75-54.54,49.7-65.5A89.77,89.77,0,0,0,590,49.56c-1.5-1.35-3.28-30.39-5.27-42.92-.35-2.21-.65-4.43-.93-6.64h-78c-4.44,14.22-10.18,31.87-10.66,33.24h.66c-2.9,6.94-6.26,13.8-9.56,20.69-7.71,16.06-12.45,32.6-18.9,48.9S453.82,135.57,447.07,152c-13,31.51-10.38,93-7.84,102.53,5.51,20.76,15.06,40.87,19.53,61.75,1.25,5.77,7,23.95,8.88,27.24,18.63,32.76,30.05,66.57,39.9,100.9,10.12,35.33,22.18,70.49,29.31,106.18,3.48,17.48,5.51,35.11,4.58,52.75-.95,18-5.82,35.73-6.78,53.73-1.85,34.76,4.07,69.41,7.91,104,2,17.66,3.37,35.39,3,53.12-.06,3-.23,10.19-.6,19.25h35.14c-1.87-14-3.41-26.62-3-32m-64.89,12.92a51.25,51.25,0,0,0-.88-12.7c-5.28-30.24-25.85-58.3-36.5-87.72-5.39-14.83-8.68-30.35-6.61-45.62,2.19-16.15,9.87-31.81,14.83-47.65,4.83-15.4,7-31.09,3.82-46.77-3.41-16.62-11.39-32.61-17.34-48.86C464,509.85,443.9,415.65,443.22,408.28c-3.66-14.19-24.59-75.37-32.38-91.52-8-16.57-28.91-84.64-30.4-102-6.33-73.17,42.87-159.49,50.24-181.49h.44c.14-.73,6.59-19.72,10.57-33.24H321.24c-6.89,35.2-24.56,125-31,137.7-14.73,29.1-36.2,56.53-61.41,82.19C178,271.65,113.7,317.42,49.63,362Q25,379.07,0,396v78.93c32.68-17.77,66.36-34.71,101.46-50.32,29.14-13,61-23.35,87.65-38.74,11-6.35,20-13.58,25.13-22.56,5-8.79,7.55-18.08,12.23-26.93a223.31,223.31,0,0,1,34.16-47.49c10.85-11.59,24-23.45,41.41-31,2.66-3.33,13.93-4.79,15.15-5.08,6.69-1.64,35.91,1.32,24.8,31.73-5.86,16-11,19.85-8.4,38.65,2.22,15.81,9.91,30.17,19.91,44.29a147.3,147.3,0,0,1,22,46.8c4.13,15,6.79,30.26,11.53,45.23a288.39,288.39,0,0,0,21.72,50.15c9,16.57,19,32.87,28.1,49.39,9,16.36,18.44,33.22,21.51,50.62,5.6,31.85-14.72,62.34-13.65,94,.51,15.35,8.46,30.5,13.5,45.39a453.89,453.89,0,0,1,16.17,59.76,222.74,222.74,0,0,1,3.52,24.6H507c1.35-4.47,2.47-8.12,3.07-10.2.53-1.78,2.21-9.36,2.22-8.86M760.94,678C761,662.21,771.4,586.6,779,564.6c6.63-19.2,16.37-38.55,30.9-55.77C825,490.91,901,425.59,918.06,408.11c8.38-8.58,90.36-70.09,117.8-92.53,31.79-26,60.89-53.9,95.79-78.12,23.14-16.05,47.09-32.14,68.78-49.37,9-9.27,17.89-18.63,26.43-28.11,21-23.33,104-136.51,114.15-148.31,1.89-2.86,4.52-7,7.49-11.67h-71.14c-1.88,2.71-3.73,5.41-5.61,8.11C1259.35,26,1247.73,44.17,1235,62a385.26,385.26,0,0,1-39.6,46.43c-29.41,29.69-63.87,57-98.35,84-13.94,11-28.22,21.7-42.09,32.7-14.22,11.29-28.47,22.59-43.75,33.27-18.14,12.69-176.63,153-227.71,195-8.28,6.81-26.41-.52-22.09-8.57,24-44.72,242.43-230.09,255.48-238.84,15.84-10.63,30.87-21.82,45.15-33.4,28-22.66,53-46.85,77-71.41,15.69-16,48.86-59.91,81.79-101.21h-70.33c-5.6,8.76-11.72,18.39-15.78,25C1092.22,94.06,945.11,205,945.11,205c-20.45,13.17-84,50.65-92.49,58.14a932.09,932.09,0,0,0-85.57,86.38c-7.47,8.58-28.61,2.82-24.14-6.78,19.19-41.3,49.79-81.75,88-116.75,15.91-14.6,37.4-25.71,58.32-36.94,19.86-10.65,71.95-52.61,79.73-58.93,33.72-27.36,64.74-56.33,89.23-87.82,5.35-6.87,16.37-23.28,30-42.25h-73.61C966,45.06,880.89,80.3,869.3,87c-30.62,17.52-59.16,37.62-86.72,57.23-25.07,17.84-47.09,37.49-63.37,59.45-16.75,22.57-26.78,47.61-29.66,72.7a818.68,818.68,0,0,0-5.29,89.84,6.63,6.63,0,0,1-.54,2.6c3.07,22.68,6.13,45.35,9,68,4.83,38.85,8.74,77.78,9.8,116.76,1,37.26,1.49,74.36,5.21,111.55,5.62,56.31,15.12,112.41,26.4,168.34h43.54c-2-9.36-3-18.78-4-28.25-4.24-39.87-12.73-123.92-12.71-127.23M674.54,521c-2.63-40.77-7.75-81.44-13.25-122.08-9.31-69.05-27.15-140.82-5.46-209.61C666,157.15,686.89,130.26,720.15,106,737.33,93.44,756,81.83,773.76,69.66c17.29-11.83,32.12-24.71,52.8-34.1C856.37,22,893.05,15.58,919.93,0H737.27C726.44,14.23,714.57,28.2,709,43.6c-18.14,50.4-92.14,81.73-92.14,81.73-8.5,16.75-17.31,33.47-24.51,50.48s-12.69,34.26-14.49,51.89a295.29,295.29,0,0,0,.11,59.08c2,19.79,7,39.3,9.5,59,2.42,19.48,1,39,1.18,58.57.09,10.19.28,20.54,2.25,30.66,1.7,8.73,5,17.35,8.39,25.85,5.11,12.71,52.56,236.93,35.77,372.56h72.53c-13.2-65.44-24-131.14-28.86-197.09-2.81-38.43-1.75-76.89-4.21-115.32m422.8,211.9c34.81-45.54,144.72-224.62,172.3-268,53.61-84.4,98.09-171,141.11-258,10.53-21.3,21.15-42.58,31-64s19.77-43.12,32.2-64.09c12.16-20.53,27.41-39.94,43-59.38C1522.13,13,1527.24,6.52,1532.12,0h-68.21c-20.58,36.91-43.82,78.66-53.7,94.83q-50,82-108.13,161.74c-21.52,29.59-43.84,59.07-67.76,87.94-39.24,57.77-268.45,338.37-277.85,354.67-.22.38-.76.64-1.15,1a30.46,30.46,0,0,1-10.21,12.58c-.7,1.06-20.66,29.78-27.32,38.2-10.41,27-16.79,54.76-22,82.53H1037.9c3.94-9.29,7.65-17.66,10.31-23.11,13.06-26.65,30-52.43,49.13-77.4m-686.12,5.62C405,727.29,398.8,716.45,395,704.67s-6.33-23.93-8.69-36c-2.28-11.57-4.38-23.16-7.55-34.66-3.38-12.26-8.14-24.36-12.09-36.55-8.22-25.37-15.59-50.87-25.07-76.05-4.43-11.73-9.08-23.37-13-35.18-4.26-12.7-7.28-25.68-13.94-37.92-7-12.79-22.14-34.11-28-42.26-12.39-17.23-41.1-17.12-63.14-4.2-33.48,24.07-16.14,29.35-1.27,57.85a11.5,11.5,0,0,1,1.21,1.55c13.65,21.67,28.88,42.9,43.74,64.21,27.06,38.82,53,78.33,68.09,120.07,4.94,13.63,6.18,16.87,9.5,30.69.43,1.63,24.57,92.47,41.17,135.46a222.39,222.39,0,0,1,5.89,21.75H426.3c.49-6.21.9-12.42,1.12-18.65.95-26-2.6-51.67-16.2-76.24m455.22,53.3c-2.38-40.1-7.23-81.11,5-120.74C882.19,636,945.11,578,945.11,578,966,558.68,988,539.93,1010,521.2c25.55-21.77,51.32-43.45,75.87-65.72,23.8-21.56,44.27-44.69,66.31-67.05,19.88-20.18,158.22-190,210.36-291.94,6.54-12.78,36.32-56.43,64.07-96.49h-46.85c-12.78,19.29-27.67,41.75-28.65,43q-14.52,18.42-29,36.87c-2.49,4.54-9,14.92-9.89,15.46-9.36,13.67-28.07,45.84-29.31,48.42C1253,205.5,1144.22,297.07,1111.63,321.61c-15.86,11.95-32,23.75-47.83,35.69-16.42,12.37-32.49,24.86-49.84,36.64-22.68,15.42-92.82,58.31-105.9,67.85-25,18.21-43,38.52-58.74,60.76-16.89,23.79-30.62,48.52-42.74,73.55-6.29,13-14.62,70.4-13.93,86,1.53,35.12,3.66,70.31,5.91,105.41a300.31,300.31,0,0,0,6.08,45.88h63.18c.3-13.82-.55-27.69-1.38-41.59M2261.35,71.67c10.33,8.07,16.62,53.85,23.56,63.73,28.09,40,62.89,74.53,110,105.22,49.73,32.41,111.42,51.2,145.63,48.64,13.89-1,49.82,26.36,60.71,31.62,23.47,11.31,48,21.55,72.22,32.16,12.74,5.58,25.4,11.27,37.74,17.24,11.44,5.56,22.32,11.59,33.7,17.19,14.71,7.24,30.07,14.14,44.53,21.72,0,0,51.37,26.51,69.25,40a304.41,304.41,0,0,1,84.85,98.4V468.08c-13.61-8.79-27.58-17.36-40.75-26.42-26.3-18.11-43.6-40.42-69.54-58.58-12.48-8.72-25.62-17.05-36.76-26.57-2.1-1.79-77-37.87-97.24-59.4-17.72-18.88-49.68-71-53.65-76.07C2523,64,2528.34,52.83,2529.37,9.14A39,39,0,0,1,2530.76,0h-29.24a51,51,0,0,0-1.43,6.08c-2.46,16.13-9,32.11-13.37,48-3.21,11.63-10.37,41.58,35.43,94.66,2.46,2.85,16.62,16.76,21.27,20.81,9.42,8.2,18.9,16.39,27.71,24.89,9.11,8.81,16.46,18.24,25,27.27,20.31,21.4,45.4,41.05,60.68,64.42,5.1,7.8-5.5,16-17.76,11.83a128.51,128.51,0,0,1-50.62-32c-21.54-21.85-32.71-47.33-53.63-69.38-9.12-9.62-18-19.31-26.38-29.14-19.88-17.59-38.24-35.72-47.83-57.08-11.13-24.81-2.25-50.15,5.13-74.86,3.55-11.85,7-23.55,9-35.51h-47.1c-6.51,11.35-11.12,23.91-16.13,33.34-4.49,8.44-8.81,16.91-12.67,25.49-5.69,12.58-12.13,25.67-12,39,.15,20.81.14,29,15.51,43.85a138.42,138.42,0,0,0,12.67,11c21.3,16.51,46.37,30.51,66.33,47.84,22.23,19.28,38.81,40.92,55.67,62.39,6.67,8.48-10,17.84-20.39,10.47-13.26-9.37-27.64-18.07-40-28-110.42-88.55-112.06-114-114.28-123.74-2.81-12.37-2-24.64.71-37,2.52-11.71,7.62-22.7,12.62-34a263.51,263.51,0,0,1,16.1-30.95c3-4.9,8.93-11.72,15.66-19.67h-52.31a34.06,34.06,0,0,0-4,4.4c-12.28,16.77-18.27,35.65-26,53.54-3.93,9.1-7.77,18.34-9.73,27.73,0,.07-.67,9.2-.57,11l.92,2.54c.77.46.48.34,0,.11,0,0,7.25,7.15,3.61,11.3-3.24,3.7-12.16,5.92-17.75,3.1-13.61-6.82-14-18.24-12.1-28.63,3.72-19.87,13.79-39.16,22-58.37,2.35-5.52,8.92-15.27,17.26-26.68H2266.9c-9.19,13-17.2,25.38-17.2,25.42-.14.89-13.93,26.23,11.65,46.25M634.91,74.52l.66.22c28.64-5.1,40.6-40,55-74.74H618.68c-9.91,64.15-7.4,70.68,16.23,74.52M45.38,2.46c.44-.82.91-1.63,1.35-2.46H0V66.69c1.46-1.63,2.91-3.26,4.26-4.92C12,52.28,40.25,12,45.38,2.46M146.26,813.9c-23.27-10.55-73.72-24.36-83.5-26.2C42.27,783.84,21.05,782,0,779.83v31.59C11.18,813,22.28,815,33.22,817.3c13.37,2.81,32.93,8.89,53.5,16.14H191.28c-2.58-1.21-5.15-2.43-7.71-3.61-10.3-4.74-35.13-14.93-37.31-15.93m-.13-623c23.92-27.4,47.75-55.22,65.09-84.79C220.54,90.24,243.54,39.27,257.79,0H156.19c-11.5,15.78-22,28.62-26.21,33.24C118.4,45.83,93.33,75.58,86.38,84.66c-25.65,33.51-55.44,65.51-86.38,97V318.46c23.45-15.84,46.82-31.67,67.66-49.18,29.28-24.63,54.79-51.23,78.47-78.36M321.22,767.38c-16.64-28-25.72-91.87-26.21-94-2.74-11.91-6.53-23.49-13.78-34.51C207.59,526.93,141,469.4,120,469.11c-21.69-.31-91.14,39.05-115.09,56.64C-31.4,552.39,162,570,194.62,605c8.64,5.22,57.53,47.6,67.84,59.8,11.12,13.15,18,28.42,8.05,42.81-2.82,4.07-12.49,5.63-17.94,3.13-24.44-11.16-65.92-65.39-115.5-83.49s-41.52-14.71-75.74-23.39c-37-9.41-47.83-20.62-55.11-25.53-1.49-1-3.7-2.31-6.22-3.69V641a307.06,307.06,0,0,1,29.57,8.66c38.5,13.27,71.54,32.26,106.74,48.87,18.37,8.66,35.81,19.55,69.61,29.41,14.22,3.06,53.88,13.48,57.07,20,6.48,13.21,10.53,27.24,18.15,39.89,4.38,7.24-10.24,13.63-19.25,9.87-36-15-71.13-30.95-106.53-46.59-30.27-13.36-60.58-27.76-93.18-38.49A407.72,407.72,0,0,0,0,697.84v37.7a402.37,402.37,0,0,1,55.88,19.22c10.71,4.7,22.24,8.13,32.41,11.94,18.74,7,36.65,15,54.49,23l.34.16c3.42,1.16,25.87,9.47,33.53,12.62,4.27,1,8.58,1.92,12.85,2.88,27.59,6.12,55.46,11.77,82.94,18.1,10.44,2.41,21.07,5.49,29.92,10h56.12c-2.48-8.47-7.07-16.84-11.42-24.56-7.91-14-17.55-27.58-25.84-41.5M2932.63,210.65c-18.44-12-36.71-24.43-60-31.67C2792,153.91,2764.45,83.1,2762.75,80.2c-.93-1.54-13.76-49.14-8.55-80.2h-24.15c-2.43,5.12-4.83,10.22-7,15.31a136.78,136.78,0,0,0-10,61.09c1.2,19.94,8,39.36,18.23,58.08,5.94,11,13.46,21.38,20.77,31.94,1.33,1.91,2.61,3.86,3.9,5.81,3,2.71,14.22,20.94,17.94,25,4.33,4.76,19.86,16.18,21.8,18.27,14.18,15.17,39.87,24.9,62.07,34.12,22.64,9.4,77.89,26.45,83.91,29.86l1.83,1V218c-3.6-2.47-7.2-4.92-10.89-7.31m-103,66.44c-20.77-10.19-42.73-19.7-60-32.59-20.67-11.92-36.51-27.49-49.55-43.38C2670.65,140.77,2637.68,69,2652.24,0H2621.5a40.32,40.32,0,0,0,2.08,12.82,122.5,122.5,0,0,1,5.53,50.38c-.55,6-10.89,11.46-19.53,7.47-11.9-5.49-17.74-14.54-20.61-23.74-4.73-15.13-4.22-31.45,0-46.93h-22.27a95.75,95.75,0,0,0-1.23,28.68c.68,6.51,5.25,22,5.9,23.29A312.25,312.25,0,0,0,2595,92.54c16.7,24,37,46.78,53.94,70.72,8.58,12.14,16.39,24.6,22.46,37.41,4.44,9.36,30.67,47.09,41.47,54.74,11.64,8.25,21.29,15.17,32.42,23.75,11.86,9.12,136.38,103.64,198.28,145.93V360c-16.43-11.69-32.41-23.68-47.68-36.05-21-17.06-39.2-33.66-66.16-46.9m60.94-165.22c-12.36-8.48-20.72-19.35-27.61-30.3a61.19,61.19,0,0,1-6.19-7.89c-15-23.21-15.44-48.48-16-73.68h-58c-3.42,26.32,2.28,58.14,26.4,108.37,13.84,27.26,55,45.11,88.58,61,15.94,7.58,31.27,15.34,45.69,24V148.28c-6.42-3.45-13-6.69-18.92-10-13.81-7.63-26-16.08-34-26.45M2922,0h-46.47c3.31,17.37,6.29,33.13,7.72,40.45.73,3.8,18.44,41.67,59.91,38.39l.32,0V41.47c-13-8.83-21.26-20.78-21.46-37.38,0-1.36,0-2.72,0-4.09M1352.73,730.61c12-18.35,46.68-95,51.58-114.79,2.29-9.3,17-44.77,22-53.26,9.33-16.11,24.22-51.52,24.69-53.14,3-10.33,6-20.95,9.47-31.56,1.27-7.25,2.45-14.51,3.91-21.73,3.87-18.86,10.38-37,23.94-53.9,13.39-16.68,38.24-28.83,48.75-46.33,12.11-20.12,28.65-87.06,47-121.32,4.09-7.62,2.57-21.09,1.18-29.18-.94-5.48-3.53-13.52-11.9-13.85-16.9-.66-45,44.19-47.8,51.09-5.12,10.34-12,41.14-12.87,42.34,0,0-4.87,10.29-7,14.47-7.43,14.63-32.78,50.74-35.19,54.82-2.57,4.37-8.59,7.39-16,6-4.72-.85-9.78-2.07-11.77-6.7a18.49,18.49,0,0,0,.39-5.32c-1.28-6.84.53-27.54,14.68-48.61,3.16-4.68,15.69-22.39,17.75-27,12.34-27.72,37.62-52.28,58.07-77.5,10.51-13,19.93-26.16,26.42-40.27s11-28.7,17.09-42.95c6-14.09,14.54-27.59,22.74-41.16s16.73-27.22,26-40.57c5.79-8.37,15.47-19.74,24.83-30.2h-72.43c-5.75,10.38-11.58,21.5-14.77,29.21-9.25,22.49-25.9,43.24-41,64.19-30,41.67-57.15,84-82.84,127-12.67,21.18-24.29,42.71-32.48,64.88-4.42,12-21,96.13-21.55,98.51a241.29,241.29,0,0,1-14.5,40.35c-10.68,23.49-24.06,46.43-39.08,68.91-14.43,33-71.75,148.76-86.42,171.39.64,1.45-23.1,39.39-36.65,56.22-22.87,28.44-48.49,56.15-66.92,86.07a220.16,220.16,0,0,0-14.18,26.73h134.49c17-17.32,36.36-34.16,51-51.77,13.89-16.69,27.91-33.55,39.34-51.06m1590.79-620v-1.85a6.37,6.37,0,0,0,0,1.85m-1506,693.5c6.07-7.63,29.24-36.32,35.41-42.75,2.09-2.16,4.29-4.27,6.56-6.37.17-.22,78.62-81.38,83.41-86.88,21.35-24.55,50.35-45.57,72.08-70,42.62-47.86,60.76-103.51,75.45-157.67,6.31-23.29,9.33-74.87,9.85-77.31,1.1-5.17,2.35-10.33,3.68-15.49,1.85-20.78-.48-42.1,7.66-62.16,12.46-30.71,4.77-72.37,4.62-72.68l-.09-.21c-6.27-1.46-10.39-5.78-8.5-10.43,9-22.17,23.72-43,37-64.17,5.18-8.26,22.83-45.8,23.86-47.66,11.36-20.24,49.16-58.63,50.3-60.14,5-6.58,15.64-17.87,27.81-30.25h-57.92c-10.49,11.44-35.11,37.47-47.54,51.9-8.58,10-13.67,20.69-20.28,31.23-6.83,10.87-14.5,21.52-21,32.49-12.21,20.64-16.16,42.09-18.19,64.11-2.07,22.5-2.13,45.07-4.27,67.57a346.92,346.92,0,0,1-14.09,68.64c-6.75,21.91-16.31,43.24-24.6,64.89-8.38,21.88-14.27,44.12-20.94,66.25-5.39,17.9-12.32,35.48-18.81,53.21-5.27,14.39-10.5,28.88-18.59,42.71-7.46,12.73-17.45,27-36.25,33.94-7.32,2.69-16.79.32-19.07-5.16-8.75-21.07,4.24-43.76,17.5-62.7,6.54-9.34,14.35-18.26,20.34-27.78A174.39,174.39,0,0,0,1598.55,449c8.31-22.36,13.55-45.3,19.77-67.95,6.52-23.86,12.87-47.75,18.63-71.7A1105.15,1105.15,0,0,0,1661,168.69c6.78-62.61,45.31-120.37,103.18-168.69H1695c-21,25.06-46.06,56-57,72.8-9.88,15.3-19.91,30.79-28.32,46.47-8.32,15.51-13.91,31.54-10.6,48.07,3,15.21,11.16,29.72,13.24,45,2.31,17.05-5.28,34.41-11.5,50.79-13.22,34.78-31.82,68.95-40.61,104.41-4.32,17.41-6.5,35.39-13.55,52.43-5.74,13.91-13.74,27.31-21.08,40.87-7.68,14.18-14.41,28.73-17.22,43.73-3,16-4.83,32-8.32,48a301.24,301.24,0,0,1-14.58,48.46c-6.47,16.1-16.15,31.3-24.25,47-17.28,33.64-29.07,68.38-44.4,102.42a515.31,515.31,0,0,1-46.86,82.9h41.79A322.73,322.73,0,0,1,1435.23,807c.76-.94,1.5-1.89,2.24-2.83M2918.78,656.46c-11.6-6-77.08-33.46-99.23-37.49-9.79-1.77-18.87,4.35-16.27,10.84,10.8,26.94,66.15,38.11,102.65,41.38,11,1,24.8-8.56,12.85-14.73m-36.32-55.91c1.86,1,27.65,16.19,61.06,36.06v86.83c-4.86-1.81-8.61-3.12-10.83-3.78-48-14.16-214.8-48.09-243.61-58.11-3.22-1.12-88.85-33.82-105.66-40.37-14-7.42-45.35-25.09-47.37-26.23l-.15-.08c-25.36-14.27-50.76-28.52-77.6-41.55-27.64-13.42-56.9-25.25-85.84-37.38-31.73-13.31-115.95-53.42-115.95-53.42-5.61,0-11.12,2.68-12.51,6.35-7.93,20.73,26,34.7,48.16,43.94,25.34,10.57,73.55,38.3,75,39.44,36.07,27.14,79.23,49.8,123.3,70.89s90,40.53,135,60.77c27.68,12.44,56.48,23.32,85.48,34.35,3,1.15,78.41,20.18,78.41,20.18,11.72,3,24.19,4.88,36.7,6.58q8.93,1.54,18.12,2.5l.68.05c33,6.86,65.34,15.39,98.6,21.76v42.1q-4.79.12-9.59.31c-47,1.86-89.54,2.39-143-8.68-4.45-.92-27.83-6.79-36.2-9.27-19.56-5.81-113.63-37.51-150.39-56.37-65.27-33.49-127.7-69.36-192.91-102.88-36.82-18.93-136-52.66-171.86-107.38-7.75-11.85-11.92-24.59-17.3-37-5.25-12.17-10.81-24.1-19.4-35.44-8.4-11.11-19-21.34-30.4-31.12A623.39,623.39,0,0,0,2094.13,366c-91.9-56.58-109.28-129.71-109.64-139.47-.47-12.37,4.39-59.75,4.81-67.63.2-3.61,14.8-61.62,31.28-85.19,2-2.88,16.28-28.4,26.23-37.59,12-11.07,24.42-21.74,34.93-33.53.76-.86,1.53-1.73,2.27-2.6h60l-.26.41c-6.6,11-15.54,20.46-27.45,29.26-12.27,9.06-25.46,17.67-35.46,28-11.21,11.55-18.09,25.56-23.4,38.78-11,27.59-13.06,56.57-9.83,84.95,2.9,25.49,8.75,51,22.73,74.95s34.42,45.1,55.62,66.24c20.48,20.39,42.12,40.41,66.6,58.78a432.29,432.29,0,0,0,79.82,47.28,430,430,0,0,0,49.22,19.12c19.54,6.16,39.81,11.28,59.88,16.66,19.12,5.14,38,10.74,55.62,18,18.06,7.45,35.71,15.45,53,23.69q12.45,5.93,24.55,12.16c17.7,13.61,91.48,57.91,105.85,66.15s29.62,16.89,46.91,22.3c15.28,4.76,61.45,15.84,66.16,15.2,10.85,2.69,48.62-12.41,19-33.95-22.61-16.47-56.63-23.29-84.45-35.54-27.62-12.18-52.86-26.49-78.18-40.66-25.68-14.38-51.62-28.7-79.86-40.82-30.21-13-62.6-24-94.45-35-22.69-7.88-74.4-26.18-77.36-27.67-69-34.8-131.6-91.24-151-105.78-11.49-8.62-23.41-17-35-25.57s-11.66-8.63-31.91-27.27c-13-12-46.74-93.44-44.48-127.71.93-14.05,8.6-27.58,16.31-40.67,6.68-11.31,16.35-20.43,28.58-29.33,11.93-8.68,24.55-17.12,33.93-27.18,7.21-7.69,12.19-16.2,17-24.72h62c-2,3.06-4,6.16-5.77,9.27-5,8.7-8.88,17.66-10.59,26.93-1.65,8.91,1.07,16.76,6.65,24.92s16.19,14.5,15.72,22.72c-.91,15.88-1.62,19.12-.89,20.63a98.15,98.15,0,0,0,0,15.9c2.48,24.75,19.33,47.8,38.36,68.71A323.71,323.71,0,0,0,2348,247.64c13.57,8.27,81.17,34,99.62,40.1,10.53,3.47,21,7.23,31.12,11.29,18.74,6.29,52.87,26.53,65,33.6,26.36,15.38,55.85,27.53,84.7,40.55,2,1.56,115.62,32.31,137.74,65,18.79,27.75-65.69,21.45-107.92-1.67-7.55-4.14-149.24-80.1-217.69-107.78-22.32-9-100.92-37-111.06-40.56-14.8-7.8-29.21-15.95-42.67-24.68a259.23,259.23,0,0,1-49.07-40.93c-16-17.19-28.73-35.5-41-54-12.13-18.28-27.87-37.57-26.93-58.1.68-15.37,22.9-45.95,25.9-50.28s-6.43-13.55-13.77-12.64c-36.44,4.46-36.9,51.26-42.06,72.35-5.58,22.72-1.89,45.79,7.68,67.82a219.53,219.53,0,0,0,40.48,61.59c15.69,16.8,36.2,31.43,58.43,44.43,22.65,13.25,47.15,25.05,71.7,36.67q41.31,19.5,82.76,38.84,45.42,21.17,91.18,42c30.05,13.61,60,27.49,91.36,39.77,33.77,13.23,69.59,24.7,101.35,40.08,31,15,59.66,32.07,92.51,45.31,2.47,1,42.43,24.24,60.09,35.72,14.71,9.56,28.74,20,45,28.44M1940.9,555c-21.5-2.17-45.05,11.73-53.38,15.51-16.09,7.31-31.72,15.31-48.38,22-29,11.71-60.56,20.54-89.72,32.15a398,398,0,0,0-43.18,20c-12.32,6.71-22.85,14.33-33.34,22.25-22.84,17.26-50.22,38.59-41.2,63.38,1.21,3.29,7.08,6.82,12.52,6.35,21.2-1.8,38.72-12.61,54.83-21.14,18.19-9.63,38.83-18,58.66-27.07,22.73-10.36,45-21.18,67.81-31.44,21-9.41,41.86-18.84,61.74-29.25,3.58-1.89,7.11-3.83,10.6-5.79,25.39-9.39,46.53-6.31,68.43-.72,18.5,4.7,35.74,10.81,51,19.18,15.86,8.69,30.28,18.47,44.48,28.33s29.24,19.56,43.48,29.55a264.45,264.45,0,0,1,44.14,39c4,4.43,14.85,6.12,20.39,1.75,3-2.38,5.42-4.75,5.38-8,0-1.77-.93-3-1.8-4.65l-.24-.66c-.17-.77-.14-.46,0,0a5.2,5.2,0,0,0-1.62-2.67c.53-3.92-20.48-24.46-24.31-28.31-4.17-4.14-8.13-8.43-12.69-12.37-15.22-13.15-34.87-23.66-49.88-36.87-14.62-12.86-23.89-28.26-40.17-40.26-13-9.61-28.26-18.36-43.32-26.49-17.83-9.61-37.15-21.39-60.24-23.73m-197.78-3.18c3.75,6.05,12.78,8.74,22.2,7.54,18-2.27,33.5-14.93,42.14-24.85,16.79-19.3,14-40.71,13.88-62.1,0-2.54-3.25-24.92-3.36-34.18.34-4.37.64-8.74,1-13.06,1.63-19.58,2.63-39.19,4.59-58.74.08-.79.17-1.59.26-2.38a240.39,240.39,0,0,1,5.71-24.12c4.39-14.91,10.28-29.87,19.54-43.79,1.28-1.94,33.33-49.33,45.56-72.11.62-1.16,8.26-14,11.71-19.46,10.18-16,17.71-34.47,34.75-48,4.5-3.57,5.27-8.72,0-12.22-4.62-3.09-13.82-3.6-18.35,0-17.47,13.86-26.45,31-36.46,47.61-10.37,17.13-25,32.79-36.89,49.46a374.44,374.44,0,0,0-33,56.08l-1.08,2.4c-7.07,10.28-18.53,57.2-19.92,65.6-.23,1.4-3,51.2-3.4,74.64-1.07,14.48-2.92,29.15-10.88,42.5-5,8.34-12.56,15.94-19.25,23.68-7.25,8.36-13.41,17.06-17.52,26.34-2.67,6-4.95,13.12-1.21,19.16M2702,833.44H2549.82c-6.1-2.59-10.71-4.56-13-5.68-6.54-3.18-32.23-17.2-40-21.18-19.22-9.86-134.91-59.86-166.5-71.47-18.73-11.7-38.16-22.91-56.59-34.83-30.73-19.89-55.42-42.82-78.8-66.65-24.33-24.82-46.83-50.42-70.45-75.54s-49.51-48.75-73.67-73.41c-13.91-14.2-28.2-28.17-44-41.46-11.41-9.57-29-57.51-36-66.11-8-9.8-30.37-1.08-22.41,8.72,10.22,12.58.54,28.46-2.22,41.55-3,14.35-.2,28.55,10.81,41.22,9.12,10.5,22.52,18.95,35.31,27.45,15.83,10.5,28.59,22.22,42.33,33.94,32.47,27.66,68,54.44,94.89,84.77,25.56,28.9,43.33,60.94,73,88.2,7.14,6.56,22.66,22.48,24.4,24.49,11.8,13.65,31,24.25,49.54,33.7,7.58,3.86,42.31,23.24,53.83,27.68,17.33,6.67,38.15,12,55.25,16.84a264.18,264.18,0,0,1,57.39,23.49c1.93,1.08,4.62,2.55,7.74,4.28H2248.46c-28.05-13.16-113.25-50.54-128.48-59a746,746,0,0,0-167.74-68.14C1833,674.06,1818,718.75,1818.77,728.88c1,13.89,48.49,32.09,102,33.94,12.37.42,72.67,13.8,89.33,19.89,39,14.23,73.94,32.6,109,50.73H1877.61c-31.31-11.46-63.19-22.73-98.59-26.35-46.68-4.77-94.78.19-137.2,14-12.19,4-26.31,8-40.6,12.38H1450c.61-.38,1.25-.74,1.9-1.07,11-5.64,38.58-37.8,46.86-45.84,9.12-7.36,18.47-14.61,27.71-21.91,2.4-.2,42.86-31.55,54.94-48.23,3.13-4.3,12.9-18.31,14.83-21,14.76-20.29,55.76-82.66,55.87-82.86,45.42-48.29,65.93-105,81.35-160.4,8.67-31.19,12.49-62.88,15.65-94.49.32-3.16.62-6.34.9-9.5,10.68-39.9,26.16-79.82,22.58-120.49-1.13-12.82-11.37-38.41-11.4-38.78-1.06-13.27,14.69-24.72,22.52-36.93,11.25-17.59,21.74-35.4,33-53,13.06-13.83,63-72.89,74.76-84.27.37-.36,6.1-6.26,14.28-14.73h44.58c-4.33,5.3-8,9.65-10.31,12.29-6.92,7.81-13.92,15.63-20,23.79-7.07,9.56-13.14,19.48-19.35,29.29-23.68,37.49-46.06,75.27-77.2,110.39-7.13,8-14.47,16.05-20.3,24.56-5.37,7.82-10.37,16.33-9.71,25.08.47,6,11,11.47,19.53,7.48,21.88-10.21,36.17-26.41,48.1-42,12.51-16.29,22.65-33.33,33.15-50.21.51-.84,1-1.66,1.56-2.5l.25-.42c.09-.13.23-.34.43-.66,1.78-2.81,3.39-5.67,5-8.53q5.23-9.13,10.8-18.17,9.83-16,20.84-31.59c15.67-22.3,33.31-43.85,51.8-65.16,3.31-3.82,7.44-8.66,11.72-13.68H2039c-3.82,5.19-7.49,10-10.4,13.67-13.91,17.26-32.12,32.7-44.33,50.61-8.38,12.33-19,41.2-18.89,42.68-.53,2.39-2.34,57.48-3.18,61.59-7.74,37.38-43.85,69-58.3,105.07-8.44,21.11-10.75,43-13.91,64.63a222.28,222.28,0,0,1-6.31,30.84c-.44,1.51-16.21,70.44-16.16,72.26-.76,5-1.38,10.1-1.83,15.18a51.63,51.63,0,0,1-1.66,8.9c-4.06,7.6-11.36,14.58-16.81,21.88-6.25,8.4-10.72,17.38-9.39,26.87.53,3.83,3.65,7.26,9.53,8.33,5.09.94,12.38-.51,14.65-4,10.25-15.56,20.78-30.85,26.31-47.33,4.06-7.64,5-15.21,5-23.42,0-1.24,1.09-12.93,2-17.52,2-10.27,18.81-66.89,21.35-74.32,6.74-19.69,7.1-40.45,9.83-60.51.23-1.67,26.89-67.72,32.2-67,11.22,1.42,5.24,59.6,10.2,76.55,4.13,14.11,13.07,27.18,25.5,38.88,11.69,11,25.43,20.89,38.42,31.18,14,11.11,26.88,22.88,40.64,34.15,29.27,24,58,48,81,75,10.86,12.72,17.31,26.73,24.35,40.5,7.41,14.5,19.39,27.67,27.77,42,29.22,49.92,144.39,97.17,153.38,101,38.2,20.87,216.17,116.22,270.42,140,22.65,9.95,55.68,11.57,71.66,25.86m206.85-264.08s-153.17-117.37-78.7-100.7c45,10.07,51.92,52.95,77.33,79.76,4.07,5.87,11.22,18,1.37,20.94"/></g></g></svg>