<svg id="_7" data-name="7" xmlns="http://www.w3.org/2000/svg" viewBox="0 0 70.45 70.45"><defs><style>.cls-1{fill:#fff;}.cls-2{fill:#04542e;}</style></defs><path class="cls-1" d="M70.45,35.22A35.23,35.23,0,1,0,29.72,70V45.42H20.79V35.22h8.93V27.47c0-8.82,5.25-13.71,13.3-13.71a53.49,53.49,0,0,1,7.9.7v8.66H46.48c-4.38,0-5.74,2.72-5.74,5.5v6.6h9.77L49,45.42H40.74V70A35.24,35.24,0,0,0,70.45,35.22Z"/><path class="cls-2" d="M48.93,45.42l1.56-10.2H40.73v-6.6c0-2.78,1.37-5.5,5.73-5.5H50.9V14.46a53.49,53.49,0,0,0-7.9-.7c-8,0-13.3,4.89-13.3,13.71v7.75H20.77v10.2H29.7V70a35.73,35.73,0,0,0,5.51.42,37,37,0,0,0,5.5-.42V45.42Z"/></svg>