<svg id="_7" data-name="7" xmlns="http://www.w3.org/2000/svg" viewBox="0 0 70.45 70.45"><defs><style>.cls-1{fill:#fff;}.cls-2{fill:#04542e;}</style></defs><circle class="cls-1" cx="35.22" cy="35.22" r="35.22"/><path class="cls-2" d="M43.7,54.9h-17a11.22,11.22,0,0,1-11.2-11.2v-17a11.22,11.22,0,0,1,11.2-11.2h17a11.22,11.22,0,0,1,11.2,11.2v17A11.22,11.22,0,0,1,43.7,54.9Zm-17-36a7.83,7.83,0,0,0-7.82,7.82v17a7.83,7.83,0,0,0,7.82,7.82h17a7.83,7.83,0,0,0,7.82-7.82v-17a7.83,7.83,0,0,0-7.82-7.82Z"/><path class="cls-2" d="M35.22,45.3A10.08,10.08,0,1,1,45.3,35.22,10.09,10.09,0,0,1,35.22,45.3Zm0-16.78a6.71,6.71,0,1,0,6.71,6.7A6.71,6.71,0,0,0,35.22,28.52Z"/><path class="cls-2" d="M48.15,24.58a2.42,2.42,0,1,1-2.42-2.43A2.42,2.42,0,0,1,48.15,24.58Z"/></svg>