<svg xmlns="http://www.w3.org/2000/svg" viewBox="0 0 171.69 172.69"><defs><style>.cls-1{opacity:0.6;}.cls-2{fill:#e5aa77;}.cls-3{fill:#f3ead6;}.cls-4{fill:#04542e;}</style></defs><g id="_2" data-name="2"><g class="cls-1"><circle class="cls-2" cx="91.35" cy="92.35" r="80.35"/><path class="cls-2" d="M92.5,92a1.5,1.5,0,0,1-1.06-.43l-24-24a1.5,1.5,0,0,1,0-2.12L81.89,51A1.49,1.49,0,0,1,84,51l24,24a1.51,1.51,0,0,1,0,2.13L93.56,91.52A1.5,1.5,0,0,1,92.5,92ZM70.66,66.49,92.5,88.33,104.8,76,83,54.19Z"/><path class="cls-2" d="M95.55,98.39a5.43,5.43,0,0,1-3.84-9.27l13.88-13.87a5.42,5.42,0,0,1,7.67,7.67L99.39,96.8A5.41,5.41,0,0,1,95.55,98.39Zm13.88-21.73a2.42,2.42,0,0,0-1.72.71L93.83,91.24a2.44,2.44,0,0,0,0,3.44,2.51,2.51,0,0,0,3.44,0L111.14,80.8a2.43,2.43,0,0,0-1.71-4.14Z"/><path class="cls-2" d="M66,68.86a5.45,5.45,0,0,1-3.84-1.58h0a5.43,5.43,0,0,1,0-7.68L76.06,45.72a5.43,5.43,0,1,1,7.68,7.68L69.87,67.28A5.45,5.45,0,0,1,66,68.86ZM79.9,47.14a2.37,2.37,0,0,0-1.71.71L64.31,61.72a2.41,2.41,0,0,0-.71,1.72,2.37,2.37,0,0,0,.71,1.71h0a2.51,2.51,0,0,0,3.44,0L81.62,51.28a2.42,2.42,0,0,0,0-3.43A2.38,2.38,0,0,0,79.9,47.14Z"/><path class="cls-2" d="M50.79,116.8a1.53,1.53,0,0,1-1.06-.44l-7.58-7.58a1.51,1.51,0,0,1-.44-1.1,1.49,1.49,0,0,1,.49-1.07L76.89,74.75a1.51,1.51,0,0,1,2.07,0L84.2,80a1.5,1.5,0,0,1,0,2.09L51.88,116.33a1.43,1.43,0,0,1-1.06.47Zm-5.41-9,5.38,5.39L81,81.12l-3.18-3.19Z"/><path class="cls-2" d="M136.05,137.4H62.34a1.5,1.5,0,0,1-1.5-1.5v-5.37a1.5,1.5,0,0,1,1.5-1.5h7.47v-3.87a1.5,1.5,0,0,1,1.5-1.5H75.5v-3.88a1.5,1.5,0,0,1,1.5-1.5h44.39a1.5,1.5,0,0,1,1.5,1.5v3.88h4.19a1.5,1.5,0,0,1,1.5,1.5V129h7.47a1.5,1.5,0,0,1,1.5,1.5v5.37A1.5,1.5,0,0,1,136.05,137.4Zm-72.21-3h70.71V132h-7.47a1.5,1.5,0,0,1-1.5-1.5v-3.87h-4.19a1.5,1.5,0,0,1-1.5-1.5v-3.88H78.5v3.88a1.5,1.5,0,0,1-1.5,1.5H72.81v3.87a1.5,1.5,0,0,1-1.5,1.5H63.84Z"/></g><circle class="cls-3" cx="80.35" cy="80.35" r="80.35"/><path class="cls-4" d="M81.5,80a1.5,1.5,0,0,1-1.06-.43l-24-24a1.5,1.5,0,0,1,0-2.12L70.89,39A1.49,1.49,0,0,1,73,39L97,63a1.51,1.51,0,0,1,0,2.13L82.56,79.52A1.5,1.5,0,0,1,81.5,80ZM59.66,54.49,81.5,76.33,93.8,64,72,42.19Z"/><path class="cls-4" d="M84.55,86.39a5.43,5.43,0,0,1-3.84-9.27L94.59,63.25a5.42,5.42,0,0,1,7.67,7.67L88.39,84.8A5.41,5.41,0,0,1,84.55,86.39ZM98.43,64.66a2.42,2.42,0,0,0-1.72.71L82.83,79.24a2.44,2.44,0,0,0,0,3.44,2.51,2.51,0,0,0,3.44,0L100.14,68.8a2.43,2.43,0,0,0-1.71-4.14Z"/><path class="cls-4" d="M55,56.86a5.45,5.45,0,0,1-3.84-1.58h0a5.43,5.43,0,0,1,0-7.68L65.06,33.72a5.43,5.43,0,1,1,7.68,7.68L58.87,55.28A5.45,5.45,0,0,1,55,56.86ZM68.9,35.14a2.37,2.37,0,0,0-1.71.71L53.31,49.72a2.41,2.41,0,0,0-.71,1.72,2.37,2.37,0,0,0,.71,1.71h0a2.51,2.51,0,0,0,3.44,0L70.62,39.28a2.42,2.42,0,0,0,0-3.43A2.38,2.38,0,0,0,68.9,35.14Z"/><path class="cls-4" d="M39.79,104.8a1.53,1.53,0,0,1-1.06-.44l-7.58-7.58a1.51,1.51,0,0,1-.44-1.1,1.49,1.49,0,0,1,.49-1.07L65.89,62.75a1.51,1.51,0,0,1,2.07,0L73.2,68a1.5,1.5,0,0,1,0,2.09L40.88,104.33a1.43,1.43,0,0,1-1.06.47Zm-5.41-9,5.38,5.39L70,69.12l-3.18-3.19Z"/><path class="cls-4" d="M125.05,125.4H51.34a1.5,1.5,0,0,1-1.5-1.5v-5.37a1.5,1.5,0,0,1,1.5-1.5h7.47v-3.87a1.5,1.5,0,0,1,1.5-1.5H64.5v-3.88a1.5,1.5,0,0,1,1.5-1.5h44.39a1.5,1.5,0,0,1,1.5,1.5v3.88h4.19a1.5,1.5,0,0,1,1.5,1.5V117h7.47a1.5,1.5,0,0,1,1.5,1.5v5.37A1.5,1.5,0,0,1,125.05,125.4Zm-72.21-3h70.71V120h-7.47a1.5,1.5,0,0,1-1.5-1.5v-3.87h-4.19a1.5,1.5,0,0,1-1.5-1.5v-3.88H67.5v3.88a1.5,1.5,0,0,1-1.5,1.5H61.81v3.87a1.5,1.5,0,0,1-1.5,1.5H52.84Z"/></g></svg>