<svg xmlns="http://www.w3.org/2000/svg" viewBox="0 0 171.69 172.69"><defs><style>.cls-1{opacity:0.6;}.cls-2{fill:#e5aa77;}.cls-3{fill:#f3ead6;}.cls-4{fill:#04542e;}</style></defs><g id="_2" data-name="2"><g class="cls-1"><circle class="cls-2" cx="91.35" cy="92.35" r="80.35"/><path class="cls-2" d="M61.24,133.7a1.47,1.47,0,0,1-.54-.1,1.5,1.5,0,0,1-1-1.32l-.55-10.58-10.58-.55a1.53,1.53,0,0,1-1.33-1,1.5,1.5,0,0,1,.34-1.6L70.5,95.71a1.51,1.51,0,0,1,2.12,0l12.56,12.56a1.52,1.52,0,0,1,0,2.12L62.3,133.26A1.47,1.47,0,0,1,61.24,133.7Zm-9.11-15.37,8.57.44a1.51,1.51,0,0,1,1.42,1.42l.44,8.57L82,109.33,71.56,98.9Z"/><path class="cls-2" d="M121.45,133.7a1.49,1.49,0,0,1-1.06-.44L97.52,110.39a1.5,1.5,0,0,1,0-2.12l12.55-12.56a1.51,1.51,0,0,1,2.12,0l22.88,22.88a1.5,1.5,0,0,1,.34,1.6,1.53,1.53,0,0,1-1.33,1l-10.58.55L123,132.28a1.5,1.5,0,0,1-1,1.32A1.47,1.47,0,0,1,121.45,133.7ZM100.7,109.33l19.43,19.43.45-8.57a1.5,1.5,0,0,1,1.42-1.42l8.56-.44L111.13,98.9Z"/><path class="cls-2" d="M113.2,66.61l4.82.81a2.7,2.7,0,0,1,2.13,3.51l-1.53,4.65a2.7,2.7,0,0,0,.93,3l3.9,3a2.7,2.7,0,0,1,.25,4.1L120.19,89a2.72,2.72,0,0,0-.57,3.1l2.08,4.42a2.71,2.71,0,0,1-1.69,3.75l-4.69,1.38a2.71,2.71,0,0,0-1.94,2.48l-.22,4.88a2.7,2.7,0,0,1-3.23,2.54l-4.8-1a2.7,2.7,0,0,0-2.87,1.29l-2.46,4.23a2.71,2.71,0,0,1-4,.74L92,113.81a2.72,2.72,0,0,0-3.15-.19l-4.14,2.6A2.7,2.7,0,0,1,80.75,115l-1.94-4.49a2.7,2.7,0,0,0-2.69-1.63l-4.88.37a2.71,2.71,0,0,1-2.91-2.91l.38-4.87a2.72,2.72,0,0,0-1.63-2.7l-4.49-1.93a2.7,2.7,0,0,1-1.22-3.93L64,88.77a2.69,2.69,0,0,0-.19-3.14l-3.07-3.8a2.7,2.7,0,0,1,.74-4l4.22-2.47A2.7,2.7,0,0,0,67,72.45l-1-4.79a2.72,2.72,0,0,1,2.54-3.24l4.88-.21a2.72,2.72,0,0,0,2.48-1.95l1.38-4.69A2.71,2.71,0,0,1,81,55.89L85.45,58a2.69,2.69,0,0,0,3.09-.56l3.4-3.52a2.72,2.72,0,0,1,4.11.25L99,58a2.72,2.72,0,0,0,3,.94l4.64-1.53a2.71,2.71,0,0,1,3.52,2.12l.8,4.83A2.71,2.71,0,0,0,113.2,66.61Z"/><path class="cls-2" d="M97.46,119a4.17,4.17,0,0,1-2.65-.94L91,115a1.2,1.2,0,0,0-1.4-.09l-4.14,2.6a4.21,4.21,0,0,1-6.1-1.9l-1.94-4.49a1.21,1.21,0,0,0-1.2-.73l-4.87.38a4.27,4.27,0,0,1-3.3-1.22,4.19,4.19,0,0,1-1.22-3.3l.37-4.88a1.21,1.21,0,0,0-.72-1.2L62,98.22a4.23,4.23,0,0,1-2.36-2.62,4.19,4.19,0,0,1,.46-3.48L62.69,88a1.22,1.22,0,0,0-.08-1.41l-3.08-3.8a4.2,4.2,0,0,1,1.15-6.28L64.91,74a1.22,1.22,0,0,0,.57-1.28l-1-4.8a4.22,4.22,0,0,1,3.94-5l4.89-.21a1.21,1.21,0,0,0,1.1-.87l1.38-4.69a4.21,4.21,0,0,1,5.83-2.62l4.42,2.08a1.22,1.22,0,0,0,1.39-.26l3.4-3.51a4.2,4.2,0,0,1,6.37.39l3,3.89a1.19,1.19,0,0,0,1.34.42L106.18,56a4.22,4.22,0,0,1,3.5.4,4.17,4.17,0,0,1,2,2.91l.8,4.82a1.21,1.21,0,0,0,1,1h0l4.83.81a4.19,4.19,0,0,1,3.3,5.46L120,76.05a1.21,1.21,0,0,0,.42,1.34l3.9,3a4.2,4.2,0,0,1,.38,6.38l-3.51,3.4A1.2,1.2,0,0,0,121,91.5l2.08,4.43a4.22,4.22,0,0,1-2.63,5.82l-4.69,1.38a1.21,1.21,0,0,0-.86,1.11l-.22,4.88a4.2,4.2,0,0,1-5,3.94l-4.79-1a1.2,1.2,0,0,0-1.28.58l-2.46,4.22a4.18,4.18,0,0,1-2.88,2A3.91,3.91,0,0,1,97.46,119Zm-7.21-7.28a4.17,4.17,0,0,1,2.65.94l3.8,3.07a1.2,1.2,0,0,0,1.8-.33l2.47-4.22a4.22,4.22,0,0,1,4.46-2l4.79,1a1.24,1.24,0,0,0,1-.23,1.22,1.22,0,0,0,.46-.9l.22-4.89a4.21,4.21,0,0,1,3-3.85l4.69-1.38a1.2,1.2,0,0,0,.75-1.67l-2.08-4.42a4.23,4.23,0,0,1,.88-4.82l3.52-3.4a1.22,1.22,0,0,0-.11-1.83l-3.9-3a4.22,4.22,0,0,1-1.46-4.67l1.53-4.64a1.21,1.21,0,0,0-.11-1,1.19,1.19,0,0,0-.84-.56L113,68.09a4.21,4.21,0,0,1-3.46-3.46l-.8-4.82a1.15,1.15,0,0,0-.57-.83,1.18,1.18,0,0,0-1-.12l-4.64,1.53a4.21,4.21,0,0,1-4.67-1.45l-3-3.9A1.2,1.2,0,0,0,93,54.93l-3.4,3.51a4.2,4.2,0,0,1-4.81.88l-4.43-2.08a1.22,1.22,0,0,0-1.67.76l-1.38,4.69a4.19,4.19,0,0,1-3.85,3l-4.88.22a1.2,1.2,0,0,0-1.13,1.45l1,4.79a4.19,4.19,0,0,1-2,4.46l-4.23,2.46a1.21,1.21,0,0,0-.33,1.81l3.08,3.8a4.2,4.2,0,0,1,.29,4.88l-2.59,4.14a1.21,1.21,0,0,0,.54,1.75l4.49,1.94a4.2,4.2,0,0,1,2.53,4.18l-.37,4.88a1.21,1.21,0,0,0,1.3,1.29l4.87-.37a4.22,4.22,0,0,1,4.19,2.53l1.93,4.49a1.2,1.2,0,0,0,.75.68,1.22,1.22,0,0,0,1-.13l4.15-2.6A4.18,4.18,0,0,1,90.25,111.71Z"/><polygon class="cls-2" points="97.22 96.11 97.22 69.66 91.17 69.66 82.91 73.5 84.11 78.97 90.06 76.14 90.16 76.14 90.16 96.11 84.21 96.11 84.21 100.94 103.71 100.94 103.71 96.11 97.22 96.11"/></g><circle class="cls-3" cx="80.35" cy="80.35" r="80.35"/><path class="cls-4" d="M50.24,121.7a1.47,1.47,0,0,1-.54-.1,1.5,1.5,0,0,1-1-1.32l-.55-10.58-10.58-.55a1.53,1.53,0,0,1-1.33-1,1.5,1.5,0,0,1,.34-1.6L59.5,83.71a1.51,1.51,0,0,1,2.12,0L74.18,96.27a1.52,1.52,0,0,1,0,2.12L51.3,121.26A1.47,1.47,0,0,1,50.24,121.7Zm-9.11-15.37,8.57.44a1.51,1.51,0,0,1,1.42,1.42l.44,8.57L71,97.33,60.56,86.9Z"/><path class="cls-4" d="M110.45,121.7a1.49,1.49,0,0,1-1.06-.44L86.52,98.39a1.5,1.5,0,0,1,0-2.12L99.07,83.71a1.51,1.51,0,0,1,2.12,0l22.88,22.88a1.5,1.5,0,0,1,.34,1.6,1.53,1.53,0,0,1-1.33,1l-10.58.55L112,120.28a1.5,1.5,0,0,1-1,1.32A1.47,1.47,0,0,1,110.45,121.7ZM89.7,97.33l19.43,19.43.45-8.57a1.5,1.5,0,0,1,1.42-1.42l8.56-.44L100.13,86.9Z"/><path class="cls-3" d="M102.2,54.61l4.82.81a2.7,2.7,0,0,1,2.13,3.51l-1.53,4.65a2.7,2.7,0,0,0,.93,3l3.9,3a2.7,2.7,0,0,1,.25,4.1L109.19,77a2.72,2.72,0,0,0-.57,3.1l2.08,4.42A2.71,2.71,0,0,1,109,88.31l-4.69,1.38a2.71,2.71,0,0,0-1.94,2.48l-.22,4.88a2.7,2.7,0,0,1-3.23,2.54l-4.8-1a2.7,2.7,0,0,0-2.87,1.29l-2.46,4.23a2.71,2.71,0,0,1-4,.74L81,101.81a2.72,2.72,0,0,0-3.15-.19l-4.14,2.6A2.7,2.7,0,0,1,69.75,103l-1.94-4.49a2.7,2.7,0,0,0-2.69-1.63l-4.88.37a2.71,2.71,0,0,1-2.91-2.91l.38-4.87a2.72,2.72,0,0,0-1.63-2.7l-4.49-1.93a2.7,2.7,0,0,1-1.22-3.93L53,76.77a2.69,2.69,0,0,0-.19-3.14l-3.07-3.8a2.7,2.7,0,0,1,.74-4l4.22-2.47A2.7,2.7,0,0,0,56,60.45l-1-4.79a2.72,2.72,0,0,1,2.54-3.24l4.88-.21a2.72,2.72,0,0,0,2.48-2l1.38-4.69A2.71,2.71,0,0,1,70,43.89L74.45,46a2.69,2.69,0,0,0,3.09-.56l3.4-3.52a2.72,2.72,0,0,1,4.11.25L88,46A2.72,2.72,0,0,0,91,47l4.64-1.53a2.71,2.71,0,0,1,3.52,2.12l.8,4.83A2.71,2.71,0,0,0,102.2,54.61Z"/><path class="cls-4" d="M86.46,107a4.17,4.17,0,0,1-2.65-.94L80,103a1.2,1.2,0,0,0-1.4-.09l-4.14,2.6a4.21,4.21,0,0,1-6.1-1.9L66.43,99.1a1.21,1.21,0,0,0-1.2-.73l-4.87.38a4.21,4.21,0,0,1-4.52-4.52l.37-4.88a1.21,1.21,0,0,0-.72-1.2L51,86.22a4.23,4.23,0,0,1-2.36-2.62,4.19,4.19,0,0,1,.46-3.48L51.69,76a1.22,1.22,0,0,0-.08-1.41l-3.08-3.8a4.2,4.2,0,0,1,1.15-6.28L53.91,62a1.22,1.22,0,0,0,.57-1.28l-1-4.8a4.22,4.22,0,0,1,3.94-5l4.89-.21a1.21,1.21,0,0,0,1.1-.87l1.38-4.69a4.21,4.21,0,0,1,5.83-2.62l4.42,2.08a1.22,1.22,0,0,0,1.39-.26l3.4-3.51a4.2,4.2,0,0,1,6.37.39l3,3.89a1.2,1.2,0,0,0,1.34.42L95.18,44a4.22,4.22,0,0,1,3.5.4,4.17,4.17,0,0,1,2,2.91l.8,4.82a1.21,1.21,0,0,0,1,1h0l4.83.81a4.19,4.19,0,0,1,3.3,5.46L109,64.05a1.21,1.21,0,0,0,.42,1.34l3.9,3a4.2,4.2,0,0,1,.38,6.38l-3.51,3.4A1.2,1.2,0,0,0,110,79.5l2.08,4.43a4.22,4.22,0,0,1-2.63,5.82l-4.69,1.38a1.21,1.21,0,0,0-.86,1.11l-.22,4.88a4.2,4.2,0,0,1-5,3.94l-4.79-1a1.2,1.2,0,0,0-1.28.58L90.1,104.9a4.18,4.18,0,0,1-2.88,2A3.91,3.91,0,0,1,86.46,107Zm-7.21-7.28a4.17,4.17,0,0,1,2.65.94l3.8,3.07a1.2,1.2,0,0,0,1.8-.33L90,99.17a4.2,4.2,0,0,1,4.46-2l4.79,1a1.24,1.24,0,0,0,1-.23,1.22,1.22,0,0,0,.46-.9l.22-4.89a4.21,4.21,0,0,1,3-3.85l4.69-1.38a1.2,1.2,0,0,0,.75-1.67l-2.08-4.42a4.23,4.23,0,0,1,.88-4.82l3.52-3.4a1.22,1.22,0,0,0-.11-1.83l-3.9-3a4.22,4.22,0,0,1-1.46-4.67l1.53-4.64a1.21,1.21,0,0,0-.11-1,1.19,1.19,0,0,0-.84-.56L102,56.09a4.21,4.21,0,0,1-3.46-3.46l-.8-4.82a1.15,1.15,0,0,0-.57-.83,1.17,1.17,0,0,0-1-.12l-4.64,1.53a4.21,4.21,0,0,1-4.67-1.45l-3-3.9A1.2,1.2,0,0,0,82,42.93l-3.4,3.51a4.2,4.2,0,0,1-4.81.88l-4.43-2.08a1.22,1.22,0,0,0-1.67.76l-1.38,4.69a4.19,4.19,0,0,1-3.85,3l-4.88.22a1.2,1.2,0,0,0-1.13,1.45l1,4.79a4.19,4.19,0,0,1-2,4.46l-4.23,2.46a1.21,1.21,0,0,0-.33,1.81l3.08,3.8a4.2,4.2,0,0,1,.29,4.88l-2.59,4.14a1.21,1.21,0,0,0,.54,1.75l4.49,1.94a4.2,4.2,0,0,1,2.53,4.18l-.37,4.88a1.15,1.15,0,0,0,.35.94,1.13,1.13,0,0,0,1,.35L65,95.38a4.23,4.23,0,0,1,4.19,2.53l1.93,4.49a1.2,1.2,0,0,0,.75.68,1.22,1.22,0,0,0,1-.13l4.15-2.6A4.18,4.18,0,0,1,79.25,99.71Z"/><polygon class="cls-4" points="86.22 84.11 86.22 57.66 80.17 57.66 71.91 61.49 73.11 66.97 79.06 64.14 79.16 64.14 79.16 84.11 73.21 84.11 73.21 88.94 92.71 88.94 92.71 84.11 86.22 84.11"/></g></svg>