<svg xmlns="http://www.w3.org/2000/svg" viewBox="0 0 849.04 140.08"><defs><style>.cls-1{opacity:0.6;}.cls-2{fill:#e3a877;}.cls-3{fill:#04542e;}.cls-4{fill:#fff;}</style></defs><g id="_2" data-name="2"><g class="cls-1"><rect class="cls-2" x="11.13" y="12" width="837.91" height="128.08" rx="23.93"/><path class="cls-2" d="M115.22,42.23h15.37q8,0,11.17,3.72t2.06,11.46l-.57,4.06q-1.44,10.27-8.62,13l0,.19a6.65,6.65,0,0,1,4.68,4.62,22.24,22.24,0,0,1,.24,9.33l-1.63,11.6a43.78,43.78,0,0,0-.45,4.57,10.32,10.32,0,0,0,.46,3.44H127.34a14.16,14.16,0,0,1-.32-3,45,45,0,0,1,.52-5.1l1.7-12.06q.63-4.53-.58-6.32c-.8-1.2-2.4-1.79-4.79-1.79h-3.58l-4,28.28H105.94Zm10.17,28.29a7,7,0,0,0,4.89-1.61q1.77-1.59,2.31-5.37l.71-5.09q.51-3.59-.54-5.19c-.7-1.07-2-1.6-3.78-1.6h-4.72l-2.65,18.86Z"/><path class="cls-2" d="M153.22,42.23H181.5l-1.32,9.43H162.26L159.81,69.1h14.24l-1.33,9.43H158.49L155.64,98.8h17.91l-1.32,9.43H143.94Z"/><path class="cls-2" d="M181.84,104.89q-3.36-4.29-2.23-12.31l4.88-34.7q1.13-8,5.69-12.3t12.1-4.29q7.54,0,10.9,4.29t2.24,12.3l-.8,5.66h-9.81l.89-6.32q.92-6.49-4.46-6.5T195,57.22l-5.07,36.12q-.9,6.41,4.47,6.41t6.28-6.41l1.81-12.92h-5.18L198.58,71h15l-3,21.59q-1.12,8-5.69,12.31t-12.11,4.29Q185.2,109.18,181.84,104.89Z"/><path class="cls-2" d="M224.31,42.23h10.37l-9.27,66H215Z"/><path class="cls-2" d="M235.68,104.89q-3.26-4.29-2.14-12.31l.53-3.77h9.81l-.64,4.53q-.9,6.41,4.48,6.41a5.74,5.74,0,0,0,4.22-1.56,8.61,8.61,0,0,0,2.08-5,13,13,0,0,0-.86-7.31,28.2,28.2,0,0,0-5.91-7.59Q241.64,72.6,239.73,68a19.42,19.42,0,0,1-1.09-10.33q1.1-7.81,5.66-12.11t12.11-4.29q7.44,0,10.66,4.29t2.09,12.3l-.39,2.74H259l.48-3.4c.31-2.26.11-3.91-.63-4.95a4.14,4.14,0,0,0-3.64-1.55q-5.19,0-6.08,6.31a11.57,11.57,0,0,0,1,6.7,30.16,30.16,0,0,0,6,7.54q5.7,5.66,7.51,10.28a21.43,21.43,0,0,1,.93,10.84q-1.14,8.11-5.76,12.45t-12.25,4.34Q238.95,109.18,235.68,104.89Z"/><path class="cls-2" d="M284.27,51.66H273.43l1.32-9.43h32.06l-1.32,9.43H294.64l-7.95,56.57H276.32Z"/><path class="cls-2" d="M311.81,42.23h15.37q8,0,11.17,3.72t2.06,11.46l-.56,4.06q-1.46,10.27-8.62,13l0,.19a6.65,6.65,0,0,1,4.68,4.62,22.24,22.24,0,0,1,.24,9.33l-1.63,11.6c-.26,1.88-.41,3.41-.45,4.57a10.32,10.32,0,0,0,.46,3.44H323.94a13.58,13.58,0,0,1-.33-3,45,45,0,0,1,.52-5.1l1.7-12.06q.63-4.53-.57-6.32c-.81-1.2-2.41-1.79-4.8-1.79h-3.58l-4,28.28H302.53ZM322,70.52a7,7,0,0,0,4.89-1.61q1.78-1.59,2.31-5.37l.72-5.09q.5-3.59-.55-5.19c-.7-1.07-2-1.6-3.78-1.6h-4.71l-2.65,18.86Z"/><path class="cls-2" d="M357.82,42.23h14.05l1.48,66H363l0-13.1,0,.19H351.12l-3.7,12.91H337.8Zm5.12,44.13,0-32.63h-.19L353.6,86.36Z"/><path class="cls-2" d="M390.07,51.66H379.22l1.33-9.43h32.06l-1.33,9.43H400.44l-7.95,56.57H382.11Z"/><path class="cls-2" d="M417.6,42.23H428l-9.28,66H408.33Z"/><path class="cls-2" d="M430.21,104.84q-3.45-4.34-2.34-12.26l4.88-34.7q1.11-7.92,5.78-12.26t12.3-4.33q7.64,0,11.08,4.33t2.34,12.26l-4.88,34.7q-1.11,7.92-5.78,12.26t-12.3,4.34Q433.66,109.18,430.21,104.84Zm18.69-11.6,5.07-36q.91-6.49-4.46-6.5t-6.29,6.5l-5.07,36q-.91,6.51,4.46,6.51T448.9,93.24Z"/><path class="cls-2" d="M473.42,42.23h13L491,81.74h.19l5.55-39.51H506l-9.27,66H486l-5.67-48.18h-.19l-6.77,48.18h-9.24Z"/><path class="cls-2" d="M528.77,42.23h10.37L535.36,69.1h11.13l3.78-26.87h10.37l-9.28,66H541l4.18-29.7H534l-4.18,29.7H519.49Z"/><path class="cls-2" d="M568.37,42.23h28.29l-1.33,9.43H577.42L575,69.1H589.2l-1.32,9.43H573.64L570.79,98.8h17.92l-1.33,9.43H559.1Z"/><path class="cls-2" d="M602.6,42.23H618q8,0,11.17,3.72t2.06,11.46l-.57,4.06q-1.44,10.27-8.61,13l0,.19a6.65,6.65,0,0,1,4.68,4.62,22.24,22.24,0,0,1,.24,9.33l-1.63,11.6a43.78,43.78,0,0,0-.45,4.57,10.32,10.32,0,0,0,.46,3.44H614.73a13.58,13.58,0,0,1-.33-3,45,45,0,0,1,.52-5.1l1.7-12.06q.63-4.53-.58-6.32c-.8-1.2-2.4-1.79-4.79-1.79h-3.58l-4,28.28H593.32Zm10.17,28.29a7,7,0,0,0,4.89-1.61q1.79-1.59,2.31-5.37l.71-5.09q.51-3.59-.54-5.19c-.7-1.07-2-1.6-3.78-1.6h-4.72L609,70.52Z"/><path class="cls-2" d="M640.6,42.23h28.28l-1.32,9.43H649.64L647.19,69.1h14.24l-1.33,9.43H645.87L643,98.8h17.91l-1.32,9.43H631.32Z"/><path class="cls-2" d="M696.29,109.16A3.5,3.5,0,0,1,694,103l29.71-25.74-28.84-25A3.5,3.5,0,1,1,699.45,47l31.9,27.63a3.5,3.5,0,0,1,0,5.29L698.58,108.3A3.51,3.51,0,0,1,696.29,109.16Z"/><path class="cls-2" d="M731.19,109.16A3.5,3.5,0,0,1,728.9,103l29.71-25.74-28.84-25A3.5,3.5,0,1,1,734.35,47l31.9,27.63a3.5,3.5,0,0,1,0,5.29L733.48,108.3A3.49,3.49,0,0,1,731.19,109.16Z"/></g><rect class="cls-3" x="0.13" width="837.91" height="128.08" rx="23.93"/><path class="cls-4" d="M104.22,30.23h15.37q8,0,11.17,3.72t2.06,11.46l-.57,4.06q-1.44,10.28-8.62,13l0,.19a6.65,6.65,0,0,1,4.68,4.62,22.24,22.24,0,0,1,.24,9.33l-1.63,11.6a43.78,43.78,0,0,0-.45,4.57,10.32,10.32,0,0,0,.46,3.44H116.34a14.16,14.16,0,0,1-.32-3,45,45,0,0,1,.52-5.1l1.7-12.06q.63-4.53-.58-6.32c-.8-1.2-2.4-1.79-4.79-1.79h-3.58l-4,28.28H94.94Zm10.17,28.29a7,7,0,0,0,4.89-1.61q1.77-1.59,2.31-5.37l.71-5.09q.51-3.59-.54-5.19c-.7-1.07-2-1.6-3.78-1.6h-4.72l-2.65,18.86Z"/><path class="cls-4" d="M142.22,30.23H170.5l-1.32,9.43H151.26L148.81,57.1h14.24l-1.33,9.43H147.49L144.64,86.8h17.91l-1.32,9.43H132.94Z"/><path class="cls-4" d="M170.84,92.89q-3.36-4.29-2.23-12.31l4.88-34.7q1.13-8,5.69-12.3t12.1-4.29q7.54,0,10.9,4.29t2.24,12.3l-.8,5.66h-9.81l.89-6.32q.92-6.49-4.46-6.5T184,45.22l-5.07,36.12q-.9,6.41,4.47,6.41t6.28-6.41l1.81-12.92h-5.18L187.58,59h15l-3,21.59q-1.12,8-5.69,12.31t-12.11,4.29Q174.2,97.18,170.84,92.89Z"/><path class="cls-4" d="M213.31,30.23h10.37l-9.27,66H204Z"/><path class="cls-4" d="M224.68,92.89q-3.26-4.29-2.14-12.31l.53-3.77h9.81l-.64,4.53q-.9,6.41,4.48,6.41a5.74,5.74,0,0,0,4.22-1.56,8.61,8.61,0,0,0,2.08-5,13,13,0,0,0-.86-7.31,28.2,28.2,0,0,0-5.91-7.59Q230.64,60.6,228.73,56a19.42,19.42,0,0,1-1.09-10.33q1.1-7.81,5.66-12.11t12.11-4.29q7.44,0,10.66,4.29t2.09,12.3l-.39,2.74H248l.48-3.4c.31-2.26.11-3.91-.63-4.95a4.14,4.14,0,0,0-3.64-1.55q-5.19,0-6.08,6.31a11.57,11.57,0,0,0,1,6.7,30.16,30.16,0,0,0,6,7.54q5.7,5.65,7.51,10.28a21.43,21.43,0,0,1,.93,10.84q-1.14,8.11-5.76,12.45t-12.25,4.34Q227.95,97.18,224.68,92.89Z"/><path class="cls-4" d="M273.27,39.66H262.43l1.32-9.43h32.06l-1.32,9.43H283.64l-7.95,56.57H265.32Z"/><path class="cls-4" d="M300.81,30.23h15.37q8,0,11.17,3.72t2.06,11.46l-.56,4.06q-1.46,10.28-8.62,13l0,.19a6.65,6.65,0,0,1,4.68,4.62,22.24,22.24,0,0,1,.24,9.33l-1.63,11.6c-.26,1.88-.41,3.41-.45,4.57a10.32,10.32,0,0,0,.46,3.44H312.94a13.58,13.58,0,0,1-.33-3,45,45,0,0,1,.52-5.1l1.7-12.06q.63-4.53-.57-6.32c-.81-1.2-2.41-1.79-4.8-1.79h-3.58l-4,28.28H291.53ZM311,58.52a7,7,0,0,0,4.89-1.61q1.78-1.59,2.31-5.37l.72-5.09q.5-3.59-.55-5.19c-.7-1.07-2-1.6-3.78-1.6h-4.71l-2.65,18.86Z"/><path class="cls-4" d="M346.82,30.23h14.05l1.48,66H352l0-13.1,0,.19H340.12l-3.7,12.91H326.8Zm5.12,44.13,0-32.63h-.19L342.6,74.36Z"/><path class="cls-4" d="M379.07,39.66H368.22l1.33-9.43h32.06l-1.33,9.43H389.44l-7.95,56.57H371.11Z"/><path class="cls-4" d="M406.6,30.23H417l-9.28,66H397.33Z"/><path class="cls-4" d="M419.21,92.84q-3.45-4.34-2.34-12.26l4.88-34.7q1.11-7.92,5.78-12.26t12.3-4.33q7.64,0,11.08,4.33t2.34,12.26l-4.88,34.7q-1.11,7.92-5.78,12.26t-12.3,4.34Q422.66,97.18,419.21,92.84Zm18.69-11.6,5.07-36q.91-6.49-4.46-6.5t-6.29,6.5l-5.07,36q-.91,6.51,4.46,6.51T437.9,81.24Z"/><path class="cls-4" d="M462.42,30.23h13L480,69.74h.19l5.55-39.51H495l-9.27,66H475l-5.67-48.18h-.19l-6.77,48.18h-9.24Z"/><path class="cls-4" d="M517.77,30.23h10.37L524.36,57.1h11.13l3.78-26.87h10.37l-9.28,66H530l4.18-29.7H523l-4.18,29.7H508.49Z"/><path class="cls-4" d="M557.37,30.23h28.29l-1.33,9.43H566.42L564,57.1H578.2l-1.32,9.43H562.64L559.79,86.8h17.92l-1.33,9.43H548.1Z"/><path class="cls-4" d="M591.6,30.23H607q8,0,11.17,3.72t2.06,11.46l-.57,4.06q-1.44,10.28-8.61,13l0,.19a6.65,6.65,0,0,1,4.68,4.62,22.24,22.24,0,0,1,.24,9.33l-1.63,11.6a43.78,43.78,0,0,0-.45,4.57,10.32,10.32,0,0,0,.46,3.44H603.73a13.58,13.58,0,0,1-.33-3,45,45,0,0,1,.52-5.1l1.7-12.06q.63-4.53-.58-6.32c-.8-1.2-2.4-1.79-4.79-1.79h-3.58l-4,28.28H582.32Zm10.17,28.29a7,7,0,0,0,4.89-1.61q1.79-1.59,2.31-5.37l.71-5.09q.51-3.59-.54-5.19c-.7-1.07-2-1.6-3.78-1.6h-4.72L598,58.52Z"/><path class="cls-4" d="M629.6,30.23h28.28l-1.32,9.43H638.64L636.19,57.1h14.24l-1.33,9.43H634.87L632,86.8h17.91l-1.32,9.43H620.32Z"/><path class="cls-4" d="M685.29,97.16A3.5,3.5,0,0,1,683,91l29.71-25.74-28.84-25A3.5,3.5,0,1,1,688.45,35l31.9,27.63a3.5,3.5,0,0,1,0,5.29L687.58,96.3A3.51,3.51,0,0,1,685.29,97.16Z"/><path class="cls-4" d="M720.19,97.16A3.5,3.5,0,0,1,717.9,91l29.71-25.74-28.84-25A3.5,3.5,0,1,1,723.35,35l31.9,27.63a3.5,3.5,0,0,1,0,5.29L722.48,96.3A3.49,3.49,0,0,1,720.19,97.16Z"/></g></svg>