<svg xmlns="http://www.w3.org/2000/svg" viewBox="0 0 171.69 172.69"><defs><style>.cls-1{opacity:0.6;}.cls-2{fill:#e5aa77;}.cls-3{fill:#f3ead6;}.cls-4{fill:#04542e;}</style></defs><g id="_2" data-name="2"><g class="cls-1"><circle class="cls-2" cx="91.35" cy="92.35" r="80.35"/><path class="cls-2" d="M112.26,128.93H51.43a1.5,1.5,0,0,1-1.5-1.5V58a1.5,1.5,0,0,1,1.5-1.5h60.83a1.5,1.5,0,0,1,1.5,1.5v69.4A1.5,1.5,0,0,1,112.26,128.93Zm-59.33-3h57.83V59.53H52.93Z"/><path class="cls-2" d="M101.39,81.77H62.3a1.5,1.5,0,0,1,0-3h39.09a1.5,1.5,0,0,1,0,3Z"/><path class="cls-2" d="M101.39,97.63H62.3a1.5,1.5,0,0,1,0-3h39.09a1.5,1.5,0,0,1,0,3Z"/><path class="cls-2" d="M101.39,112.86H62.3a1.5,1.5,0,0,1,0-3h39.09a1.5,1.5,0,0,1,0,3Z"/><rect class="cls-2" x="103.59" y="79.84" width="21.31" height="13.48" transform="translate(-27.76 106.14) rotate(-45)"/><path class="cls-2" d="M111.48,100.38h0a1.5,1.5,0,0,1-1.06-.44l-9.54-9.53a1.51,1.51,0,0,1,0-2.12L116,73.22a1.55,1.55,0,0,1,2.12,0l9.53,9.54a1.5,1.5,0,0,1,0,2.12L112.54,99.94A1.52,1.52,0,0,1,111.48,100.38Zm-7.41-11,7.41,7.41,12.94-12.94L117,76.41Z"/><path class="cls-2" d="M129.42,80.94l-9.53-9.53,11.2-11.2a5.46,5.46,0,0,1,7.73,0l1.8,1.8a5.46,5.46,0,0,1,0,7.73Z"/><path class="cls-2" d="M129.42,82.44a1.51,1.51,0,0,1-1.06-.44l-9.53-9.53a1.49,1.49,0,0,1,0-2.12L130,59.15a7,7,0,0,1,9.85,0l1.8,1.8a7,7,0,0,1,0,9.85L130.48,82A1.49,1.49,0,0,1,129.42,82.44Zm-7.41-11,7.41,7.41,10.14-10.14a4,4,0,0,0,0-5.61l-1.8-1.8a4,4,0,0,0-5.61,0Z"/><rect class="cls-2" x="121.14" y="70.79" width="4.32" height="13.48" transform="translate(-18.7 109.89) rotate(-45)"/><path class="cls-2" d="M126.54,85.32a1.52,1.52,0,0,1-1.06-.44L116,75.35a1.51,1.51,0,0,1,0-2.13l3-3a1.51,1.51,0,0,1,2.12,0l9.53,9.54a1.49,1.49,0,0,1,0,2.12l-3.05,3A1.5,1.5,0,0,1,126.54,85.32Zm-7.41-11,7.41,7.42.93-.93-7.41-7.42Z"/><line class="cls-2" x1="127.98" y1="57.26" x2="118.18" y2="67.06"/><path class="cls-2" d="M118.18,68.56a1.51,1.51,0,0,1-1.06-.44,1.49,1.49,0,0,1,0-2.12l9.8-9.8A1.5,1.5,0,0,1,129,58.32l-9.8,9.8A1.51,1.51,0,0,1,118.18,68.56Z"/><polygon class="cls-2" points="101.39 99.44 101.67 89.63 111.2 99.16 101.39 99.44"/><path class="cls-2" d="M101.39,100.94a1.5,1.5,0,0,1-1.06-.44,1.47,1.47,0,0,1-.44-1.1l.28-9.81a1.47,1.47,0,0,1,.94-1.35,1.5,1.5,0,0,1,1.62.33l9.53,9.53a1.52,1.52,0,0,1,.33,1.62,1.49,1.49,0,0,1-1.35.94l-9.81.28Zm1.68-7.79-.14,4.75,4.75-.14Z"/></g><circle class="cls-3" cx="80.35" cy="80.35" r="80.35"/><path class="cls-4" d="M101.26,116.93H40.43a1.5,1.5,0,0,1-1.5-1.5V46a1.5,1.5,0,0,1,1.5-1.5h60.83a1.5,1.5,0,0,1,1.5,1.5v69.4A1.5,1.5,0,0,1,101.26,116.93Zm-59.33-3H99.76V47.53H41.93Z"/><path class="cls-4" d="M90.39,69.77H51.3a1.5,1.5,0,0,1,0-3H90.39a1.5,1.5,0,0,1,0,3Z"/><path class="cls-4" d="M90.39,85.63H51.3a1.5,1.5,0,0,1,0-3H90.39a1.5,1.5,0,0,1,0,3Z"/><path class="cls-4" d="M90.39,100.86H51.3a1.5,1.5,0,0,1,0-3H90.39a1.5,1.5,0,0,1,0,3Z"/><rect class="cls-3" x="92.59" y="67.84" width="21.31" height="13.48" transform="translate(-22.5 94.85) rotate(-45)"/><path class="cls-4" d="M100.48,88.38h0a1.5,1.5,0,0,1-1.06-.44l-9.54-9.53a1.51,1.51,0,0,1,0-2.12L105,61.22a1.55,1.55,0,0,1,2.12,0l9.53,9.54a1.5,1.5,0,0,1,0,2.12L101.54,87.94A1.52,1.52,0,0,1,100.48,88.38Zm-7.41-11,7.41,7.41,12.94-12.94L106,64.41Z"/><path class="cls-3" d="M118.42,68.94l-9.53-9.53,11.2-11.2a5.46,5.46,0,0,1,7.73,0l1.8,1.8a5.46,5.46,0,0,1,0,7.73Z"/><path class="cls-4" d="M118.42,70.44a1.51,1.51,0,0,1-1.06-.44l-9.53-9.53a1.49,1.49,0,0,1,0-2.12L119,47.15a7,7,0,0,1,9.85,0l1.8,1.8a7,7,0,0,1,0,9.85L119.48,70A1.49,1.49,0,0,1,118.42,70.44Zm-7.41-11,7.41,7.41,10.14-10.14a4,4,0,0,0,0-5.61l-1.8-1.8a4,4,0,0,0-5.61,0Z"/><rect class="cls-3" x="110.14" y="58.79" width="4.32" height="13.48" transform="translate(-13.44 98.6) rotate(-45)"/><path class="cls-4" d="M115.54,73.32a1.52,1.52,0,0,1-1.06-.44L105,63.35a1.51,1.51,0,0,1,0-2.13l3-3a1.51,1.51,0,0,1,2.12,0l9.53,9.54a1.49,1.49,0,0,1,0,2.12l-3.05,3A1.5,1.5,0,0,1,115.54,73.32Zm-7.41-11,7.41,7.42.93-.93-7.41-7.42Z"/><line class="cls-3" x1="116.98" y1="45.26" x2="107.18" y2="55.06"/><path class="cls-4" d="M107.18,56.56a1.51,1.51,0,0,1-1.06-.44,1.49,1.49,0,0,1,0-2.12l9.8-9.8A1.5,1.5,0,0,1,118,46.32l-9.8,9.8A1.51,1.51,0,0,1,107.18,56.56Z"/><polygon class="cls-3" points="90.39 87.44 90.67 77.63 100.2 87.16 90.39 87.44"/><path class="cls-4" d="M90.39,88.94a1.5,1.5,0,0,1-1.06-.44,1.47,1.47,0,0,1-.44-1.1l.28-9.81a1.47,1.47,0,0,1,.94-1.35,1.52,1.52,0,0,1,1.62.33l9.53,9.53a1.52,1.52,0,0,1,.33,1.62,1.49,1.49,0,0,1-1.35.94l-9.81.28Zm1.68-7.79-.14,4.75,4.75-.14Z"/></g></svg>