<svg xmlns="http://www.w3.org/2000/svg" viewBox="0 0 171.69 172.69"><defs><style>.cls-1{opacity:0.6;}.cls-2{fill:#e5aa77;}.cls-3{fill:#f3ead6;}.cls-4{fill:#04542e;}</style></defs><g id="_2" data-name="2"><g class="cls-1"><circle class="cls-2" cx="91.35" cy="92.35" r="80.35"/><path class="cls-2" d="M126.69,135H56.94a7.71,7.71,0,0,1-7.71-7.7V67.24a7.71,7.71,0,0,1,7.71-7.7h69.75a7.7,7.7,0,0,1,7.7,7.7v60.09A7.7,7.7,0,0,1,126.69,135ZM56.94,62.54a4.71,4.71,0,0,0-4.71,4.7v60.09a4.71,4.71,0,0,0,4.71,4.7h69.75a4.71,4.71,0,0,0,4.7-4.7V67.24a4.71,4.71,0,0,0-4.7-4.7Z"/><rect class="cls-2" x="63.84" y="47.98" width="9.23" height="24.28" rx="4.61"/><path class="cls-2" d="M68.46,73.75a6.12,6.12,0,0,1-6.12-6.11v-15a6.12,6.12,0,0,1,12.23,0v15A6.12,6.12,0,0,1,68.46,73.75Zm0-24.27a3.12,3.12,0,0,0-3.12,3.11v15a3.12,3.12,0,0,0,6.23,0v-15A3.11,3.11,0,0,0,68.46,49.48Z"/><rect class="cls-2" x="110.88" y="47.98" width="9.23" height="24.28" rx="4.61"/><path class="cls-2" d="M115.5,73.75a6.12,6.12,0,0,1-6.12-6.11v-15a6.12,6.12,0,0,1,12.23,0v15A6.12,6.12,0,0,1,115.5,73.75Zm0-24.27a3.12,3.12,0,0,0-3.12,3.11v15a3.12,3.12,0,0,0,6.23,0v-15A3.11,3.11,0,0,0,115.5,49.48Z"/><path class="cls-2" d="M117.33,127.1h-51a9.4,9.4,0,0,1-9.39-9.39V83.35a1.5,1.5,0,0,1,1.5-1.5h66.81a1.5,1.5,0,0,1,1.5,1.5v34.36A9.4,9.4,0,0,1,117.33,127.1ZM59.91,84.85v32.86a6.4,6.4,0,0,0,6.39,6.39h51a6.4,6.4,0,0,0,6.39-6.39V84.85Z"/><rect class="cls-2" x="65.06" y="90.26" width="15.33" height="12.36" rx="2.2"/><rect class="cls-2" x="65.06" y="106.28" width="15.33" height="12.36" rx="2.2"/><rect class="cls-2" x="83.91" y="90.26" width="15.33" height="12.36" rx="2.2"/><rect class="cls-2" x="83.91" y="106.28" width="15.33" height="12.36" rx="2.2"/><rect class="cls-2" x="103.23" y="90.26" width="15.33" height="12.36" rx="2.2"/><rect class="cls-2" x="103.23" y="106.28" width="15.33" height="12.36" rx="2.2"/></g><circle class="cls-3" cx="80.35" cy="80.35" r="80.35"/><path class="cls-4" d="M115.69,123H45.94a7.71,7.71,0,0,1-7.71-7.7V55.24a7.71,7.71,0,0,1,7.71-7.7h69.75a7.7,7.7,0,0,1,7.7,7.7v60.09A7.7,7.7,0,0,1,115.69,123ZM45.94,50.54a4.71,4.71,0,0,0-4.71,4.7v60.09a4.71,4.71,0,0,0,4.71,4.7h69.75a4.71,4.71,0,0,0,4.7-4.7V55.24a4.71,4.71,0,0,0-4.7-4.7Z"/><rect class="cls-3" x="52.84" y="35.98" width="9.23" height="24.28" rx="4.61"/><path class="cls-4" d="M57.46,61.75a6.12,6.12,0,0,1-6.12-6.11v-15a6.12,6.12,0,0,1,12.23,0v15A6.12,6.12,0,0,1,57.46,61.75Zm0-24.27a3.12,3.12,0,0,0-3.12,3.11v15a3.12,3.12,0,0,0,6.23,0v-15A3.11,3.11,0,0,0,57.46,37.48Z"/><rect class="cls-3" x="99.88" y="35.98" width="9.23" height="24.28" rx="4.61"/><path class="cls-4" d="M104.5,61.75a6.12,6.12,0,0,1-6.12-6.11v-15a6.12,6.12,0,0,1,12.23,0v15A6.12,6.12,0,0,1,104.5,61.75Zm0-24.27a3.12,3.12,0,0,0-3.12,3.11v15a3.12,3.12,0,0,0,6.23,0v-15A3.11,3.11,0,0,0,104.5,37.48Z"/><path class="cls-4" d="M106.33,115.1h-51a9.4,9.4,0,0,1-9.39-9.39V71.35a1.5,1.5,0,0,1,1.5-1.5h66.81a1.5,1.5,0,0,1,1.5,1.5v34.36A9.4,9.4,0,0,1,106.33,115.1ZM48.91,72.85v32.86a6.4,6.4,0,0,0,6.39,6.39h51a6.4,6.4,0,0,0,6.39-6.39V72.85Z"/><rect class="cls-4" x="54.06" y="78.26" width="15.33" height="12.36" rx="2.2"/><rect class="cls-4" x="54.06" y="94.28" width="15.33" height="12.36" rx="2.2"/><rect class="cls-4" x="72.91" y="78.26" width="15.33" height="12.36" rx="2.2"/><rect class="cls-4" x="72.91" y="94.28" width="15.33" height="12.36" rx="2.2"/><rect class="cls-4" x="92.23" y="78.26" width="15.33" height="12.36" rx="2.2"/><rect class="cls-4" x="92.23" y="94.28" width="15.33" height="12.36" rx="2.2"/></g></svg>