<svg xmlns="http://www.w3.org/2000/svg" viewBox="0 0 171.69 172.69"><defs><style>.cls-1{opacity:0.6;}.cls-2{fill:#e5aa77;}.cls-3{fill:#04542e;}.cls-4{fill:#f3ead6;}</style></defs><g id="_2" data-name="2"><g class="cls-1"><circle class="cls-2" cx="91.35" cy="92.35" r="80.35"/><path class="cls-2" d="M91.35,113.43a1.51,1.51,0,0,1-1.15-.53L64.67,82.48A1.5,1.5,0,0,1,65.82,80h13V70.27a1.5,1.5,0,0,1,1.5-1.5h22.07a1.5,1.5,0,0,1,1.5,1.5V80h13A1.5,1.5,0,0,1,118,82.48L92.5,112.9A1.54,1.54,0,0,1,91.35,113.43ZM69,83,91.35,109.6,113.65,83H102.38a1.5,1.5,0,0,1-1.5-1.5V71.77H81.81v9.75a1.5,1.5,0,0,1-1.5,1.5Z"/><path class="cls-2" d="M102.38,67.41H80.31a1.5,1.5,0,0,1-1.5-1.5V58.14a1.5,1.5,0,0,1,1.5-1.5h22.07a1.5,1.5,0,0,1,1.5,1.5v7.77A1.5,1.5,0,0,1,102.38,67.41Zm-20.57-3h19.07V59.64H81.81Z"/><path class="cls-2" d="M124.47,128.07H58.22a1.5,1.5,0,0,1-1.5-1.5v-19.2a1.5,1.5,0,0,1,1.5-1.5h8.86a1.5,1.5,0,0,1,1.5,1.5v8.46h45.53v-8.46a1.5,1.5,0,0,1,1.5-1.5h8.86a1.5,1.5,0,0,1,1.5,1.5v19.2A1.5,1.5,0,0,1,124.47,128.07Zm-64.75-3H123v-16.2h-5.86v8.46a1.5,1.5,0,0,1-1.5,1.5H67.08a1.5,1.5,0,0,1-1.5-1.5v-8.46H59.72Z"/></g><circle class="cls-3" cx="80.35" cy="80.35" r="80.35"/><path class="cls-4" d="M80.35,101.43a1.51,1.51,0,0,1-1.15-.53L53.67,70.48A1.5,1.5,0,0,1,54.82,68h13V58.27a1.5,1.5,0,0,1,1.5-1.5H91.38a1.5,1.5,0,0,1,1.5,1.5V68h13A1.5,1.5,0,0,1,107,70.48L81.5,100.9A1.54,1.54,0,0,1,80.35,101.43ZM58,71,80.35,97.6,102.65,71H91.38a1.5,1.5,0,0,1-1.5-1.5V59.77H70.81v9.75a1.5,1.5,0,0,1-1.5,1.5Z"/><path class="cls-4" d="M91.38,55.41H69.31a1.5,1.5,0,0,1-1.5-1.5V46.14a1.5,1.5,0,0,1,1.5-1.5H91.38a1.5,1.5,0,0,1,1.5,1.5v7.77A1.5,1.5,0,0,1,91.38,55.41Zm-20.57-3H89.88V47.64H70.81Z"/><path class="cls-4" d="M113.47,116.07H47.22a1.5,1.5,0,0,1-1.5-1.5V95.37a1.5,1.5,0,0,1,1.5-1.5h8.86a1.5,1.5,0,0,1,1.5,1.5v8.46h45.53V95.37a1.5,1.5,0,0,1,1.5-1.5h8.86a1.5,1.5,0,0,1,1.5,1.5v19.2A1.5,1.5,0,0,1,113.47,116.07Zm-64.75-3H112V96.87h-5.86v8.46a1.5,1.5,0,0,1-1.5,1.5H56.08a1.5,1.5,0,0,1-1.5-1.5V96.87H48.72Z"/></g></svg>