<svg id="_7" data-name="7" xmlns="http://www.w3.org/2000/svg" viewBox="0 0 70.45 70.45"><defs><style>.cls-1{fill:#fff;}.cls-2{fill:#04542e;}</style></defs><circle class="cls-1" cx="35.22" cy="35.22" r="35.22"/><path class="cls-2" d="M42.64,19.53c.18.26.46.12.69.13,2.64.12,5.27.22,7.89.54,3.54.44,5.34,2.13,5.87,5.66a69.2,69.2,0,0,1,.47,13.87,41.63,41.63,0,0,1-.6,5.46,5.75,5.75,0,0,1-5.37,5,137.5,137.5,0,0,1-14.77.68q-7.58.09-15.14-.41a27.66,27.66,0,0,1-3.4-.4,5.62,5.62,0,0,1-4.69-4.53,42.75,42.75,0,0,1-.7-5.87c0-.21.12-.46-.14-.62V31.37c.26-.16.13-.42.14-.62.14-1.74.26-3.47.55-5.19a5.9,5.9,0,0,1,5.61-5.36c2.58-.33,5.16-.41,7.74-.54.22,0,.51.13.69-.14Zm-11.83,9V41.92l11.64-6.69Z"/></svg>